<svg fill="none" height="48" viewBox="0 0 186 48" width="186" xmlns="http://www.w3.org/2000/svg" xmlns:xlink="http://www.w3.org/1999/xlink">
<mask id="a" fill="#fff">
<path clip-rule="evenodd" d="m145.773 38-5.773 10-5.773-10h-130.227c-2.20914 0-4-1.7909-4-4v-30c0-2.20914 1.79086-4 4-4h178c2.209 0 4 1.79086 4 4v30c0 2.2091-1.791 4-4 4z" fill="#fff" fill-rule="evenodd"/>
</mask>
<path clip-rule="evenodd" d="m145.773 38-5.773 10-5.773-10h-130.227c-2.20914 0-4-1.7909-4-4v-30c0-2.20914 1.79086-4 4-4h178c2.209 0 4 1.79086 4 4v30c0 2.2091-1.791 4-4 4z" fill="#fff" fill-rule="evenodd"/>
<path d="m140 48 .866.5c-.179.3094-.509.5-.866.5s-.687-.1906-.866-.5zm5.773-10-.866-.5c.179-.3094.509-.5.866-.5zm-11.546 0v-1c.357 0 .687.1906.866.5zm4.907 9.5 5.773-10 1.733 1-5.774 10zm-4.041-10 5.773 10-1.732 1-5.774-10zm-131.093-.5h130.227v2h-130.227zm-3-3c0 1.6569 1.34315 3 3 3v2c-2.76142 0-5-2.2386-5-5zm0-30v30h-2v-30zm3-3c-1.65686 0-3 1.34314-3 3h-2c0-2.76143 2.23857-5 5-5zm178 0h-178v-2h178zm3 3c0-1.65685-1.343-3-3-3v-2c2.761 0 5 2.23858 5 5zm0 30v-30h2v30zm-3 3c1.657 0 3-1.3431 3-3h2c0 2.7614-2.239 5-5 5zm-36.227 0h36.227v2h-36.227z" fill="#3b75ff" mask="url(#a)"/>
</svg>