<svg width="189" height="47" viewBox="0 0 189 47" fill="none" xmlns="http://www.w3.org/2000/svg">
<path d="M10.46 11.14V12.36H14.1V14.2H15.74V0.54H14.1V11.14H10.46ZM6.8 2.48C8.5 2.48 9.66 3.24 9.66 4.38C9.66 5.54 8.5 6.3 6.8 6.3C5.1 6.3 3.94 5.54 3.94 4.38C3.94 3.24 5.1 2.48 6.8 2.48ZM6.8 7.52C9.42 7.52 11.22 6.3 11.22 4.38C11.22 2.5 9.42 1.26 6.8 1.26C4.18 1.26 2.38 2.5 2.38 4.38C2.38 6.3 4.18 7.52 6.8 7.52ZM6.16 13.56H7.8V10.02C9.42 9.92 11.08 9.74 12.66 9.5L12.52 8.32C8.72 8.8 4.28 8.84 0.96 8.84L1.18 10.2C2.66 10.2 4.38 10.18 6.16 10.1V13.56ZM5.16 16.74V12.86H3.52V18.08H16.2V16.74H5.16ZM24.7184 13.12C23.0984 13.12 21.9184 11.96 21.9184 10.36C21.9184 8.74 23.0984 7.58 24.7184 7.58C26.3584 7.58 27.5384 8.74 27.5384 10.36C27.5384 11.96 26.3584 13.12 24.7184 13.12ZM24.7184 6.22C22.1984 6.22 20.3784 7.94 20.3784 10.36C20.3784 12.8 22.1984 14.48 24.7184 14.48C27.2784 14.48 29.0984 12.8 29.0984 10.36C29.0984 7.94 27.2784 6.22 24.7184 6.22ZM25.5184 0.759999H23.8784V3.42H19.3584V4.74H29.9384V3.42H25.5184V0.759999ZM36.2184 7.92H33.2784V0.559999H31.6384V18.48H33.2784V9.3H36.2184V7.92ZM52.2369 5.94H41.6769V1.2H40.0369V7.28H52.2369V5.94ZM41.5569 12.8H39.9169V18.04H52.3369V16.7H41.5569V12.8ZM37.8369 9.68V11H54.0969V9.68H37.8369ZM70.6506 6.26V7.6H74.5706V13.86H76.2306V0.559999H74.5706V6.26H70.6506ZM62.7306 1.98V3.32H68.9906C68.9306 4.06 68.7906 4.76 68.5506 5.42L61.8106 5.72L62.1106 7.06L67.9506 6.62C66.8706 8.34 64.9306 9.76 61.9106 10.72L62.5906 12.04C68.3506 10.12 70.6906 6.64 70.6906 1.98H62.7306ZM66.5906 16.74V12.54H64.9506V18.08H76.7506V16.74H66.5906ZM89.9091 10.4H91.4491V0.859999H89.9091V4.28H87.1091V5.64H89.9091V10.4ZM88.6891 8.62C86.4491 7.7 85.1491 5.66 85.1491 3.64V1.46H83.5691V3.66C83.5691 5.66 82.1891 7.98 79.8691 9L80.7491 10.26C82.4691 9.48 83.7291 8 84.3491 6.32C84.9891 7.86 86.1691 9.18 87.8091 9.88L88.6891 8.62ZM93.3691 16.92H84.8491V14.64H93.3691V16.92ZM93.3691 13.34H84.8491V11.26H83.2091V18.24H94.9891V11.26H93.3691V13.34ZM93.4091 0.559999V10.52H94.9891V0.559999H93.4091ZM104.068 1.86C101.288 1.86 99.2675 3.56 99.2675 6.08C99.2675 8.58 101.288 10.3 104.068 10.3C106.868 10.3 108.868 8.58 108.868 6.08C108.868 3.56 106.868 1.86 104.068 1.86ZM104.068 3.26C105.928 3.26 107.268 4.4 107.268 6.08C107.268 7.74 105.928 8.9 104.068 8.9C102.228 8.9 100.868 7.74 100.868 6.08C100.868 4.4 102.228 3.26 104.068 3.26ZM111.228 0.54V18.52H112.868V0.54H111.228ZM98.5675 14.58C101.808 14.58 106.148 14.54 110.188 13.8L110.048 12.58C106.128 13.18 101.628 13.2 98.3675 13.2L98.5675 14.58ZM16.52 37.56C13.38 36.96 9.98 34.24 9.98 31.18V29.8H8.26V31.18C8.26 34.24 4.88 36.94 1.74 37.56L2.48 38.92C5.18 38.28 7.98 36.36 9.12 33.74C10.26 36.38 13.06 38.3 15.78 38.92L16.52 37.56ZM1.06 42.72V44.08H17.32V42.72H1.06ZM33.8984 36.2H23.2384V34.02H33.2584V32.74H23.2384V30.7H33.6784V29.38H21.6184V37.52H33.8984V36.2ZM35.6984 39.36H19.4384V40.7H23.6784V46.46H25.3184V40.7H29.8384V46.46H31.4784V40.7H35.6984V39.36ZM40.6369 31.62H47.4969V30.24H39.0169V42.06H40.4569C44.0769 42.06 46.4169 41.94 49.1769 41.44L48.9969 40.06C46.3569 40.56 44.0969 40.66 40.6369 40.66V31.62ZM50.8969 28.54V46.52H52.5369V28.54H50.8969ZM59.4153 34.42C59.4153 32.36 61.5153 31.02 64.3753 31.02C67.2353 31.02 69.3153 32.36 69.3153 34.42C69.3153 36.48 67.2353 37.82 64.3753 37.82C61.5153 37.82 59.4153 36.48 59.4153 34.42ZM65.1953 42.82V39.08C68.5353 38.84 70.8753 37.06 70.8753 34.42C70.8753 31.56 68.1553 29.72 64.3753 29.72C60.5753 29.72 57.8353 31.56 57.8353 34.42C57.8353 37.06 60.1953 38.84 63.5353 39.08V42.82H56.2353V44.18H72.5353V42.82H65.1953ZM87.2138 31.68H76.7338V35.52H89.1538V34.34H78.3538V32.8H88.8338V29.06H76.6938V30.22H87.2138V31.68ZM78.2538 43.4H88.8938V39.58H76.5938V40.76H87.2738V42.26H76.6338V46.24H89.4538V45.06H78.2538V43.4ZM74.6538 36.88V38.12H90.9138V36.88H74.6538ZM108.748 37.14C106.108 36.38 104.368 34.42 104.368 32.26V31.96H108.328V30.64H104.368V28.46H102.728V30.64H98.7475V31.96H102.728V32.26C102.728 34.62 100.908 36.66 98.2475 37.46L99.0475 38.76C101.148 38.08 102.788 36.66 103.568 34.8C104.368 36.48 105.928 37.8 107.968 38.4L108.748 37.14ZM112.468 41.24V39.92H100.728V41.24H105.728C105.468 43.12 102.928 44.7 100.048 45.14L100.628 46.4C103.268 45.96 105.588 44.7 106.588 42.9C107.608 44.68 109.948 45.98 112.548 46.42L113.168 45.16C110.288 44.7 107.747 43.08 107.448 41.24H112.468ZM112.168 32.98V28.56H110.528V38.96H112.168V34.34H114.828V32.98H112.168ZM121.426 40.98C119.686 40.98 118.466 39.1 118.466 36.18C118.466 33.28 119.686 31.4 121.426 31.4C123.146 31.4 124.366 33.28 124.366 36.18C124.366 39.1 123.146 40.98 121.426 40.98ZM121.426 29.92C118.786 29.92 116.906 32.36 116.906 36.18C116.906 40 118.786 42.44 121.426 42.44C124.066 42.44 125.926 40 125.926 36.18C125.926 32.36 124.066 29.92 121.426 29.92ZM133.406 35.7H130.446V28.56H128.806V46.48H130.446V37.08H133.406V35.7ZM138.584 34.36H147.744V37.66H138.584V34.36ZM143.984 42.84V38.98H149.344V29.82H147.744V33.02H138.584V29.82H136.964V38.98H142.324V42.84H135.044V44.18H151.304V42.84H143.984ZM158.763 30.24H157.183V33.66C157.183 36.74 155.703 39.96 153.243 41.4L154.263 42.62C156.043 41.52 157.343 39.5 157.983 37.12C158.623 39.3 159.823 41.2 161.523 42.24L162.463 40.96C160.103 39.52 158.763 36.48 158.763 33.6V30.24ZM163.483 34.98H160.523V36.34H163.483V45.6H165.023V28.94H163.483V34.98ZM167.123 28.54V46.48H168.683V28.54H167.123ZM177.461 38.6C178.201 38.78 179.061 38.88 179.941 38.88C180.841 38.88 181.701 38.78 182.461 38.6V42.82H177.461V38.6ZM179.941 30.96C182.821 30.96 184.901 32.28 184.901 34.28C184.901 36.28 182.821 37.6 179.941 37.6C177.061 37.6 175.001 36.28 175.001 34.28C175.001 32.28 177.061 30.96 179.941 30.96ZM184.101 42.82V37.96C185.581 37.18 186.461 35.9 186.461 34.28C186.461 31.48 183.761 29.68 179.941 29.68C176.141 29.68 173.421 31.48 173.421 34.28C173.421 35.9 174.321 37.2 175.821 37.98V42.82H171.821V44.18H188.121V42.82H184.101Z" fill="black"/>
</svg>
