<svg width="153" height="52" viewBox="0 0 153 52" fill="none" xmlns="http://www.w3.org/2000/svg">
<path d="M12.892 2.764H8.36V0.607999H5.434V2.764H0.946V5.03H12.87L12.892 2.764ZM4.708 9.65C4.708 8.55 5.61 7.956 6.908 7.956C8.184 7.956 9.108 8.55 9.108 9.65C9.108 10.772 8.184 11.366 6.908 11.366C5.61 11.366 4.708 10.772 4.708 9.65ZM11.88 9.65C11.88 7.362 9.812 5.756 6.908 5.756C4.004 5.756 1.936 7.362 1.936 9.65C1.936 11.982 4.004 13.566 6.908 13.566C9.812 13.566 11.88 11.982 11.88 9.65ZM6.732 14.666H3.828V20.54H17.622V18.23H6.732V14.666ZM16.896 6.812V0.629999H13.992V15.788H16.896V9.21H19.58V6.812H16.896ZM43.2231 6.086H32.1571V1.18H29.2531V8.374H43.2231V6.086ZM31.9591 14.446H29.0551V20.54H43.3551V18.252H31.9591V14.446ZM26.9211 10.134V12.444H34.8631V15.986H37.7671V12.444H45.2691V10.134H26.9211ZM51.6914 14.05C50.5914 14.05 49.9314 12.532 49.9314 9.408C49.9314 6.306 50.5914 4.788 51.6914 4.788C52.8134 4.788 53.4514 6.306 53.4514 9.408C53.4514 12.532 52.8134 14.05 51.6914 14.05ZM57.6534 8.088H56.0474C55.7174 4.304 54.0894 2.06 51.6914 2.06C49.0074 2.06 47.3134 4.832 47.3134 9.408C47.3134 14.006 49.0074 16.778 51.6914 16.778C54.1554 16.778 55.8054 14.402 56.0694 10.442H57.6534V19.99H60.3594V0.959999H57.6534V8.088ZM61.7674 0.607999V20.87H64.5174V0.607999H61.7674ZM84.8605 2.126H80.5705V0.453999H77.6665V2.126H73.3545V4.194H84.8605V2.126ZM76.9185 7.692C76.9185 6.944 77.7545 6.57 79.1185 6.57C80.4825 6.57 81.2965 6.944 81.2965 7.692C81.2965 8.44 80.4825 8.836 79.1185 8.836C77.7545 8.836 76.9185 8.44 76.9185 7.692ZM85.3665 11.278C83.8265 11.454 82.2205 11.586 80.5705 11.652V10.618C82.7265 10.288 84.0465 9.232 84.0465 7.692C84.0465 5.844 82.1105 4.7 79.1185 4.7C76.1265 4.7 74.1685 5.844 74.1685 7.692C74.1685 9.232 75.5105 10.288 77.6665 10.618V11.762C75.9505 11.806 74.3005 11.806 72.8485 11.806L73.1565 14.028C76.7205 14.028 81.3405 13.984 85.5865 13.236L85.3665 11.278ZM75.4225 17.482H86.2465V20.914H89.1505V15.238H75.4225V17.482ZM91.7025 6.438H89.1505V0.629999H86.2465V14.446H89.1505V8.814H91.7025V6.438ZM110.159 0.651999H107.233V15.194H110.159V0.651999ZM96.4528 7.076C96.4528 5.404 97.6408 4.436 99.1368 4.436C100.655 4.436 101.799 5.404 101.799 7.076C101.799 8.704 100.655 9.694 99.1368 9.694C97.6408 9.694 96.4528 8.704 96.4528 7.076ZM104.637 7.076C104.637 4.084 102.239 1.928 99.1368 1.928C96.0348 1.928 93.6148 4.084 93.6148 7.076C93.6148 10.024 96.0348 12.202 99.1368 12.202C102.239 12.202 104.637 10.024 104.637 7.076ZM99.5768 18.23V13.764H96.6728V20.54H110.665V18.23H99.5768ZM119.419 14.38C118.055 14.38 117.043 13.456 117.043 11.916C117.043 10.376 118.055 9.43 119.419 9.43C120.783 9.43 121.773 10.376 121.773 11.894C121.773 13.456 120.783 14.38 119.419 14.38ZM119.419 7.076C116.471 7.076 114.271 9.078 114.271 11.894C114.271 14.754 116.471 16.756 119.419 16.756C122.345 16.756 124.523 14.754 124.523 11.894C124.523 9.078 122.345 7.076 119.419 7.076ZM120.849 0.981999H117.945V3.622H113.457V5.932H125.249V3.622H120.849V0.981999ZM132.377 8.55H129.473V0.629999H126.569V20.892H129.473V10.948H132.377V8.55ZM149.579 14.006C150.393 9.694 150.393 6.834 150.393 4.304V2.368H135.675V4.678H147.489C147.489 7.032 147.445 9.848 146.675 13.676L149.579 14.006ZM143.199 16.118V9.144H140.295V16.118H133.827V18.45H152.153V16.118H143.199ZM14.828 31.608V51.936H17.732V31.608H14.828ZM1.936 33.236V47.206H11.924V33.236H9.042V38.142H4.818V33.236H1.936ZM4.818 40.408H9.042V44.896H4.818V40.408ZM37.1783 44.698C37.8603 40.606 37.8603 37.812 37.8603 35.326V33.368H22.9663V35.678H34.9563C34.9563 38.01 34.9343 40.738 34.2743 44.412L37.1783 44.698ZM32.8883 47.118V40.716H30.0503V47.118H27.8943V40.716H25.0343V47.118H21.1843V49.45H39.5323V47.118H32.8883ZM46.2846 45.116C45.1846 45.116 44.3926 44.236 44.3926 42.718C44.3926 41.2 45.1846 40.298 46.2846 40.298C47.3846 40.298 48.1766 41.2 48.1766 42.718C48.1766 44.236 47.3846 45.116 46.2846 45.116ZM46.2846 37.878C43.6886 37.878 41.8406 39.88 41.8406 42.718C41.8406 45.534 43.6886 47.536 46.2846 47.536C48.8806 47.536 50.7286 45.534 50.7286 42.718C50.7286 39.88 48.8806 37.878 46.2846 37.878ZM47.7146 32.18H44.8546V34.688H41.4006V36.998H51.0806V34.688H47.7146V32.18ZM56.0526 31.608V39.88H54.5126V32.004H51.8066V51.034H54.5126V42.212H56.0526V51.87H58.8026V31.608H56.0526ZM66.4788 38.318H75.1468V41.156H66.4788V38.318ZM72.2648 47.184V43.466H78.0068V32.884H75.1468V36.03H66.4788V32.884H63.5968V43.466H69.3608V47.184H61.6608V49.538H80.0088V47.184H72.2648ZM88.3671 33.39H85.5731V36.8C85.5731 40.254 84.4951 43.884 81.5251 45.688L83.2631 47.866C85.0891 46.766 86.2771 44.83 86.9811 42.586C87.6191 44.632 88.6971 46.348 90.4131 47.404L91.9971 45.16C89.2471 43.334 88.3671 39.968 88.3671 36.69V33.39ZM92.4151 38.472H89.8631V40.826H92.4151V50.99H95.1211V31.96H92.4151V38.472ZM96.5291 31.63V51.892H99.2791V31.63H96.5291ZM109.067 43.312C109.771 43.444 110.497 43.51 111.289 43.51C112.081 43.51 112.829 43.444 113.533 43.312V47.184H109.067V43.312ZM111.289 34.908C114.105 34.908 115.997 36.052 115.997 38.076C115.997 40.078 114.105 41.244 111.289 41.244C108.473 41.244 106.603 40.078 106.603 38.076C106.603 36.052 108.473 34.908 111.289 34.908ZM116.415 47.184V42.234C117.933 41.288 118.857 39.836 118.857 38.076C118.857 34.754 115.667 32.62 111.289 32.62C106.933 32.62 103.743 34.754 103.743 38.076C103.721 39.836 104.645 41.288 106.185 42.234V47.184H102.137V49.538H120.485V47.184H116.415ZM125.566 45.094H123.454L122.904 34.292H126.116L125.566 45.094ZM122.816 48.592C122.816 47.976 122.977 47.5433 123.3 47.294C123.622 47.03 124.026 46.898 124.51 46.898C124.95 46.898 125.338 47.03 125.676 47.294C126.013 47.5433 126.182 47.976 126.182 48.592C126.182 49.1933 126.013 49.626 125.676 49.89C125.338 50.154 124.95 50.286 124.51 50.286C124.026 50.286 123.622 50.154 123.3 49.89C122.977 49.626 122.816 49.1933 122.816 48.592Z" fill="black"/>
</svg>
