<svg width="113" height="14" viewBox="0 0 113 14" fill="none" xmlns="http://www.w3.org/2000/svg">
<path d="M11.564 6.792C9.366 6.372 6.986 4.468 6.986 2.326V1.36H5.782V2.326C5.782 4.468 3.416 6.358 1.218 6.792L1.736 7.744C3.626 7.296 5.586 5.952 6.384 4.118C7.182 5.966 9.142 7.31 11.046 7.744L11.564 6.792ZM0.742 10.404V11.356H12.124V10.404H0.742ZM23.7289 5.84H16.2669V4.314H23.2809V3.418H16.2669V1.99H23.5749V1.066H15.1329V6.764H23.7289V5.84ZM24.9889 8.052H13.6069V8.99H16.5749V13.022H17.7229V8.99H20.8869V13.022H22.0349V8.99H24.9889V8.052ZM28.4458 2.634H33.2478V1.668H27.3118V9.942H28.3198C30.8538 9.942 32.4918 9.858 34.4238 9.508L34.2978 8.542C32.4498 8.892 30.8678 8.962 28.4458 8.962V2.634ZM35.6278 0.478V13.064H36.7758V0.478H35.6278ZM41.5907 4.594C41.5907 3.152 43.0607 2.214 45.0627 2.214C47.0647 2.214 48.5207 3.152 48.5207 4.594C48.5207 6.036 47.0647 6.974 45.0627 6.974C43.0607 6.974 41.5907 6.036 41.5907 4.594ZM45.6367 10.474V7.856C47.9747 7.688 49.6127 6.442 49.6127 4.594C49.6127 2.592 47.7087 1.304 45.0627 1.304C42.4027 1.304 40.4847 2.592 40.4847 4.594C40.4847 6.442 42.1367 7.688 44.4747 7.856V10.474H39.3647V11.426H50.7747V10.474H45.6367ZM63.2443 6.498C61.3963 5.966 60.1783 4.594 60.1783 3.082V2.872H62.9503V1.948H60.1783V0.422H59.0303V1.948H56.2443V2.872H59.0303V3.082C59.0303 4.734 57.7563 6.162 55.8943 6.722L56.4543 7.632C57.9243 7.156 59.0723 6.162 59.6183 4.86C60.1783 6.036 61.2703 6.96 62.6983 7.38L63.2443 6.498ZM65.8483 9.368V8.444H57.6303V9.368H61.1303C60.9483 10.684 59.1703 11.79 57.1543 12.098L57.5603 12.98C59.4083 12.672 61.0323 11.79 61.7323 10.53C62.4463 11.776 64.0843 12.686 65.9043 12.994L66.3383 12.112C64.3223 11.79 62.5443 10.656 62.3343 9.368H65.8483ZM65.6383 3.586V0.492H64.4903V7.772H65.6383V4.538H67.5003V3.586H65.6383ZM74.4433 1.262C71.8393 1.262 69.8792 2.648 69.8792 4.734C69.8792 6.834 71.8393 8.206 74.4433 8.206C77.0473 8.206 79.0073 6.834 79.0073 4.734C79.0073 2.648 77.0473 1.262 74.4433 1.262ZM74.4433 2.2C76.4313 2.2 77.9153 3.222 77.9153 4.734C77.9153 6.26 76.4313 7.268 74.4433 7.268C72.4693 7.268 70.9713 6.26 70.9713 4.734C70.9713 3.222 72.4693 2.2 74.4433 2.2ZM68.7593 10.418V11.37H80.1693V10.418H68.7593ZM85.3762 1.668H84.2702V4.062C84.2702 6.218 83.2342 8.472 81.5122 9.48L82.2262 10.334C83.4722 9.564 84.3822 8.15 84.8302 6.484C85.2782 8.01 86.1182 9.34 87.3082 10.068L87.9662 9.172C86.3142 8.164 85.3762 6.036 85.3762 4.02V1.668ZM88.6802 4.986H86.6082V5.938H88.6802V12.42H89.7582V0.758H88.6802V4.986ZM91.2282 0.478V13.036H92.3202V0.478H91.2282ZM98.4651 7.52C98.9831 7.646 99.5851 7.716 100.201 7.716C100.831 7.716 101.433 7.646 101.965 7.52V10.474H98.4651V7.52ZM100.201 2.172C102.217 2.172 103.673 3.096 103.673 4.496C103.673 5.896 102.217 6.82 100.201 6.82C98.1851 6.82 96.7431 5.896 96.7431 4.496C96.7431 3.096 98.1851 2.172 100.201 2.172ZM103.113 10.474V7.072C104.149 6.526 104.765 5.63 104.765 4.496C104.765 2.536 102.875 1.276 100.201 1.276C97.5411 1.276 95.6371 2.536 95.6371 4.496C95.6371 5.63 96.2671 6.54 97.3171 7.086V10.474H94.5171V11.426H105.927V10.474H103.113ZM108.614 8.626C108.614 8.11267 108.698 7.69267 108.866 7.366C109.043 7.03 109.361 6.67533 109.818 6.302C110.154 6.03133 110.42 5.80267 110.616 5.616C110.812 5.42 110.947 5.22867 111.022 5.042C111.106 4.85533 111.148 4.63133 111.148 4.37C111.148 3.96867 111.013 3.66067 110.742 3.446C110.481 3.23133 110.098 3.124 109.594 3.124C109.155 3.124 108.754 3.18467 108.39 3.306C108.026 3.418 107.671 3.558 107.326 3.726L106.794 2.606C107.195 2.39133 107.634 2.214 108.11 2.074C108.586 1.934 109.113 1.864 109.692 1.864C110.607 1.864 111.311 2.088 111.806 2.536C112.31 2.984 112.562 3.58133 112.562 4.328C112.562 4.72933 112.497 5.07933 112.366 5.378C112.235 5.66733 112.044 5.93333 111.792 6.176C111.549 6.41867 111.26 6.68 110.924 6.96C110.616 7.20267 110.383 7.41267 110.224 7.59C110.075 7.76733 109.972 7.94467 109.916 8.122C109.86 8.29933 109.832 8.50933 109.832 8.752V9.032H108.614V8.626ZM108.32 11.174C108.32 10.81 108.409 10.5533 108.586 10.404C108.773 10.2547 109.006 10.18 109.286 10.18C109.538 10.18 109.757 10.2547 109.944 10.404C110.14 10.5533 110.238 10.81 110.238 11.174C110.238 11.538 110.14 11.7993 109.944 11.958C109.757 12.1167 109.538 12.196 109.286 12.196C109.006 12.196 108.773 12.1167 108.586 11.958C108.409 11.7993 108.32 11.538 108.32 11.174Z" fill="#595959"/>
</svg>
