<svg fill="none" height="119" viewBox="0 0 137 119" width="137" xmlns="http://www.w3.org/2000/svg"><path d="m30.3298 42.0088h-18.7973c-.9767 0-1.91352.3886-2.6042 1.0803s-1.07869 1.6299-1.07869 2.6082c0 .9782.38801 1.9164 1.07869 2.6082.69068.6917 1.6275 1.0803 2.6042 1.0803h18.7973c.9768 0 1.9135-.3886 2.6042-1.0803.6906-.6918 1.0787-1.63 1.0787-2.6082 0-.9783-.3881-1.9165-1.0787-2.6082-.6907-.6917-1.6274-1.0803-2.6042-1.0803z" fill="#e1ebff"/><path d="m58.002 21.3149h-50.23758c-2.05926 0-4.03416.8193-5.49027 2.2776-1.456112 1.4584-2.27415 3.4362-2.27415 5.4986s.818038 4.0403 2.27415 5.4986c1.45611 1.4583 3.43101 2.2776 5.49027 2.2776h50.23758c2.0593 0 4.0342-.8193 5.4903-2.2776s2.2741-3.4362 2.2741-5.4986-.818-4.0402-2.2741-5.4986c-1.4561-1.4583-3.431-2.2776-5.4903-2.2776z" fill="#e1ebff"/><path d="m131.133 52.7026h-38.408c-1.5218.079-2.9554.7402-4.0047 1.847s-1.6344 2.5747-1.6344 4.1009.5851 2.9943 1.6344 4.101c1.0493 1.1068 2.4829 1.768 4.0047 1.847h38.408c1.522-.079 2.955-.7402 4.004-1.847 1.05-1.1067 1.635-2.5748 1.635-4.101s-.585-2.9941-1.635-4.1009c-1.049-1.1068-2.482-1.768-4.004-1.847z" fill="#e1ebff"/><path d="m119.414 21.5018c-2.248-10.6823-10.586-19.46445-21.364-21.157003-6.5933-1.077928-13.3479.42695-18.8632 4.202533-5.5153 3.77559-9.3682 9.53217-10.7596 16.07617-1.3842-6.5479-5.2354-12.30931-10.7526-16.0862-5.5172-3.776903-12.2758-5.278539-18.8701-4.192503-10.7618 1.692553-19.1321 10.474703-21.3482 21.157003-1.1939 7.4365-.0809 15.0607 3.1886 21.8436 8.9124 18.5542 47.8302 47.679 47.8302 47.679s38.9659-29.1248 47.8299-47.679c3.232-6.7947 4.316-14.4152 3.109-21.8436z" fill="#a7c1ff"/><path d="m93.6487 87.5278h-50.4289c-.3183.0063-.6322.0753-.9238.203-.2917.1278-.5553.3118-.7759.5416s-.3939.501-.5099.7979c-.1159.2969-.1723.6137-.166.9325v25.5482c-.0128.645.2298 1.269.6749 1.736s1.0565.738 1.7007.755h50.4289c.3196-.006.6349-.076.9276-.205.2927-.128.5571-.314.7779-.545.2208-.232.3937-.505.5087-.804.115-.298.1698-.617.1614-.937v-25.5482c.0084-.3193-.0465-.6371-.1617-.9349-.1152-.2979-.2883-.5698-.5093-.8001-.2211-.2302-.4856-.4142-.7782-.5413-.2926-.127-.6075-.1946-.9264-.1987z" fill="#e1ebff"/><path d="m100.536 87.5273h-64.204l7.2065-16.9575c.1881-.4137.4929-.7634.8768-1.0059.3815-.2438.8231-.3764 1.2755-.3832h45.4705c.4531.0024.8959.1354 1.2755.3832.3878.238.6938.589.8769 1.0059z" fill="#a7c1ff"/><path d="m85.9976 100.86h-10.9054c-.3144 0-.6161.124-.8399.345-.2238.222-.3516.522-.3558.837v14.77c.0041.316.1314.619.3548.842.2233.224.5251.351.8409.356h10.9054c.3158-.005.6176-.132.8409-.356.2234-.223.3507-.526.3548-.842v-14.77c-.0042-.315-.132-.615-.3558-.837-.2238-.221-.5255-.345-.8399-.345z" fill="#a7c1ff"/><path d="m64.1225 96.8047h-14.2375c-.3144.0042-.6144.1323-.8352.3564s-.3446.5263-.3446.8412v9.7557c-.0021.157.0268.312.0852.457.0583.146.1449.278.2546.389.1098.112.2406.2.3848.261.1442.06.2989.091.4552.091h14.2375c.3171 0 .6212-.126.8454-.351.2243-.224.3503-.529.3503-.847v-9.7557c-.0041-.3164-.1314-.6186-.3548-.8423-.2233-.2237-.5251-.3512-.8409-.3553z" fill="#fff"/><g fill="#a7c1ff"><path d="m45.6111 87.5278c-.0023.5973-.1248 1.1881-.3604 1.7368-.2356.5488-.5794 1.0442-1.0107 1.4567-.8748.8525-2.0479 1.3282-3.2684 1.3254-1.2238-.0047-2.3992-.4791-3.2844-1.3254-.4262-.4155-.7656-.9119-.9983-1.4602s-.354-1.1375-.3569-1.7333z"/><path d="m54.6366 87.5278c-.018 1.2009-.5044 2.3471-1.3552 3.1935-.4134.4289-.9088.7699-1.4566 1.0029-.5479.2329-1.1369.353-1.7321.353s-1.1842-.1201-1.7321-.353c-.5478-.233-1.0432-.574-1.4566-1.0029-.8508-.8464-1.3372-1.9926-1.3552-3.1935z"/><path d="m63.9138 87.5278c-.0272 1.2085-.5317 2.357-1.403 3.1935-.8643.8485-2.0263 1.3237-3.2365 1.3237s-2.3722-.4752-3.2365-1.3237c-.8713-.8365-1.3758-1.985-1.403-3.1935z"/><path d="m72.922 87.5278c-.0305 1.2014-.5215 2.3449-1.3711 3.1935-.4134.4289-.9088.7699-1.4566 1.0029-.5479.2329-1.1369.353-1.7321.353-.5951 0-1.1842-.1201-1.732-.353-.5479-.233-1.0433-.574-1.4566-1.0029-.8452-.8502-1.3306-1.994-1.3552-3.1935z"/><path d="m82.2182 87.5278c.0007.5963-.119 1.1867-.3518 1.7355-.2329.5488-.5742 1.0447-1.0034 1.458-.887.8353-2.0588 1.3004-3.2764 1.3004-1.2175 0-2.3893-.4651-3.2763-1.3004-.4292-.4133-.7705-.9092-1.0033-1.458-.2329-.5488-.3526-1.1392-.3519-1.7355z"/><path d="m91.2579 87.5278c-.0246 1.1995-.51 2.3433-1.3551 3.1935-.4134.4289-.9088.7699-1.4566 1.0029-.5479.2329-1.137.353-1.7321.353-.5952 0-1.1843-.1201-1.7321-.353-.5478-.233-1.0432-.574-1.4566-1.0029-.8496-.8486-1.3406-1.9921-1.3711-3.1935z"/><path d="m100.537 87.5278c-.027 1.2085-.532 2.357-1.4032 3.1935-.8643.8485-2.0262 1.3237-3.2365 1.3237-1.2102 0-2.3722-.4752-3.2365-1.3237-.8712-.8365-1.3758-1.985-1.403-3.1935z"/></g></svg>