<svg width="221" height="154" viewBox="0 0 221 154" fill="none" xmlns="http://www.w3.org/2000/svg">
<path d="M22.864 114.488H15.792V111.56H22.864V114.488ZM24.16 110.504H14.512V115.544H24.16V110.504ZM15.792 119.768H14.48V123.864H24.4V122.792H15.792V119.768ZM12.816 117.176V118.232H18.784V121.128H20.096V118.232H25.856V117.176H12.816ZM32.2228 110.888C29.9988 110.888 28.3828 112.248 28.3828 114.264C28.3828 116.264 29.9988 117.64 32.2228 117.64C34.4628 117.64 36.0628 116.264 36.0628 114.264C36.0628 112.248 34.4628 110.888 32.2228 110.888ZM32.2228 112.008C33.7108 112.008 34.7828 112.92 34.7828 114.264C34.7828 115.592 33.7108 116.52 32.2228 116.52C30.7348 116.52 29.6628 115.592 29.6628 114.264C29.6628 112.92 30.7348 112.008 32.2228 112.008ZM37.9508 109.832V124.216H39.2628V109.832H37.9508ZM27.8228 121.064C30.4148 121.064 33.8868 121.048 37.1188 120.44L37.0068 119.464C33.8708 119.944 30.2708 119.96 27.6628 119.96L27.8228 121.064ZM47.6418 115.688C49.9938 115.4 52.1538 114.344 52.9378 112.76C53.7378 114.344 55.8818 115.4 58.2338 115.688L58.6978 114.648C56.1858 114.36 53.8978 113.128 53.7858 111.544H58.2498V110.488H47.6418V111.544H52.0898C51.9778 113.128 49.6898 114.36 47.1778 114.648L47.6418 115.688ZM56.5058 121.64C56.5058 122.6 55.1618 123.16 52.9218 123.16C50.6658 123.16 49.3378 122.6 49.3378 121.64C49.3378 120.68 50.6658 120.136 52.9218 120.136C55.1618 120.136 56.5058 120.68 56.5058 121.64ZM59.4178 117.608V116.552H46.4418V117.608H52.2658V119.144C49.5938 119.272 48.0098 120.152 48.0098 121.64C48.0098 123.272 49.8658 124.168 52.9378 124.168C55.9938 124.168 57.8338 123.272 57.8338 121.64C57.8338 120.152 56.2658 119.272 53.5938 119.144V117.608H59.4178ZM72.9365 109.848H71.6245V120.328H72.9365V109.848ZM62.7765 114.36C62.7765 112.968 63.8325 111.976 65.2245 111.976C66.6485 111.976 67.7045 112.968 67.7045 114.36C67.7045 115.784 66.6485 116.776 65.2245 116.776C63.8325 116.776 62.7765 115.784 62.7765 114.36ZM68.9845 114.36C68.9845 112.296 67.3685 110.84 65.2245 110.84C63.0965 110.84 61.4965 112.296 61.4965 114.36C61.4965 116.44 63.0965 117.912 65.2245 117.912C67.3685 117.912 68.9845 116.44 68.9845 114.36ZM65.0165 122.792V119.256H63.7045V123.864H73.3685V122.792H65.0165ZM92.4035 117.048C89.8915 116.568 87.1715 114.392 87.1715 111.944V110.84H85.7955V111.944C85.7955 114.392 83.0915 116.552 80.5795 117.048L81.1715 118.136C83.3315 117.624 85.5715 116.088 86.4835 113.992C87.3955 116.104 89.6355 117.64 91.8115 118.136L92.4035 117.048ZM80.0355 121.176V122.264H93.0435V121.176H80.0355ZM106.306 115.96H97.7783V114.216H105.794V113.192H97.7783V111.56H106.13V110.504H96.4823V117.016H106.306V115.96ZM107.746 118.488H94.7383V119.56H98.1302V124.168H99.4423V119.56H103.058V124.168H104.37V119.56H107.746V118.488ZM111.697 112.296H117.185V111.192H110.401V120.648H111.553C114.449 120.648 116.321 120.552 118.529 120.152L118.385 119.048C116.273 119.448 114.465 119.528 111.697 119.528V112.296ZM119.905 109.832V124.216H121.217V109.832H119.905ZM126.72 114.536C126.72 112.888 128.4 111.816 130.688 111.816C132.976 111.816 134.64 112.888 134.64 114.536C134.64 116.184 132.976 117.256 130.688 117.256C128.4 117.256 126.72 116.184 126.72 114.536ZM131.344 121.256V118.264C134.016 118.072 135.888 116.648 135.888 114.536C135.888 112.248 133.712 110.776 130.688 110.776C127.648 110.776 125.456 112.248 125.456 114.536C125.456 116.648 127.344 118.072 130.016 118.264V121.256H124.176V122.344H137.216V121.256H131.344ZM139.679 111.368V112.456H144.943C144.639 115.848 142.671 118.6 139.007 120.44L139.727 121.464C144.367 119.144 146.239 115.448 146.239 111.368H139.679ZM152.255 115.656H149.951V109.832H148.639V124.184H149.951V116.744H152.255V115.656ZM163.178 122.968H160.65V121.032H163.178V122.968ZM163.178 120.056H160.65V118.248H159.418V123.992H164.394V118.248H163.178V120.056ZM161.706 115.992C160.282 115.992 159.258 115.064 159.258 113.768C159.258 112.472 160.282 111.56 161.706 111.56C163.13 111.56 164.154 112.472 164.154 113.768C164.154 115.064 163.13 115.992 161.706 115.992ZM168.282 114.28V117.432H169.61V109.848H168.282V113.208H165.354C165.082 111.56 163.642 110.472 161.706 110.472C159.562 110.472 158.01 111.8 158.01 113.768C158.01 115.736 159.562 117.08 161.706 117.08C163.674 117.08 165.114 115.96 165.354 114.28H168.282ZM168.458 118.152H167.178V119.368C167.178 120.84 166.282 122.392 164.57 123.128L165.242 124.12C166.49 123.576 167.354 122.584 167.818 121.416C168.25 122.6 169.114 123.576 170.41 124.12L171.066 123.128C169.354 122.456 168.458 120.888 168.458 119.368V118.152ZM176.344 119.784C174.968 119.784 174.008 118.28 174.008 115.944C174.008 113.624 174.968 112.12 176.344 112.12C177.704 112.12 178.664 113.624 178.664 115.944C178.664 118.28 177.704 119.784 176.344 119.784ZM183.016 109.832V115.304H179.896C179.688 112.616 178.28 110.936 176.344 110.936C174.248 110.936 172.76 112.888 172.76 115.944C172.76 119 174.248 120.952 176.344 120.952C178.344 120.952 179.768 119.192 179.896 116.376H183.016V124.216H184.328V109.832H183.016ZM191.719 117.88C192.311 118.024 192.999 118.104 193.703 118.104C194.423 118.104 195.111 118.024 195.719 117.88V121.256H191.719V117.88ZM193.703 111.768C196.007 111.768 197.671 112.824 197.671 114.424C197.671 116.024 196.007 117.08 193.703 117.08C191.399 117.08 189.751 116.024 189.751 114.424C189.751 112.824 191.399 111.768 193.703 111.768ZM197.031 121.256V117.368C198.215 116.744 198.919 115.72 198.919 114.424C198.919 112.184 196.759 110.744 193.703 110.744C190.663 110.744 188.487 112.184 188.487 114.424C188.487 115.72 189.207 116.76 190.407 117.384V121.256H187.207V122.344H200.247V121.256H197.031ZM202.246 122.136C202.246 121.741 202.342 121.464 202.534 121.304C202.726 121.144 202.955 121.064 203.222 121.064C203.488 121.064 203.723 121.144 203.926 121.304C204.128 121.464 204.23 121.741 204.23 122.136C204.23 122.52 204.128 122.797 203.926 122.968C203.723 123.139 203.488 123.224 203.222 123.224C202.955 123.224 202.726 123.139 202.534 122.968C202.342 122.797 202.246 122.52 202.246 122.136Z" fill="black"/>
<path d="M2.366 139.662H5.88V145.92H2.366V139.662ZM1.246 146.844H7V138.738H1.246V146.844ZM12.474 142.49H10.402V137.492H9.254V150.036H10.402V143.456H12.474V142.49ZM19.2909 137.758C16.5749 137.758 14.8809 138.64 14.8809 140.138C14.8809 141.622 16.5749 142.504 19.2909 142.504C22.0069 142.504 23.7009 141.622 23.7009 140.138C23.7009 138.64 22.0069 137.758 19.2909 137.758ZM19.2909 138.668C21.2789 138.668 22.5249 139.214 22.5249 140.138C22.5249 141.062 21.2789 141.608 19.2909 141.608C17.3029 141.608 16.0569 141.062 16.0569 140.138C16.0569 139.214 17.3029 138.668 19.2909 138.668ZM15.0209 145.738V149.868H23.5889V145.738H15.0209ZM22.4689 146.648V148.944H16.1409V146.648H22.4689ZM13.6209 143.582V144.506H24.9749V143.582H13.6209ZM29.3418 146.214C28.3338 146.214 27.7038 144.94 27.7038 142.882C27.7038 140.866 28.3338 139.592 29.3418 139.592C30.3218 139.592 30.9658 140.866 30.9658 142.882C30.9658 144.94 30.3218 146.214 29.3418 146.214ZM33.5838 142.364H32.0018C31.8618 139.998 30.8538 138.528 29.3418 138.528C27.7038 138.528 26.6538 140.208 26.6538 142.882C26.6538 145.598 27.7038 147.278 29.3418 147.278C30.8818 147.278 31.9038 145.766 32.0018 143.302H33.5838V149.42H34.6758V137.758H33.5838V142.364ZM36.0758 137.478V150.036H37.1678V137.478H36.0758ZM53.0814 143.498H45.5914V139.578H52.9554V138.626H44.4574V144.436H53.0814V143.498ZM43.0014 147.39V148.342H54.3974V147.39H43.0014ZM65.9603 141.258H58.5683V137.94H57.4203V142.196H65.9603V141.258ZM58.4843 146.06H57.3363V149.728H66.0303V148.79H58.4843V146.06ZM55.8803 143.876V144.8H67.2623V143.876H55.8803ZM83.232 143.792C81.034 143.372 78.654 141.468 78.654 139.326V138.36H77.45V139.326C77.45 141.468 75.084 143.358 72.886 143.792L73.404 144.744C75.294 144.296 77.254 142.952 78.052 141.118C78.85 142.966 80.81 144.31 82.714 144.744L83.232 143.792ZM72.41 147.404V148.356H83.792V147.404H72.41ZM95.3969 142.84H87.9349V141.314H94.9489V140.418H87.9349V138.99H95.2429V138.066H86.8009V143.764H95.3969V142.84ZM96.6569 145.052H85.2749V145.99H88.2429V150.022H89.3909V145.99H92.5549V150.022H93.7029V145.99H96.6569V145.052ZM100.114 139.634H104.916V138.668H98.9798V146.942H99.9878C102.522 146.942 104.16 146.858 106.092 146.508L105.966 145.542C104.118 145.892 102.536 145.962 100.114 145.962V139.634ZM107.296 137.478V150.064H108.444V137.478H107.296ZM113.259 141.594C113.259 140.152 114.729 139.214 116.731 139.214C118.733 139.214 120.189 140.152 120.189 141.594C120.189 143.036 118.733 143.974 116.731 143.974C114.729 143.974 113.259 143.036 113.259 141.594ZM117.305 147.474V144.856C119.643 144.688 121.281 143.442 121.281 141.594C121.281 139.592 119.377 138.304 116.731 138.304C114.071 138.304 112.153 139.592 112.153 141.594C112.153 143.442 113.805 144.688 116.143 144.856V147.474H111.033V148.426H122.443V147.474H117.305ZM132.718 139.676H125.382V142.364H134.076V141.538H126.516V140.46H133.852V137.842H125.354V138.654H132.718V139.676ZM126.446 147.88H133.894V145.206H125.284V146.032H132.76V147.082H125.312V149.868H134.286V149.042H126.446V147.88ZM123.926 143.316V144.184H135.308V143.316H123.926ZM145.845 144.338C145.915 143.89 145.957 143.428 145.957 142.896C145.957 142.364 145.915 141.902 145.845 141.454H147.553V144.338H145.845ZM143.269 146.214C142.275 146.214 141.631 144.94 141.631 142.896C141.631 140.866 142.275 139.592 143.269 139.592C144.277 139.592 144.907 140.866 144.907 142.896C144.907 144.94 144.277 146.214 143.269 146.214ZM147.553 140.516H145.607C145.173 139.256 144.361 138.528 143.269 138.528C141.645 138.528 140.595 140.208 140.595 142.896C140.595 145.598 141.645 147.278 143.269 147.278C144.361 147.278 145.159 146.55 145.607 145.29H147.553V149.42H148.645V137.758H147.553V140.516ZM150.017 137.478V150.036H151.109V137.478H150.017ZM154.678 141.202C154.678 140.012 155.574 139.2 156.834 139.2C158.08 139.2 158.99 140.012 158.99 141.202C158.99 142.378 158.08 143.204 156.834 143.204C155.574 143.204 154.678 142.378 154.678 141.202ZM160.11 141.202C160.11 139.438 158.724 138.234 156.834 138.234C154.93 138.234 153.558 139.438 153.558 141.202C153.558 142.952 154.93 144.17 156.834 144.17C158.724 144.17 160.11 142.952 160.11 141.202ZM154.902 146.466H161.916V150.036H163.064V145.528H154.902V146.466ZM164.898 140.348V139.396H163.064V137.492H161.916V144.94H163.064V143.022H164.898V142.084H163.064V140.348H164.898ZM169.307 146.172C168.327 146.172 167.641 145.374 167.641 144.254C167.641 143.162 168.327 142.364 169.307 142.364C170.273 142.364 170.973 143.162 170.973 144.254C170.973 145.374 170.273 146.172 169.307 146.172ZM169.307 141.398C167.753 141.398 166.619 142.574 166.619 144.254C166.619 145.962 167.753 147.124 169.307 147.124C170.861 147.124 171.995 145.962 171.995 144.254C171.995 142.574 170.861 141.398 169.307 141.398ZM169.867 137.842H168.733V139.62H166.185V140.558H172.415V139.62H169.867V137.842ZM175.733 137.464V142.77H174.123V137.758H173.045V149.42H174.123V143.708H175.733V150.022H176.839V137.464H175.733ZM181.556 141.552H187.968V143.862H181.556V141.552ZM185.336 147.488V144.786H189.088V138.374H187.968V140.614H181.556V138.374H180.422V144.786H184.174V147.488H179.078V148.426H190.46V147.488H185.336ZM195.681 138.668H194.575V141.062C194.575 143.218 193.539 145.472 191.817 146.48L192.531 147.348C193.777 146.578 194.687 145.15 195.135 143.484C195.583 145.01 196.423 146.34 197.613 147.068L198.271 146.172C196.619 145.164 195.681 143.036 195.681 141.02V138.668ZM198.985 141.986H196.913V142.938H198.985V149.42H200.063V137.758H198.985V141.986ZM201.533 137.478V150.036H202.625V137.478H201.533ZM208.77 144.52C209.288 144.646 209.89 144.716 210.506 144.716C211.136 144.716 211.738 144.646 212.27 144.52V147.474H208.77V144.52ZM210.506 139.172C212.522 139.172 213.978 140.096 213.978 141.496C213.978 142.896 212.522 143.82 210.506 143.82C208.49 143.82 207.048 142.896 207.048 141.496C207.048 140.096 208.49 139.172 210.506 139.172ZM213.418 147.474V144.072C214.454 143.526 215.07 142.63 215.07 141.496C215.07 139.536 213.18 138.276 210.506 138.276C207.846 138.276 205.942 139.536 205.942 141.496C205.942 142.63 206.572 143.54 207.622 144.086V147.474H204.822V148.426H216.232V147.474H213.418ZM217.981 148.244C217.981 147.899 218.065 147.656 218.233 147.516C218.401 147.376 218.601 147.306 218.835 147.306C219.068 147.306 219.273 147.376 219.451 147.516C219.628 147.656 219.717 147.899 219.717 148.244C219.717 148.58 219.628 148.823 219.451 148.972C219.273 149.121 219.068 149.196 218.835 149.196C218.601 149.196 218.401 149.121 218.233 148.972C218.065 148.823 217.981 148.58 217.981 148.244Z" fill="#8C8C8C"/>
<path d="M51.9761 82.8725C51.9184 82.8788 51.8603 82.8788 51.8027 82.8725C51.7213 82.8502 51.645 82.8119 51.5784 82.7598C51.5117 82.7078 51.4559 82.6431 51.4141 82.5694C51.3724 82.4957 51.3455 82.4145 51.335 82.3304C51.3246 82.2462 51.3307 82.1608 51.3531 82.0791C51.6421 81.0276 51.9953 79.9826 52.3678 78.9634C52.3977 78.8842 52.4429 78.8117 52.5007 78.75C52.5586 78.6883 52.6279 78.6387 52.7049 78.604C52.7818 78.5692 52.8648 78.55 52.9491 78.5475C53.0334 78.545 53.1174 78.5592 53.1963 78.5892C53.2751 78.6193 53.3473 78.6647 53.4087 78.7228C53.4701 78.7809 53.5195 78.8506 53.5541 78.9278C53.5887 79.0051 53.6078 79.0885 53.6103 79.1732C53.6128 79.2578 53.5987 79.3422 53.5687 79.4214C53.1962 80.4019 52.8687 81.4082 52.5926 82.421C52.5514 82.5526 52.4693 82.6674 52.3583 82.7487C52.2474 82.83 52.1134 82.8734 51.9761 82.8725ZM54.243 76.8669C54.1452 76.8673 54.0485 76.8452 53.9605 76.8024C53.8081 76.7262 53.6921 76.5924 53.6379 76.4303C53.5837 76.2682 53.5958 76.0911 53.6715 75.938C54.1467 74.9639 54.6797 74.0028 55.2449 73.0674C55.3343 72.9212 55.4779 72.8165 55.6441 72.7766C55.8103 72.7367 55.9855 72.7647 56.1311 72.8546C56.2767 72.9444 56.3809 73.0886 56.4206 73.2556C56.4604 73.4225 56.4325 73.5985 56.343 73.7448C55.7907 74.6414 55.2834 75.5703 54.821 76.5057C54.7681 76.6142 54.6858 76.7057 54.5836 76.7695C54.4814 76.8334 54.3634 76.8672 54.243 76.8669ZM57.5889 71.3902C57.4522 71.3888 57.3194 71.3437 57.21 71.2612C57.1421 71.2109 57.0846 71.1476 57.0411 71.0749C56.9975 71.0022 56.9686 70.9216 56.9561 70.8378C56.9436 70.7539 56.9476 70.6683 56.9681 70.586C56.9885 70.5037 57.0249 70.4263 57.0751 70.3581C57.7173 69.5002 58.4045 68.6422 59.1302 67.823C59.1828 67.7502 59.25 67.6892 59.3275 67.6441C59.405 67.5989 59.491 67.5705 59.5801 67.5607C59.6691 67.551 59.7592 67.56 59.8446 67.5873C59.9299 67.6146 60.0087 67.6595 60.0757 67.7191C60.1428 67.7788 60.1966 67.8519 60.2339 67.9337C60.2712 68.0156 60.291 68.1043 60.292 68.1943C60.2931 68.2842 60.2754 68.3735 60.2401 68.4562C60.2048 68.5389 60.1527 68.6132 60.0871 68.6745C59.3871 69.4744 58.7256 70.3001 58.1027 71.1322C58.0428 71.2123 57.9653 71.2774 57.8761 71.3221C57.7869 71.3669 57.6886 71.3902 57.5889 71.3902ZM61.8274 66.5651C61.7409 66.5648 61.6554 66.5469 61.5759 66.5125C61.4965 66.4782 61.4248 66.428 61.3651 66.3651C61.2455 66.2443 61.1783 66.0808 61.1783 65.9103C61.1783 65.7399 61.2455 65.5764 61.3651 65.4556C62.1293 64.7073 62.9449 63.9719 63.7797 63.2688C63.8425 63.2059 63.9176 63.1568 64.0002 63.1245C64.0829 63.0922 64.1713 63.0775 64.2598 63.0812C64.3484 63.0849 64.4353 63.107 64.5149 63.1461C64.5946 63.1852 64.6653 63.2404 64.7227 63.3083C64.7801 63.3762 64.8228 63.4553 64.8482 63.5406C64.8737 63.6259 64.8813 63.7156 64.8705 63.804C64.8597 63.8924 64.8309 63.9776 64.7857 64.0542C64.7406 64.1308 64.6801 64.1973 64.6082 64.2493C63.7926 64.9395 63.0027 65.6555 62.2577 66.378C62.1429 66.4926 61.9892 66.5594 61.8274 66.5651ZM66.7274 62.4108C66.6272 62.4101 66.5285 62.3858 66.4393 62.3398C66.3501 62.2939 66.2728 62.2276 66.2137 62.1463C66.1634 62.0782 66.127 62.0007 66.1066 61.9184C66.0862 61.8361 66.0821 61.7506 66.0946 61.6667C66.1072 61.5828 66.136 61.5022 66.1796 61.4296C66.2232 61.3569 66.2806 61.2936 66.3485 61.2432C67.2027 60.5982 68.1017 59.9531 69.0201 59.3854C69.1632 59.2922 69.3373 59.2599 69.5041 59.2955C69.6709 59.3312 69.8167 59.432 69.9096 59.5757C70.0024 59.7194 70.0346 59.8943 69.999 60.0618C69.9635 60.2294 69.8632 60.3759 69.7201 60.4691C68.8274 61.0562 67.9476 61.6625 67.1128 62.2818C67.0016 62.3655 66.8664 62.4108 66.7274 62.4108ZM72.1027 58.8823C71.9625 58.8808 71.8267 58.8334 71.7159 58.7472C71.6051 58.6609 71.5254 58.5406 71.489 58.4047C71.4526 58.2687 71.4616 58.1245 71.5144 57.9941C71.5672 57.8637 71.661 57.7543 71.7816 57.6824C72.6935 57.1535 73.6504 56.6245 74.6265 56.1149C74.7016 56.0758 74.7835 56.0519 74.8678 56.0447C74.952 56.0375 75.0368 56.047 75.1173 56.0728C75.1979 56.0985 75.2726 56.14 75.3371 56.1949C75.4017 56.2497 75.4548 56.3168 75.4935 56.3923C75.5702 56.5438 75.5841 56.7197 75.5324 56.8815C75.4807 57.0434 75.3675 57.1782 75.2173 57.2567C74.254 57.7599 73.2908 58.2759 72.4238 58.7984C72.3259 58.8541 72.2152 58.8831 72.1027 58.8823ZM77.8118 55.9085C77.6649 55.9093 77.5221 55.8594 77.4073 55.7673C77.2925 55.6751 77.2127 55.5461 77.1811 55.402C77.1496 55.2578 77.1682 55.1071 77.2339 54.9751C77.2996 54.843 77.4084 54.7376 77.5421 54.6764C78.499 54.2249 79.4687 53.7862 80.5091 53.3863C80.5878 53.3461 80.674 53.3227 80.7621 53.3175C80.8503 53.3123 80.9385 53.3254 81.0214 53.356C81.1043 53.3866 81.18 53.4341 81.2438 53.4954C81.3076 53.5567 81.3581 53.6306 81.3922 53.7124C81.4263 53.7943 81.4432 53.8823 81.4419 53.971C81.4406 54.0596 81.4211 54.1471 81.3847 54.2279C81.3482 54.3087 81.2955 54.381 81.2299 54.4404C81.1644 54.4998 81.0873 54.545 81.0036 54.5732C80.0082 54.9925 79.0256 55.4311 78.0816 55.8633C77.9966 55.8998 77.9041 55.9153 77.8118 55.9085ZM83.7394 53.4056C83.5878 53.407 83.4407 53.3545 83.324 53.2574C83.2073 53.1603 83.1285 53.0249 83.1016 52.8751C83.0747 52.7253 83.1014 52.5708 83.177 52.4388C83.2525 52.3069 83.3721 52.2061 83.5146 52.1542C84.51 51.78 85.5311 51.4123 86.5522 51.064C86.6328 51.0328 86.7187 51.0182 86.805 51.0212C86.8913 51.0241 86.9761 51.0445 87.0543 51.0811C87.1326 51.1177 87.2027 51.1698 87.2605 51.2342C87.3182 51.2986 87.3624 51.3741 87.3905 51.4561C87.4186 51.5381 87.4299 51.6249 87.4238 51.7114C87.4177 51.7979 87.3944 51.8823 87.3551 51.9595C87.3158 52.0367 87.2614 52.1051 87.1952 52.1608C87.1289 52.2164 87.0522 52.258 86.9696 52.2832C85.9614 52.6315 84.9467 52.9928 83.9706 53.3669C83.8961 53.3923 83.818 53.4054 83.7394 53.4056ZM89.8146 51.322C89.6443 51.3468 89.4711 51.3027 89.3332 51.1992C89.1953 51.0958 89.104 50.9416 89.0793 50.7705C89.0546 50.5994 89.0986 50.4255 89.2015 50.2869C89.3045 50.1484 89.458 50.0567 89.6283 50.0319C90.643 49.7158 91.6898 49.3868 92.7302 49.1223C92.8132 49.092 92.9016 49.0793 92.9898 49.0848C93.0779 49.0904 93.164 49.1142 93.2426 49.1547C93.3212 49.1952 93.3907 49.2516 93.4466 49.3203C93.5025 49.389 93.5437 49.4686 93.5676 49.554C93.5916 49.6394 93.5977 49.7289 93.5856 49.8168C93.5736 49.9047 93.5435 49.9892 93.4975 50.0649C93.4514 50.1406 93.3903 50.206 93.318 50.2569C93.2456 50.3078 93.1636 50.3432 93.077 50.3609C92.043 50.6511 91.0155 50.9543 90.0073 51.264C89.9405 51.2954 89.8688 51.315 89.7953 51.322H89.8146ZM96.0118 49.5868C95.8651 49.5911 95.7214 49.5448 95.6045 49.4556C95.4877 49.3664 95.4048 49.2396 95.3696 49.0965C95.3289 48.9306 95.3554 48.7552 95.4433 48.6088C95.5312 48.4625 95.6733 48.3572 95.8384 48.316C96.8959 48.0493 97.9449 47.7999 98.9852 47.5677C99.1556 47.53 99.3338 47.5619 99.4807 47.6563C99.6277 47.7506 99.7313 47.8998 99.7687 48.0708C99.8062 48.2419 99.7745 48.421 99.6805 48.5685C99.5866 48.7161 99.4381 48.8202 99.2678 48.8578C98.2403 49.0901 97.2021 49.3373 96.1531 49.5997L96.0118 49.5868ZM102.293 48.1676C102.142 48.1706 101.996 48.1207 101.878 48.0264C101.761 47.9321 101.68 47.7994 101.65 47.6516C101.634 47.5685 101.633 47.483 101.649 47.3998C101.665 47.3166 101.697 47.2374 101.744 47.1667C101.79 47.096 101.85 47.0353 101.92 46.9878C101.99 46.9404 102.069 46.9073 102.151 46.8904C103.23 46.6775 104.29 46.4711 105.362 46.2905C105.447 46.2756 105.533 46.2776 105.617 46.2963C105.7 46.3151 105.779 46.3501 105.849 46.3996C105.919 46.449 105.979 46.5118 106.025 46.5844C106.071 46.657 106.102 46.7379 106.117 46.8226C106.132 46.9073 106.13 46.9941 106.111 47.0781C106.092 47.162 106.057 47.2414 106.008 47.3118C105.959 47.3822 105.897 47.4422 105.824 47.4883C105.752 47.5344 105.671 47.5658 105.587 47.5806C104.56 47.7677 103.506 47.9676 102.434 48.1805C102.386 48.1847 102.339 48.1804 102.293 48.1676ZM108.625 47.0323C108.454 47.0451 108.286 46.9895 108.156 46.8776C108.027 46.7657 107.947 46.6067 107.934 46.4356C107.922 46.2645 107.977 46.0953 108.088 45.9653C108.2 45.8352 108.358 45.755 108.528 45.7421C109.633 45.568 110.699 45.4131 111.739 45.2712C111.91 45.2481 112.082 45.294 112.219 45.3986C112.356 45.5032 112.445 45.6581 112.468 45.8292C112.491 46.0003 112.446 46.1736 112.341 46.3109C112.237 46.4482 112.083 46.5383 111.913 46.5614C110.892 46.6968 109.832 46.8517 108.74 47.0258L108.625 47.0323ZM115.008 46.1614C114.838 46.1708 114.671 46.1119 114.544 45.9976C114.417 45.8833 114.34 45.7229 114.331 45.5518C114.321 45.3807 114.38 45.2129 114.494 45.0853C114.608 44.9577 114.767 44.8807 114.938 44.8713C116.081 44.7358 117.16 44.6262 118.149 44.5294C118.318 44.5132 118.487 44.5653 118.618 44.6741C118.749 44.783 118.832 44.9398 118.849 45.11C118.865 45.2802 118.813 45.4498 118.704 45.5817C118.596 45.7135 118.44 45.7968 118.271 45.8131C117.282 45.9098 116.216 46.0195 115.06 46.1485L115.008 46.1614ZM121.43 45.5551C121.267 45.5555 121.11 45.4937 120.991 45.3824C120.872 45.271 120.799 45.1183 120.788 44.9552C120.777 44.7861 120.833 44.6196 120.944 44.4916C121.054 44.3637 121.211 44.2846 121.379 44.2714C122.83 44.1617 123.948 44.1101 124.628 44.0778C124.799 44.0778 124.962 44.1458 125.082 44.2668C125.203 44.3878 125.271 44.5518 125.271 44.7229C125.271 44.894 125.203 45.0581 125.082 45.1791C124.962 45.3 124.799 45.368 124.628 45.368C123.954 45.368 122.856 45.4519 121.417 45.5551H121.43ZM127.801 44.7423C127.631 44.7645 127.458 44.7179 127.322 44.6126C127.186 44.5074 127.097 44.3521 127.075 44.1811C127.053 44.01 127.099 43.8371 127.204 43.7004C127.309 43.5637 127.464 43.4744 127.634 43.4521C128.668 43.1747 129.695 42.878 130.704 42.5748C130.786 42.544 130.873 42.5305 130.961 42.535C131.049 42.5395 131.134 42.562 131.213 42.601C131.291 42.6401 131.361 42.6949 131.418 42.7621C131.475 42.8293 131.517 42.9075 131.543 42.9918C131.568 43.0761 131.576 43.1647 131.566 43.2522C131.556 43.3398 131.529 43.4243 131.485 43.5007C131.441 43.5771 131.382 43.6436 131.312 43.6963C131.242 43.749 131.161 43.7866 131.076 43.8069C130.055 44.1166 129.015 44.4133 127.968 44.6971C127.914 44.7187 127.858 44.7338 127.801 44.7423ZM133.947 42.878C133.797 42.8749 133.653 42.8192 133.539 42.7206C133.426 42.622 133.351 42.4867 133.326 42.3381C133.302 42.1895 133.33 42.037 133.406 41.907C133.482 41.7771 133.6 41.6779 133.741 41.6266C134.762 41.2782 135.771 40.9105 136.734 40.5429C136.889 40.4955 137.056 40.5088 137.202 40.5801C137.348 40.6514 137.461 40.7753 137.52 40.9272C137.578 41.079 137.577 41.2474 137.517 41.3987C137.457 41.5499 137.343 41.6728 137.196 41.7427C136.214 42.1233 135.186 42.491 134.152 42.8457C134.086 42.8685 134.017 42.8794 133.947 42.878ZM139.932 40.5686C139.784 40.5699 139.639 40.5194 139.524 40.4257C139.408 40.3321 139.328 40.2012 139.298 40.0552C139.268 39.9092 139.289 39.7571 139.358 39.6249C139.426 39.4927 139.539 39.3886 139.675 39.3301C140.671 38.8915 141.64 38.4399 142.546 37.9755C142.621 37.9369 142.704 37.9137 142.788 37.9071C142.872 37.9005 142.957 37.9107 143.038 37.937C143.118 37.9634 143.193 38.0054 143.257 38.0607C143.322 38.116 143.374 38.1835 143.413 38.2593C143.451 38.3351 143.474 38.4178 143.481 38.5026C143.487 38.5874 143.477 38.6726 143.451 38.7535C143.425 38.8344 143.383 38.9092 143.328 38.9739C143.273 39.0385 143.206 39.0916 143.13 39.1301C142.199 39.601 141.204 40.0655 140.189 40.5106C140.109 40.5489 140.021 40.5687 139.932 40.5686ZM145.654 37.6529C145.543 37.6529 145.433 37.6237 145.336 37.5683C145.239 37.5129 145.159 37.4331 145.102 37.3368C145.015 37.1897 144.99 37.0139 145.032 36.8482C145.074 36.6825 145.18 36.5404 145.326 36.4531C146.264 35.8983 147.157 35.3178 147.979 34.7372C148.118 34.653 148.283 34.6248 148.442 34.6583C148.601 34.6918 148.742 34.7845 148.835 34.9177C148.929 35.051 148.969 35.2149 148.947 35.3765C148.925 35.5381 148.843 35.6853 148.717 35.7887C147.87 36.395 146.945 36.9885 145.982 37.5626C145.886 37.6195 145.778 37.6506 145.667 37.6529H145.654ZM150.875 33.9244C150.783 33.9235 150.693 33.9028 150.61 33.8639C150.527 33.825 150.453 33.7686 150.393 33.6986C150.282 33.5694 150.226 33.4011 150.238 33.2305C150.25 33.06 150.329 32.9012 150.458 32.7891C151.244 32.104 151.988 31.3716 152.686 30.5958C152.741 30.5275 152.809 30.4711 152.885 30.43C152.962 30.3889 153.047 30.3639 153.134 30.3567C153.221 30.3494 153.308 30.36 153.391 30.3878C153.473 30.4156 153.55 30.46 153.615 30.5183C153.68 30.5766 153.732 30.6476 153.769 30.727C153.806 30.8063 153.826 30.8924 153.829 30.9799C153.832 31.0674 153.816 31.1546 153.785 31.236C153.753 31.3175 153.704 31.3916 153.643 31.4538C152.91 32.2714 152.127 33.0427 151.299 33.7631C151.182 33.8668 151.031 33.9242 150.875 33.9244ZM155.12 29.1186C155.004 29.1192 154.89 29.0881 154.79 29.0286C154.69 28.9691 154.608 28.8835 154.552 28.7809C154.497 28.6783 154.47 28.5625 154.475 28.4459C154.48 28.3293 154.517 28.2162 154.581 28.1187C155.145 27.2527 155.631 26.3373 156.032 25.3836C156.064 25.3052 156.112 25.2339 156.172 25.1739C156.231 25.1139 156.302 25.0663 156.381 25.034C156.459 25.0016 156.543 24.9851 156.627 24.9853C156.712 24.9855 156.795 25.0025 156.873 25.0353C157.028 25.0998 157.151 25.222 157.217 25.3762C157.283 25.5303 157.286 25.7042 157.227 25.861C156.798 26.8866 156.278 27.8711 155.672 28.8025C155.616 28.8988 155.535 28.9786 155.438 29.034C155.341 29.0894 155.232 29.1186 155.12 29.1186ZM157.56 23.2033H157.438C157.355 23.1871 157.276 23.1545 157.205 23.1074C157.135 23.0603 157.074 22.9996 157.027 22.9288C156.98 22.8581 156.947 22.7786 156.931 22.6951C156.914 22.6115 156.914 22.5256 156.931 22.4421C157.132 21.4289 157.233 20.3982 157.233 19.3651C157.233 19.194 157.301 19.0299 157.421 18.909C157.541 18.788 157.705 18.72 157.875 18.72C158.045 18.72 158.209 18.788 158.329 18.909C158.45 19.0299 158.517 19.194 158.517 19.3651C158.519 20.4828 158.409 21.5979 158.19 22.6937C158.159 22.8382 158.08 22.9677 157.965 23.0604C157.85 23.1532 157.708 23.2036 157.56 23.2033ZM157.56 16.7913C157.408 16.7937 157.26 16.742 157.143 16.6451C157.025 16.5482 156.946 16.4126 156.918 16.2623C156.73 15.2379 156.459 14.2305 156.109 13.2498C156.081 13.1698 156.069 13.0849 156.073 13.0001C156.077 12.9153 156.098 12.8321 156.135 12.7555C156.171 12.6788 156.222 12.6101 156.285 12.5532C156.348 12.4964 156.421 12.4525 156.501 12.4241C156.581 12.3957 156.665 12.3834 156.749 12.3878C156.834 12.3922 156.917 12.4133 156.993 12.4499C157.069 12.4864 157.138 12.5377 157.194 12.6008C157.251 12.6639 157.295 12.7376 157.323 12.8176C157.691 13.8692 157.979 14.9474 158.183 16.043C158.198 16.1264 158.196 16.212 158.178 16.2948C158.16 16.3775 158.126 16.4559 158.078 16.5254C158.029 16.5949 157.968 16.6541 157.897 16.6998C157.826 16.7454 157.746 16.7765 157.663 16.7913H157.56ZM155.448 10.7211C155.33 10.722 155.215 10.6906 155.114 10.6303C155.014 10.57 154.931 10.4832 154.876 10.3792C154.41 9.45226 153.862 8.56926 153.238 7.74088C153.132 7.60658 153.083 7.4353 153.102 7.26473C153.122 7.09415 153.207 6.93826 153.341 6.83133C153.475 6.7244 153.645 6.6752 153.815 6.69456C153.985 6.71392 154.14 6.80024 154.247 6.93454C154.916 7.8297 155.507 8.78153 156.013 9.77932C156.092 9.93074 156.108 10.1075 156.057 10.2708C156.007 10.4341 155.894 10.5706 155.743 10.6502C155.657 10.6943 155.563 10.7185 155.467 10.7211H155.448Z" fill="#A7C1FF"/>
<path d="M82.6992 46.2002H53.0552C49.8631 46.2002 47.2754 48.7995 47.2754 52.0059C47.2754 55.2122 49.8631 57.8115 53.0552 57.8115H82.6992C85.8913 57.8115 88.4791 55.2122 88.4791 52.0059C88.4791 48.7995 85.8913 46.2002 82.6992 46.2002Z" fill="#E1EBFF"/>
<path d="M91.9791 33.2341H60.4726C57.7948 33.2341 55.624 35.4146 55.624 38.1044C55.624 40.7942 57.7948 42.9747 60.4726 42.9747H91.9791C94.6569 42.9747 96.8277 40.7942 96.8277 38.1044C96.8277 35.4146 94.6569 33.2341 91.9791 33.2341Z" fill="#E1EBFF"/>
<path d="M151.704 54.5215H120.197C117.519 54.5215 115.349 56.702 115.349 59.3918C115.349 62.0816 117.519 64.2621 120.197 64.2621H151.704C154.382 64.2621 156.552 62.0816 156.552 59.3918C156.552 56.702 154.382 54.5215 151.704 54.5215Z" fill="#E1EBFF"/>
<path d="M133.138 17.7202H83.5146C80.326 17.7202 77.7412 20.3166 77.7412 23.5194V64.159C77.7412 67.3618 80.326 69.9582 83.5146 69.9582H133.138C136.326 69.9582 138.911 67.3618 138.911 64.159V23.5194C138.911 20.3166 136.326 17.7202 133.138 17.7202Z" fill="white"/>
<path d="M133.138 70.6033H83.5148C81.8115 70.6033 80.1781 69.9237 78.9737 68.714C77.7694 67.5042 77.0928 65.8634 77.0928 64.1526V23.513C77.0928 21.8021 77.7694 20.1614 78.9737 18.9516C80.1781 17.7419 81.8115 17.0623 83.5148 17.0623H133.138C134.841 17.0623 136.474 17.7419 137.679 18.9516C138.883 20.1614 139.56 21.8021 139.56 23.513V64.1526C139.56 65.8634 138.883 67.5042 137.679 68.714C136.474 69.9237 134.841 70.6033 133.138 70.6033ZM83.5148 18.3524C82.1522 18.3524 80.8455 18.8961 79.882 19.8639C78.9185 20.8317 78.3772 22.1443 78.3772 23.513V64.1526C78.3772 65.5213 78.9185 66.8339 79.882 67.8017C80.8455 68.7695 82.1522 69.3132 83.5148 69.3132H133.138C134.5 69.3132 135.807 68.7695 136.771 67.8017C137.734 66.8339 138.275 65.5213 138.275 64.1526V23.513C138.275 22.1443 137.734 20.8317 136.771 19.8639C135.807 18.8961 134.5 18.3524 133.138 18.3524H83.5148Z" fill="#A7C1FF"/>
<path d="M133.664 17.1396H82.9366C80.0673 17.1396 77.7412 19.4747 77.7412 22.3551C77.7412 25.2355 80.0673 27.5705 82.9366 27.5705H133.664C136.533 27.5705 138.86 25.2355 138.86 22.3551C138.86 19.4747 136.533 17.1396 133.664 17.1396Z" fill="#A7C1FF"/>
<path d="M100.9 12.4691C100.9 11.1474 99.8332 10.0759 98.5173 10.0759C97.2015 10.0759 96.1348 11.1474 96.1348 12.4691V18.7973C96.1348 20.1191 97.2015 21.1905 98.5173 21.1905C99.8332 21.1905 100.9 20.1191 100.9 18.7973V12.4691Z" fill="white"/>
<path d="M98.5231 21.8422C97.7214 21.8405 96.953 21.5198 96.3861 20.9504C95.8193 20.381 95.5 19.6092 95.4983 18.8039V12.4693C95.4795 12.0589 95.5437 11.649 95.687 11.2643C95.8304 10.8796 96.0499 10.5281 96.3324 10.231C96.6148 9.9339 96.9542 9.69743 97.3302 9.53587C97.7062 9.37431 98.1109 9.29102 98.5199 9.29102C98.9288 9.29102 99.3335 9.37431 99.7095 9.53587C100.086 9.69743 100.425 9.9339 100.707 10.231C100.99 10.5281 101.209 10.8796 101.353 11.2643C101.496 11.649 101.56 12.0589 101.541 12.4693V18.8039C101.54 19.6081 101.221 20.3789 100.656 20.9481C100.09 21.5174 99.3237 21.8388 98.5231 21.8422ZM98.5231 10.7211C98.0615 10.7211 97.6189 10.9053 97.2925 11.2331C96.9661 11.561 96.7827 12.0056 96.7827 12.4693V18.8039C96.7683 19.042 96.8025 19.2805 96.8833 19.5047C96.9641 19.729 97.0897 19.9343 97.2525 20.108C97.4152 20.2817 97.6116 20.4201 97.8295 20.5148C98.0475 20.6094 98.2824 20.6582 98.5199 20.6582C98.7573 20.6582 98.9923 20.6094 99.2102 20.5148C99.4282 20.4201 99.6246 20.2817 99.7873 20.108C99.9501 19.9343 100.076 19.729 100.156 19.5047C100.237 19.2805 100.271 19.042 100.257 18.8039V12.4693C100.257 12.0067 100.075 11.5631 99.7496 11.2354C99.4246 10.9078 98.9836 10.7228 98.5231 10.7211Z" fill="#A7C1FF"/>
<path d="M120.556 12.4691C120.556 11.1474 119.489 10.0759 118.174 10.0759C116.858 10.0759 115.791 11.1474 115.791 12.4691V18.7973C115.791 20.1191 116.858 21.1905 118.174 21.1905C119.489 21.1905 120.556 20.1191 120.556 18.7973V12.4691Z" fill="white"/>
<path d="M118.174 21.8421C117.373 21.8404 116.604 21.5197 116.037 20.9503C115.47 20.3809 115.151 19.6091 115.149 18.8038V12.4692C115.149 12.0702 115.228 11.6751 115.38 11.3065C115.532 10.9379 115.754 10.6029 116.035 10.3208C116.316 10.0387 116.65 9.81487 117.017 9.66218C117.384 9.50949 117.777 9.43091 118.174 9.43091C118.571 9.43091 118.965 9.50949 119.332 9.66218C119.699 9.81487 120.032 10.0387 120.313 10.3208C120.594 10.6029 120.817 10.9379 120.969 11.3065C121.121 11.6751 121.199 12.0702 121.199 12.4692V18.8038C121.197 19.6091 120.878 20.3809 120.311 20.9503C119.744 21.5197 118.976 21.8404 118.174 21.8421ZM118.174 10.7211C117.946 10.7211 117.719 10.7663 117.508 10.8541C117.297 10.942 117.105 11.0707 116.944 11.2331C116.782 11.3954 116.654 11.5881 116.566 11.8002C116.479 12.0123 116.434 12.2396 116.434 12.4692V18.8038C116.434 19.2675 116.617 19.7121 116.944 20.0399C117.27 20.3678 117.713 20.552 118.174 20.552C118.636 20.552 119.078 20.3678 119.405 20.0399C119.731 19.7121 119.915 19.2675 119.915 18.8038V12.4692C119.913 12.0061 119.729 11.5624 119.403 11.2349C119.077 10.9075 118.635 10.7228 118.174 10.7211Z" fill="#A7C1FF"/>
<path d="M76.4246 69.913C82.1917 69.913 86.8668 65.1332 86.8668 59.237C86.8668 53.3408 82.1917 48.561 76.4246 48.561C70.6576 48.561 65.9824 53.3408 65.9824 59.237C65.9824 65.1332 70.6576 69.913 76.4246 69.913Z" fill="#A7C1FF"/>
<path d="M66.7861 63.3591L76.4256 82.9693L86.065 63.3591" fill="#A7C1FF"/>
<path d="M76.4245 63.9461C78.9711 63.9461 81.0355 61.8378 81.0355 59.2371C81.0355 56.6364 78.9711 54.5281 76.4245 54.5281C73.8779 54.5281 71.8135 56.6364 71.8135 59.2371C71.8135 61.8378 73.8779 63.9461 76.4245 63.9461Z" fill="white"/>
<path d="M157.227 49.1352C156.619 49.1364 156.025 48.9567 155.519 48.6186C155.014 48.2806 154.619 47.7995 154.386 47.2362C154.153 46.6729 154.091 46.0527 154.209 45.4541C154.326 44.8556 154.618 44.3056 155.047 43.8737C155.476 43.4418 156.023 43.1475 156.619 43.028C157.214 42.9085 157.832 42.9692 158.393 43.2024C158.955 43.4356 159.434 43.8308 159.772 44.338C160.11 44.8452 160.29 45.4416 160.29 46.0517C160.29 46.8684 159.967 47.6517 159.393 48.2298C158.819 48.8078 158.04 49.1334 157.227 49.1352ZM157.227 44.2649C156.873 44.2636 156.527 44.3678 156.232 44.5644C155.938 44.761 155.708 45.041 155.572 45.3689C155.436 45.6969 155.4 46.058 155.469 46.4064C155.537 46.7549 155.708 47.075 155.958 47.3262C156.208 47.5774 156.526 47.7483 156.873 47.8173C157.22 47.8863 157.58 47.8502 157.906 47.7137C158.233 47.5772 158.512 47.3463 158.707 47.0504C158.903 46.7545 159.007 46.4069 159.005 46.0517C159.005 45.5778 158.818 45.1233 158.484 44.7882C158.151 44.4531 157.698 44.2649 157.227 44.2649Z" fill="#A7C1FF"/>
<path d="M108.419 56.2311C107.648 56.2309 106.88 56.1356 106.133 55.9473L106.441 54.6959C107.406 54.9358 108.407 54.9992 109.395 54.8829L109.549 56.1731C109.174 56.2146 108.796 56.234 108.419 56.2311ZM112.818 55.141L112.221 53.9992C113.104 53.5385 113.894 52.9174 114.552 52.1672L115.515 53.0251C114.754 53.8865 113.845 54.6033 112.831 55.141H112.818ZM103.012 54.5281C102.067 53.8683 101.249 53.0422 100.597 52.0898L101.657 51.3608C102.219 52.1851 102.926 52.8999 103.744 53.4702L103.012 54.5281ZM117.288 50.0836L116.087 49.6256C116.44 48.69 116.621 47.6976 116.62 46.6969H117.904C117.911 47.8534 117.706 49.0013 117.301 50.0836H117.288ZM99.1969 48.9483C99.022 48.2107 98.9337 47.4551 98.9336 46.6969C98.9345 46.3024 98.9581 45.9083 99.0043 45.5165L100.289 45.6777C100.25 46.0161 100.231 46.3564 100.231 46.6969C100.231 47.3489 100.309 47.9986 100.462 48.6322L99.1969 48.9483ZM116.568 45.7616C116.461 44.7677 116.169 43.8028 115.708 42.9168L116.851 42.3233C117.379 43.35 117.717 44.4649 117.846 45.6132L116.568 45.7616ZM101.156 42.8394L100.019 42.233C100.562 41.2144 101.282 40.3013 102.145 39.5366L102.992 40.5043C102.254 41.1673 101.641 41.9583 101.181 42.8394H101.156ZM113.884 40.5623C113.144 39.8942 112.289 39.3674 111.36 39.0077L111.823 37.8014C112.894 38.2202 113.882 38.8299 114.738 39.6011L113.884 40.5623ZM105.535 38.9754L105.086 37.7691C106.148 37.3697 107.272 37.1665 108.406 37.1692L108.451 37.8143V38.4594C107.465 38.4568 106.486 38.6316 105.561 38.9754H105.535Z" fill="#D0DDF7"/>
</svg>
