<svg width="300" height="54" viewBox="0 0 300 54" fill="none" xmlns="http://www.w3.org/2000/svg">
<path d="M7.618 1.367H4.81V0.222999H3.744V1.367H0.923V2.173H7.618V1.367ZM2.561 4.331C2.561 3.72 3.224 3.343 4.277 3.343C5.304 3.343 5.98 3.72 5.98 4.331C5.98 4.942 5.304 5.332 4.277 5.332C3.224 5.332 2.561 4.942 2.561 4.331ZM7.969 6.567C6.955 6.723 5.876 6.801 4.81 6.853V6.047C6.149 5.904 6.994 5.28 6.994 4.331C6.994 3.265 5.902 2.602 4.277 2.602C2.626 2.602 1.547 3.265 1.547 4.331C1.547 5.293 2.392 5.917 3.744 6.047V6.892C2.626 6.931 1.56 6.931 0.637 6.931L0.754 7.789C2.795 7.776 5.551 7.776 8.047 7.334L7.969 6.567ZM2.054 9.557H8.658V11.962H9.724V8.712H2.054V9.557ZM11.44 3.837H9.724V0.314H8.658V8.127H9.724V4.721H11.44V3.837ZM18.875 3.33V4.201H21.176V7.256H22.255V0.314H21.176V3.33H18.875ZM19.525 5.982C17.835 5.384 16.691 3.915 16.691 2.42V2.017H19.252V1.159H13.025V2.017H15.625V2.42C15.625 4.097 14.429 5.67 12.687 6.307L13.246 7.152C14.611 6.632 15.69 5.54 16.184 4.188C16.691 5.384 17.692 6.346 18.992 6.814L19.525 5.982ZM18.407 11.13C16.652 11.13 15.586 10.636 15.586 9.791C15.586 8.946 16.652 8.439 18.407 8.439C20.162 8.439 21.228 8.946 21.228 9.791C21.228 10.636 20.162 11.13 18.407 11.13ZM18.407 7.62C16.015 7.62 14.52 8.413 14.52 9.791C14.52 11.169 16.015 11.962 18.407 11.962C20.799 11.962 22.281 11.169 22.281 9.791C22.281 8.413 20.799 7.62 18.407 7.62ZM34.149 0.301H33.083V9.024H34.149V0.301ZM32.147 6.359C31.146 6.476 30.093 6.541 29.014 6.593V4.981H31.328V4.123H26.765V1.926H31.25V1.055H25.699V4.981H27.948V6.632C26.804 6.671 25.673 6.684 24.659 6.684L24.815 7.555C26.986 7.555 29.755 7.477 32.225 7.126L32.147 6.359ZM27.675 10.831V8.452H26.609V11.702H34.539V10.831H27.675ZM44.8086 6.671C44.8736 6.255 44.9126 5.826 44.9126 5.332C44.9126 4.838 44.8736 4.409 44.8086 3.993H46.3946V6.671H44.8086ZM42.4166 8.413C41.4936 8.413 40.8956 7.23 40.8956 5.332C40.8956 3.447 41.4936 2.264 42.4166 2.264C43.3526 2.264 43.9376 3.447 43.9376 5.332C43.9376 7.23 43.3526 8.413 42.4166 8.413ZM46.3946 3.122H44.5876C44.1846 1.952 43.4306 1.276 42.4166 1.276C40.9086 1.276 39.9336 2.836 39.9336 5.332C39.9336 7.841 40.9086 9.401 42.4166 9.401C43.4306 9.401 44.1716 8.725 44.5876 7.555H46.3946V11.39H47.4086V0.561H46.3946V3.122ZM48.6826 0.301V11.962H49.6966V0.301H48.6826ZM53.0105 3.759C53.0105 2.654 53.8425 1.9 55.0125 1.9C56.1695 1.9 57.0145 2.654 57.0145 3.759C57.0145 4.851 56.1695 5.618 55.0125 5.618C53.8425 5.618 53.0105 4.851 53.0105 3.759ZM58.0545 3.759C58.0545 2.121 56.7675 1.003 55.0125 1.003C53.2445 1.003 51.9705 2.121 51.9705 3.759C51.9705 5.384 53.2445 6.515 55.0125 6.515C56.7675 6.515 58.0545 5.384 58.0545 3.759ZM53.2185 8.647H59.7315V11.962H60.7975V7.776H53.2185V8.647ZM62.5005 2.966V2.082H60.7975V0.314H59.7315V7.23H60.7975V5.449H62.5005V4.578H60.7975V2.966H62.5005ZM70.4815 4.214C68.6355 4.591 66.9715 4.721 65.3335 4.734V0.807999H64.2805V5.618H65.1905C66.9325 5.618 68.6615 5.501 70.6245 5.111L70.4815 4.214ZM66.4385 9.609H72.7565V6.736H65.3465V7.594H71.7035V8.79H65.3855V11.806H73.1855V10.948H66.4385V9.609ZM72.7565 2.719V0.301H71.6905V6.177H72.7565V3.603H74.4855V2.719H72.7565ZM81.5695 2.355H82.9085V1.484H79.6845V2.355H80.5555V3.772C80.5555 5.111 80.3735 6.957 79.4375 8.192C78.4885 6.931 78.3195 5.059 78.3195 3.772V2.355H79.1775V1.484H75.8755V2.355H77.3055V3.772C77.3055 5.423 76.9155 7.659 75.5115 8.751L76.1875 9.518C77.0195 8.842 77.5135 7.75 77.8125 6.567C78.0725 7.776 78.5535 8.92 79.4375 9.622C80.3215 8.933 80.8025 7.789 81.0625 6.58C81.3485 7.776 81.8425 8.855 82.7005 9.518L83.3765 8.751C81.9595 7.685 81.5695 5.501 81.5695 3.772V2.355ZM86.5355 4.929H84.9105V0.314H83.8445V11.962H84.9105V5.826H86.5355V4.929ZM95.7905 2.342H88.9785V4.838H97.0515V4.071H90.0315V3.07H96.8435V0.638999H88.9525V1.393H95.7905V2.342ZM89.9665 9.96H96.8825V7.477H88.8875V8.244H95.8295V9.219H88.9135V11.806H97.2465V11.039H89.9665V9.96ZM87.6265 5.722V6.528H98.1955V5.722H87.6265ZM111.312 0.314V6.567H112.378V0.314H111.312ZM104.864 7.139V11.806H112.378V7.139H111.325V8.569H105.917V7.139H104.864ZM105.917 9.401H111.325V10.948H105.917V9.401ZM106.112 0.86C104.357 0.86 103.083 1.952 103.083 3.538C103.083 5.15 104.357 6.229 106.112 6.229C107.88 6.229 109.167 5.15 109.167 3.538C109.167 1.952 107.88 0.86 106.112 0.86ZM106.112 1.744C107.295 1.744 108.127 2.485 108.127 3.538C108.127 4.604 107.295 5.345 106.112 5.345C104.955 5.345 104.123 4.604 104.123 3.538C104.123 2.485 104.955 1.744 106.112 1.744ZM120.931 5.8C119.579 6.021 118.461 6.073 116.303 6.073V4.305H120.255V1.003H115.224V1.874H119.215V3.486H115.263V6.944H116.095C118.422 6.944 119.605 6.905 121.035 6.658L120.931 5.8ZM116.563 8.972H123.297V11.975H124.363V8.101H116.563V8.972ZM123.297 0.314V2.03H121.022V2.901H123.297V4.461H121.022V5.319H123.297V7.477H124.363V0.314H123.297ZM130.147 8.478C129.094 8.478 128.327 7.724 128.327 6.684C128.327 5.631 129.094 4.877 130.147 4.877C131.213 4.877 131.98 5.631 131.98 6.684C131.98 7.724 131.213 8.478 130.147 8.478ZM130.147 3.993C128.509 3.993 127.326 5.111 127.326 6.684C127.326 8.27 128.509 9.362 130.147 9.362C131.811 9.362 132.994 8.27 132.994 6.684C132.994 5.111 131.811 3.993 130.147 3.993ZM130.667 0.444H129.601V2.173H126.663V3.031H133.54V2.173H130.667V0.444ZM137.622 5.098H135.711V0.314H134.645V11.962H135.711V5.995H137.622V5.098ZM142.821 1.315H141.768V3.408C141.768 5.618 140.351 7.854 138.635 8.673L139.285 9.544C140.65 8.842 141.768 7.386 142.301 5.631C142.86 7.295 143.978 8.673 145.304 9.323L145.941 8.465C144.212 7.685 142.821 5.54 142.821 3.408V1.315ZM147.163 0.301V11.988H148.229V0.301H147.163ZM155.456 5.917H152.232V2.173H155.456V5.917ZM159.174 3.226V4.851H156.496V3.226H159.174ZM156.496 5.722H159.174V8.816H160.253V0.314H159.174V2.355H156.496V1.328H151.179V6.762H156.496V5.722ZM153.818 10.831V8.062H152.752V11.702H160.526V10.831H153.818ZM5.707 26.671C5.772 26.255 5.811 25.826 5.811 25.332C5.811 24.838 5.772 24.409 5.707 23.993H7.293V26.671H5.707ZM3.315 28.413C2.392 28.413 1.794 27.23 1.794 25.332C1.794 23.447 2.392 22.264 3.315 22.264C4.251 22.264 4.836 23.447 4.836 25.332C4.836 27.23 4.251 28.413 3.315 28.413ZM7.293 23.122H5.486C5.083 21.952 4.329 21.276 3.315 21.276C1.807 21.276 0.832 22.836 0.832 25.332C0.832 27.841 1.807 29.401 3.315 29.401C4.329 29.401 5.07 28.725 5.486 27.555H7.293V31.39H8.307V20.561H7.293V23.122ZM9.581 20.301V31.962H10.595V20.301H9.581ZM13.909 23.759C13.909 22.654 14.741 21.9 15.911 21.9C17.068 21.9 17.913 22.654 17.913 23.759C17.913 24.851 17.068 25.618 15.911 25.618C14.741 25.618 13.909 24.851 13.909 23.759ZM18.953 23.759C18.953 22.121 17.666 21.003 15.911 21.003C14.143 21.003 12.869 22.121 12.869 23.759C12.869 25.384 14.143 26.515 15.911 26.515C17.666 26.515 18.953 25.384 18.953 23.759ZM14.117 28.647H20.63V31.962H21.696V27.776H14.117V28.647ZM23.399 22.966V22.082H21.696V20.314H20.63V27.23H21.696V25.449H23.399V24.578H21.696V22.966H23.399ZM34.175 20.301H33.109V26.281H34.175V20.301ZM25.907 23.317C25.907 22.303 26.752 21.588 27.883 21.588C29.027 21.588 29.859 22.303 29.859 23.317C29.859 24.318 29.027 25.033 27.883 25.033C26.752 25.033 25.907 24.318 25.907 23.317ZM30.899 23.317C30.899 21.77 29.625 20.717 27.883 20.717C26.141 20.717 24.88 21.77 24.88 23.317C24.88 24.851 26.141 25.891 27.883 25.891C29.625 25.891 30.899 24.851 30.899 23.317ZM27.701 30.961V29.674H34.175V26.853H26.622V27.698H33.122V28.881H26.648V31.806H34.565V30.961H27.701ZM42.793 23.33V24.201H45.094V27.256H46.173V20.314H45.094V23.33H42.793ZM43.443 25.982C41.753 25.384 40.609 23.915 40.609 22.42V22.017H43.17V21.159H36.943V22.017H39.543V22.42C39.543 24.097 38.347 25.67 36.605 26.307L37.164 27.152C38.529 26.632 39.608 25.54 40.102 24.188C40.609 25.384 41.61 26.346 42.91 26.814L43.443 25.982ZM42.325 31.13C40.57 31.13 39.504 30.636 39.504 29.791C39.504 28.946 40.57 28.439 42.325 28.439C44.08 28.439 45.146 28.946 45.146 29.791C45.146 30.636 44.08 31.13 42.325 31.13ZM42.325 27.62C39.933 27.62 38.438 28.413 38.438 29.791C38.438 31.169 39.933 31.962 42.325 31.962C44.717 31.962 46.199 31.169 46.199 29.791C46.199 28.413 44.717 27.62 42.325 27.62ZM51.1639 28.413C50.2279 28.413 49.6429 27.23 49.6429 25.319C49.6429 23.447 50.2279 22.264 51.1639 22.264C52.0739 22.264 52.6719 23.447 52.6719 25.319C52.6719 27.23 52.0739 28.413 51.1639 28.413ZM55.1029 24.838H53.6339C53.5039 22.641 52.5679 21.276 51.1639 21.276C49.6429 21.276 48.6679 22.836 48.6679 25.319C48.6679 27.841 49.6429 29.401 51.1639 29.401C52.5939 29.401 53.5429 27.997 53.6339 25.709H55.1029V31.39H56.1169V20.561H55.1029V24.838ZM57.4169 20.301V31.962H58.4309V20.301H57.4169ZM64.5659 21.302H63.4999V23.395C63.4999 25.553 62.1739 27.802 60.4839 28.647L61.1339 29.492C62.4469 28.79 63.5259 27.321 64.0329 25.592C64.5659 27.23 65.6319 28.621 66.9579 29.284L67.5819 28.439C65.8919 27.633 64.5659 25.514 64.5659 23.395V21.302ZM69.0249 20.301V24.253H66.3209V25.124H69.0249V31.975H70.0909V20.301H69.0249ZM82.5835 21.731H79.6715V20.314H78.6055V21.731H75.7065V22.589H82.5835V21.731ZM77.3705 25.397C77.3705 24.591 78.0725 24.071 79.1385 24.071C80.1915 24.071 80.9195 24.591 80.9195 25.397C80.9195 26.216 80.1915 26.736 79.1385 26.736C78.0725 26.736 77.3705 26.216 77.3705 25.397ZM81.9335 25.397C81.9335 24.097 80.7895 23.239 79.1385 23.239C77.4875 23.239 76.3565 24.097 76.3565 25.397C76.3565 26.71 77.4875 27.568 79.1385 27.568C80.7895 27.568 81.9335 26.71 81.9335 25.397ZM78.5275 28.361H77.4615V31.702H85.2355V30.831H78.5275V28.361ZM84.7155 24.149V20.314H83.6495V29.05H84.7155V25.046H86.4445V24.149H84.7155ZM100.198 23.85H93.3471V20.743H92.2941V24.695H100.198V23.85ZM93.2561 28.296H92.1901V31.702H100.276V30.831H93.2561V28.296ZM90.8511 26.073V26.931H95.6741V29.323H96.7401V26.931H101.394V26.073H90.8511ZM105.449 28.413C104.513 28.413 103.928 27.23 103.928 25.319C103.928 23.447 104.513 22.264 105.449 22.264C106.359 22.264 106.957 23.447 106.957 25.319C106.957 27.23 106.359 28.413 105.449 28.413ZM109.388 24.838H107.919C107.789 22.641 106.853 21.276 105.449 21.276C103.928 21.276 102.953 22.836 102.953 25.319C102.953 27.841 103.928 29.401 105.449 29.401C106.879 29.401 107.828 27.997 107.919 25.709H109.388V31.39H110.402V20.561H109.388V24.838ZM111.702 20.301V31.962H112.716V20.301H111.702ZM127.562 20.301H126.496V26.281H127.562V20.301ZM119.294 23.317C119.294 22.303 120.139 21.588 121.27 21.588C122.414 21.588 123.246 22.303 123.246 23.317C123.246 24.318 122.414 25.033 121.27 25.033C120.139 25.033 119.294 24.318 119.294 23.317ZM124.286 23.317C124.286 21.77 123.012 20.717 121.27 20.717C119.528 20.717 118.267 21.77 118.267 23.317C118.267 24.851 119.528 25.891 121.27 25.891C123.012 25.891 124.286 24.851 124.286 23.317ZM121.088 30.961V29.674H127.562V26.853H120.009V27.698H126.509V28.881H120.035V31.806H127.952V30.961H121.088ZM136.18 23.33V24.201H138.481V27.256H139.56V20.314H138.481V23.33H136.18ZM136.83 25.982C135.14 25.384 133.996 23.915 133.996 22.42V22.017H136.557V21.159H130.33V22.017H132.93V22.42C132.93 24.097 131.734 25.67 129.992 26.307L130.551 27.152C131.916 26.632 132.995 25.54 133.489 24.188C133.996 25.384 134.997 26.346 136.297 26.814L136.83 25.982ZM135.712 31.13C133.957 31.13 132.891 30.636 132.891 29.791C132.891 28.946 133.957 28.439 135.712 28.439C137.467 28.439 138.533 28.946 138.533 29.791C138.533 30.636 137.467 31.13 135.712 31.13ZM135.712 27.62C133.32 27.62 131.825 28.413 131.825 29.791C131.825 31.169 133.32 31.962 135.712 31.962C138.104 31.962 139.586 31.169 139.586 29.791C139.586 28.413 138.104 27.62 135.712 27.62ZM147.177 21.302C149.088 21.302 150.18 21.744 150.18 22.524C150.18 23.304 149.088 23.746 147.177 23.746C145.266 23.746 144.174 23.304 144.174 22.524C144.174 21.744 145.266 21.302 147.177 21.302ZM147.177 24.539C149.738 24.539 151.272 23.837 151.272 22.524C151.272 21.211 149.738 20.496 147.177 20.496C144.616 20.496 143.082 21.211 143.082 22.524C143.082 23.837 144.616 24.539 147.177 24.539ZM144.252 29.817H151.103V27.191H143.173V27.997H150.05V29.037H143.212V31.832H151.454V31H144.252V29.817ZM141.899 25.332V26.19H152.455V25.332H141.899ZM164.024 21.367H161.216V20.223H160.15V21.367H157.329V22.173H164.024V21.367ZM158.967 24.331C158.967 23.72 159.63 23.343 160.683 23.343C161.71 23.343 162.386 23.72 162.386 24.331C162.386 24.942 161.71 25.332 160.683 25.332C159.63 25.332 158.967 24.942 158.967 24.331ZM164.375 26.567C163.361 26.723 162.282 26.801 161.216 26.853V26.047C162.555 25.904 163.4 25.28 163.4 24.331C163.4 23.265 162.308 22.602 160.683 22.602C159.032 22.602 157.953 23.265 157.953 24.331C157.953 25.293 158.798 25.917 160.15 26.047V26.892C159.032 26.931 157.966 26.931 157.043 26.931L157.16 27.789C159.201 27.776 161.957 27.776 164.453 27.334L164.375 26.567ZM158.46 29.557H165.064V31.962H166.13V28.712H158.46V29.557ZM167.846 23.837H166.13V20.314H165.064V28.127H166.13V24.721H167.846V23.837ZM178.622 20.314H177.556V28.829H178.622V20.314ZM170.367 23.98C170.367 22.849 171.225 22.043 172.356 22.043C173.513 22.043 174.371 22.849 174.371 23.98C174.371 25.137 173.513 25.943 172.356 25.943C171.225 25.943 170.367 25.137 170.367 23.98ZM175.411 23.98C175.411 22.303 174.098 21.12 172.356 21.12C170.627 21.12 169.327 22.303 169.327 23.98C169.327 25.67 170.627 26.866 172.356 26.866C174.098 26.866 175.411 25.67 175.411 23.98ZM172.187 30.831V27.958H171.121V31.702H178.973V30.831H172.187ZM187.929 21.367H185.017V20.184H183.951V21.367H181.052V22.186H187.929V21.367ZM182.716 24.617C182.716 23.915 183.405 23.499 184.484 23.499C185.563 23.499 186.265 23.915 186.265 24.617C186.265 25.319 185.563 25.735 184.484 25.735C183.405 25.735 182.716 25.319 182.716 24.617ZM187.279 24.617C187.279 23.434 186.174 22.706 184.484 22.706C182.807 22.706 181.702 23.434 181.702 24.617C181.702 25.8 182.807 26.528 184.484 26.528C186.174 26.528 187.279 25.8 187.279 24.617ZM183.73 29.895H190.061V27.308H182.651V28.101H189.008V29.115H182.69V31.832H190.49V31.013H183.73V29.895ZM190.061 23.07V20.262H188.995V26.71H190.061V23.954H191.79V23.07H190.061ZM206.233 24.747C204.114 24.435 202.034 22.992 202.034 21.367V20.717H200.916V21.367C200.916 23.031 198.862 24.435 196.743 24.747L197.172 25.605C198.992 25.293 200.747 24.292 201.475 22.875C202.229 24.279 203.984 25.293 205.791 25.605L206.233 24.747ZM206.74 26.866H196.21V27.75H200.916V31.975H201.982V27.75H206.753L206.74 26.866ZM220.948 20.314H219.882V26.97H220.948V20.314ZM214.682 21.874C215.839 21.874 216.697 22.641 216.697 23.707C216.697 24.786 215.839 25.54 214.682 25.54C213.525 25.54 212.693 24.786 212.693 23.707C212.693 22.641 213.525 21.874 214.682 21.874ZM214.682 26.424C216.45 26.424 217.737 25.319 217.737 23.707C217.737 22.095 216.45 20.99 214.682 20.99C212.927 20.99 211.653 22.095 211.653 23.707C211.653 25.319 212.927 26.424 214.682 26.424ZM219.648 27.477H218.608V28.101C218.608 29.011 218.049 30.181 216.931 30.87C215.852 30.233 215.319 29.128 215.319 28.101V27.477H214.292V28.101C214.292 29.219 213.421 30.48 211.952 31L212.485 31.806C213.577 31.39 214.37 30.584 214.786 29.648C215.137 30.623 215.839 31.468 216.957 31.91C218.036 31.442 218.751 30.558 219.115 29.609C219.505 30.584 220.311 31.39 221.455 31.806L221.988 31C220.506 30.506 219.648 29.31 219.648 28.101V27.477ZM233.284 23.941C231.217 23.681 229.163 22.394 229.163 20.951V20.431H228.071V20.951C228.071 22.433 226.03 23.681 223.937 23.941L224.327 24.799C226.147 24.513 227.889 23.603 228.617 22.303C229.358 23.603 231.087 24.513 232.894 24.799L233.284 23.941ZM231.451 30.948H225.718V29.466H231.451V30.948ZM231.451 28.647H225.718V27.282H224.665V31.806H232.504V27.282H231.451V28.647ZM223.326 25.618V26.476H233.882V25.618H223.326ZM237.092 21.432H236.026V28.946H236.988C238.847 28.946 240.68 28.816 242.708 28.4L242.591 27.49C240.654 27.88 238.847 28.036 237.092 28.036V21.432ZM243.787 20.301V31.949H244.853V20.301H243.787ZM248.817 22.303H253.172V21.419H247.751V29.076H248.674C250.871 29.076 252.405 28.998 254.186 28.66L254.069 27.776C252.379 28.075 250.884 28.166 248.817 28.166V22.303ZM258.151 24.903H256.227V20.301H255.161V31.988H256.227V25.787H258.151V24.903ZM259.441 30.3843C259.441 30.1812 259.501 30.0119 259.619 29.8765C259.742 29.741 259.924 29.6733 260.165 29.6733C260.406 29.6733 260.588 29.741 260.711 29.8765C260.838 30.0119 260.901 30.1812 260.901 30.3843C260.901 30.5789 260.838 30.7419 260.711 30.873C260.588 31.0042 260.406 31.0698 260.165 31.0698C259.924 31.0698 259.742 31.0042 259.619 30.873C259.501 30.7419 259.441 30.5789 259.441 30.3843ZM0.844238 47.2485C0.844238 46.2922 0.971191 45.3739 1.2251 44.4937C1.48324 43.6134 1.86621 42.8136 2.37402 42.0942C2.88184 41.3748 3.40869 40.867 3.95459 40.5708L4.1958 41.3452C3.57796 41.8192 3.07015 42.5428 2.67236 43.5161C2.27881 44.4894 2.06299 45.5791 2.0249 46.7852L2.01855 47.3247C2.01855 48.9582 2.31689 50.3758 2.91357 51.5776C3.27327 52.297 3.70068 52.8599 4.1958 53.2661L3.95459 53.9834C3.39176 53.6702 2.85433 53.1455 2.34229 52.4092C1.34359 50.9704 0.844238 49.2502 0.844238 47.2485ZM13.6344 40.314V46.567H14.7004V40.314H13.6344ZM7.18636 47.139V51.806H14.7004V47.139H13.6474V48.569H8.23936V47.139H7.18636ZM8.23936 49.401H13.6474V50.948H8.23936V49.401ZM8.43436 40.86C6.67936 40.86 5.40536 41.952 5.40536 43.538C5.40536 45.15 6.67936 46.229 8.43436 46.229C10.2024 46.229 11.4894 45.15 11.4894 43.538C11.4894 41.952 10.2024 40.86 8.43436 40.86ZM8.43436 41.744C9.61736 41.744 10.4494 42.485 10.4494 43.538C10.4494 44.604 9.61736 45.345 8.43436 45.345C7.27736 45.345 6.44536 44.604 6.44536 43.538C6.44536 42.485 7.27736 41.744 8.43436 41.744ZM23.2533 45.8C21.9013 46.021 20.7833 46.073 18.6253 46.073V44.305H22.5773V41.003H17.5463V41.874H21.5373V43.486H17.5853V46.944H18.4173C20.7443 46.944 21.9273 46.905 23.3573 46.658L23.2533 45.8ZM18.8853 48.972H25.6193V51.975H26.6853V48.101H18.8853V48.972ZM25.6193 40.314V42.03H23.3443V42.901H25.6193V44.461H23.3443V45.319H25.6193V47.477H26.6853V40.314H25.6193ZM38.5923 40.301H37.5263V49.024H38.5923V40.301ZM36.5903 46.359C35.5893 46.476 34.5363 46.541 33.4573 46.593V44.981H35.7713V44.123H31.2083V41.926H35.6933V41.055H30.1423V44.981H32.3913V46.632C31.2473 46.671 30.1163 46.684 29.1023 46.684L29.2583 47.555C31.4293 47.555 34.1983 47.477 36.6683 47.126L36.5903 46.359ZM32.1183 50.831V48.452H31.0523V51.702H38.9823V50.831H32.1183ZM49.2519 46.671C49.3169 46.255 49.3559 45.826 49.3559 45.332C49.3559 44.838 49.3169 44.409 49.2519 43.993H50.8379V46.671H49.2519ZM46.8599 48.413C45.9369 48.413 45.3389 47.23 45.3389 45.332C45.3389 43.447 45.9369 42.264 46.8599 42.264C47.7959 42.264 48.3809 43.447 48.3809 45.332C48.3809 47.23 47.7959 48.413 46.8599 48.413ZM50.8379 43.122H49.0309C48.6279 41.952 47.8739 41.276 46.8599 41.276C45.3519 41.276 44.3769 42.836 44.3769 45.332C44.3769 47.841 45.3519 49.401 46.8599 49.401C47.8739 49.401 48.6149 48.725 49.0309 47.555H50.8379V51.39H51.8519V40.561H50.8379V43.122ZM53.1259 40.301V51.962H54.1399V40.301H53.1259ZM57.4539 43.759C57.4539 42.654 58.2859 41.9 59.4559 41.9C60.6129 41.9 61.4579 42.654 61.4579 43.759C61.4579 44.851 60.6129 45.618 59.4559 45.618C58.2859 45.618 57.4539 44.851 57.4539 43.759ZM62.4979 43.759C62.4979 42.121 61.2109 41.003 59.4559 41.003C57.6879 41.003 56.4139 42.121 56.4139 43.759C56.4139 45.384 57.6879 46.515 59.4559 46.515C61.2109 46.515 62.4979 45.384 62.4979 43.759ZM57.6619 48.647H64.1749V51.962H65.2409V47.776H57.6619V48.647ZM66.9439 42.966V42.082H65.2409V40.314H64.1749V47.23H65.2409V45.449H66.9439V44.578H65.2409V42.966H66.9439ZM74.9249 44.214C73.0789 44.591 71.4149 44.721 69.7769 44.734V40.808H68.7239V45.618H69.6339C71.3759 45.618 73.1049 45.501 75.0679 45.111L74.9249 44.214ZM70.8819 49.609H77.1999V46.736H69.7899V47.594H76.1469V48.79H69.8289V51.806H77.6289V50.948H70.8819V49.609ZM77.1999 42.719V40.301H76.1339V46.177H77.1999V43.603H78.9289V42.719H77.1999ZM86.0129 42.355H87.3519V41.484H84.1279V42.355H84.9989V43.772C84.9989 45.111 84.8169 46.957 83.8809 48.192C82.9319 46.931 82.7629 45.059 82.7629 43.772V42.355H83.6209V41.484H80.3189V42.355H81.7489V43.772C81.7489 45.423 81.3589 47.659 79.9549 48.751L80.6309 49.518C81.4629 48.842 81.9569 47.75 82.2559 46.567C82.5159 47.776 82.9969 48.92 83.8809 49.622C84.7649 48.933 85.2459 47.789 85.5059 46.58C85.7919 47.776 86.2859 48.855 87.1439 49.518L87.8199 48.751C86.4029 47.685 86.0129 45.501 86.0129 43.772V42.355ZM90.9789 44.929H89.3539V40.314H88.2879V51.962H89.3539V45.826H90.9789V44.929ZM101.417 43.811H94.5529V40.73H93.4869V44.682H101.417V43.811ZM94.4749 48.27H93.4089V51.676H101.482V50.805H94.4749V48.27ZM92.0569 46.242V47.1H102.626V46.242H92.0569ZM107.877 41.549V42.433H112.154C111.907 45.189 110.308 47.425 107.331 48.92L107.916 49.752C111.686 47.867 113.207 44.864 113.207 41.549H107.877ZM118.095 45.033H116.223V40.301H115.157V51.962H116.223V45.917H118.095V45.033ZM126.544 44.253H128.026V47.386H129.053V40.314H128.026V43.382H126.544V40.535H125.53V46.996H126.544V44.253ZM123.242 45.514H120.733V42.16H123.242V45.514ZM124.23 41.328H119.732V46.333H124.23V41.328ZM125.205 51.117C123.45 51.117 122.371 50.636 122.371 49.817C122.371 48.998 123.45 48.517 125.205 48.517C126.973 48.517 128.052 48.998 128.052 49.817C128.052 50.636 126.973 51.117 125.205 51.117ZM125.205 47.685C122.813 47.685 121.318 48.465 121.318 49.817C121.318 51.156 122.813 51.949 125.205 51.949C127.61 51.949 129.105 51.156 129.105 49.817C129.105 48.465 127.61 47.685 125.205 47.685ZM138.048 45.917C136.358 45.319 135.214 43.863 135.214 42.342V41.913H137.775V41.042H131.548V41.913H134.148V42.355C134.148 44.006 132.939 45.553 131.21 46.177L131.769 47.009C133.134 46.515 134.2 45.449 134.707 44.11C135.214 45.306 136.215 46.281 137.515 46.749L138.048 45.917ZM134.239 48.543H139.738V50.948H134.239V48.543ZM133.199 51.806H140.778V47.698H133.199V51.806ZM139.699 40.301V43.226H137.398V44.11H139.699V47.126H140.778V40.301H139.699ZM149.214 46.84C149.539 44.669 149.539 43.148 149.539 42.212V41.575H143.65V42.446H148.499C148.499 43.382 148.473 44.799 148.148 46.736L149.214 46.84ZM146.536 44.903H145.483V48.491C144.612 48.517 143.754 48.53 143.013 48.53L143.13 49.414C145.197 49.414 147.94 49.362 150.358 48.972L150.293 48.192C149.11 48.348 147.81 48.413 146.536 48.465V44.903ZM153.933 45.176H152.074V40.301H151.008V51.962H152.074V46.073H153.933V45.176ZM159.51 43.967C159.51 42.81 160.355 41.978 161.499 41.978C162.63 41.978 163.475 42.81 163.475 43.967C163.475 45.124 162.63 45.956 161.499 45.956C160.355 45.956 159.51 45.124 159.51 43.967ZM166.842 42.992V44.929H164.333C164.437 44.63 164.489 44.305 164.489 43.967C164.489 43.616 164.437 43.291 164.333 42.992H166.842ZM166.842 45.787V48.92H167.921V40.314H166.842V42.134H163.878C163.332 41.458 162.5 41.042 161.499 41.042C159.783 41.042 158.496 42.264 158.496 43.967C158.496 45.67 159.783 46.892 161.499 46.892C162.5 46.892 163.345 46.476 163.891 45.787H166.842ZM161.538 50.831V48.036H160.459V51.702H168.246V50.831H161.538ZM176.825 43.551H175.096C175.2 42.966 175.252 42.381 175.252 41.783H170.78V42.654H174.199C174.017 45.098 172.769 47.191 170.26 48.686L170.884 49.44C173.094 48.127 174.355 46.372 174.901 44.409H176.825V46.463H174.719V47.334H176.825V51.364H177.839V40.613H176.825V43.551ZM179.165 40.301V51.949H180.179V40.301H179.165ZM186.613 46.203H189.122V45.332H184.221V42.277H189.07V41.393H183.168V46.203H185.547V48.517C184.416 48.556 183.311 48.556 182.31 48.556L182.44 49.453C184.65 49.453 187.445 49.401 189.993 49.011L189.902 48.231C188.862 48.361 187.731 48.426 186.613 48.478V46.203ZM190.669 40.288V51.988H191.735V40.288H190.669ZM203.538 43.811H196.674V40.73H195.608V44.682H203.538V43.811ZM196.596 48.27H195.53V51.676H203.603V50.805H196.596V48.27ZM194.178 46.242V47.1H204.747V46.242H194.178ZM215.602 43.33V44.201H217.903V47.256H218.982V40.314H217.903V43.33H215.602ZM216.252 45.982C214.562 45.384 213.418 43.915 213.418 42.42V42.017H215.979V41.159H209.752V42.017H212.352V42.42C212.352 44.097 211.156 45.67 209.414 46.307L209.973 47.152C211.338 46.632 212.417 45.54 212.911 44.188C213.418 45.384 214.419 46.346 215.719 46.814L216.252 45.982ZM215.134 51.13C213.379 51.13 212.313 50.636 212.313 49.791C212.313 48.946 213.379 48.439 215.134 48.439C216.889 48.439 217.955 48.946 217.955 49.791C217.955 50.636 216.889 51.13 215.134 51.13ZM215.134 47.62C212.742 47.62 211.247 48.413 211.247 49.791C211.247 51.169 212.742 51.962 215.134 51.962C217.526 51.962 219.008 51.169 219.008 49.791C219.008 48.413 217.526 47.62 215.134 47.62ZM223.635 44.084H229.589V46.229H223.635V44.084ZM227.145 49.596V47.087H230.629V41.133H229.589V43.213H223.635V41.133H222.582V47.087H226.066V49.596H221.334V50.467H231.903V49.596H227.145ZM242.64 43.811H235.776V40.73H234.71V44.682H242.64V43.811ZM235.698 48.27H234.632V51.676H242.705V50.805H235.698V48.27ZM233.28 46.242V47.1H243.849V46.242H233.28ZM251.583 48.387C250.452 48.387 249.659 47.165 249.659 45.267C249.659 43.382 250.452 42.16 251.583 42.16C252.701 42.16 253.494 43.382 253.494 45.267C253.494 47.165 252.701 48.387 251.583 48.387ZM251.583 41.198C249.867 41.198 248.645 42.784 248.645 45.267C248.645 47.75 249.867 49.336 251.583 49.336C253.299 49.336 254.508 47.75 254.508 45.267C254.508 42.784 253.299 41.198 251.583 41.198ZM259.37 44.955H257.446V40.314H256.38V51.962H257.446V45.852H259.37V44.955ZM267.65 44.461C265.817 44.838 264.127 44.981 262.216 44.981V40.886H261.15V45.878H262.086C264.114 45.878 265.856 45.735 267.806 45.345L267.65 44.461ZM268.95 50.935H263.555V49.388H268.95V50.935ZM268.95 48.556H263.555V46.996H262.502V51.806H270.003V46.996H268.95V48.556ZM268.937 40.314V46.45H270.003V40.314H268.937ZM274.188 41.432H273.122V48.946H274.084C275.943 48.946 277.776 48.816 279.804 48.4L279.687 47.49C277.75 47.88 275.943 48.036 274.188 48.036V41.432ZM280.883 40.301V51.949H281.949V40.301H280.883ZM285.913 42.303H290.268V41.419H284.847V49.076H285.77C287.967 49.076 289.501 48.998 291.282 48.66L291.165 47.776C289.475 48.075 287.98 48.166 285.913 48.166V42.303ZM295.247 44.903H293.323V40.301H292.257V51.988H293.323V45.787H295.247V44.903ZM299.222 47.312C299.222 48.2557 299.097 49.1613 298.848 50.0288C298.602 50.8921 298.223 51.6898 297.711 52.4219C297.204 53.154 296.67 53.6745 296.112 53.9834L295.864 53.2661C296.516 52.7668 297.039 51.9924 297.432 50.9429C297.83 49.8892 298.033 48.7212 298.042 47.439V47.2358C298.042 46.3472 297.948 45.522 297.762 44.7603C297.576 43.9943 297.316 43.3088 296.981 42.7036C296.651 42.0985 296.279 41.6266 295.864 41.2881L296.112 40.5708C296.67 40.8797 297.201 41.396 297.705 42.1196C298.213 42.8433 298.592 43.641 298.841 44.5127C299.095 45.3844 299.222 46.3175 299.222 47.312Z" fill="#595959"/>
</svg>
