<svg width="185" height="54" viewBox="0 0 185 54" fill="none" xmlns="http://www.w3.org/2000/svg">
<path d="M7.514 13.896H3.444V9.408H7.514V13.896ZM7.514 7.142H3.444V2.236H0.562V16.206H10.396V2.236H7.514V7.142ZM18.756 8.176H15.808V0.651999H12.904V20.892H15.808V10.596H18.756V8.176ZM31.3823 10.772H27.2463V4.7H31.3823V10.772ZM24.3643 10.772H21.7243V13.082H36.9483V10.772H34.2643V4.7H37.0143V2.39H21.6143V4.7H24.3643V10.772ZM20.1843 16.184V18.538H38.5323V16.184H20.1843ZM51.6426 5.932H47.4846V3.336H51.6426V5.932ZM44.6026 5.932H42.1606V8.088H56.9446V5.932H54.5246V3.336H57.0986V1.18H42.0286V3.336H44.6026V5.932ZM45.4166 17.548H56.5046V12.532H42.5126V14.622H53.6446V15.612H42.5346V20.738H57.0326V18.648H45.4166V17.548ZM40.4226 9.122V11.41H58.7266V9.122H40.4226ZM64.0268 10.442H68.8448V2.588H61.1888V4.92H66.0508V8.154H61.2108V16.404H62.6408C65.0828 16.404 67.2828 16.338 69.8788 15.92L69.6588 13.566C67.6348 13.874 65.8748 13.984 64.0268 14.028V10.442ZM75.2908 0.607999V8.264H73.4648V0.981999H70.7588V19.924H73.4648V10.596H75.2908V20.87H78.0408V0.607999H75.2908ZM84.8151 2.786H81.9331V16.184H83.6491C86.6411 16.184 89.7211 16.008 92.9991 15.348L92.6691 12.972C89.9631 13.5 87.3451 13.72 84.8151 13.764V2.786ZM95.0011 0.607999V6.878H89.5451V9.232H95.0011V20.958H97.9051V0.607999H95.0011ZM105.823 14.622C104.239 14.622 103.249 12.62 103.249 9.386C103.249 6.218 104.239 4.216 105.823 4.216C107.363 4.216 108.375 6.218 108.375 9.386C108.375 12.62 107.363 14.622 105.823 14.622ZM112.489 8.572H110.003C109.783 4.854 108.199 2.544 105.823 2.544C103.249 2.544 101.599 5.184 101.599 9.386C101.599 13.654 103.249 16.294 105.823 16.294C108.243 16.294 109.849 13.918 110.003 10.046H112.489V19.66H114.205V1.334H112.489V8.572ZM116.405 0.894V20.628H118.121V0.894H116.405ZM128.504 2.588H126.7V6.13C126.7 9.782 124.456 13.588 121.596 15.018L122.696 16.448C124.918 15.26 126.744 12.774 127.602 9.848C128.504 12.62 130.308 14.974 132.552 16.096L133.608 14.666C130.748 13.302 128.504 9.716 128.504 6.13V2.588ZM136.05 0.894V7.582H131.474V9.056H136.05V20.65H137.854V0.894H136.05ZM8.372 47.402H2.74V42.21H8.372V47.402ZM8.372 40.78H2.74V35.566H0.958V48.876H10.132V35.566H8.372V40.78ZM18.602 41.66H15.346V33.916H13.542V53.606H15.346V43.178H18.602V41.66ZM23.4623 37.282H31.0083V35.764H21.6803V48.766H23.2643C27.2463 48.766 29.8203 48.634 32.8563 48.084L32.6583 46.566C29.7543 47.116 27.2683 47.226 23.4623 47.226V37.282ZM34.7483 33.894V53.672H36.5523V33.894H34.7483ZM51.9946 44.19H47.0886V37.326H51.9946V44.19ZM45.2846 44.19H42.2706V45.664H56.8126V44.19H53.7986V37.326H56.8566V35.874H42.2266V37.326H45.2846V44.19ZM40.6426 49.602V51.098H58.5286V49.602H40.6426ZM70.7148 49.712V45.994H77.0288V44.542H64.8848V41.352H76.5668V35.346H63.0588V36.82H74.8068V39.9H63.1028V45.994H68.8888V49.712H60.8588V51.186H78.7888V49.712H70.7148ZM97.3331 33.894H95.5291V44.146H97.3331V33.894ZM85.6951 36.644H88.9071V41.77C87.8291 41.836 86.7511 41.88 85.6951 41.902V36.644ZM93.5491 41.396C92.6031 41.506 91.6351 41.616 90.6451 41.682V36.644H92.5811V35.214H81.9991V36.644H83.9351V41.946C83.0771 41.968 82.2411 41.968 81.4711 41.968L81.6471 43.464C85.1231 43.442 89.7211 43.31 93.6371 42.716L93.5491 41.396ZM86.2891 51.978V49.822H97.3331V45.092H84.4411V46.5H95.5511V48.48H84.5071V53.408H98.0811V51.978H86.2891ZM110.267 35.588C113.501 35.588 115.349 36.336 115.349 37.656C115.349 38.976 113.501 39.724 110.267 39.724C107.033 39.724 105.185 38.976 105.185 37.656C105.185 36.336 107.033 35.588 110.267 35.588ZM110.267 41.066C114.601 41.066 117.197 39.878 117.197 37.656C117.197 35.434 114.601 34.224 110.267 34.224C105.933 34.224 103.337 35.434 103.337 37.656C103.337 39.878 105.933 41.066 110.267 41.066ZM105.317 49.998H116.911V45.554H103.491V46.918H115.129V48.678H103.557V53.408H117.505V52H105.317V49.998ZM101.335 42.408V43.86H119.199V42.408H101.335ZM139.015 36.314H134.087V33.916H132.283V36.314H127.377V37.766H139.015V36.314ZM130.193 42.518C130.193 41.154 131.381 40.274 133.185 40.274C134.967 40.274 136.199 41.154 136.199 42.518C136.199 43.904 134.967 44.784 133.185 44.784C131.381 44.784 130.193 43.904 130.193 42.518ZM137.915 42.518C137.915 40.318 135.979 38.866 133.185 38.866C130.391 38.866 128.477 40.318 128.477 42.518C128.477 44.74 130.391 46.192 133.185 46.192C135.979 46.192 137.915 44.74 137.915 42.518ZM132.151 47.534H130.347V53.188H143.503V51.714H132.151V47.534ZM142.623 40.406V33.916H140.819V48.7H142.623V41.924H145.549V40.406H142.623ZM163.367 39.9H151.773V34.642H149.991V41.33H163.367V39.9ZM151.619 47.424H149.815V53.188H163.499V51.714H151.619V47.424ZM147.549 43.662V45.114H155.711V49.162H157.515V45.114H165.391V43.662H147.549ZM172.253 47.622C170.669 47.622 169.679 45.62 169.679 42.386C169.679 39.218 170.669 37.216 172.253 37.216C173.793 37.216 174.805 39.218 174.805 42.386C174.805 45.62 173.793 47.622 172.253 47.622ZM178.919 41.572H176.433C176.213 37.854 174.629 35.544 172.253 35.544C169.679 35.544 168.029 38.184 168.029 42.386C168.029 46.654 169.679 49.294 172.253 49.294C174.673 49.294 176.279 46.918 176.433 43.046H178.919V52.66H180.635V34.334H178.919V41.572ZM182.835 33.894V53.628H184.551V33.894H182.835Z" fill="white"/>
</svg>
