<svg width="205" height="225" viewBox="0 0 205 225" fill="none" xmlns="http://www.w3.org/2000/svg">
<path d="M33.1878 50.0772C25.5715 50.0772 19.375 43.8733 19.375 36.2479C19.375 28.6224 25.5715 22.4185 33.1878 22.4185C40.8042 22.4185 47.0007 28.6224 47.0007 36.2479C47.0007 42.0561 43.3361 47.2824 37.884 49.256C36.3768 49.8012 34.7961 50.0772 33.1878 50.0772ZM33.6037 31.8796C31.1959 31.8796 29.2384 33.8394 29.2384 36.2502C29.2384 38.6609 31.1959 40.6207 33.6037 40.6207C34.1161 40.6207 34.6146 40.5333 35.0879 40.3631C36.8111 39.7397 37.969 38.0858 37.969 36.2502C37.969 33.8394 36.0092 31.8796 33.6037 31.8796Z" fill="#FFC142"/>
<path d="M19.4023 38.0327L19.508 58.9999C19.508 58.9999 23.2967 53.7829 28.3559 47.526" fill="#FFC142"/>
<path d="M14.1302 38.6309C10.5943 38.6309 7.05603 37.2829 4.36331 34.587C-1.02214 29.1928 -1.02214 20.4217 4.36331 15.0298C6.97332 12.419 10.4403 10.979 14.1302 10.979C17.82 10.979 21.287 12.4167 23.8971 15.0298C25.0366 16.1685 25.958 17.4819 26.6357 18.9334C29.0987 24.1896 27.9982 30.4786 23.8971 34.587C21.2043 37.2829 17.6684 38.6309 14.1302 38.6309ZM14.1302 20.4378C12.963 20.4378 11.8671 20.8933 11.0423 21.7191C9.33979 23.4236 9.33979 26.1955 11.0423 27.9C12.7448 29.6045 15.5156 29.6045 17.2158 27.9C18.5139 26.6003 18.8631 24.6129 18.0843 22.9521C17.8706 22.4989 17.5788 22.0825 17.2158 21.7191C16.3933 20.8933 15.295 20.4378 14.1302 20.4378Z" fill="#3B75FF"/>
<path d="M12.0203 14.6575C7.81807 10.2409 0.00181535 0 0.00181535 0C0.00181535 0 -0.00737484 7.52427 0.0156006 12.8978C0.033981 17.2131 0.121288 22.1151 0.208595 23.4354L0.245355 24.321C0.259141 24.6776 0.284414 25.0341 0.318877 25.3884L0.413076 26.3522" fill="#3B75FF"/>
<path d="M26.222 180.718H29.176V179.766H22.162V180.718H25.074V182.314C25.074 184.484 23.548 186.85 21.742 187.704L22.414 188.628C23.842 187.9 25.074 186.318 25.648 184.484C26.25 186.206 27.482 187.648 28.938 188.32L29.582 187.396C27.734 186.612 26.222 184.442 26.222 182.314V180.718ZM30.87 178.492V191.036H32.018V178.492H30.87ZM36.5669 187.508H43.8049V191.05H44.9669V186.57H36.5669V187.508ZM41.1309 183.14C41.2149 182.846 41.2709 182.538 41.2709 182.188C41.2709 181.852 41.2149 181.544 41.1309 181.25H43.8049V183.14H41.1309ZM38.0369 184.246C36.8189 184.246 35.9089 183.392 35.9089 182.188C35.9089 181.012 36.8189 180.158 38.0369 180.158C39.2689 180.158 40.1789 181.012 40.1789 182.188C40.1789 183.392 39.2689 184.246 38.0369 184.246ZM43.8049 178.492V180.326H40.6409C40.0529 179.612 39.1289 179.178 38.0369 179.178C36.1889 179.178 34.8169 180.424 34.8169 182.188C34.8169 183.966 36.1889 185.226 38.0369 185.226C39.1289 185.226 40.0389 184.792 40.6269 184.078H43.8049V185.884H44.9669V178.478L43.8049 178.492ZM56.6838 181.166V182.552H53.7858V181.166H56.6838ZM52.6518 183.616H49.2638V181.754H52.6518V183.616ZM53.7858 183.448H56.6838V185.044H57.8318V178.492H56.6838V180.27H53.7858V179.08H52.6518V180.858H49.2638V179.066H48.1298V184.54H53.7858V183.448ZM50.9018 189.958V188.628H57.8318V185.646H49.7398V186.556H56.6978V187.76H49.7678V190.868H58.3078V189.958H50.9018ZM62.3527 188.376L62.4507 188.53C62.3294 189.025 62.1567 189.566 61.9327 190.154C61.7087 190.751 61.4801 191.302 61.2467 191.806H60.1687C60.2994 191.265 60.4301 190.677 60.5607 190.042C60.6914 189.417 60.7941 188.861 60.8687 188.376H62.3527ZM74.2836 182.482V183.42H77.0276V187.802H78.1896V178.492H77.0276V182.482H74.2836ZM68.7396 179.486V180.424H73.1216C73.0796 180.942 72.9816 181.432 72.8136 181.894L68.0956 182.104L68.3056 183.042L72.3936 182.734C71.6376 183.938 70.2796 184.932 68.1656 185.604L68.6416 186.528C72.6736 185.184 74.3116 182.748 74.3116 179.486H68.7396ZM71.4416 189.818V186.878H70.2936V190.756H78.5536V189.818H71.4416ZM87.7645 185.38H88.8425V178.702H87.7645V181.096H85.8045V182.048H87.7645V185.38ZM86.9105 184.134C85.3425 183.49 84.4325 182.062 84.4325 180.648V179.122H83.3265V180.662C83.3265 182.062 82.3605 183.686 80.7365 184.4L81.3525 185.282C82.5565 184.736 83.4385 183.7 83.8725 182.524C84.3205 183.602 85.1465 184.526 86.2945 185.016L86.9105 184.134ZM90.1865 189.944H84.2225V188.348H90.1865V189.944ZM90.1865 187.438H84.2225V185.982H83.0745V190.868H91.3205V185.982H90.1865V187.438ZM90.2145 178.492V185.464H91.3205V178.492H90.2145ZM102.785 181.166V182.552H99.8874V181.166H102.785ZM98.7534 183.616H95.3654V181.754H98.7534V183.616ZM99.8874 183.448H102.785V185.044H103.933V178.492H102.785V180.27H99.8874V179.08H98.7534V180.858H95.3654V179.066H94.2314V184.54H99.8874V183.448ZM97.0034 189.958V188.628H103.933V185.646H95.8414V186.556H102.799V187.76H95.8694V190.868H104.409V189.958H97.0034ZM120.939 184.792C118.741 184.372 116.361 182.468 116.361 180.326V179.36H115.157V180.326C115.157 182.468 112.791 184.358 110.593 184.792L111.111 185.744C113.001 185.296 114.961 183.952 115.759 182.118C116.557 183.966 118.517 185.31 120.421 185.744L120.939 184.792ZM110.117 188.404V189.356H121.499V188.404H110.117ZM133.104 183.84H125.642V182.314H132.656V181.418H125.642V179.99H132.95V179.066H124.508V184.764H133.104V183.84ZM134.364 186.052H122.982V186.99H125.95V191.022H127.098V186.99H130.262V191.022H131.41V186.99H134.364V186.052ZM137.821 180.634H142.623V179.668H136.687V187.942H137.695C140.229 187.942 141.867 187.858 143.799 187.508L143.673 186.542C141.825 186.892 140.243 186.962 137.821 186.962V180.634ZM145.003 178.478V191.064H146.151V178.478H145.003ZM150.966 182.594C150.966 181.152 152.436 180.214 154.438 180.214C156.44 180.214 157.896 181.152 157.896 182.594C157.896 184.036 156.44 184.974 154.438 184.974C152.436 184.974 150.966 184.036 150.966 182.594ZM155.012 188.474V185.856C157.35 185.688 158.988 184.442 158.988 182.594C158.988 180.592 157.084 179.304 154.438 179.304C151.778 179.304 149.86 180.592 149.86 182.594C149.86 184.442 151.512 185.688 153.85 185.856V188.474H148.74V189.426H160.15V188.474H155.012Z" fill="black" fill-opacity="0.8"/>
<path fill-rule="evenodd" clip-rule="evenodd" d="M14 180.634L5.27135 192L0 186.678L1.09296 184.851L5.12188 188.919L12.7391 179L14 180.634Z" fill="#FFC142"/>
<path d="M27.146 214.338C27.216 213.89 27.258 213.428 27.258 212.896C27.258 212.364 27.216 211.902 27.146 211.454H28.854V214.338H27.146ZM24.57 216.214C23.576 216.214 22.932 214.94 22.932 212.896C22.932 210.866 23.576 209.592 24.57 209.592C25.578 209.592 26.208 210.866 26.208 212.896C26.208 214.94 25.578 216.214 24.57 216.214ZM28.854 210.516H26.908C26.474 209.256 25.662 208.528 24.57 208.528C22.946 208.528 21.896 210.208 21.896 212.896C21.896 215.598 22.946 217.278 24.57 217.278C25.662 217.278 26.46 216.55 26.908 215.29H28.854V219.42H29.946V207.758H28.854V210.516ZM31.318 207.478V220.036H32.41V207.478H31.318ZM35.9789 211.202C35.9789 210.012 36.8749 209.2 38.1349 209.2C39.3809 209.2 40.2909 210.012 40.2909 211.202C40.2909 212.378 39.3809 213.204 38.1349 213.204C36.8749 213.204 35.9789 212.378 35.9789 211.202ZM41.4109 211.202C41.4109 209.438 40.0249 208.234 38.1349 208.234C36.2309 208.234 34.8589 209.438 34.8589 211.202C34.8589 212.952 36.2309 214.17 38.1349 214.17C40.0249 214.17 41.4109 212.952 41.4109 211.202ZM36.2029 216.466H43.2169V220.036H44.3649V215.528H36.2029V216.466ZM46.1989 210.348V209.396H44.3649V207.492H43.2169V214.94H44.3649V213.022H46.1989V212.084H44.3649V210.348H46.1989ZM54.0938 212.84C54.4158 211.188 54.4158 209.942 54.4158 209.116V208.458H48.1718V209.396H53.2958C53.2958 210.194 53.2538 211.272 52.9598 212.714L54.0938 212.84ZM55.2838 213.596C54.0098 213.778 52.5818 213.876 51.2098 213.932V211.258H50.0758V213.974C49.1238 213.988 48.2138 214.002 47.4158 214.002L47.5278 214.94C49.7538 214.94 52.7638 214.87 55.3678 214.436L55.2838 213.596ZM50.4818 216.074H49.3338V219.756H57.6778V218.818H50.4818V216.074ZM57.2718 211.566V207.478H56.1238V216.942H57.2718V212.518H59.0778V211.566H57.2718ZM62.2547 213.134H66.8887V208.64H61.0647V209.578H65.7267V212.196H61.1067V217.012H62.1427C64.2987 217.012 66.2027 216.928 68.4707 216.55L68.3587 215.612C66.1607 215.962 64.3127 216.06 62.2547 216.06V213.134ZM69.5347 207.464V220.05H70.6827V207.464H69.5347ZM84.1183 211.146H80.9963V208.752H84.1183V211.146ZM79.8483 211.146H77.9863V212.028H87.1143V211.146H85.2663V208.752H87.1563V207.87H77.9443V208.752H79.8483V211.146ZM79.4143 217.852H86.7923V215.094H78.2523V215.948H85.6583V217.026H78.2943V219.896H87.1703V219.028H79.4143V217.852ZM76.8803 213.078V213.988H88.2483V213.078H76.8803ZM91.2993 213.26H94.8693V208.85H90.1513V209.788H93.7493V212.322H90.1933V217.026H91.0193C92.5733 217.026 93.9873 216.97 95.7233 216.676L95.6393 215.724C94.0433 216.004 92.7272 216.06 91.2993 216.074V213.26ZM99.3353 207.478V212.434H97.5573V207.758H96.4793V219.392H97.5573V213.372H99.3353V220.022H100.441V207.478H99.3353ZM104.486 208.878H103.338V217.026H104.318C106.306 217.026 108.07 216.9 110.058 216.522L109.904 215.542C108.056 215.92 106.348 216.046 104.486 216.06V208.878ZM111.85 207.478V211.622H108V212.574H111.85V220.064H112.998V207.478H111.85Z" fill="black" fill-opacity="0.8"/>
<path fill-rule="evenodd" clip-rule="evenodd" d="M14 209.634L5.27135 221L0 215.678L1.09296 213.851L5.12188 217.919L12.7391 208L14 209.634Z" fill="#FFC142"/>
<path d="M9.288 100.432H4.848V95.536H9.288V100.432ZM9.288 93.064H4.848V87.712H1.704V102.952H12.432V87.712H9.288V93.064ZM21.552 94.192H18.336V85.984H15.168V108.064H18.336V96.832H21.552V94.192ZM35.3261 97.024H30.8141V90.4H35.3261V97.024ZM27.6701 97.024H24.7901V99.544H41.3981V97.024H38.4701V90.4H41.4701V87.88H24.6701V90.4H27.6701V97.024ZM23.1101 102.928V105.496H43.1261V102.928H23.1101ZM57.4283 91.744H52.8923V88.912H57.4283V91.744ZM49.7483 91.744H47.0843V94.096H63.2123V91.744H60.5723V88.912H63.3803V86.56H46.9403V88.912H49.7483V91.744ZM50.6363 104.416H62.7323V98.944H47.4683V101.224H59.6123V102.304H47.4923V107.896H63.3083V105.616H50.6363V104.416ZM45.1883 95.224V97.72H65.1563V95.224H45.1883ZM70.9384 96.664H76.1944V88.096H67.8424V90.64H73.1464V94.168H67.8664V103.168H69.4264C72.0904 103.168 74.4904 103.096 77.3224 102.64L77.0824 100.072C74.8744 100.408 72.9544 100.528 70.9384 100.576V96.664ZM83.2264 85.936V94.288H81.2344V86.344H78.2824V107.008H81.2344V96.832H83.2264V108.04H86.2264V85.936H83.2264ZM93.6165 88.312H90.4725V102.928H92.3445C95.6085 102.928 98.9685 102.736 102.545 102.016L102.185 99.424C99.2325 100 96.3765 100.24 93.6165 100.288V88.312ZM104.729 85.936V92.776H98.7765V95.344H104.729V108.136H107.897V85.936H104.729ZM116.535 101.224C114.807 101.224 113.727 99.04 113.727 95.512C113.727 92.056 114.807 89.872 116.535 89.872C118.215 89.872 119.319 92.056 119.319 95.512C119.319 99.04 118.215 101.224 116.535 101.224ZM123.807 94.624H121.095C120.855 90.568 119.127 88.048 116.535 88.048C113.727 88.048 111.927 90.928 111.927 95.512C111.927 100.168 113.727 103.048 116.535 103.048C119.175 103.048 120.927 100.456 121.095 96.232H123.807V106.72H125.679V86.728H123.807V94.624ZM128.079 86.248V107.776H129.951V86.248H128.079ZM141.277 88.096H139.309V91.96C139.309 95.944 136.861 100.096 133.741 101.656L134.941 103.216C137.365 101.92 139.357 99.208 140.293 96.016C141.277 99.04 143.245 101.608 145.693 102.832L146.845 101.272C143.725 99.784 141.277 95.872 141.277 91.96V88.096ZM149.509 86.248V93.544H144.517V95.152H149.509V107.8H151.477V86.248H149.509ZM10.224 136.984H4.08V131.32H10.224V136.984ZM10.224 129.76H4.08V124.072H2.136V138.592H12.144V124.072H10.224V129.76ZM21.384 130.72H17.832V122.272H15.864V143.752H17.832V132.376H21.384V130.72ZM26.6861 125.944H34.9181V124.288H24.7421V138.472H26.4701C30.8141 138.472 33.6221 138.328 36.9341 137.728L36.7181 136.072C33.5501 136.672 30.8381 136.792 26.6861 136.792V125.944ZM38.9981 122.248V143.824H40.9661V122.248H38.9981ZM57.8123 133.48H52.4603V125.992H57.8123V133.48ZM50.4922 133.48H47.2043V135.088H63.0683V133.48H59.7803V125.992H63.1163V124.408H47.1562V125.992H50.4922V133.48ZM45.4283 139.384V141.016H64.9403V139.384H45.4283ZM78.2344 139.504V135.448H85.1224V133.864H71.8744V130.384H84.6184V123.832H69.8824V125.44H82.6984V128.8H69.9304V135.448H76.2424V139.504H67.4824V141.112H87.0424V139.504H78.2344ZM107.273 122.248H105.305V133.432H107.273V122.248ZM94.5765 125.248H98.0805V130.84C96.9045 130.912 95.7285 130.96 94.5765 130.984V125.248ZM103.145 130.432C102.113 130.552 101.057 130.672 99.9765 130.744V125.248H102.089V123.688H90.5445V125.248H92.6565V131.032C91.7205 131.056 90.8085 131.056 89.9685 131.056L90.1605 132.688C93.9525 132.664 98.9685 132.52 103.241 131.872L103.145 130.432ZM95.2245 141.976V139.624H107.273V134.464H93.2085V136H105.329V138.16H93.2805V143.536H108.089V141.976H95.2245ZM121.383 124.096C124.911 124.096 126.927 124.912 126.927 126.352C126.927 127.792 124.911 128.608 121.383 128.608C117.855 128.608 115.839 127.792 115.839 126.352C115.839 124.912 117.855 124.096 121.383 124.096ZM121.383 130.072C126.111 130.072 128.943 128.776 128.943 126.352C128.943 123.928 126.111 122.608 121.383 122.608C116.655 122.608 113.823 123.928 113.823 126.352C113.823 128.776 116.655 130.072 121.383 130.072ZM115.983 139.816H128.631V134.968H113.991V136.456H126.687V138.376H114.063V143.536H129.279V142H115.983V139.816ZM111.639 131.536V133.12H131.127V131.536H111.639ZM152.743 124.888H147.367V122.272H145.399V124.888H140.047V126.472H152.743V124.888ZM143.119 131.656C143.119 130.168 144.415 129.208 146.383 129.208C148.327 129.208 149.671 130.168 149.671 131.656C149.671 133.168 148.327 134.128 146.383 134.128C144.415 134.128 143.119 133.168 143.119 131.656ZM151.543 131.656C151.543 129.256 149.431 127.672 146.383 127.672C143.335 127.672 141.247 129.256 141.247 131.656C141.247 134.08 143.335 135.664 146.383 135.664C149.431 135.664 151.543 134.08 151.543 131.656ZM145.255 137.128H143.287V143.296H157.639V141.688H145.255V137.128ZM156.679 129.352V122.272H154.711V138.4H156.679V131.008H159.871V129.352H156.679ZM179.309 128.8H166.661V123.064H164.717V130.36H179.309V128.8ZM166.493 137.008H164.525V143.296H179.453V141.688H166.493V137.008ZM162.053 132.904V134.488H170.957V138.904H172.925V134.488H181.517V132.904H162.053ZM189.003 137.224C187.275 137.224 186.195 135.04 186.195 131.512C186.195 128.056 187.275 125.872 189.003 125.872C190.683 125.872 191.787 128.056 191.787 131.512C191.787 135.04 190.683 137.224 189.003 137.224ZM196.275 130.624H193.563C193.323 126.568 191.595 124.048 189.003 124.048C186.195 124.048 184.395 126.928 184.395 131.512C184.395 136.168 186.195 139.048 189.003 139.048C191.643 139.048 193.395 136.456 193.563 132.232H196.275V142.72H198.147V122.728H196.275V130.624ZM200.547 122.248V143.776H202.419V122.248H200.547Z" fill="black"/>
</svg>
