<svg width="186" height="52" viewBox="0 0 186 52" fill="none" xmlns="http://www.w3.org/2000/svg">
<path d="M23.9286 4.854H30.4846V2.5H21.0466V16.074H22.7626C26.2826 16.074 29.0546 15.964 32.1126 15.414L31.8266 13.016C29.2086 13.456 26.8106 13.61 23.9286 13.654V4.854ZM39.0646 8.11H36.1166V0.629999H33.2126V20.936H36.1166V10.508H39.0646V8.11ZM43.4849 6.658C43.4849 5.096 44.6069 4.172 46.1469 4.172C47.6649 4.172 48.8089 5.096 48.8089 6.658C48.8089 8.198 47.6649 9.122 46.1469 9.122C44.6069 9.122 43.4849 8.198 43.4849 6.658ZM51.6249 6.658C51.6249 3.776 49.2489 1.73 46.1469 1.73C43.0229 1.73 40.6469 3.776 40.6469 6.658C40.6469 9.496 43.0229 11.564 46.1469 11.564C49.2489 11.564 51.6249 9.496 51.6249 6.658ZM49.8209 18.626C47.2249 18.626 45.8389 18.076 45.8389 16.888C45.8389 15.722 47.2249 15.15 49.8209 15.15C52.3949 15.15 53.7809 15.722 53.7809 16.888C53.7809 18.076 52.3949 18.626 49.8209 18.626ZM49.8209 12.884C45.6189 12.884 42.9569 14.38 42.9569 16.888C42.9569 19.418 45.6189 20.892 49.8209 20.892C54.0009 20.892 56.6629 19.418 56.6629 16.888C56.6629 14.38 54.0009 12.884 49.8209 12.884ZM59.0389 5.492V3.116H56.4429V0.629999H53.5389V12.444H56.4429V9.892H59.0389V7.516H56.4429V5.492H59.0389ZM72.6772 2.764H68.1452V0.607999H65.2192V2.764H60.7312V5.03H72.6552L72.6772 2.764ZM64.4932 9.65C64.4932 8.55 65.3952 7.956 66.6932 7.956C67.9692 7.956 68.8932 8.55 68.8932 9.65C68.8932 10.772 67.9692 11.366 66.6932 11.366C65.3952 11.366 64.4932 10.772 64.4932 9.65ZM71.6652 9.65C71.6652 7.362 69.5972 5.756 66.6932 5.756C63.7892 5.756 61.7212 7.362 61.7212 9.65C61.7212 11.982 63.7892 13.566 66.6932 13.566C69.5972 13.566 71.6652 11.982 71.6652 9.65ZM66.5172 14.666H63.6132V20.54H77.4072V18.23H66.5172V14.666ZM76.6812 6.812V0.629999H73.7772V15.788H76.6812V9.21H79.3652V6.812H76.6812ZM97.1563 6.768V9.122H100.72V15.59H103.624V0.629999H100.72V6.768H97.1563ZM88.0483 2.17V4.48H94.2303C94.1863 5.052 94.0543 5.602 93.9003 6.13L87.0363 6.372L87.4323 8.638L92.7783 8.22C91.6563 9.584 89.8303 10.728 86.9923 11.608L88.1143 13.896C94.8903 11.674 97.2883 7.868 97.2883 2.17H88.0483ZM93.3063 18.23V14.138H90.4023V20.54H104.152V18.23H93.3063ZM117.395 11.784H120.101V0.981999H117.395V4.326H114.997V6.658H117.395V11.784ZM116.801 9.232C114.315 8.11 113.303 5.954 113.303 3.754V1.642H110.487V3.798C110.487 6.02 109.409 8.418 106.637 9.628L108.155 11.828C109.981 11.058 111.191 9.694 111.917 8.044C112.577 9.518 113.655 10.706 115.283 11.41L116.801 9.232ZM121.333 18.362H113.303V16.624H121.333V18.362ZM121.333 14.402H113.303V12.642H110.421V20.65H124.193V12.642H121.333V14.402ZM121.443 0.629999V11.872H124.193V0.629999H121.443ZM143.331 5.118H132.331V3.336H143.177V1.026H129.449V7.406H143.331V5.118ZM132.155 17.284H143.243V11.916H129.251V14.094H140.383V15.238H129.273V20.716H143.771V18.494H132.155V17.284ZM127.183 8.484V10.772H145.509V8.484H127.183ZM156.551 3.05C159.499 3.05 160.885 3.468 160.885 4.37C160.885 5.316 159.499 5.712 156.551 5.712C153.625 5.712 152.239 5.316 152.239 4.37C152.239 3.468 153.625 3.05 156.551 3.05ZM156.551 7.824C161.193 7.824 163.899 6.614 163.899 4.37C163.899 2.148 161.193 0.915999 156.551 0.915999C151.931 0.915999 149.225 2.148 149.225 4.37C149.225 6.614 151.931 7.824 156.551 7.824ZM152.393 17.416H163.481V12.202H149.489V14.336H160.621V15.414H149.511V20.738H164.009V18.56H152.393V17.416ZM147.399 8.792V11.058H165.703V8.792H147.399ZM11.9623 33.764H7.43031V31.608H4.50431V33.764H0.0163125V36.03H11.9403L11.9623 33.764ZM3.77831 40.65C3.77831 39.55 4.68031 38.956 5.97831 38.956C7.25431 38.956 8.17831 39.55 8.17831 40.65C8.17831 41.772 7.25431 42.366 5.97831 42.366C4.68031 42.366 3.77831 41.772 3.77831 40.65ZM10.9503 40.65C10.9503 38.362 8.88231 36.756 5.97831 36.756C3.07431 36.756 1.00631 38.362 1.00631 40.65C1.00631 42.982 3.07431 44.566 5.97831 44.566C8.88231 44.566 10.9503 42.982 10.9503 40.65ZM5.80231 45.666H2.89831V51.54H16.6923V49.23H5.80231V45.666ZM15.9663 37.812V31.63H13.0623V46.788H15.9663V40.21H18.6503V37.812H15.9663ZM36.5786 37.086H25.5126V32.18H22.6086V39.374H36.5786V37.086ZM25.3146 45.446H22.4106V51.54H36.7106V49.252H25.3146V45.446ZM20.2766 41.134V43.444H28.2186V46.986H31.1226V43.444H38.6246V41.134H20.2766ZM45.0469 45.05C43.9469 45.05 43.2869 43.532 43.2869 40.408C43.2869 37.306 43.9469 35.788 45.0469 35.788C46.1689 35.788 46.8069 37.306 46.8069 40.408C46.8069 43.532 46.1689 45.05 45.0469 45.05ZM51.0089 39.088H49.4029C49.0729 35.304 47.4449 33.06 45.0469 33.06C42.3629 33.06 40.6689 35.832 40.6689 40.408C40.6689 45.006 42.3629 47.778 45.0469 47.778C47.5109 47.778 49.1609 45.402 49.4249 41.442H51.0089V50.99H53.7149V31.96H51.0089V39.088ZM55.1229 31.608V51.87H57.8729V31.608H55.1229ZM78.216 33.126H73.926V31.454H71.022V33.126H66.71V35.194H78.216V33.126ZM70.274 38.692C70.274 37.944 71.11 37.57 72.474 37.57C73.838 37.57 74.652 37.944 74.652 38.692C74.652 39.44 73.838 39.836 72.474 39.836C71.11 39.836 70.274 39.44 70.274 38.692ZM78.722 42.278C77.182 42.454 75.576 42.586 73.926 42.652V41.618C76.082 41.288 77.402 40.232 77.402 38.692C77.402 36.844 75.466 35.7 72.474 35.7C69.482 35.7 67.524 36.844 67.524 38.692C67.524 40.232 68.866 41.288 71.022 41.618V42.762C69.306 42.806 67.656 42.806 66.204 42.806L66.512 45.028C70.076 45.028 74.696 44.984 78.942 44.236L78.722 42.278ZM68.778 48.482H79.602V51.914H82.506V46.238H68.778V48.482ZM85.058 37.438H82.506V31.63H79.602V45.446H82.506V39.814H85.058V37.438ZM103.514 31.652H100.588V46.194H103.514V31.652ZM89.8083 38.076C89.8083 36.404 90.9963 35.436 92.4923 35.436C94.0103 35.436 95.1543 36.404 95.1543 38.076C95.1543 39.704 94.0103 40.694 92.4923 40.694C90.9963 40.694 89.8083 39.704 89.8083 38.076ZM97.9923 38.076C97.9923 35.084 95.5943 32.928 92.4923 32.928C89.3903 32.928 86.9703 35.084 86.9703 38.076C86.9703 41.024 89.3903 43.202 92.4923 43.202C95.5943 43.202 97.9923 41.024 97.9923 38.076ZM92.9323 49.23V44.764H90.0283V51.54H104.02V49.23H92.9323ZM111.785 45.116C110.685 45.116 109.893 44.236 109.893 42.718C109.893 41.2 110.685 40.298 111.785 40.298C112.885 40.298 113.677 41.2 113.677 42.718C113.677 44.236 112.885 45.116 111.785 45.116ZM111.785 37.878C109.189 37.878 107.341 39.88 107.341 42.718C107.341 45.534 109.189 47.536 111.785 47.536C114.381 47.536 116.229 45.534 116.229 42.718C116.229 39.88 114.381 37.878 111.785 37.878ZM113.215 32.18H110.355V34.688H106.901V36.998H116.581V34.688H113.215V32.18ZM121.553 31.608V39.88H120.013V32.004H117.307V51.034H120.013V42.212H121.553V51.87H124.303V31.608H121.553ZM131.979 38.318H140.647V41.156H131.979V38.318ZM137.765 47.184V43.466H143.507V32.884H140.647V36.03H131.979V32.884H129.097V43.466H134.861V47.184H127.161V49.538H145.509V47.184H137.765ZM153.867 33.39H151.073V36.8C151.073 40.254 149.995 43.884 147.025 45.688L148.763 47.866C150.589 46.766 151.777 44.83 152.481 42.586C153.119 44.632 154.197 46.348 155.913 47.404L157.497 45.16C154.747 43.334 153.867 39.968 153.867 36.69V33.39ZM157.915 38.472H155.363V40.826H157.915V50.99H160.621V31.96H157.915V38.472ZM162.029 31.63V51.892H164.779V31.63H162.029ZM174.567 43.312C175.271 43.444 175.997 43.51 176.789 43.51C177.581 43.51 178.329 43.444 179.033 43.312V47.184H174.567V43.312ZM176.789 34.908C179.605 34.908 181.497 36.052 181.497 38.076C181.497 40.078 179.605 41.244 176.789 41.244C173.973 41.244 172.103 40.078 172.103 38.076C172.103 36.052 173.973 34.908 176.789 34.908ZM181.915 47.184V42.234C183.433 41.288 184.357 39.836 184.357 38.076C184.357 34.754 181.167 32.62 176.789 32.62C172.433 32.62 169.243 34.754 169.243 38.076C169.221 39.836 170.145 41.288 171.685 42.234V47.184H167.637V49.538H185.985V47.184H181.915Z" fill="black"/>
</svg>
