<svg fill="none" height="322" viewBox="0 0 360 322" width="360" xmlns="http://www.w3.org/2000/svg" xmlns:xlink="http://www.w3.org/1999/xlink"><filter id="a" color-interpolation-filters="sRGB" filterUnits="userSpaceOnUse" height="115" width="205" x="136" y="13"><feFlood flood-opacity="0" result="BackgroundImageFix"/><feColorMatrix in="SourceAlpha" result="hardAlpha" type="matrix" values="0 0 0 0 0 0 0 0 0 0 0 0 0 0 0 0 0 0 127 0"/><feOffset dy="4"/><feGaussianBlur stdDeviation="12.5"/><feColorMatrix type="matrix" values="0 0 0 0 0.386556 0 0 0 0 0.383646 0 0 0 0 0.529167 0 0 0 0.18 0"/><feBlend in2="BackgroundImageFix" mode="normal" result="effect1_dropShadow_497_1484"/><feBlend in="SourceGraphic" in2="effect1_dropShadow_497_1484" mode="normal" result="shape"/></filter><filter id="b" color-interpolation-filters="sRGB" filterUnits="userSpaceOnUse" height="88" width="147" x="255" y="263"><feFlood flood-opacity="0" result="BackgroundImageFix"/><feColorMatrix in="SourceAlpha" result="hardAlpha" type="matrix" values="0 0 0 0 0 0 0 0 0 0 0 0 0 0 0 0 0 0 127 0"/><feOffset dy="4"/><feGaussianBlur stdDeviation="12.5"/><feColorMatrix type="matrix" values="0 0 0 0 0 0 0 0 0 0 0 0 0 0 0 0 0 0 0.18 0"/><feBlend in2="BackgroundImageFix" mode="normal" result="effect1_dropShadow_497_1484"/><feBlend in="SourceGraphic" in2="effect1_dropShadow_497_1484" mode="normal" result="shape"/></filter><filter id="c" color-interpolation-filters="sRGB" filterUnits="userSpaceOnUse" height="88" width="152" x="1" y="215"><feFlood flood-opacity="0" result="BackgroundImageFix"/><feColorMatrix in="SourceAlpha" result="hardAlpha" type="matrix" values="0 0 0 0 0 0 0 0 0 0 0 0 0 0 0 0 0 0 127 0"/><feOffset dy="4"/><feGaussianBlur stdDeviation="12.5"/><feColorMatrix type="matrix" values="0 0 0 0 0 0 0 0 0 0 0 0 0 0 0 0 0 0 0.18 0"/><feBlend in2="BackgroundImageFix" mode="normal" result="effect1_dropShadow_497_1484"/><feBlend in="SourceGraphic" in2="effect1_dropShadow_497_1484" mode="normal" result="shape"/></filter><filter id="d" color-interpolation-filters="sRGB" filterUnits="userSpaceOnUse" height="89" width="127" x="55" y="118"><feFlood flood-opacity="0" result="BackgroundImageFix"/><feColorMatrix in="SourceAlpha" result="hardAlpha" type="matrix" values="0 0 0 0 0 0 0 0 0 0 0 0 0 0 0 0 0 0 127 0"/><feOffset dy="4"/><feGaussianBlur stdDeviation="12.5"/><feColorMatrix type="matrix" values="0 0 0 0 0 0 0 0 0 0 0 0 0 0 0 0 0 0 0.18 0"/><feBlend in2="BackgroundImageFix" mode="normal" result="effect1_dropShadow_497_1484"/><feBlend in="SourceGraphic" in2="effect1_dropShadow_497_1484" mode="normal" result="shape"/></filter><linearGradient id="e" gradientUnits="userSpaceOnUse" x1="209" x2="209" y1="55.134" y2="42.9998"><stop offset="0" stop-color="#2c2e51"/><stop offset="1" stop-color="#2c2e68"/></linearGradient><clipPath id="f"><path d="m188 43h42v45h-42z"/></clipPath><clipPath id="g"><path d="m246 51h42v37h-42z"/></clipPath><mask id="h" height="322" maskUnits="userSpaceOnUse" width="360" x="0" y="0"><path d="m0 0h360v322h-360z" fill="#c4c4c4"/></mask><g mask="url(#h)"><g filter="url(#a)"><rect fill="#fff" height="65" rx="32.5" width="155" x="161" y="34"/></g><path d="m-58 158.5c0-10.77 8.5961-19.5 19.2-19.5h89.6c10.6039 0 19.2 8.73 19.2 19.5s-8.5961 19.5-19.2 19.5h-89.6c-10.6039 0-19.2-8.73-19.2-19.5z" fill="#3b75ff" fill-opacity=".1"/><path d="m129 206.5c0 10.77-8.596 19.5-19.2 19.5h-89.6c-10.60387 0-19.2-8.73-19.2-19.5s8.59613-19.5 19.2-19.5h89.6c10.604 0 19.2 8.73 19.2 19.5z" fill="#3b75ff" fill-opacity=".1"/><path d="m138 255c0-10.493 8.596-19 19.2-19h89.6c10.604 0 19.2 8.507 19.2 19s-8.596 19-19.2 19h-89.6c-10.604 0-19.2-8.507-19.2-19z" fill="#3b75ff" fill-opacity=".1"/><path d="m-112 255c0-10.493 8.596-19 19.2-19h89.6c10.60387 0 19.2 8.507 19.2 19s-8.59613 19-19.2 19h-89.6c-10.604 0-19.2-8.507-19.2-19z" fill="#3b75ff" fill-opacity=".1"/><g filter="url(#b)"><path d="m280 303c0-10.493 8.587-19 19.18-19h58.64c10.593 0 19.18 8.507 19.18 19s-8.587 19-19.18 19h-58.64c-10.593 0-19.18-8.507-19.18-19z" fill="#3b75ff"/></g><path d="m167 158.5c0-10.77 8.563-19.5 19.125-19.5h63.75c10.562 0 19.125 8.73 19.125 19.5s-8.563 19.5-19.125 19.5h-63.75c-10.562 0-19.125-8.73-19.125-19.5z" fill="#3b75ff" fill-opacity=".1"/><path d="m241 206.5c0 10.77-8.563 19.5-19.125 19.5h-63.75c-10.562 0-19.125-8.73-19.125-19.5s8.563-19.5 19.125-19.5h63.75c10.562 0 19.125 8.73 19.125 19.5z" fill="#3b75ff" fill-opacity=".1"/><g filter="url(#c)"><path d="m26 255c0-10.493 8.5626-19 19.125-19h63.75c10.562 0 19.125 8.507 19.125 19s-8.563 19-19.125 19h-63.75c-10.5624 0-19.125-8.507-19.125-19z" fill="#3b75ff"/></g><path d="m85 303c0-10.493 8.5626-19 19.125-19h63.75c10.562 0 19.125 8.507 19.125 19s-8.563 19-19.125 19h-63.75c-10.5624 0-19.125-8.507-19.125-19z" fill="#3b75ff" fill-opacity=".1"/><g filter="url(#d)"><path d="m80 158.5c0-10.77 8.9932-19.5 20.087-19.5h36.826c11.094 0 20.087 8.73 20.087 19.5s-8.993 19.5-20.087 19.5h-36.826c-11.0938 0-20.087-8.73-20.087-19.5z" fill="#3b75ff"/></g><path d="m324 206.5c0 10.77-8.526 19.5-19.043 19.5h-34.914c-10.517 0-19.043-8.73-19.043-19.5s8.526-19.5 19.043-19.5h34.914c10.517 0 19.043 8.73 19.043 19.5z" fill="#3b75ff" fill-opacity=".1"/><path d="m197 303c0-10.493 8.526-19 19.043-19h34.914c10.517 0 19.043 8.507 19.043 19s-8.526 19-19.043 19h-34.914c-10.517 0-19.043-8.507-19.043-19z" fill="#3b75ff" fill-opacity=".1"/><path clip-rule="evenodd" d="m132 103.891-19.328 20.109-11.672-9.417 2.42-3.231 8.921 7.197 16.867-17.549z" fill="#ffc142" fill-rule="evenodd"/><path clip-rule="evenodd" d="m229 2.8909-19.328 20.1091-11.672-9.4166 2.42-3.2318 8.921 7.1971 16.867-17.5487z" fill="#3b75ff" fill-rule="evenodd"/><g fill="#fff"><path d="m101.334 157.704-.388 2.113h1.84v1.115h-2.047l-.553 2.982h-1.1341l.5532-2.982h-1.784l-.5255 2.982h-1.1063l.5117-2.982h-1.701v-1.115h1.9084l.4011-2.113h-1.7978v-1.115h1.9914l.5393-3.011h1.1478l-.5532 3.011h1.812l.539-3.011h1.106l-.553 3.011h1.715v1.115zm-3.3054 2.113h1.7839l.4015-2.113h-1.7844z"/><path d="m115.017 156.951c-2.254-.347-4.466-1.954-4.466-3.764v-.724h-1.19v.724c0 1.853-2.185 3.417-4.439 3.764l.456.955c1.937-.347 3.803-1.462 4.578-3.04.802 1.564 2.669 2.693 4.591 3.04zm.54 2.36h-11.202v.984h5.006v4.705h1.134v-4.705h5.076z"/><path d="m118.335 155.851c0-1.202.913-2.07 2.116-2.07 1.217 0 2.102.868 2.102 2.07 0 1.216-.885 2.084-2.102 2.084-1.203 0-2.116-.868-2.116-2.084zm7.8-1.014v2.027h-2.669c.11-.318.166-.651.166-1.013 0-.377-.056-.71-.152-1.014zm0 2.997v1.853h1.148v-7.687h-1.148v1.867h-3.181c-.567-.665-1.452-1.085-2.503-1.085-1.839 0-3.194 1.259-3.194 3.069 0 1.824 1.355 3.098 3.194 3.098 1.051 0 1.936-.42 2.503-1.115zm-2.96 6.196c-1.867 0-3-.579-3-1.549 0-.984 1.133-1.563 3-1.563 1.895 0 3.029.579 3.029 1.563 0 .97-1.134 1.549-3.029 1.549zm0-4.039c-2.544 0-4.121.912-4.121 2.49s1.577 2.49 4.121 2.49c2.559 0 4.149-.912 4.149-2.49s-1.59-2.49-4.149-2.49z"/><path d="m131.029 161.888h7.454v3.098h1.134v-4.054h-8.588zm1.355-7.181h6.03v1.506h-6.03zm3.582 3.996v-1.549h3.568v-4.85h-1.12v1.477h-6.03v-1.477h-1.12v4.85h3.568v1.549h-5.061v.97h11.229v-.97z"/><path d="m54.2481 254.267-.382 1.946h1.8144v1.027h-2.019l-.5457 2.747h-1.1187l.5457-2.747h-1.7598l-.5184 2.747h-1.0914l.5048-2.747h-1.678v-1.027h1.8826l.3956-1.946h-1.7734v-1.027h1.9644l.5321-2.773h1.1322l-.5456 2.773h1.7871l.532-2.773h1.0914l-.5457 2.773h1.6916v1.027zm-3.2605 1.946h1.7598l.3957-1.946h-1.7599z"/><path d="m60.4755 257.307c-1.1869 0-2.0191-1.267-2.0191-3.214 0-1.92.8322-3.173 2.0191-3.173 1.1732 0 2.0053 1.253 2.0053 3.173 0 1.947-.8321 3.214-2.0053 3.214zm0-7.374c-1.8008 0-3.0831 1.627-3.0831 4.16 0 2.56 1.2823 4.187 3.0831 4.187 1.8007 0 3.0694-1.627 3.0694-4.187 0-2.533-1.2687-4.16-3.0694-4.16zm8.1034 3v-.906h-1.9509v-3h-1.1186v11.946h1.1186v-4.48h1.9509v-.906h-1.9509v-2.654z"/><path d="m71.5518 252.587c0-1.107.9276-1.867 2.1691-1.867 1.2823 0 2.1963.76 2.1963 1.867 0 1.12-.914 1.893-2.1963 1.893-1.2415 0-2.1691-.773-2.1691-1.893zm2.7284 2.786c1.6234-.186 2.7284-1.28 2.7284-2.786 0-1.667-1.3642-2.8-3.2877-2.8-1.8827 0-3.2605 1.133-3.2605 2.8 0 1.506 1.1186 2.586 2.7011 2.786v2.067c-1.2005.04-2.3328.04-3.315.04l.1364.92c2.21 0 5.1704-.027 7.9261-.52l-.0955-.813c-1.1323.173-2.3465.266-3.5333.333zm4.3382-6.373v12h1.1186v-12z"/><path d="m86.3796 257.093h-2.5647v-3.16h2.5647zm0-4.026h-2.5647v-2.92h-1.0641v7.826h4.6793v-7.826h-1.0505zm5.2659-4.054v4.734h-1.6507v-4.467h-1.0505v11.107h1.0505v-5.747h1.6507v6.333h1.0641v-11.96z"/><path d="m103.813 252.107v1.6h-3.206v.893h3.206v1.573h1.132v-7.146h-1.132v2.186h-2.769c.082-.413.136-.853.136-1.293h-5.5248v.88h4.3109c-.2047 2.067-2.0191 3.653-4.9385 4.507l.4502.866c2.633-.746 4.4883-2.146 5.2792-4.066zm-2.865 7.96c-1.8005 0-2.9464-.547-2.9464-1.454 0-.893 1.1459-1.44 2.9464-1.44 1.801 0 2.947.547 2.947 1.44 0 .907-1.146 1.454-2.947 1.454zm0-3.76c-2.4689 0-4.0514.866-4.0514 2.306s1.5825 2.307 4.0514 2.307c2.47 0 4.052-.867 4.052-2.307s-1.582-2.306-4.052-2.306z"/><path d="m305.254 302.28-.382 1.947h1.816v1.026h-2.021l-.546 2.747h-1.12l.546-2.747h-1.761l-.519 2.747h-1.093l.506-2.747h-1.68v-1.026h1.885l.396-1.947h-1.776v-1.027h1.967l.532-2.773h1.134l-.546 2.773h1.788l.533-2.773h1.092l-.546 2.773h1.694v1.027zm-3.263 1.947h1.761l.396-1.947h-1.761z"/><path d="m318.562 297.04h-1.079v6.68h1.079zm-4.643 3.133v.88h1.352v2.574h1.065v-6.4h-1.065v2.946zm.3-1.973h-2.471v-1.2h-1.107v1.2h-2.485v.84h6.063zm-4.574 3.307c0-.72.641-1.187 1.556-1.187s1.543.467 1.543 1.187-.628 1.186-1.543 1.186-1.556-.466-1.556-1.186zm4.083 0c0-1.2-1.038-1.987-2.527-1.987-1.502 0-2.54.787-2.54 1.987 0 1.186 1.038 1.973 2.54 1.973 1.489 0 2.527-.787 2.527-1.973zm-2.117 6.52v-1.134h6.951v-2.64h-8.084v.814h6.978v1.04h-6.951v2.746h8.494v-.826z"/><path d="m331.343 303.04c-2.144-.4-4.466-2.213-4.466-4.253v-.92h-1.174v.92c0 2.04-2.308 3.84-4.452 4.253l.505.907c1.844-.427 3.756-1.707 4.534-3.454.778 1.76 2.69 3.04 4.547 3.454zm-10.556 3.44v.907h11.102v-.907z"/><path d="m339.453 306.573v-3.066h3.728v-.88h-7.306v-3.747h7.183v-.893h-8.302v5.52h3.564v3.066h-4.985v.907h11.13v-.907z"/><path d="m357 302.947h-1.816c.341-1.72.341-2.987.341-4.107v-1.04h-8.221v.88h7.129v.16c0 1.12 0 2.387-.383 4.107h-8.125v.893h4.944v5.16h1.133v-5.16h4.998z"/></g><g clip-path="url(#f)"><path d="m194.988 75.0508s-1.067 2.1801-1.111 4.4586c-.044 2.2523 1.506 4.5418 1.506 4.5418s-3.229-2.1166-3.389-4.5702c-.074-1.1339.579-4.312.579-4.312z" fill="#343579"/><path d="m209.925 51.602s2.356.5953 4.598.1707c2.218-.4203 4.141-2.4055 4.141-2.4055s-1.412 3.5897-3.783 4.2507c-1.096.3042-4.345.3195-4.345.3195z" fill="#2c2e68"/><path d="m212.877 51.4028s1.725 1.0332 3.498 1.4687c1.754.4312 3.492-.0875 3.492-.0875s-1.561 1.5584-3.466 1.2126c-.878-.1598-3.371-1.1229-3.371-1.1229z" fill="#2c2e68"/><path d="m223.42 75.7056s.552 1.9305.515 3.756c-.037 1.8036-.989 3.3467-.989 3.3467s1.912-1.101 2.069-3.0271c.075-.8887-.214-3.5416-.214-3.5416z" fill="#343579"/><path d="m202.908 52.3505c-1.527-2.9462-.041-6.746 3.323-8.4861 3.365-1.7401 7.33-.7661 8.86 2.1801 1.53 2.9461.041 6.7437-3.323 8.486-3.654 1.8912-3.487-1.2585-3.487-1.2585s-3.334 3.003-5.373-.9215z" fill="url(#e)"/><path d="m225.009 69.9642c0 8.9741-3.092 18.0359-16.272 18.0359-12.693 0-16.272-9.0618-16.272-18.0359 0-8.9742 7.286-16.2498 16.272-16.2498 8.987 0 16.272 7.2756 16.272 16.2498z" fill="#ffdac7"/><path d="m212.31 58.5603s-3.573 5.6909-9.267 8.5911c-5.695 2.9002-11.065 3.2416-11.065 3.2416s-2.523-8.2737 3.985-14.0763c6.508-5.8025 10.983-4.6928 11.796-4.5221.814.1707 1.14.5122 1.14.5122s.651-1.0244 2.766-.6829c0 0 7.567.7683 11.146 7.2516 3.285 5.9514 2.847 9.2981 2.847 10.3224v2.388s-6.345-2.9002-10.413-8.7005c-4.068-5.8004-2.935-4.3251-2.935-4.3251z" fill="#343579"/><path d="m195.099 73.4358c.612 2.3398.235 4.336-1.639 4.8241s-4.535-.7157-5.146-3.0556c-.612-2.3398-.553-4.3864 2.286-5.1196 1.874-.4859 3.888 1.0112 4.499 3.3511z" fill="#ffdac7"/><path d="m222.9 73.4358c-.611 2.3398-.234 4.336 1.64 4.8241s4.535-.7157 5.146-3.0556c.612-2.3398.552-4.3864-2.286-5.1196-1.874-.4859-3.888 1.0112-4.5 3.3511z" fill="#ffdac7"/><path d="m191.003 72.5688s.64.8471.64 1.1601-.241.0153-.721.0153c-.16 0-.64.2189-.64.6895s.219.9171.64 1.1929c.48.313.8.313 1.442.1576" stroke="#ffb699" stroke-linecap="round" stroke-miterlimit="10" stroke-width="2"/><path d="m226.713 72.5688s-.64.8471-.64 1.1601.241.0153.721.0153c.16 0 .64.2189.64.6895s-.219.9171-.64 1.1929c-.48.313-.8.313-1.442.1576" stroke="#ffb699" stroke-linecap="round" stroke-miterlimit="10" stroke-width="2"/><path d="m209.241 81.1053c1.973 0 3.288-.2189 3.288.8755 0 1.3133-1.096 3.2832-3.507 3.2832-1.55 0-3.069-1.751-3.069-3.0643s1.267-1.0944 3.288-1.0944z" fill="#ffb390"/></g><g clip-path="url(#g)" opacity=".7"><g fill="#ffc2b1"><path d="m283.001 70.0791c.024 8.8942-3.043 17.8839-16.222 17.9208-12.693.0347-16.297-8.9376-16.323-17.8319-.026-8.8942 7.24-16.1245 16.226-16.1484 8.987-.0239 16.292 7.1653 16.319 16.0595z"/><path d="m253.1 73.6044c.618 2.3169.245 4.2975-1.627 4.7856-1.872.4902-4.537-.6964-5.155-3.0132-.618-2.3169-.563-4.3452 2.271-5.0806 1.876-.4881 3.893.9914 4.511 3.3082z"/><path d="m280.902 73.5264c-.605 2.3212-.221 4.2974 1.653 4.7768 1.876.4795 4.533-.7224 5.138-3.0414.605-2.3211.539-4.3495-2.299-5.0675-1.879-.4751-3.887 1.0131-4.492 3.3321z"/></g><path d="m249.001 72.7563s.642.8374.644 1.1476c0 .3102-.241.0174-.721.0174-.16 0-.64.2191-.638.6855s.222.9089.645 1.1801c.482.3102.802.308 1.442.1518" stroke="#ff9292" stroke-linecap="round" stroke-miterlimit="10" stroke-width="2"/><path d="m284.71 72.6587s-.638.8395-.638 1.1519c0 .3102.241.0152.721.0152.16 0 .642.2148.642.6812.002.4664-.217.9089-.638 1.1844-.48.3124-.8.3124-1.44.1584" stroke="#ff9292" stroke-linecap="round" stroke-miterlimit="10" stroke-width="2"/><path d="m267.263 81.1664c1.973-.0043 3.288-.2256 3.29.8591.004 1.3015-1.087 3.2561-3.498 3.2626-1.55.0044-3.073-1.7268-3.077-3.0284-.005-1.3016 1.264-1.089 3.285-1.0933z" fill="#ff6161"/><path d="m257.337 65.9816s3.507 3.9048 6.794 4.7725c3.288.8677 7.652 1.5185 9.844.4339 1.959-.9697-1.076-4.9895-1.076-4.9895s3.268 3.6879 5.918 4.3387c1.915.4707 4.357 1.115 5.589-.5424 2.501-3.3624-4.075-24.8387-21.39-17.463 0 0-1.754-.8678-4.165-.217-2.547.6877-9.545 5.1956-9.425 13.2329.09 5.9657 1.118 6.5557 8.987 5.6403 3.726-.4339-1.076-5.2064-1.076-5.2064z" fill="#343579"/></g><path d="m243 47h50v44h-50z" fill="#fff"/></g></svg>