<svg width="192" height="52" viewBox="0 0 192 52" fill="none" xmlns="http://www.w3.org/2000/svg">
<path d="M26.7746 2.544H23.8706V15.92H25.6306C28.5786 15.92 31.8346 15.744 35.2006 15.04L34.9146 12.664C32.0766 13.214 29.3266 13.434 26.7746 13.5V2.544ZM41.9546 8.264H39.1166V0.607999H36.2126V20.848H39.1166V10.662H41.9546V8.264ZM50.0049 1.972C46.8369 1.972 44.4389 4.062 44.4389 6.966C44.4389 9.892 46.8369 11.96 50.0049 11.96C53.1729 11.96 55.5929 9.892 55.5929 6.966C55.5929 4.062 53.1729 1.972 50.0049 1.972ZM50.0049 4.458C51.5669 4.458 52.7549 5.382 52.7549 6.966C52.7549 8.55 51.5669 9.474 50.0049 9.474C48.4429 9.474 47.2549 8.55 47.2549 6.966C47.2549 5.382 48.4429 4.458 50.0049 4.458ZM57.4849 0.607999V20.936H60.3889V0.607999H57.4849ZM43.9549 16.822C47.4529 16.822 52.2049 16.778 56.5609 15.898L56.3849 13.808C52.1169 14.446 47.1449 14.468 43.5809 14.468L43.9549 16.822ZM78.29 11.344C78.356 10.75 78.4 10.09 78.4 9.408C78.4 8.704 78.356 8.044 78.268 7.428H80.05V11.344H78.29ZM74.022 14.05C72.878 14.05 72.218 12.51 72.218 9.408C72.218 6.306 72.878 4.788 74.022 4.788C75.144 4.788 75.804 6.306 75.804 9.408C75.804 12.51 75.144 14.05 74.022 14.05ZM80.05 5.096H77.718C76.97 3.138 75.672 2.06 74.022 2.06C71.316 2.06 69.622 4.832 69.622 9.408C69.622 14.006 71.316 16.778 74.022 16.778C75.694 16.778 76.992 15.656 77.74 13.698H80.05V19.968H82.756V0.959999H80.05V5.096ZM84.076 0.607999V20.87H86.826V0.607999H84.076ZM92.6763 6.702C92.6763 5.118 93.7983 4.194 95.3383 4.194C96.8563 4.194 98.0003 5.118 98.0003 6.702C98.0003 8.264 96.8563 9.21 95.3383 9.21C93.7983 9.21 92.6763 8.264 92.6763 6.702ZM100.816 6.702C100.816 3.82 98.4403 1.73 95.3383 1.73C92.2143 1.73 89.8383 3.82 89.8383 6.702C89.8383 9.584 92.2143 11.652 95.3383 11.652C98.4403 11.652 100.816 9.584 100.816 6.702ZM92.1263 15.722H102.73V20.914H105.634V13.39H92.1263V15.722ZM108.23 5.624V3.27H105.634V0.629999H102.73V12.576H105.634V10.024H108.23V7.648H105.634V5.624H108.23ZM126.753 0.629999H123.827V10.772H126.753V0.629999ZM113.025 5.844C113.025 4.414 114.147 3.556 115.643 3.556C117.139 3.556 118.217 4.414 118.217 5.844C118.217 7.296 117.139 8.132 115.643 8.132C114.147 8.132 113.025 7.296 113.025 5.844ZM121.033 5.844C121.033 3.16 118.723 1.224 115.643 1.224C112.541 1.224 110.209 3.16 110.209 5.844C110.209 8.55 112.541 10.486 115.643 10.486C118.723 10.486 121.033 8.55 121.033 5.844ZM116.149 18.406V17.13H126.753V11.608H113.245V13.83H123.871V15.062H113.267V20.65H127.259V18.406H116.149ZM141.161 5.514V7.868H144.197V12.686H147.101V0.629999H144.197V5.514H141.161ZM142.371 9.87C139.291 8.858 137.883 6.482 137.795 4.172H141.733V1.84H130.843V4.172H134.825C134.737 6.702 133.263 9.276 130.051 10.398L131.525 12.686C133.879 11.894 135.485 10.244 136.365 8.198C137.245 9.98 138.763 11.41 140.963 12.136L142.371 9.87ZM140.259 18.714C137.597 18.714 136.211 18.164 136.211 17.02C136.211 15.876 137.597 15.326 140.259 15.326C142.899 15.326 144.285 15.876 144.285 17.02C144.285 18.164 142.899 18.714 140.259 18.714ZM140.259 13.126C135.947 13.126 133.307 14.556 133.307 17.02C133.307 19.484 135.947 20.914 140.259 20.914C144.549 20.914 147.189 19.484 147.189 17.02C147.189 14.556 144.549 13.126 140.259 13.126ZM159.551 3.05C162.499 3.05 163.885 3.468 163.885 4.37C163.885 5.316 162.499 5.712 159.551 5.712C156.625 5.712 155.239 5.316 155.239 4.37C155.239 3.468 156.625 3.05 159.551 3.05ZM159.551 7.824C164.193 7.824 166.899 6.614 166.899 4.37C166.899 2.148 164.193 0.915999 159.551 0.915999C154.931 0.915999 152.225 2.148 152.225 4.37C152.225 6.614 154.931 7.824 159.551 7.824ZM155.393 17.416H166.481V12.202H152.489V14.336H163.621V15.414H152.511V20.738H167.009V18.56H155.393V17.416ZM150.399 8.792V11.058H168.703V8.792H150.399ZM12.1049 33.764H7.57289V31.608H4.64689V33.764H0.158891V36.03H12.0829L12.1049 33.764ZM3.92089 40.65C3.92089 39.55 4.82289 38.956 6.12089 38.956C7.39689 38.956 8.32089 39.55 8.32089 40.65C8.32089 41.772 7.39689 42.366 6.12089 42.366C4.82289 42.366 3.92089 41.772 3.92089 40.65ZM11.0929 40.65C11.0929 38.362 9.02489 36.756 6.12089 36.756C3.21689 36.756 1.14889 38.362 1.14889 40.65C1.14889 42.982 3.21689 44.566 6.12089 44.566C9.02489 44.566 11.0929 42.982 11.0929 40.65ZM5.94489 45.666H3.04089V51.54H16.8349V49.23H5.94489V45.666ZM16.1089 37.812V31.63H13.2049V46.788H16.1089V40.21H18.7929V37.812H16.1089ZM41.732 39.66C42.238 37.46 42.238 35.678 42.238 34.138V32.532H28.202V34.842H39.334C39.312 36.14 39.268 37.57 38.872 39.374L41.732 39.66ZM36.628 44.258H33.724V44.852C33.724 46.92 31.7 49.054 27.19 49.582L28.246 51.826C31.568 51.364 33.944 50.066 35.198 48.24C36.43 50.066 38.806 51.364 42.128 51.826L43.184 49.582C38.652 49.054 36.628 46.92 36.628 44.852V44.258ZM35.814 40.76V37.02H32.91V40.76H26.134V43.07H44.394V40.76H35.814ZM50.9043 45.05C49.8043 45.05 49.1443 43.532 49.1443 40.408C49.1443 37.306 49.8043 35.788 50.9043 35.788C52.0263 35.788 52.6643 37.306 52.6643 40.408C52.6643 43.532 52.0263 45.05 50.9043 45.05ZM56.8663 39.088H55.2603C54.9303 35.304 53.3023 33.06 50.9043 33.06C48.2203 33.06 46.5263 35.832 46.5263 40.408C46.5263 45.006 48.2203 47.778 50.9043 47.778C53.3683 47.778 55.0183 45.402 55.2823 41.442H56.8663V50.99H59.5723V31.96H56.8663V39.088ZM60.9803 31.608V51.87H63.7303V31.608H60.9803ZM74.2006 33.192H71.2746V36.118C71.2746 39.968 69.7346 43.906 66.3026 45.49L68.1066 47.822C70.3726 46.678 71.8906 44.566 72.7706 41.97C73.6066 44.412 75.0806 46.392 77.3026 47.47L79.0186 45.16C75.6746 43.664 74.2006 39.946 74.2006 36.118V33.192ZM80.6906 31.608V37.966H76.7966V40.298H80.6906V51.936H83.5946V31.608H80.6906ZM103.366 40.32C103.828 37.768 103.828 35.766 103.828 34.358V33.104H93.4217V35.414H100.968C100.946 36.624 100.858 38.098 100.528 39.99L103.366 40.32ZM104.708 41.134C102.816 41.398 100.792 41.552 98.7897 41.64V37.812H95.9517V41.75C94.6317 41.772 93.3777 41.772 92.2557 41.772L92.5197 44.082C95.9957 44.06 100.704 43.972 104.884 43.202L104.708 41.134ZM98.1077 45.446H95.2037V51.54H109.35V49.23H98.1077V45.446ZM108.712 37.79V31.608H105.808V46.788H108.712V40.188H111.132V37.79H108.712ZM116.828 41.178H123.406V33.346H113.836V35.656H120.436V38.89H113.858V47.228H115.684C119.358 47.228 122.328 47.096 125.628 46.524L125.32 44.17C122.46 44.654 119.908 44.808 116.828 44.83V41.178ZM126.728 31.608V51.936H129.632V31.608H126.728ZM138.87 45.38C137.506 45.38 136.494 44.456 136.494 42.916C136.494 41.376 137.506 40.43 138.87 40.43C140.234 40.43 141.224 41.376 141.224 42.894C141.224 44.456 140.234 45.38 138.87 45.38ZM138.87 38.076C135.922 38.076 133.722 40.078 133.722 42.894C133.722 45.754 135.922 47.756 138.87 47.756C141.796 47.756 143.974 45.754 143.974 42.894C143.974 40.078 141.796 38.076 138.87 38.076ZM140.3 31.982H137.396V34.622H132.908V36.932H144.7V34.622H140.3V31.982ZM151.828 39.55H148.924V31.63H146.02V51.892H148.924V41.948H151.828V39.55ZM159.725 33.39H156.931V36.8C156.931 40.254 155.853 43.884 152.883 45.688L154.621 47.866C156.447 46.766 157.635 44.83 158.339 42.586C158.977 44.632 160.055 46.348 161.771 47.404L163.355 45.16C160.605 43.334 159.725 39.968 159.725 36.69V33.39ZM163.773 38.472H161.221V40.826H163.773V50.99H166.479V31.96H163.773V38.472ZM167.887 31.63V51.892H170.637V31.63H167.887ZM180.425 43.312C181.129 43.444 181.855 43.51 182.647 43.51C183.439 43.51 184.187 43.444 184.891 43.312V47.184H180.425V43.312ZM182.647 34.908C185.463 34.908 187.355 36.052 187.355 38.076C187.355 40.078 185.463 41.244 182.647 41.244C179.831 41.244 177.961 40.078 177.961 38.076C177.961 36.052 179.831 34.908 182.647 34.908ZM187.773 47.184V42.234C189.291 41.288 190.215 39.836 190.215 38.076C190.215 34.754 187.025 32.62 182.647 32.62C178.291 32.62 175.101 34.754 175.101 38.076C175.079 39.836 176.003 41.288 177.543 42.234V47.184H173.495V49.538H191.843V47.184H187.773Z" fill="black"/>
</svg>
