<svg width="171" height="52" viewBox="0 0 171 52" fill="none" xmlns="http://www.w3.org/2000/svg">
<path d="M2.97403 2.874H0.0700313V15.964H1.47803C3.50203 15.964 5.83403 15.854 8.47403 15.37L8.23203 12.928C6.29603 13.28 4.55803 13.412 2.97403 13.456V2.874ZM13.864 0.607999V8.418H12.038V0.981999H9.33203V19.924H12.038V10.772H13.864V20.87H16.636V0.607999H13.864ZM29.9223 8.374H27.6563C28.1403 6.724 28.3163 4.942 28.3163 3.028H20.3743V5.338H25.4343C25.0823 9.298 23.3003 12.224 19.2523 14.644L20.9023 16.69C23.7623 15.018 25.6103 13.016 26.7543 10.706H29.9223V19.99H32.6283V1.07H29.9223V8.374ZM34.1903 0.607999V20.87H36.9403V0.607999H34.1903ZM62.3434 0.651999H59.4394V11.014H62.3434V0.651999ZM50.7274 4.106H52.8614V8.198C52.1574 8.242 51.4314 8.264 50.7274 8.286V4.106ZM58.0094 7.824C57.2394 7.912 56.4694 7.978 55.6554 8.044V4.106H57.2394V1.862H46.3274V4.106H47.9334V8.33L45.8214 8.352L46.1074 10.64C49.6054 10.64 54.1594 10.53 58.1414 9.87L58.0094 7.824ZM51.5414 18.494V17.284H62.3434V11.828H48.6374V14.05H59.4614V15.216H48.6594V20.738H62.9154V18.494H51.5414ZM72.6377 12.312C73.3417 12.444 74.0677 12.51 74.8597 12.51C75.6517 12.51 76.3997 12.444 77.1037 12.312V16.184H72.6377V12.312ZM74.8597 3.908C77.6757 3.908 79.5677 5.052 79.5677 7.076C79.5677 9.078 77.6757 10.244 74.8597 10.244C72.0437 10.244 70.1737 9.078 70.1737 7.076C70.1737 5.052 72.0437 3.908 74.8597 3.908ZM79.9857 16.184V11.234C81.5037 10.288 82.4277 8.836 82.4277 7.076C82.4277 3.754 79.2377 1.62 74.8597 1.62C70.5037 1.62 67.3137 3.754 67.3137 7.076C67.2917 8.836 68.2157 10.288 69.7557 11.234V16.184H65.7077V18.538H84.0557V16.184H79.9857ZM97.892 2.764H93.36V0.607999H90.434V2.764H85.946V5.03H97.87L97.892 2.764ZM89.708 9.65C89.708 8.55 90.61 7.956 91.908 7.956C93.184 7.956 94.108 8.55 94.108 9.65C94.108 10.772 93.184 11.366 91.908 11.366C90.61 11.366 89.708 10.772 89.708 9.65ZM96.88 9.65C96.88 7.362 94.812 5.756 91.908 5.756C89.004 5.756 86.936 7.362 86.936 9.65C86.936 11.982 89.004 13.566 91.908 13.566C94.812 13.566 96.88 11.982 96.88 9.65ZM91.732 14.666H88.828V20.54H102.622V18.23H91.732V14.666ZM101.896 6.812V0.629999H98.992V15.788H101.896V9.21H104.58V6.812H101.896ZM123.933 9.056C120.743 8.022 119.379 5.558 119.379 3.05V1.532H116.431V3.094C116.431 5.778 115.023 8.396 111.657 9.518L113.175 11.784C115.507 11.014 117.091 9.43 117.971 7.428C118.829 9.188 120.281 10.574 122.393 11.3L123.933 9.056ZM124.967 18.34H117.487V16.646H124.967V18.34ZM124.967 14.446H117.487V12.664H114.627V20.65H127.849V12.664H124.967V14.446ZM130.445 5.228V2.852H127.849V0.629999H124.945V11.828H127.849V9.364H130.445V7.01H127.849V5.228H130.445ZM148.307 5.118H137.307V3.336H148.153V1.026H134.425V7.406H148.307V5.118ZM137.131 17.284H148.219V11.916H134.227V14.094H145.359V15.238H134.249V20.716H148.747V18.494H137.131V17.284ZM132.159 8.484V10.772H150.485V8.484H132.159ZM161.528 3.05C164.476 3.05 165.862 3.468 165.862 4.37C165.862 5.316 164.476 5.712 161.528 5.712C158.602 5.712 157.216 5.316 157.216 4.37C157.216 3.468 158.602 3.05 161.528 3.05ZM161.528 7.824C166.17 7.824 168.876 6.614 168.876 4.37C168.876 2.148 166.17 0.915999 161.528 0.915999C156.908 0.915999 154.202 2.148 154.202 4.37C154.202 6.614 156.908 7.824 161.528 7.824ZM157.37 17.416H168.458V12.202H154.466V14.336H165.598V15.414H154.488V20.738H168.986V18.56H157.37V17.416ZM152.376 8.792V11.058H170.68V8.792H152.376ZM14.0815 33.764H9.54945V31.608H6.62345V33.764H2.13545V36.03H14.0595L14.0815 33.764ZM5.89745 40.65C5.89745 39.55 6.79945 38.956 8.09745 38.956C9.37345 38.956 10.2975 39.55 10.2975 40.65C10.2975 41.772 9.37345 42.366 8.09745 42.366C6.79945 42.366 5.89745 41.772 5.89745 40.65ZM13.0695 40.65C13.0695 38.362 11.0015 36.756 8.09745 36.756C5.19345 36.756 3.12545 38.362 3.12545 40.65C3.12545 42.982 5.19345 44.566 8.09745 44.566C11.0015 44.566 13.0695 42.982 13.0695 40.65ZM7.92145 45.666H5.01745V51.54H18.8115V49.23H7.92145V45.666ZM18.0855 37.812V31.63H15.1815V46.788H18.0855V40.21H20.7695V37.812H18.0855ZM29.9637 41.134H26.1137V38.274H29.9637V41.134ZM32.8017 39.352H36.4097V46.59H39.3137V31.652H36.4097V37.02H32.8017V32.994H29.9637V36.052H26.1137V32.972H23.2317V43.444H32.8017V39.352ZM28.8417 49.23V45.138H25.9377V51.54H39.7537V49.23H28.8417ZM47.166 45.05C46.066 45.05 45.406 43.532 45.406 40.408C45.406 37.306 46.066 35.788 47.166 35.788C48.288 35.788 48.926 37.306 48.926 40.408C48.926 43.532 48.288 45.05 47.166 45.05ZM53.128 39.088H51.522C51.192 35.304 49.564 33.06 47.166 33.06C44.482 33.06 42.788 35.832 42.788 40.408C42.788 45.006 44.482 47.778 47.166 47.778C49.63 47.778 51.28 45.402 51.544 41.442H53.128V50.99H55.834V31.96H53.128V39.088ZM57.242 31.608V51.87H59.992V31.608H57.242ZM84.7351 36.294H73.7351V34.578H84.5811V32.312H70.8531V38.56H84.7351V36.294ZM86.8691 41.882V39.616H68.5651V41.882H76.2651V43.18H70.6551V45.314H81.7871V46.392H70.6771V51.738H85.1751V49.56H73.5591V48.394H84.6471V43.18H79.1691V41.882H86.8691ZM92.3674 40.936H98.5934V33.346H89.4634V35.656H95.7114V38.67H89.5074V47.25H91.1794C94.5454 47.25 97.2294 47.14 100.243 46.656L99.9794 44.302C97.4274 44.72 95.1174 44.852 92.3674 44.874V40.936ZM102.839 31.608V38.912H99.6714V41.266H102.839V51.936H105.765V31.608H102.839ZM113.86 38.318H122.528V41.156H113.86V38.318ZM119.646 47.184V43.466H125.388V32.884H122.528V36.03H113.86V32.884H110.978V43.466H116.742V47.184H109.042V49.538H127.39V47.184H119.646ZM135.748 33.39H132.954V36.8C132.954 40.254 131.876 43.884 128.906 45.688L130.644 47.866C132.47 46.766 133.658 44.83 134.362 42.586C135 44.632 136.078 46.348 137.794 47.404L139.378 45.16C136.628 43.334 135.748 39.968 135.748 36.69V33.39ZM139.796 38.472H137.244V40.826H139.796V50.99H142.502V31.96H139.796V38.472ZM143.91 31.63V51.892H146.66V31.63H143.91ZM156.448 43.312C157.152 43.444 157.878 43.51 158.67 43.51C159.462 43.51 160.21 43.444 160.914 43.312V47.184H156.448V43.312ZM158.67 34.908C161.486 34.908 163.378 36.052 163.378 38.076C163.378 40.078 161.486 41.244 158.67 41.244C155.854 41.244 153.984 40.078 153.984 38.076C153.984 36.052 155.854 34.908 158.67 34.908ZM163.796 47.184V42.234C165.314 41.288 166.238 39.836 166.238 38.076C166.238 34.754 163.048 32.62 158.67 32.62C154.314 32.62 151.124 34.754 151.124 38.076C151.102 39.836 152.026 41.288 153.566 42.234V47.184H149.518V49.538H167.866V47.184H163.796Z" fill="black"/>
</svg>
