<svg fill="none" height="336" viewBox="0 0 360 336" width="360" xmlns="http://www.w3.org/2000/svg" xmlns:xlink="http://www.w3.org/1999/xlink"><filter id="a" color-interpolation-filters="sRGB" filterUnits="userSpaceOnUse" height="80.7144" width="103" x="25" y="2"><feFlood flood-opacity="0" result="BackgroundImageFix"/><feColorMatrix in="SourceAlpha" result="hardAlpha" type="matrix" values="0 0 0 0 0 0 0 0 0 0 0 0 0 0 0 0 0 0 127 0"/><feOffset dy="4"/><feGaussianBlur stdDeviation="6"/><feComposite in2="hardAlpha" operator="out"/><feColorMatrix type="matrix" values="0 0 0 0 0.388235 0 0 0 0 0.384314 0 0 0 0 0.529412 0 0 0 0.18 0"/><feBlend in2="BackgroundImageFix" mode="normal" result="effect1_dropShadow_497_1540"/><feBlend in="SourceGraphic" in2="effect1_dropShadow_497_1540" mode="normal" result="shape"/></filter><filter id="b" color-interpolation-filters="sRGB" filterUnits="userSpaceOnUse" height="121" width="212" x="132" y="69"><feFlood flood-opacity="0" result="BackgroundImageFix"/><feColorMatrix in="SourceAlpha" result="hardAlpha" type="matrix" values="0 0 0 0 0 0 0 0 0 0 0 0 0 0 0 0 0 0 127 0"/><feOffset dy="4"/><feGaussianBlur stdDeviation="12.5"/><feComposite in2="hardAlpha" operator="out"/><feColorMatrix type="matrix" values="0 0 0 0 0.388235 0 0 0 0 0.384314 0 0 0 0 0.529412 0 0 0 0.18 0"/><feBlend in2="BackgroundImageFix" mode="normal" result="effect1_dropShadow_497_1540"/><feBlend in="SourceGraphic" in2="effect1_dropShadow_497_1540" mode="normal" result="shape"/></filter><filter id="c" color-interpolation-filters="sRGB" filterUnits="userSpaceOnUse" height="121" width="212" x="132" y="199"><feFlood flood-opacity="0" result="BackgroundImageFix"/><feColorMatrix in="SourceAlpha" result="hardAlpha" type="matrix" values="0 0 0 0 0 0 0 0 0 0 0 0 0 0 0 0 0 0 127 0"/><feOffset dy="4"/><feGaussianBlur stdDeviation="12.5"/><feComposite in2="hardAlpha" operator="out"/><feColorMatrix type="matrix" values="0 0 0 0 0.388235 0 0 0 0 0.384314 0 0 0 0 0.529412 0 0 0 0.18 0"/><feBlend in2="BackgroundImageFix" mode="normal" result="effect1_dropShadow_497_1540"/><feBlend in="SourceGraphic" in2="effect1_dropShadow_497_1540" mode="normal" result="shape"/></filter><linearGradient id="d" gradientUnits="userSpaceOnUse" x1="137" x2="137" y1="97.1201" y2="336.143"><stop offset="0"/><stop offset="1" stop-opacity="0"/></linearGradient><mask id="e" height="336" maskUnits="userSpaceOnUse" width="360" x="0" y="0"><path d="m0 0h360v336h-360z" fill="#c4c4c4"/></mask><g mask="url(#e)"><path d="m163.213 76.1879h-1.837v-6.4876c0-.3111.005-.6415.015-.9914.009-.3499.024-.6755.043-.9768-.097.0972-.218.2138-.364.3499-.136.1361-.287.2673-.452.3936l-1.166.9331-.919-1.1372 3.149-2.493h1.531z" fill="#3b75ff"/><path d="m173.583 70.9832c0 1.1177-.117 2.0751-.35 2.8721-.234.7969-.613 1.4093-1.138 1.8369-.524.4277-1.219.6415-2.084.6415-1.225 0-2.124-.4714-2.697-1.4142-.574-.9427-.861-2.2549-.861-3.9363 0-1.1177.117-2.0751.35-2.872.234-.8067.608-1.4239 1.123-1.8516.525-.4276 1.22-.6414 2.085-.6414 1.215 0 2.114.4713 2.697 1.4141s.875 2.2598.875 3.9509zm-5.278 0c0 1.2732.121 2.2306.364 2.8721.253.6414.7.9622 1.342.9622.631 0 1.074-.3159 1.326-.9477.263-.6414.394-1.6036.394-2.8866 0-1.2732-.131-2.2306-.394-2.872-.252-.6512-.695-.9768-1.326-.9768-.642 0-1.089.3256-1.342.9768-.243.6414-.364 1.5988-.364 2.872z" fill="#3b75ff"/><path d="m188.428 64.0146h-1.939v6.7209h1.939zm-9.097 3.4552c0-.9476.743-1.5162 1.735-1.5162.991 0 1.706.5686 1.706 1.5162 0 .9622-.715 1.5162-1.706 1.5162-.992 0-1.735-.554-1.735-1.5162zm5.307 0c0-1.7786-1.531-3.0616-3.572-3.0616-2.056 0-3.601 1.283-3.601 3.0616 0 1.7932 1.545 3.0761 3.601 3.0761 2.041 0 3.572-1.2829 3.572-3.0761zm-3.237 8.3246v-.8456h7.027v-3.6593h-8.951v1.4724h7.041v.8165h-7.027v3.7176h9.273v-1.5016z" fill="#595959"/><path d="m202.07 68.7965c-1.808.3499-3.529.4811-5.132.5102v-4.6652h-1.925v6.2689h1.137c1.896 0 3.951-.1312 6.138-.5686zm-3.878 4.8985h4.971v2.0848h-4.971zm-1.896 3.5864h8.748v-5.088h-8.748zm10.526-10.4385h-1.778v-2.8283h-1.925v7.5519h1.925v-3.1491h1.778z" fill="#595959"/><path d="m211.632 66.3326c1.006 0 1.764.6123 1.764 1.6474 0 1.0352-.758 1.6329-1.764 1.6329-1.02 0-1.764-.5977-1.764-1.6329 0-1.0351.744-1.6474 1.764-1.6474zm0 4.8986c2.056 0 3.63-1.3559 3.63-3.2512 0-1.8952-1.574-3.2511-3.63-3.2511-2.07 0-3.645 1.3559-3.645 3.2511 0 1.8953 1.575 3.2512 3.645 3.2512zm5.875.8455h-1.909v.4811c0 1.006-.438 2.2015-1.517 2.9887-1.064-.7581-1.487-1.8807-1.487-2.9887v-.4811h-1.866v.4811c0 1.3267-.729 2.6971-2.478 3.324l.947 1.385c1.211-.4373 1.998-1.2392 2.464-2.2451.438 1.0497 1.196 1.9244 2.435 2.3763 1.21-.4811 1.997-1.385 2.435-2.4201.452 1.0351 1.253 1.8516 2.507 2.2889l.948-1.385c-1.764-.5831-2.479-1.8952-2.479-3.324zm.948-5.1901v-2.872h-1.924v7.4936h1.924v-3.0616h1.779v-1.56z" fill="#595959"/><path d="m224.971 72.7911c-.977 0-1.633-1.0643-1.633-3.0616 0-1.9827.656-3.047 1.633-3.047.991 0 1.647 1.0643 1.647 3.047 0 1.9973-.656 3.0616-1.647 3.0616zm5.671-8.7911v4.8402h-2.245c-.263-2.4201-1.618-3.8926-3.426-3.8926-1.998 0-3.47 1.837-3.47 4.7819 0 2.9595 1.472 4.8111 3.47 4.8111 1.866 0 3.236-1.5746 3.44-4.1404h2.231v7.0707h1.924v-13.4709z" fill="#595959"/><path d="m239.301 71.756c.466.0875.947.1312 1.472.1312s1.021-.0437 1.487-.1312v2.5659h-2.959zm1.472-5.5692c1.866 0 3.12.7581 3.12 2.0994 0 1.3267-1.254 2.0994-3.12 2.0994s-3.105-.7727-3.105-2.0994c0-1.3413 1.239-2.0994 3.105-2.0994zm3.397 8.1351v-3.2803c1.006-.6269 1.618-1.5891 1.618-2.7554 0-2.2014-2.114-3.6156-5.015-3.6156-2.886 0-5 1.4142-5 3.6156-.015 1.1663.597 2.1285 1.618 2.7554v3.2803h-2.683v1.5599h12.159v-1.5599z" fill="#595959"/><path d="m250.234 72.9369h-1.4l-.364-7.1583h2.128zm-1.823 2.318c0-.4082.107-.6949.321-.8601.224-.175.491-.2624.802-.2624.301 0 .559.0874.773.2624.223.1652.335.4519.335.8601 0 .3985-.112.6852-.335.8602-.214.1749-.472.2624-.773.2624-.311 0-.578-.0875-.802-.2624-.214-.175-.321-.4617-.321-.8602z" fill="#595959"/><g filter="url(#a)"><path clip-rule="evenodd" d="m75.0187 63.325c-20.9971 0-38.0187-11.9372-38.0187-26.6625s17.0216-26.6625 38.0187-26.6625c20.9972 0 38.0183 11.9372 38.0183 26.6625 0 6.4535-3.269 12.3715-8.709 16.9838.416.7926.851 1.5491 1.303 2.2725 2.469 3.95 4.444 5.4312 10.369 9.3812-7.571 1.975-14.319 2.2219-21.725-1.4813-1.5403-.7701-2.9312-1.6684-4.1859-2.6705-4.6207 1.4006-9.7163 2.1768-15.0704 2.1768z" fill="#fff" fill-rule="evenodd"/></g><path d="m137.5 71v275" stroke="url(#d)"/><circle cx="137.5" cy="70.7539" fill="#4c81ff" r="4.5" stroke="#fff" stroke-width="2"/><circle cx="137.5" cy="201.5" fill="#4c81ff" r="4.5" stroke="#fff" stroke-width="2"/><g filter="url(#b)"><rect fill="#fff" height="71" rx="8" width="162" x="157" y="90"/></g><g filter="url(#c)"><rect fill="#fff" height="71" rx="8" width="162" x="157" y="220"/></g><path d="m163.213 206.533h-1.837v-6.487c0-.311.005-.642.015-.992.009-.35.024-.675.043-.977-.097.098-.218.214-.364.35-.136.136-.287.268-.452.394l-1.166.933-.919-1.137 3.149-2.493h1.531z" fill="#3b75ff"/><path d="m173.932 204.303h-1.355v2.23h-1.808v-2.23h-4.636v-1.371l4.68-6.837h1.764v6.706h1.355zm-3.163-1.502v-2.333c0-.272.005-.554.014-.845.01-.301.02-.578.03-.831.019-.263.034-.462.043-.598h-.058c-.088.194-.185.389-.292.583-.097.185-.209.37-.335.554l-2.362 3.47z" fill="#3b75ff"/><path d="m188.428 194.36h-1.939v6.721h1.939zm-9.097 3.455c0-.948.743-1.516 1.735-1.516.991 0 1.706.568 1.706 1.516 0 .962-.715 1.516-1.706 1.516-.992 0-1.735-.554-1.735-1.516zm5.307 0c0-1.779-1.531-3.062-3.572-3.062-2.056 0-3.601 1.283-3.601 3.062 0 1.793 1.545 3.076 3.601 3.076 2.041 0 3.572-1.283 3.572-3.076zm-3.237 8.325v-.846h7.027v-3.659h-8.951v1.472h7.041v.817h-7.027v3.717h9.273v-1.501z" fill="#595959"/><path d="m202.07 199.142c-1.808.35-3.529.481-5.132.51v-4.665h-1.925v6.269h1.137c1.896 0 3.951-.132 6.138-.569zm-3.878 4.898h4.971v2.085h-4.971zm-1.896 3.587h8.748v-5.088h-8.748zm10.526-10.439h-1.778v-2.828h-1.925v7.552h1.925v-3.149h1.778z" fill="#595959"/><path d="m211.632 196.678c1.006 0 1.764.612 1.764 1.647s-.758 1.633-1.764 1.633c-1.02 0-1.764-.598-1.764-1.633s.744-1.647 1.764-1.647zm0 4.898c2.056 0 3.63-1.355 3.63-3.251 0-1.895-1.574-3.251-3.63-3.251-2.07 0-3.645 1.356-3.645 3.251 0 1.896 1.575 3.251 3.645 3.251zm5.875.846h-1.909v.481c0 1.006-.438 2.201-1.517 2.989-1.064-.758-1.487-1.881-1.487-2.989v-.481h-1.866v.481c0 1.327-.729 2.697-2.478 3.324l.947 1.385c1.211-.437 1.998-1.239 2.464-2.245.438 1.05 1.196 1.924 2.435 2.376 1.21-.481 1.997-1.385 2.435-2.42.452 1.035 1.253 1.852 2.507 2.289l.948-1.385c-1.764-.583-2.479-1.895-2.479-3.324zm.948-5.19v-2.872h-1.924v7.493h1.924v-3.061h1.779v-1.56z" fill="#595959"/><path d="m224.971 203.136c-.977 0-1.633-1.064-1.633-3.061 0-1.983.656-3.047 1.633-3.047.991 0 1.647 1.064 1.647 3.047 0 1.997-.656 3.061-1.647 3.061zm5.671-8.791v4.84h-2.245c-.263-2.42-1.618-3.892-3.426-3.892-1.998 0-3.47 1.837-3.47 4.782 0 2.959 1.472 4.811 3.47 4.811 1.866 0 3.236-1.575 3.44-4.141h2.231v7.071h1.924v-13.471z" fill="#595959"/><path d="m239.301 202.101c.466.088.947.131 1.472.131s1.021-.043 1.487-.131v2.566h-2.959zm1.472-5.569c1.866 0 3.12.758 3.12 2.099 0 1.327-1.254 2.1-3.12 2.1s-3.105-.773-3.105-2.1c0-1.341 1.239-2.099 3.105-2.099zm3.397 8.135v-3.28c1.006-.627 1.618-1.589 1.618-2.756 0-2.201-2.114-3.615-5.015-3.615-2.886 0-5 1.414-5 3.615-.015 1.167.597 2.129 1.618 2.756v3.28h-2.683v1.56h12.159v-1.56z" fill="#595959"/><path d="m250.234 203.282h-1.4l-.364-7.158h2.128zm-1.823 2.318c0-.408.107-.695.321-.86.224-.175.491-.262.802-.262.301 0 .559.087.773.262.223.165.335.452.335.86 0 .399-.112.685-.335.86-.214.175-.472.263-.773.263-.311 0-.578-.088-.802-.263-.214-.175-.321-.461-.321-.86z" fill="#595959"/><path clip-rule="evenodd" d="m92 26.8909-19.3277 20.1091-11.6723-9.4166 2.4201-3.2318 8.9212 7.1971 16.8668-17.5487z" fill="#3b75ff" fill-rule="evenodd"/><g fill="#000"><path d="m181.64 108.704c0 .888-.152 1.664-.456 2.328-.296.656-.736 1.168-1.32 1.536s-1.308.552-2.172.552c-.888 0-1.628-.184-2.22-.552-.584-.368-1.02-.884-1.308-1.548s-.432-1.44-.432-2.328c0-.88.144-1.648.432-2.304s.724-1.168 1.308-1.536c.592-.368 1.336-.552 2.232-.552.856 0 1.576.184 2.16.552.584.36 1.024.872 1.32 1.536.304.656.456 1.428.456 2.316zm-6.768 0c0 1.08.228 1.932.684 2.556.456.616 1.168.924 2.136.924.976 0 1.688-.308 2.136-.924.448-.624.672-1.476.672-2.556s-.224-1.924-.672-2.532c-.448-.616-1.156-.924-2.124-.924s-1.684.308-2.148.924c-.456.608-.684 1.452-.684 2.532z"/><path d="m188.699 108.248v.648h2.136v.564h.984v-6.324h-.984v5.112zm-2.244-4.224c1.056 0 1.728.36 1.728.936 0 .552-.672.924-1.728.924-1.044 0-1.728-.372-1.728-.924 0-.576.684-.936 1.728-.936zm0 2.532c1.596 0 2.652-.612 2.652-1.596 0-1.008-1.056-1.62-2.652-1.62s-2.652.612-2.652 1.62c0 .984 1.056 1.596 2.652 1.596zm-.552 2.94h.984v-1.656c1.044-.06 2.112-.144 3.156-.288l-.06-.648c-2.304.264-4.932.276-7.008.276l.12.744c.864 0 1.812-.012 2.808-.036zm-.3 3.54v-.936h6.216v-2.244h-7.212v.708h6.252v.864h-6.228v2.34h7.56v-.732z"/><path d="m205.172 108.704c0 .888-.152 1.664-.456 2.328-.296.656-.736 1.168-1.32 1.536s-1.308.552-2.172.552c-.888 0-1.628-.184-2.22-.552-.584-.368-1.02-.884-1.308-1.548s-.432-1.44-.432-2.328c0-.88.144-1.648.432-2.304s.724-1.168 1.308-1.536c.592-.368 1.336-.552 2.232-.552.856 0 1.576.184 2.16.552.584.36 1.024.872 1.32 1.536.304.656.456 1.428.456 2.316zm-6.768 0c0 1.08.228 1.932.684 2.556.456.616 1.168.924 2.136.924.976 0 1.688-.308 2.136-.924.448-.624.672-1.476.672-2.556s-.224-1.924-.672-2.532c-.448-.616-1.156-.924-2.124-.924s-1.684.308-2.148.924c-.456.608-.684 1.452-.684 2.532z"/><path d="m214.547 108.704c0 .888-.152 1.664-.456 2.328-.296.656-.736 1.168-1.32 1.536s-1.308.552-2.172.552c-.888 0-1.628-.184-2.22-.552-.584-.368-1.02-.884-1.308-1.548s-.432-1.44-.432-2.328c0-.88.144-1.648.432-2.304s.724-1.168 1.308-1.536c.592-.368 1.336-.552 2.232-.552.856 0 1.576.184 2.16.552.584.36 1.024.872 1.32 1.536.304.656.456 1.428.456 2.316zm-6.768 0c0 1.08.228 1.932.684 2.556.456.616 1.168.924 2.136.924.976 0 1.688-.308 2.136-.924.448-.624.672-1.476.672-2.556s-.224-1.924-.672-2.532c-.448-.616-1.156-.924-2.124-.924s-1.684.308-2.148.924c-.456.608-.684 1.452-.684 2.532z"/><path d="m224.75 103.124h-.984v5.52h.984zm-7.632 2.784c0-.936.78-1.596 1.824-1.596 1.056 0 1.824.66 1.824 1.596 0 .924-.768 1.584-1.824 1.584-1.044 0-1.824-.66-1.824-1.584zm4.608 0c0-1.428-1.176-2.4-2.784-2.4s-2.772.972-2.772 2.4c0 1.416 1.164 2.376 2.772 2.376s2.784-.96 2.784-2.376zm-2.952 7.056v-1.188h5.976v-2.604h-6.972v.78h6v1.092h-5.976v2.7h7.308v-.78z"/><path d="m181.64 238.704c0 .888-.152 1.664-.456 2.328-.296.656-.736 1.168-1.32 1.536s-1.308.552-2.172.552c-.888 0-1.628-.184-2.22-.552-.584-.368-1.02-.884-1.308-1.548s-.432-1.44-.432-2.328c0-.88.144-1.648.432-2.304s.724-1.168 1.308-1.536c.592-.368 1.336-.552 2.232-.552.856 0 1.576.184 2.16.552.584.36 1.024.872 1.32 1.536.304.656.456 1.428.456 2.316zm-6.768 0c0 1.08.228 1.932.684 2.556.456.616 1.168.924 2.136.924.976 0 1.688-.308 2.136-.924.448-.624.672-1.476.672-2.556s-.224-1.924-.672-2.532c-.448-.616-1.156-.924-2.124-.924s-1.684.308-2.148.924c-.456.608-.684 1.452-.684 2.532z"/><path d="m188.699 238.248v.648h2.136v.564h.984v-6.324h-.984v5.112zm-2.244-4.224c1.056 0 1.728.36 1.728.936 0 .552-.672.924-1.728.924-1.044 0-1.728-.372-1.728-.924 0-.576.684-.936 1.728-.936zm0 2.532c1.596 0 2.652-.612 2.652-1.596 0-1.008-1.056-1.62-2.652-1.62s-2.652.612-2.652 1.62c0 .984 1.056 1.596 2.652 1.596zm-.552 2.94h.984v-1.656c1.044-.06 2.112-.144 3.156-.288l-.06-.648c-2.304.264-4.932.276-7.008.276l.12.744c.864 0 1.812-.012 2.808-.036zm-.3 3.54v-.936h6.216v-2.244h-7.212v.708h6.252v.864h-6.228v2.34h7.56v-.732z"/><path d="m205.172 238.704c0 .888-.152 1.664-.456 2.328-.296.656-.736 1.168-1.32 1.536s-1.308.552-2.172.552c-.888 0-1.628-.184-2.22-.552-.584-.368-1.02-.884-1.308-1.548s-.432-1.44-.432-2.328c0-.88.144-1.648.432-2.304s.724-1.168 1.308-1.536c.592-.368 1.336-.552 2.232-.552.856 0 1.576.184 2.16.552.584.36 1.024.872 1.32 1.536.304.656.456 1.428.456 2.316zm-6.768 0c0 1.08.228 1.932.684 2.556.456.616 1.168.924 2.136.924.976 0 1.688-.308 2.136-.924.448-.624.672-1.476.672-2.556s-.224-1.924-.672-2.532c-.448-.616-1.156-.924-2.124-.924s-1.684.308-2.148.924c-.456.608-.684 1.452-.684 2.532z"/><path d="m214.547 238.704c0 .888-.152 1.664-.456 2.328-.296.656-.736 1.168-1.32 1.536s-1.308.552-2.172.552c-.888 0-1.628-.184-2.22-.552-.584-.368-1.02-.884-1.308-1.548s-.432-1.44-.432-2.328c0-.88.144-1.648.432-2.304s.724-1.168 1.308-1.536c.592-.368 1.336-.552 2.232-.552.856 0 1.576.184 2.16.552.584.36 1.024.872 1.32 1.536.304.656.456 1.428.456 2.316zm-6.768 0c0 1.08.228 1.932.684 2.556.456.616 1.168.924 2.136.924.976 0 1.688-.308 2.136-.924.448-.624.672-1.476.672-2.556s-.224-1.924-.672-2.532c-.448-.616-1.156-.924-2.124-.924s-1.684.308-2.148.924c-.456.608-.684 1.452-.684 2.532z"/><path d="m224.75 233.124h-.984v5.52h.984zm-7.632 2.784c0-.936.78-1.596 1.824-1.596 1.056 0 1.824.66 1.824 1.596 0 .924-.768 1.584-1.824 1.584-1.044 0-1.824-.66-1.824-1.584zm4.608 0c0-1.428-1.176-2.4-2.784-2.4s-2.772.972-2.772 2.4c0 1.416 1.164 2.376 2.772 2.376s2.784-.96 2.784-2.376zm-2.952 7.056v-1.188h5.976v-2.604h-6.972v.78h6v1.092h-5.976v2.7h7.308v-.78z"/></g><path d="m175.16 125.452c0-.78.708-1.308 1.728-1.308 1.032 0 1.74.528 1.74 1.308 0 .792-.708 1.32-1.74 1.32-1.02 0-1.728-.528-1.728-1.32zm5.172 2.784c-.936.144-1.944.228-2.952.276v-1.008c1.296-.156 2.172-.948 2.172-2.052 0-1.224-1.092-2.04-2.664-2.04-1.56 0-2.64.816-2.64 2.04 0 1.104.864 1.896 2.148 2.04v1.068c-.996.036-1.956.036-2.772.036l.132.804c1.848 0 4.392-.036 6.636-.444zm-5.364 3.012h6.024v2.652h.984v-3.444h-7.008zm8.58-5.1h-1.572v-3.012h-.984v6.792h.984v-2.964h1.572z" fill="#696969"/><path d="m193.507 123.136h-.984v6.42h.984zm-2.328 4.98c-1.596-.54-2.712-1.92-2.712-3.456v-1.056h-.984v1.056c0 1.62-1.092 3.132-2.712 3.732l.504.78c1.272-.48 2.256-1.512 2.712-2.796.492 1.164 1.464 2.076 2.7 2.52zm-1.224 4.968c-1.644 0-2.64-.468-2.64-1.248 0-.792.996-1.26 2.64-1.26 1.632 0 2.616.468 2.616 1.26 0 .78-.984 1.248-2.616 1.248zm0-3.276c-2.244 0-3.612.732-3.612 2.028 0 1.284 1.368 2.028 3.612 2.028 2.22 0 3.6-.744 3.6-2.028 0-1.296-1.38-2.028-3.6-2.028z" fill="#696969"/><path d="m175.004 257.984h3.132v-.78h-3.132v-2.04h3.3v-.804h-4.248v6.864h.708c1.74 0 2.772-.036 4.02-.276l-.096-.816c-1.152.228-2.112.276-3.684.276zm6.84-4.86v4.32h-1.428v-4.08h-.936v9.996h.936v-5.112h1.428v5.64h.936v-10.764z" fill="#696969"/><path d="m193.483 253.124h-.984v6.432h.984zm-2.124 4.212c-1.656.348-3.18.468-5.04.468v-3.96h-.984v4.788h.876c1.956 0 3.516-.12 5.268-.48zm-1.44 5.748c-1.632 0-2.64-.492-2.64-1.32 0-.84 1.008-1.332 2.64-1.332 1.62 0 2.628.492 2.628 1.332 0 .828-1.008 1.32-2.628 1.32zm0-3.444c-2.22 0-3.624.792-3.624 2.124 0 1.32 1.404 2.112 3.624 2.112s3.612-.792 3.612-2.112c0-1.332-1.392-2.124-3.612-2.124z" fill="#696969"/></g></svg>