<svg fill="none" height="338" viewBox="0 0 360 338" width="360" xmlns="http://www.w3.org/2000/svg" xmlns:xlink="http://www.w3.org/1999/xlink"><filter id="a" color-interpolation-filters="sRGB" filterUnits="userSpaceOnUse" height="169.432" width="157" x="178" y="58"><feFlood flood-opacity="0" result="BackgroundImageFix"/><feColorMatrix in="SourceAlpha" result="hardAlpha" type="matrix" values="0 0 0 0 0 0 0 0 0 0 0 0 0 0 0 0 0 0 127 0"/><feOffset dy="4"/><feGaussianBlur stdDeviation="9"/><feComposite in2="hardAlpha" operator="out"/><feColorMatrix type="matrix" values="0 0 0 0 0.388235 0 0 0 0 0.384314 0 0 0 0 0.529412 0 0 0 0.18 0"/><feBlend in2="BackgroundImageFix" mode="normal" result="effect1_dropShadow_497_1416"/><feBlend in="SourceGraphic" in2="effect1_dropShadow_497_1416" mode="normal" result="shape"/></filter><linearGradient id="b" gradientUnits="userSpaceOnUse" x1="136.825" x2="130.393" y1="121.257" y2="95.8319"><stop offset="0" stop-color="#2c2e51"/><stop offset="1" stop-color="#2c2e68"/></linearGradient><linearGradient id="c" gradientUnits="userSpaceOnUse" x1="111.621" x2="108.083" y1="256.326" y2="239.043"><stop offset="0" stop-color="#5062f9"/><stop offset=".2861" stop-color="#5072f9"/><stop offset=".6942" stop-color="#5083f9"/><stop offset="1" stop-color="#5089f9"/></linearGradient><linearGradient id="d" gradientUnits="userSpaceOnUse" x1="107.631" x2="128.824" y1="259.317" y2="291.561"><stop offset="0" stop-color="#5062f9"/><stop offset=".124" stop-color="#506ef9"/><stop offset=".3506" stop-color="#507df9"/><stop offset=".6144" stop-color="#5086f9"/><stop offset="1" stop-color="#5089f9"/></linearGradient><linearGradient id="e" gradientUnits="userSpaceOnUse" x1="142.256" x2="146.423" y1="245.168" y2="218.654"><stop offset="0" stop-color="#ffdac7"/><stop offset=".2974" stop-color="#ffd7c4"/><stop offset=".5516" stop-color="#ffceb9"/><stop offset=".7892" stop-color="#ffc0a8"/><stop offset="1" stop-color="#ffad91"/></linearGradient><radialGradient id="f" cx="0" cy="0" gradientTransform="matrix(17.5172 0 0 17.5211 162.07 226.902)" gradientUnits="userSpaceOnUse" r="1"><stop offset=".205" stop-color="#ccc"/><stop offset="1" stop-color="#f2f2f2"/></radialGradient><radialGradient id="g" cx="0" cy="0" gradientTransform="matrix(2.12834 0 0 2.12882 161.419 212.946)" gradientUnits="userSpaceOnUse" r="1"><stop offset=".0284" stop-color="#b4c5d0"/><stop offset=".4651" stop-color="#b6c6d1"/><stop offset=".6499" stop-color="#bdccd5"/><stop offset=".7871" stop-color="#cad5dc"/><stop offset=".9" stop-color="#dbe1e5"/><stop offset=".9982" stop-color="#f2f2f2"/><stop offset=".9988" stop-color="#f2f2f2"/></radialGradient><linearGradient id="h" gradientUnits="userSpaceOnUse" x1="150.84" x2="156.215" y1="253.264" y2="219.057"><stop offset="0" stop-color="#ffdac7"/><stop offset=".3329" stop-color="#ffd7c4"/><stop offset=".5707" stop-color="#ffcebb"/><stop offset=".7788" stop-color="#ffbeab"/><stop offset=".969" stop-color="#ffa895"/><stop offset=".9987" stop-color="#ffa491"/></linearGradient><mask id="i" height="338" maskUnits="userSpaceOnUse" width="360" x="0" y="0"><path d="m0 0h360v338h-360z" fill="#c4c4c4"/></mask><g mask="url(#i)"><circle cx="108.5" cy="140.5" fill="#ebf1ff" r="140.5"/><g filter="url(#a)"><path clip-rule="evenodd" d="m213 72c-5.523 0-10 4.4772-10 10v102c0 3.567 1.867 6.697 4.678 8.467-.378.706-.772 1.383-1.178 2.033-2.5 4-4.5 5.5-10.5 9.5 7.667 2 14.5 2.25 22-1.5 4.144-2.072 7.22-5.06 9.48-8.5h79.52c5.523 0 10-4.477 10-10v-102c0-5.5228-4.477-10-10-10z" fill="#fff" fill-rule="evenodd"/></g><path d="m292.15 99.5498h-31.8c-.829 0-1.5.6992-1.5 1.5612v16.078c0 .862.671 1.561 1.5 1.561h31.8c.828 0 1.5-.699 1.5-1.561v-16.078c0-.862-.672-1.5612-1.5-1.5612z" fill="#f2f2f2"/><path d="m296.5 99.55h-40.5l4.546-10.68c.121-.2599.313-.4799.554-.6341.242-.1542.522-.236.809-.2359h28.682c.287.0002.567.0821.808.2363.241.1541.433.374.553.6337z" fill="#ffc45c"/><path d="m287.333 107.95h-6.884c-.414 0-.75.336-.75.75v9.3c0 .414.336.75.75.75h6.884c.414 0 .75-.336.75-.75v-9.3c0-.414-.336-.75-.75-.75z" fill="#ffc45c"/><path d="m273.534 105.4h-8.983c-.414 0-.75.336-.75.75v6.15c0 .415.336.75.75.75h8.983c.414 0 .75-.335.75-.75v-6.15c0-.414-.336-.75-.75-.75z" fill="#ffe1ad"/><g fill="#ffc45c"><path d="m261.85 99.5498c0 .7562-.308 1.4812-.857 2.0152-.548.535-1.292.835-2.068.835s-1.52-.3-2.068-.835c-.549-.534-.857-1.259-.857-2.0152z"/><path d="m267.55 99.5498c-.017.7622-.325 1.4862-.858 2.0192-.532.533-1.248.831-1.992.831-.745 0-1.46-.298-1.993-.831s-.84-1.257-.857-2.0192z"/><path d="m273.4 99.5498c-.018.7622-.333 1.4862-.88 2.0192s-1.281.831-2.045.831c-.765 0-1.499-.298-2.045-.831-.547-.533-.863-1.257-.88-2.0192z"/><path d="m279.1 99.5498c-.017.7622-.324 1.4862-.857 2.0192s-1.248.831-1.993.831c-.744 0-1.46-.298-1.992-.831-.533-.533-.841-1.257-.858-2.0192z"/><path d="m284.95 99.5498c0 .7562-.309 1.4812-.857 2.0152-.549.535-1.293.835-2.068.835-.776 0-1.52-.3-2.069-.835-.548-.534-.856-1.259-.856-2.0152z"/><path d="m290.65 99.5498c-.017.7622-.324 1.4862-.857 2.0192s-1.248.831-1.993.831-1.46-.298-1.993-.831c-.532-.533-.84-1.257-.857-2.0192z"/><path d="m296.499 99.5498c-.017.7622-.333 1.4862-.879 2.0192-.547.533-1.281.831-2.046.831-.764 0-1.498-.298-2.045-.831-.546-.533-.862-1.257-.88-2.0192z"/></g><path d="m295.386 158.987h-30.248c-.788 0-1.427.665-1.427 1.485v15.293c0 .82.639 1.485 1.427 1.485h30.248c.788 0 1.427-.665 1.427-1.485v-15.293c0-.82-.639-1.485-1.427-1.485z" fill="#f2f2f2"/><path d="m299.524 158.987h-38.524l4.325-10.159c.114-.248.297-.457.527-.604.229-.146.496-.224.768-.224h27.284c.272 0 .539.078.768.225.229.146.412.356.526.603z" fill="#6291ff"/><path d="m290.804 166.977h-6.548c-.394 0-.713.319-.713.713v8.847c0 .394.319.713.713.713h6.548c.394 0 .713-.319.713-.713v-8.847c0-.394-.319-.713-.713-.713z" fill="#6291ff"/><path d="m277.679 164.551h-8.546c-.394 0-.713.32-.713.714v5.85c0 .394.319.713.713.713h8.546c.394 0 .713-.319.713-.713v-5.85c0-.394-.319-.714-.713-.714z" fill="#cddcff"/><path d="m266.565 158.987c0 .719-.294 1.408-.815 1.917-.522.508-1.23.794-1.968.794s-1.445-.286-1.967-.794c-.522-.509-.815-1.198-.815-1.917z" fill="#6291ff"/><path d="m271.986 158.987c-.016.724-.308 1.414-.815 1.92-.507.507-1.187.791-1.896.791-.708 0-1.388-.284-1.895-.791-.507-.506-.799-1.196-.816-1.92z" fill="#6291ff"/><path d="m277.551 158.987c-.017.724-.317 1.414-.837 1.92-.52.507-1.218.791-1.945.791-.728 0-1.426-.284-1.946-.791-.52-.506-.82-1.196-.837-1.92z" fill="#6291ff"/><path d="m282.973 158.987c-.016.724-.309 1.414-.816 1.92-.506.507-1.187.791-1.895.791-.709 0-1.389-.284-1.896-.791-.506-.506-.799-1.196-.815-1.92z" fill="#6291ff"/><path d="m288.536 158.987c0 .719-.293 1.408-.815 1.917-.521.508-1.229.794-1.967.794s-1.446-.286-1.967-.794c-.522-.509-.815-1.198-.815-1.917z" fill="#6291ff"/><path d="m293.96 158.987c-.016.724-.309 1.414-.815 1.92-.507.507-1.187.791-1.896.791-.708 0-1.389-.284-1.895-.791-.507-.506-.8-1.196-.816-1.92z" fill="#6291ff"/><path d="m299.524 158.987c-.017.724-.317 1.414-.837 1.92-.52.507-1.219.791-1.946.791s-1.425-.284-1.945-.791c-.52-.506-.82-1.196-.837-1.92z" fill="#6291ff"/><path d="m252.386 132.987h-30.248c-.788 0-1.427.665-1.427 1.485v15.293c0 .82.639 1.485 1.427 1.485h30.248c.788 0 1.427-.665 1.427-1.485v-15.293c0-.82-.639-1.485-1.427-1.485z" fill="#e6e6e6"/><path d="m256.524 132.987h-38.524l4.325-10.159c.114-.248.297-.457.527-.604.229-.146.496-.224.768-.224h27.284c.272 0 .539.078.768.225.229.146.412.356.526.603z" fill="#1e3c8e"/><path d="m247.804 140.977h-6.548c-.394 0-.713.319-.713.713v8.847c0 .394.319.713.713.713h6.548c.394 0 .713-.319.713-.713v-8.847c0-.394-.319-.713-.713-.713z" fill="#1e3c8e"/><path d="m234.679 138.551h-8.546c-.394 0-.713.32-.713.714v5.85c0 .394.319.713.713.713h8.546c.394 0 .713-.319.713-.713v-5.85c0-.394-.319-.714-.713-.714z" fill="#8eaaf7"/><path d="m223.565 132.987c0 .719-.294 1.408-.815 1.917-.522.508-1.23.794-1.968.794s-1.445-.286-1.967-.794c-.522-.509-.815-1.198-.815-1.917z" fill="#1e3c8e"/><path d="m228.986 132.987c-.016.724-.308 1.414-.815 1.92-.507.507-1.187.791-1.896.791-.708 0-1.388-.284-1.895-.791-.507-.506-.799-1.196-.816-1.92z" fill="#1e3c8e"/><path d="m234.551 132.987c-.017.724-.317 1.414-.837 1.92-.52.507-1.218.791-1.945.791-.728 0-1.426-.284-1.946-.791-.52-.506-.82-1.196-.837-1.92z" fill="#1e3c8e"/><path d="m239.973 132.987c-.016.724-.309 1.414-.816 1.92-.506.507-1.187.791-1.895.791-.709 0-1.389-.284-1.896-.791-.506-.506-.799-1.196-.815-1.92z" fill="#1e3c8e"/><path d="m245.536 132.987c0 .719-.293 1.408-.815 1.917-.521.508-1.229.794-1.967.794s-1.446-.286-1.967-.794c-.522-.509-.815-1.198-.815-1.917z" fill="#1e3c8e"/><path d="m250.96 132.987c-.016.724-.309 1.414-.815 1.92-.507.507-1.187.791-1.896.791-.708 0-1.389-.284-1.895-.791-.507-.506-.8-1.196-.816-1.92z" fill="#1e3c8e"/><path d="m256.524 132.987c-.017.724-.317 1.414-.837 1.92-.52.507-1.219.791-1.946.791s-1.425-.284-1.945-.791c-.52-.506-.82-1.196-.837-1.92z" fill="#1e3c8e"/><path d="m191.926 338.074c7.567-20.342 7.094-114.483-18.446-129.621-15.466-9.169-40.202-13.246-73.309-6.15-40.8453 8.756-44.9317 79.476-44.9317 79.476 27.9049 22.234 47.0787-22.486 73.3097-24.127 12.458-.781 45.125-2.011 43.985 26.492-.472 11.827-8.04 46.361 0 55.349 13.239 14.798 17.533 3.581 19.392-1.419z" fill="#ffdac7"/><path d="m124.765 181.96h6.621c3.122 0 9.46 2.082 9.46 5.204l1.419 13.246c0 3.123-5.392 4.731-8.514 4.731l-8.513-.473c-5.676-.946-9.932.284-9.932-2.839l3.783-14.192c0-3.122 2.554-5.677 5.676-5.677z" fill="#ffdac7"/><path d="m125.238 176.283h6.622c3.121 0 8.513 2.082 8.513 5.204l.946 10.881c0 3.311-10.878 6.15-15.135 7.096-3.722.828-9.932 2.176-9.932-.946l3.784-15.139c0-3.122 2.081-7.096 5.202-7.096z" fill="#ffc7ae"/><path d="m100.208 157.242s-3.1596 4.182-4.2001 8.998c-1.0264 4.759 1.3101 10.256 1.3101 10.256s-5.9594-5.828-5.2831-11.098c.3122-2.436 3.0128-8.908 3.0128-8.908z" fill="#343579"/><path d="m136.887 113.365s5.245 0 9.71-2.077c4.417-2.053 7.387-7.233 7.387-7.233s-1.05 8.269-5.661 10.909c-2.128 1.22-8.92 2.971-8.92 2.971z" fill="#2c2e68"/><path d="m142.993 112.329s4.158 1.249 8.097 1.225c3.898-.023 7.26-2.034 7.26-2.034s-2.435 4.087-6.607 4.376c-1.925.132-7.643-.568-7.643-.568z" fill="#2c2e68"/><path d="m122.608 118.644c-4.758-5.359-3.661-14.111 2.455-19.5375 6.115-5.4261 14.926-5.4829 19.689-.123 4.758 5.3595 3.661 14.1115-2.455 19.5375-6.64 5.9-7.96-.79-7.96-.79s-5.391 8.057-11.729.913z" fill="url(#b)"/><path d="m165.899 158.87c-3.717 19.036-14.302 38.29-41.928 31.53-20.957-5.128-30.7098-25.953-26.9923-44.989 3.7173-19.037 22.1583-31.455 41.1903-27.736 19.032 3.718 31.448 22.158 27.73 41.195z" fill="#ffdac7"/><path d="m143.722 129.426s-9.923 10.596-23.185 14.39-24.7735 2.3-24.7735 2.3-1.9155-18.597 14.2745-28.21c16.189-9.612 25.204-5.412 26.854-4.711 1.651.7 2.2 1.556 2.2 1.556s1.802-1.902 6.139-.303c0 0 15.707 4.759 20.602 19.992 4.493 13.984 2.181 20.905 1.755 23.077-.426 2.171-.989 5.066-.989 5.066s-12.24-8.775-18.45-22.764-4.427-10.393-4.427-10.393z" fill="#343579"/><path d="m101.117 153.864c.326 5.214-1.3009 9.296-5.4725 9.556-4.1715.261-9.3079-3.396-9.6343-8.61-.3263-5.213.648-9.532 6.9621-9.915 4.1715-.256 7.8177 3.751 8.1447 8.969z" fill="#ffdac7"/><path clip-rule="evenodd" d="m92.6017 149.931c.2209-.108.4877-.017.5958.204l-.4.196c.4-.196.4-.196.4-.196l.001.002.0025.005.009.019c.0077.016.0189.039.033.069.0282.059.068.144.1153.248.0945.208.2195.494.3408.802.1206.306.241.644.3231.955.0759.286.1419.629.0875.906-.02.104-.0516.219-.1114.324-.0655.115-.1749.231-.3432.284-.1544.048-.2941.021-.3821-.005-.0892-.026-.173-.067-.2387-.101-.0541-.028-.1078-.058-.1624-.088-.2289-.126-.4724-.26-.8172-.327.0003 0 .0005 0 0 0-.003 0-.0204-.002-.0549-.001-.038.002-.0872.007-.1447.019-.1158.023-.2508.068-.3814.137-.2594.138-.4729.356-.5376.69-.1671.86.073 1.746.7345 2.391.4092.399.739.6 1.1069.706.383.111.8454.131 1.5491.096.2457-.012.4548.177.4671.422.0122.246-.177.455-.4227.467-.7199.036-1.3075.025-1.8409-.129-.5484-.158-1.0013-.456-1.4811-.923l-.0004-.001c-.8897-.868-1.2076-2.063-.9869-3.199.1292-.665.5661-1.079.9936-1.306.2129-.113.4305-.185.6241-.224.1842-.037.3812-.051.5457-.019.4217.082.7624.249.995.375-.0123-.073-.0313-.162-.0591-.267-.0695-.263-.1761-.564-.2908-.856-.114-.29-.2325-.56-.3229-.759-.045-.099-.0828-.18-.1092-.236-.0132-.028-.0236-.049-.0305-.064l-.0078-.016-.0023-.004" fill="#ffb699" fill-rule="evenodd"/><path clip-rule="evenodd" d="m124.995 177.178.007.004.031.017c.028.016.071.04.129.072.115.063.287.155.507.267.44.226 1.071.532 1.826.853 1.523.646 3.49 1.323 5.391 1.535 1.894.212 3.797-.03 5.25-.338.722-.152 1.32-.319 1.735-.445.207-.064.368-.117.475-.154.053-.018.093-.032.118-.041l.027-.01.005-.002c.575-.217 1.217.074 1.434.649.217.576-.073 1.218-.649 1.435l-.357-.949c.357.949.357.949.357.949l-.002.001-.004.001-.013.005c-.01.004-.024.009-.042.015-.035.013-.086.031-.15.053-.129.044-.314.106-.548.177-.466.143-1.128.326-1.925.495-1.581.335-3.741.62-5.958.373-2.209-.247-4.403-1.015-6.014-1.699-.813-.345-1.493-.675-1.971-.92-.239-.123-.429-.224-.56-.296-.066-.036-.117-.065-.153-.085-.017-.01-.031-.017-.041-.023l-.012-.007-.005-.003c-.001 0-.001 0 .556-.965l-.556.965c-.533-.307-.716-.988-.409-1.521.308-.532.988-.715 1.521-.408z" fill="#ffb391" fill-rule="evenodd"/><path d="m92.6605 204.871c-1.8304 1.949 1.3621 20.139-.0568 36.696-.4919 5.734-1.6553 13.998-1.6553 13.998s-4.2047 34.265-7.804 45.136c-3.4999 10.578-13.243 42.104-.4729 47.307 13.3234 5.431 82.1165 6.179 97.9035-3.311 10.282-6.183-14.719-54.574-9.142-72.735 6.347-20.664 1.622-62.275-1.083-64.338-3.07-2.337-10.718-6.713-12.487-5.757-1.858 1.008 2.488 18.852-.274 21.307s-43.323 5.204-48.734.118c-3.656-3.434-1.845-21.004-3.524-21.662-1.282-.506-10.4618.885-12.6705 3.241z" fill="#5089f9"/><path d="m136.069 243.289c-.828 3.07-8.523 8.454-21.009 12.068-12.487 3.614-24.8736 4.012-24.3486.875.946-5.677.946-7.569 1.4189-9.934 1.523-7.607 46.8237-13.719 43.9387-3.009z" fill="url(#c)" opacity=".8"/><path d="m87.8742 281.778c9.9559-19.916 3.2824-11.334 20.6968-22.428 17.415-11.093 23.979-10.138 30.856-12.106 6.05-1.731 13.243.473 12.77 3.312-1.915 11.486-11.46 38.735-36.891 45.415-12.732 3.344-32.5398 6.528-31.2155 1.892 1.8918-6.623 1.3101-11.136 3.7837-16.085z" fill="url(#d)" opacity=".8"/><path d="m148.318 241.033s-54.3056 12.134-69.2891 17.981-19.855 9.802-22.778 15.394c-2.9229 5.596-.733 14.206 6.6689 16.037 7.4018 1.831 19.5334-.061 26.7225-4.452 7.189-4.385 65.5247-38.432 65.5247-38.432z" fill="#ffdac7"/><path d="m135.274 243.838c.184-4.726.828-8.823 6.267-14.959 5.439-6.14 4.587-4.924 6.976-7.015 9.36-8.208 2.303 8.472 2.303 8.472s-15.645 15.962-15.546 13.502z" fill="url(#e)"/><path d="m156.454 210.345c.321-1.074.945-2.839 4.256-2.839h15.135s2.365.473 1.419 3.785c-.946 3.311-7.392 22.949-9.459 31.223-.473 1.892-1.419 3.784-5.676 3.784-6.621 0-10.405 0-10.405 0s-6.622 0-4.73-7.096c1.102-4.139 8.041-24.127 9.46-28.857z" fill="url(#f)"/><path d="m161.419 215.076c1.176 0 2.129-.954 2.129-2.129 0-1.176-.953-2.129-2.129-2.129-1.175 0-2.128.953-2.128 2.129 0 1.175.953 2.129 2.128 2.129z" fill="url(#g)"/><path d="m135.274 241.946c.185-4.726 15.542-13.502 15.542-13.502s15.57-8.638 18.881-7.219c4.862 2.082 2.364 7.096.473 11.354-1.769 3.983-8.987 14.192-15.135 17.977-2.933 1.807-9.341 3.378-13.868.151-4.526-3.231-5.992-6.301-5.893-8.761z" fill="url(#h)"/><path clip-rule="evenodd" d="m90.9131 255.444c.0437.242-.1172.474-.3592.517-7.165 1.293-13.276 3.643-17.5964 5.672-2.1596 1.014-3.8701 1.946-5.0391 2.624-.5845.339-1.0335.615-1.3355.805-.151.095-.2652.168-.3412.218-.038.025-.0665.044-.0852.056l-.0208.014-.0048.003-.0011.001h-.0001s0 0-.0001 0m24.7835-9.91c-.0437-.242-.2753-.403-.5174-.359zm-.5174-.359c-7.2605 1.309-13.4466 3.69-17.8168 5.741zm-17.8168 5.741c-2.1858 1.027-3.9191 1.971-5.1075 2.661zm-5.1075 2.661c-.5942.345-1.0524.625-1.3628.821zm-1.3628.821c-.1553.097-.2736.174-.3536.226zm-.3536.226c-.04.026-.0704.046-.091.06zm-.091.06-.0236.015zm-.0236.015-.0063.005zm-.0063.005-.0017.001zm-.0017.001h-.0006zm-.0006 0c-.0001 0-.0002 0 .2488.37z" fill="#ffc7ae" fill-rule="evenodd"/></g></svg>