<svg width="291" height="32" viewBox="0 0 291 32" fill="none" xmlns="http://www.w3.org/2000/svg">
<path d="M6.89413 2.173H3.99513V0.444H2.92913V2.173H0.00412501V3.044H6.89413V2.173ZM3.46213 8.452C2.46113 8.452 1.70713 7.724 1.70713 6.671C1.70713 5.631 2.46113 4.903 3.46213 4.903C4.45013 4.903 5.20413 5.631 5.20413 6.671C5.20413 7.724 4.45013 8.452 3.46213 8.452ZM3.46213 3.993C1.87613 3.993 0.719125 5.111 0.719125 6.671C0.719125 8.257 1.87613 9.362 3.46213 9.362C5.03513 9.362 6.19212 8.257 6.19212 6.671C6.19212 5.111 5.03513 3.993 3.46213 3.993ZM8.55813 0.314V5.189H6.64713V6.06H8.55813V11.962H9.62413V0.314H8.55813ZM15.7981 1.731C16.9291 1.731 17.7351 2.342 17.7351 3.252C17.7351 4.162 16.9291 4.773 15.7981 4.773C14.6541 4.773 13.8481 4.162 13.8481 3.252C13.8481 2.342 14.6541 1.731 15.7981 1.731ZM15.7981 5.644C17.5271 5.644 18.7621 4.669 18.7621 3.252C18.7621 1.822 17.5271 0.847 15.7981 0.847C14.0561 0.847 12.8211 1.822 12.8211 3.252C12.8211 4.669 14.0561 5.644 15.7981 5.644ZM19.6331 6.216C17.0721 6.606 14.1211 6.632 11.9501 6.632L12.0931 7.529C13.0551 7.529 14.1601 7.516 15.3171 7.464V11.598H16.3831V7.399C17.4881 7.334 18.6191 7.204 19.7241 7.009L19.6331 6.216ZM20.4781 0.314V11.975H21.5441V0.314H20.4781ZM36.7277 0.301H35.6617V8.855H36.7277V0.301ZM34.1797 6.112C32.4507 5.475 31.2677 3.889 31.2677 2.134V0.950999H30.2017V2.134C30.2017 3.954 29.0317 5.644 27.2767 6.32L27.8357 7.191C29.2007 6.619 30.2537 5.488 30.7477 4.071C31.2677 5.397 32.2947 6.45 33.6207 6.957L34.1797 6.112ZM30.2927 10.831V8.062H29.2267V11.702H37.0787V10.831H30.2927ZM47.3477 2.628C47.3477 4.032 47.3477 5.67 46.9057 7.906L47.9717 8.023C48.4137 5.67 48.4137 4.071 48.4137 2.628V1.471H40.2367V2.342H47.3477V2.628ZM44.2927 9.453V5.28H43.2267V9.453H39.1317V10.324H49.6747V9.453H44.2927ZM58.4363 1.315H57.3833V3.408C57.3833 5.618 55.9663 7.854 54.2503 8.673L54.9003 9.544C56.2653 8.842 57.3833 7.386 57.9163 5.631C58.4753 7.295 59.5933 8.673 60.9193 9.323L61.5563 8.465C59.8273 7.685 58.4363 5.54 58.4363 3.408V1.315ZM62.7783 0.301V11.988H63.8443V0.301H62.7783ZM73.5679 1.302H72.5019V3.395C72.5019 5.553 71.1759 7.802 69.4859 8.647L70.1359 9.492C71.4489 8.79 72.5279 7.321 73.0349 5.592C73.5679 7.23 74.6339 8.621 75.9599 9.284L76.5839 8.439C74.8939 7.633 73.5679 5.514 73.5679 3.395V1.302ZM78.0269 0.301V4.253H75.3229V5.124H78.0269V11.975H79.0929V0.301H78.0269ZM89.9209 0.301V11.975H90.9869V0.301H89.9209ZM82.1079 1.289V9.154H87.5939V1.289H86.5409V4.37H83.1609V1.289H82.1079ZM83.1609 5.215H86.5409V8.283H83.1609V5.215ZM103.453 6.164C101.412 5.774 99.2018 4.006 99.2018 2.017V1.12H98.0838V2.017C98.0838 4.006 95.8868 5.761 93.8458 6.164L94.3268 7.048C96.0818 6.632 97.9018 5.384 98.6428 3.681C99.3838 5.397 101.204 6.645 102.972 7.048L103.453 6.164ZM93.4038 9.518V10.402H103.973V9.518H93.4038ZM115.516 1.185H112.708V0.184H111.642V1.185H108.821V1.952H115.516V1.185ZM110.459 3.85C110.459 3.33 111.122 3.018 112.175 3.018C113.215 3.018 113.878 3.33 113.878 3.85C113.878 4.37 113.215 4.695 112.175 4.695C111.122 4.695 110.459 4.37 110.459 3.85ZM115.867 5.787C114.866 5.917 113.774 6.008 112.708 6.06V5.371C114.047 5.254 114.892 4.708 114.892 3.85C114.892 2.888 113.813 2.316 112.175 2.316C110.511 2.316 109.445 2.888 109.445 3.85C109.445 4.721 110.29 5.267 111.642 5.371V6.086C110.524 6.125 109.445 6.125 108.535 6.125L108.652 6.918C110.693 6.918 113.449 6.905 115.932 6.463L115.867 5.787ZM111.148 10.077H117.622V7.698H110.069V8.452H116.569V9.362H110.108V11.832H118.064V11.065H111.148V10.077ZM117.622 3.278V0.301H116.556V7.191H117.622V4.175H119.338V3.278H117.622ZM125.824 11.13C123.978 11.13 122.899 10.675 122.899 9.856C122.899 9.037 123.978 8.582 125.824 8.582C127.644 8.582 128.723 9.037 128.723 9.856C128.723 10.675 127.644 11.13 125.824 11.13ZM125.824 7.75C123.328 7.75 121.82 8.504 121.82 9.856C121.82 11.208 123.328 11.962 125.824 11.962C128.294 11.962 129.802 11.208 129.802 9.856C129.802 8.504 128.294 7.75 125.824 7.75ZM126.357 6.06V4.708H129.867V3.85H122.938V1.692H129.789V0.833999H121.872V4.708H125.291V6.06H120.546V6.918H131.102V6.06H126.357ZM140.981 0.301V11.988H142.047V0.301H140.981ZM135.898 1.198C134.169 1.198 132.934 2.784 132.934 5.267C132.934 7.75 134.169 9.336 135.898 9.336C137.627 9.336 138.862 7.75 138.862 5.267C138.862 2.784 137.627 1.198 135.898 1.198ZM135.898 2.16C137.029 2.16 137.835 3.382 137.835 5.267C137.835 7.165 137.029 8.387 135.898 8.387C134.754 8.387 133.948 7.165 133.948 5.267C133.948 3.382 134.754 2.16 135.898 2.16ZM151.108 2.537H153.188V1.666H147.871V2.537H150.081V3.59C150.081 5.735 149.171 7.854 147.546 8.829L148.196 9.622C149.353 8.894 150.198 7.529 150.601 5.93C151.004 7.412 151.81 8.66 152.941 9.336L153.591 8.556C151.979 7.646 151.108 5.618 151.108 3.59V2.537ZM154.228 4.487H152.304V5.358H154.228V11.351H155.242V0.561H154.228V4.487ZM156.568 0.287999V11.949H157.595V0.287999H156.568ZM166.564 1.731H163.652V0.301H162.586V1.731H159.687V2.589H166.564V1.731ZM161.351 5.397C161.351 4.591 162.066 4.071 163.119 4.071C164.172 4.071 164.9 4.591 164.9 5.397C164.9 6.216 164.172 6.736 163.119 6.736C162.066 6.736 161.351 6.216 161.351 5.397ZM165.914 5.397C165.914 4.097 164.77 3.239 163.119 3.239C161.468 3.239 160.337 4.097 160.337 5.397C160.337 6.71 161.468 7.568 163.119 7.568C164.77 7.568 165.914 6.71 165.914 5.397ZM162.508 8.361H161.442V11.702H169.216V10.831H162.508V8.361ZM168.696 4.149V0.301H167.63V9.05H168.696V5.046H170.412V4.149H168.696ZM184.4 0.314H183.334V6.567H184.4V0.314ZM182.437 5.111C181.423 5.241 180.344 5.306 179.252 5.358V4.188H181.553V3.356H177.042V1.627H181.423V0.795H175.95V4.188H178.186V5.397C177.042 5.436 175.911 5.449 174.897 5.449L175.04 6.294C177.237 6.294 180.032 6.216 182.502 5.865L182.437 5.111ZM177.783 10.987V9.817H184.4V7.113H176.704V7.945H183.347V9.011H176.73V11.832H184.803V10.987H177.783ZM200.051 4.747C197.932 4.435 195.852 2.992 195.852 1.367V0.717H194.734V1.367C194.734 3.031 192.68 4.435 190.561 4.747L190.99 5.605C192.81 5.293 194.565 4.292 195.293 2.875C196.047 4.279 197.802 5.293 199.609 5.605L200.051 4.747ZM200.558 6.866H190.028V7.75H194.734V11.975H195.8V7.75H200.571L200.558 6.866ZM214.767 0.314H213.701V6.97H214.767V0.314ZM208.501 1.874C209.658 1.874 210.516 2.641 210.516 3.707C210.516 4.786 209.658 5.54 208.501 5.54C207.344 5.54 206.512 4.786 206.512 3.707C206.512 2.641 207.344 1.874 208.501 1.874ZM208.501 6.424C210.269 6.424 211.556 5.319 211.556 3.707C211.556 2.095 210.269 0.989999 208.501 0.989999C206.746 0.989999 205.472 2.095 205.472 3.707C205.472 5.319 206.746 6.424 208.501 6.424ZM213.467 7.477H212.427V8.101C212.427 9.011 211.868 10.181 210.75 10.87C209.671 10.233 209.138 9.128 209.138 8.101V7.477H208.111V8.101C208.111 9.219 207.24 10.48 205.771 11L206.304 11.806C207.396 11.39 208.189 10.584 208.605 9.648C208.956 10.623 209.658 11.468 210.776 11.91C211.855 11.442 212.57 10.558 212.934 9.609C213.324 10.584 214.13 11.39 215.274 11.806L215.807 11C214.325 10.506 213.467 9.31 213.467 8.101V7.477ZM222.423 1.029C220.005 1.029 218.185 2.316 218.185 4.253C218.185 6.203 220.005 7.477 222.423 7.477C224.841 7.477 226.661 6.203 226.661 4.253C226.661 2.316 224.841 1.029 222.423 1.029ZM222.423 1.9C224.269 1.9 225.647 2.849 225.647 4.253C225.647 5.67 224.269 6.606 222.423 6.606C220.59 6.606 219.199 5.67 219.199 4.253C219.199 2.849 220.59 1.9 222.423 1.9ZM217.145 9.531V10.415H227.74V9.531H217.145ZM230.911 1.432H229.845V8.946H230.807C232.666 8.946 234.499 8.816 236.527 8.4L236.41 7.49C234.473 7.88 232.666 8.036 230.911 8.036V1.432ZM237.606 0.301V11.949H238.672V0.301H237.606ZM253.868 0.301H252.802V8.855H253.868V0.301ZM251.32 6.112C249.591 5.475 248.408 3.889 248.408 2.134V0.950999H247.342V2.134C247.342 3.954 246.172 5.644 244.417 6.32L244.976 7.191C246.341 6.619 247.394 5.488 247.888 4.071C248.408 5.397 249.435 6.45 250.761 6.957L251.32 6.112ZM247.433 10.831V8.062H246.367V11.702H254.219V10.831H247.433ZM257.234 5.059C259.145 4.825 260.9 3.967 261.537 2.68C262.187 3.967 263.929 4.825 265.84 5.059L266.217 4.214C264.176 3.98 262.317 2.979 262.226 1.692H265.853V0.833999H257.234V1.692H260.848C260.757 2.979 258.898 3.98 256.857 4.214L257.234 5.059ZM264.436 9.895C264.436 10.675 263.344 11.13 261.524 11.13C259.691 11.13 258.612 10.675 258.612 9.895C258.612 9.115 259.691 8.673 261.524 8.673C263.344 8.673 264.436 9.115 264.436 9.895ZM266.802 6.619V5.761H256.259V6.619H260.991V7.867C258.82 7.971 257.533 8.686 257.533 9.895C257.533 11.221 259.041 11.949 261.537 11.949C264.02 11.949 265.515 11.221 265.515 9.895C265.515 8.686 264.241 7.971 262.07 7.867V6.619H266.802ZM271.637 8.478C270.584 8.478 269.817 7.724 269.817 6.684C269.817 5.631 270.584 4.877 271.637 4.877C272.703 4.877 273.47 5.631 273.47 6.684C273.47 7.724 272.703 8.478 271.637 8.478ZM271.637 3.993C269.999 3.993 268.816 5.111 268.816 6.684C268.816 8.27 269.999 9.362 271.637 9.362C273.301 9.362 274.484 8.27 274.484 6.684C274.484 5.111 273.301 3.993 271.637 3.993ZM272.157 0.444H271.091V2.173H268.153V3.031H275.03V2.173H272.157V0.444ZM279.112 5.098H277.201V0.314H276.135V11.962H277.201V5.995H279.112V5.098ZM286.638 5.072H284.623C285.013 4.032 285.182 2.927 285.182 1.783H280.684V2.654H284.129C283.934 5.098 282.686 7.191 280.19 8.686L280.814 9.453C282.426 8.491 283.544 7.282 284.246 5.93H286.638V11.377H287.652V0.613H286.638V5.072ZM289.069 0.301V11.962H290.083V0.301H289.069ZM94.1359 20.301H93.0699V28.855H94.1359V20.301ZM91.5879 26.112C89.8589 25.475 88.6759 23.889 88.6759 22.134V20.951H87.6099V22.134C87.6099 23.954 86.4399 25.644 84.6849 26.32L85.2439 27.191C86.6089 26.619 87.6619 25.488 88.1559 24.071C88.6759 25.397 89.7029 26.45 91.0289 26.957L91.5879 26.112ZM87.7009 30.831V28.062H86.6349V31.702H94.4869V30.831H87.7009ZM104.756 22.628C104.756 24.032 104.756 25.67 104.314 27.906L105.38 28.023C105.822 25.67 105.822 24.071 105.822 22.628V21.471H97.6449V22.342H104.756V22.628ZM101.701 29.453V25.28H100.635V29.453H96.5399V30.324H107.083V29.453H101.701ZM111.372 28.374C110.462 28.374 109.825 27.633 109.825 26.593C109.825 25.579 110.462 24.838 111.372 24.838C112.269 24.838 112.919 25.579 112.919 26.593C112.919 27.633 112.269 28.374 111.372 28.374ZM111.372 23.941C109.929 23.941 108.876 25.033 108.876 26.593C108.876 28.179 109.929 29.258 111.372 29.258C112.815 29.258 113.868 28.179 113.868 26.593C113.868 25.033 112.815 23.941 111.372 23.941ZM111.892 20.639H110.839V22.29H108.473V23.161H114.258V22.29H111.892V20.639ZM117.339 20.288V25.215H115.844V20.561H114.843V31.39H115.844V26.086H117.339V31.949H118.366V20.288H117.339ZM121.485 25.969C123.292 25.657 125.008 24.682 125.723 23.304C126.425 24.682 128.154 25.657 129.961 25.969L130.377 25.124C128.323 24.825 126.308 23.486 126.308 21.952V21.887H129.961V21.029H121.446V21.887H125.125V21.952C125.125 23.486 123.11 24.825 121.082 25.124L121.485 25.969ZM130.988 26.944H120.458V27.815H125.164V31.962H126.23V27.815H131.001L130.988 26.944ZM136.538 21.315H135.485V23.408C135.485 25.618 134.068 27.854 132.352 28.673L133.002 29.544C134.367 28.842 135.485 27.386 136.018 25.631C136.577 27.295 137.695 28.673 139.021 29.323L139.658 28.465C137.929 27.685 136.538 25.54 136.538 23.408V21.315ZM140.88 20.301V31.988H141.946V20.301H140.88ZM145.052 21.562V22.42H149.433C149.212 25.189 147.652 27.425 144.519 28.92L145.091 29.791C148.965 27.893 150.512 24.929 150.512 21.562H145.052ZM152.865 20.301V31.962H153.931V20.301H152.865ZM164.395 28.283H161.067V25.215H164.395V28.283ZM164.395 24.37H161.067V21.289H160.014V29.154H165.435V21.289H164.395V24.37ZM170.44 24.89H168.516V20.314H167.45V31.949H168.516V25.787H170.44V24.89ZM178.369 25.202C176.601 25.514 175.106 25.592 173.065 25.592V24.006H177.238V20.886H171.986V21.744H176.185V23.187H172.012V26.463H172.935C175.08 26.463 176.627 26.398 178.473 26.086L178.369 25.202ZM179.5 30.935H174.274V29.518H179.5V30.935ZM179.5 28.686H174.274V27.256H173.221V31.806H180.553V27.256H179.5V28.686ZM182.282 23.109H180.553V20.314H179.487V26.749H180.553V24.006H182.282V23.109ZM185.258 21.432H184.192V28.946H185.154C187.013 28.946 188.846 28.816 190.874 28.4L190.757 27.49C188.82 27.88 187.013 28.036 185.258 28.036V21.432ZM191.953 20.301V31.949H193.019V20.301H191.953ZM196.983 22.303H201.338V21.419H195.917V29.076H196.84C199.037 29.076 200.571 28.998 202.352 28.66L202.235 27.776C200.545 28.075 199.05 28.166 196.983 28.166V22.303ZM206.317 24.903H204.393V20.301H203.327V31.988H204.393V25.787H206.317V24.903ZM207.607 30.3843C207.607 30.1812 207.667 30.0119 207.785 29.8765C207.908 29.741 208.09 29.6733 208.331 29.6733C208.572 29.6733 208.754 29.741 208.877 29.8765C209.004 30.0119 209.067 30.1812 209.067 30.3843C209.067 30.5789 209.004 30.7419 208.877 30.873C208.754 31.0042 208.572 31.0698 208.331 31.0698C208.09 31.0698 207.908 31.0042 207.785 30.873C207.667 30.7419 207.607 30.5789 207.607 30.3843Z" fill="#595959"/>
</svg>
