<svg width="251" height="154" viewBox="0 0 251 154" fill="none" xmlns="http://www.w3.org/2000/svg">
<path d="M25.672 119.784C24.28 119.784 23.304 118.28 23.304 115.944C23.304 113.624 24.28 112.12 25.672 112.12C27.048 112.12 28.024 113.624 28.024 115.944C28.024 118.28 27.048 119.784 25.672 119.784ZM25.672 110.936C23.56 110.936 22.056 112.888 22.056 115.944C22.056 119 23.56 120.952 25.672 120.952C27.784 120.952 29.272 119 29.272 115.944C29.272 112.888 27.784 110.936 25.672 110.936ZM35.256 115.56H32.888V109.848H31.576V124.184H32.888V116.664H35.256V115.56ZM45.3348 116.84C43.2228 116.136 41.7348 114.392 41.7348 112.472V111.896H44.9828V110.84H37.1108V111.896H40.3908V112.472C40.3908 114.488 38.9348 116.36 36.7588 117.128L37.4468 118.152C39.1428 117.528 40.4708 116.248 41.0788 114.616C41.7348 116.12 43.0468 117.304 44.6948 117.88L45.3348 116.84ZM38.7428 120.328H47.0308V124.184H48.3428V119.272H38.7428V120.328ZM47.0308 109.832V118.52H48.3428V109.832H47.0308ZM61.6178 117.672C61.6978 117.16 61.7458 116.632 61.7458 116.024C61.7458 115.416 61.6978 114.888 61.6178 114.376H63.5698V117.672H61.6178ZM58.6738 119.816C57.5378 119.816 56.8018 118.36 56.8018 116.024C56.8018 113.704 57.5378 112.248 58.6738 112.248C59.8258 112.248 60.5458 113.704 60.5458 116.024C60.5458 118.36 59.8258 119.816 58.6738 119.816ZM63.5698 113.304H61.3458C60.8498 111.864 59.9218 111.032 58.6738 111.032C56.8178 111.032 55.6178 112.952 55.6178 116.024C55.6178 119.112 56.8178 121.032 58.6738 121.032C59.9218 121.032 60.8338 120.2 61.3458 118.76H63.5698V123.48H64.8178V110.152H63.5698V113.304ZM66.3858 109.832V124.184H67.6338V109.832H66.3858ZM71.7125 114.088C71.7125 112.728 72.7365 111.8 74.1765 111.8C75.6005 111.8 76.6405 112.728 76.6405 114.088C76.6405 115.432 75.6005 116.376 74.1765 116.376C72.7365 116.376 71.7125 115.432 71.7125 114.088ZM77.9205 114.088C77.9205 112.072 76.3365 110.696 74.1765 110.696C72.0005 110.696 70.4325 112.072 70.4325 114.088C70.4325 116.088 72.0005 117.48 74.1765 117.48C76.3365 117.48 77.9205 116.088 77.9205 114.088ZM71.9685 120.104H79.9845V124.184H81.2965V119.032H71.9685V120.104ZM83.3925 113.112V112.024H81.2965V109.848H79.9845V118.36H81.2965V116.168H83.3925V115.096H81.2965V113.112H83.3925ZM93.3913 111.592H89.8073V109.848H88.4953V111.592H84.9273V112.648H93.3913V111.592ZM86.9753 116.104C86.9753 115.112 87.8393 114.472 89.1513 114.472C90.4473 114.472 91.3433 115.112 91.3433 116.104C91.3433 117.112 90.4473 117.752 89.1513 117.752C87.8393 117.752 86.9753 117.112 86.9753 116.104ZM92.5913 116.104C92.5913 114.504 91.1833 113.448 89.1513 113.448C87.1193 113.448 85.7273 114.504 85.7273 116.104C85.7273 117.72 87.1193 118.776 89.1513 118.776C91.1833 118.776 92.5913 117.72 92.5913 116.104ZM88.3993 119.752H87.0873V123.864H96.6553V122.792H88.3993V119.752ZM96.0153 114.568V109.848H94.7033V120.6H96.0153V115.672H98.1433V114.568H96.0153ZM116.122 117.048C113.61 116.568 110.89 114.392 110.89 111.944V110.84H109.514V111.944C109.514 114.392 106.81 116.552 104.298 117.048L104.89 118.136C107.05 117.624 109.29 116.088 110.202 113.992C111.114 116.104 113.354 117.64 115.53 118.136L116.122 117.048ZM103.754 121.176V122.264H116.762V121.176H103.754ZM130.025 115.96H121.497V114.216H129.513V113.192H121.497V111.56H129.849V110.504H120.201V117.016H130.025V115.96ZM131.465 118.488H118.457V119.56H121.849V124.168H123.161V119.56H126.777V124.168H128.089V119.56H131.465V118.488ZM135.416 112.296H140.904V111.192H134.12V120.648H135.272C138.168 120.648 140.04 120.552 142.248 120.152L142.104 119.048C139.992 119.448 138.184 119.528 135.416 119.528V112.296ZM143.624 109.832V124.216H144.936V109.832H143.624ZM150.439 114.536C150.439 112.888 152.119 111.816 154.407 111.816C156.695 111.816 158.359 112.888 158.359 114.536C158.359 116.184 156.695 117.256 154.407 117.256C152.119 117.256 150.439 116.184 150.439 114.536ZM155.062 121.256V118.264C157.735 118.072 159.607 116.648 159.607 114.536C159.607 112.248 157.431 110.776 154.407 110.776C151.367 110.776 149.174 112.248 149.174 114.536C149.174 116.648 151.062 118.072 153.735 118.264V121.256H147.895V122.344H160.935V121.256H155.062ZM163.397 111.368V112.456H168.661C168.357 115.848 166.389 118.6 162.725 120.44L163.445 121.464C168.085 119.144 169.957 115.448 169.957 111.368H163.397ZM175.973 115.656H173.669V109.832H172.357V124.184H173.669V116.744H175.973V115.656ZM186.896 122.968H184.368V121.032H186.896V122.968ZM186.896 120.056H184.368V118.248H183.136V123.992H188.112V118.248H186.896V120.056ZM185.424 115.992C184 115.992 182.976 115.064 182.976 113.768C182.976 112.472 184 111.56 185.424 111.56C186.848 111.56 187.872 112.472 187.872 113.768C187.872 115.064 186.848 115.992 185.424 115.992ZM192 114.28V117.432H193.328V109.848H192V113.208H189.072C188.8 111.56 187.36 110.472 185.424 110.472C183.28 110.472 181.728 111.8 181.728 113.768C181.728 115.736 183.28 117.08 185.424 117.08C187.392 117.08 188.832 115.96 189.072 114.28H192ZM192.176 118.152H190.896V119.368C190.896 120.84 190 122.392 188.288 123.128L188.96 124.12C190.208 123.576 191.072 122.584 191.536 121.416C191.968 122.6 192.832 123.576 194.128 124.12L194.784 123.128C193.072 122.456 192.176 120.888 192.176 119.368V118.152ZM200.063 119.784C198.687 119.784 197.727 118.28 197.727 115.944C197.727 113.624 198.687 112.12 200.063 112.12C201.423 112.12 202.383 113.624 202.383 115.944C202.383 118.28 201.423 119.784 200.063 119.784ZM206.735 109.832V115.304H203.615C203.407 112.616 201.999 110.936 200.063 110.936C197.967 110.936 196.479 112.888 196.479 115.944C196.479 119 197.967 120.952 200.063 120.952C202.063 120.952 203.487 119.192 203.615 116.376H206.735V124.216H208.047V109.832H206.735ZM215.438 117.88C216.03 118.024 216.718 118.104 217.422 118.104C218.142 118.104 218.83 118.024 219.438 117.88V121.256H215.438V117.88ZM217.422 111.768C219.726 111.768 221.39 112.824 221.39 114.424C221.39 116.024 219.726 117.08 217.422 117.08C215.118 117.08 213.47 116.024 213.47 114.424C213.47 112.824 215.118 111.768 217.422 111.768ZM220.75 121.256V117.368C221.934 116.744 222.638 115.72 222.638 114.424C222.638 112.184 220.478 110.744 217.422 110.744C214.382 110.744 212.206 112.184 212.206 114.424C212.206 115.72 212.926 116.76 214.126 117.384V121.256H210.926V122.344H223.966V121.256H220.75ZM225.965 122.136C225.965 121.741 226.061 121.464 226.253 121.304C226.445 121.144 226.674 121.064 226.941 121.064C227.207 121.064 227.442 121.144 227.645 121.304C227.847 121.464 227.949 121.741 227.949 122.136C227.949 122.52 227.847 122.797 227.645 122.968C227.442 123.139 227.207 123.224 226.941 123.224C226.674 123.224 226.445 123.139 226.253 122.968C226.061 122.797 225.965 122.52 225.965 122.136Z" fill="black"/>
<path d="M6.146 144.338C6.216 143.89 6.258 143.428 6.258 142.896C6.258 142.364 6.216 141.902 6.146 141.454H7.854V144.338H6.146ZM3.57 146.214C2.576 146.214 1.932 144.94 1.932 142.896C1.932 140.866 2.576 139.592 3.57 139.592C4.578 139.592 5.208 140.866 5.208 142.896C5.208 144.94 4.578 146.214 3.57 146.214ZM7.854 140.516H5.908C5.474 139.256 4.662 138.528 3.57 138.528C1.946 138.528 0.896 140.208 0.896 142.896C0.896 145.598 1.946 147.278 3.57 147.278C4.662 147.278 5.46 146.55 5.908 145.29H7.854V149.42H8.946V137.758H7.854V140.516ZM10.318 137.478V150.036H11.41V137.478H10.318ZM14.9789 141.202C14.9789 140.012 15.8749 139.2 17.1349 139.2C18.3809 139.2 19.2909 140.012 19.2909 141.202C19.2909 142.378 18.3809 143.204 17.1349 143.204C15.8749 143.204 14.9789 142.378 14.9789 141.202ZM20.4109 141.202C20.4109 139.438 19.0249 138.234 17.1349 138.234C15.2309 138.234 13.8589 139.438 13.8589 141.202C13.8589 142.952 15.2309 144.17 17.1349 144.17C19.0249 144.17 20.4109 142.952 20.4109 141.202ZM15.2029 146.466H22.2169V150.036H23.3649V145.528H15.2029V146.466ZM25.1989 140.348V139.396H23.3649V137.492H22.2169V144.94H23.3649V143.022H25.1989V142.084H23.3649V140.348H25.1989ZM37.4305 141.692C35.4425 142.098 33.6505 142.238 31.8865 142.252V138.024H30.7525V143.204H31.7325C33.6085 143.204 35.4705 143.078 37.5845 142.658L37.4305 141.692ZM33.0765 147.502H39.8805V144.408H31.9005V145.332H38.7465V146.62H31.9425V149.868H40.3425V148.944H33.0765V147.502ZM39.8805 140.082V137.478H38.7325V143.806H39.8805V141.034H41.7425V140.082H39.8805ZM49.3714 139.69H50.8134V138.752H47.3414V139.69H48.2794V141.216C48.2794 142.658 48.0834 144.646 47.0754 145.976C46.0534 144.618 45.8714 142.602 45.8714 141.216V139.69H46.7954V138.752H43.2394V139.69H44.7794V141.216C44.7794 142.994 44.3594 145.402 42.8474 146.578L43.5754 147.404C44.4714 146.676 45.0034 145.5 45.3254 144.226C45.6054 145.528 46.1234 146.76 47.0754 147.516C48.0274 146.774 48.5454 145.542 48.8254 144.24C49.1334 145.528 49.6654 146.69 50.5894 147.404L51.3174 146.578C49.7914 145.43 49.3714 143.078 49.3714 141.216V139.69ZM54.7194 142.462H52.9694V137.492H51.8214V150.036H52.9694V143.428H54.7194V142.462ZM64.6863 139.676H57.3503V142.364H66.0443V141.538H58.4843V140.46H65.8203V137.842H57.3223V138.654H64.6863V139.676ZM58.4143 147.88H65.8623V145.206H57.2523V146.032H64.7283V147.082H57.2803V149.868H66.2543V149.042H58.4143V147.88ZM55.8943 143.316V144.184H67.2763V143.316H55.8943ZM81.566 137.492V144.226H82.714V137.492H81.566ZM74.622 144.842V149.868H82.714V144.842H81.58V146.382H75.756V144.842H74.622ZM75.756 147.278H81.58V148.944H75.756V147.278ZM75.966 138.08C74.076 138.08 72.704 139.256 72.704 140.964C72.704 142.7 74.076 143.862 75.966 143.862C77.87 143.862 79.256 142.7 79.256 140.964C79.256 139.256 77.87 138.08 75.966 138.08ZM75.966 139.032C77.24 139.032 78.136 139.83 78.136 140.964C78.136 142.112 77.24 142.91 75.966 142.91C74.72 142.91 73.824 142.112 73.824 140.964C73.824 139.83 74.72 139.032 75.966 139.032ZM91.9249 143.4C90.4689 143.638 89.2649 143.694 86.9409 143.694V141.79H91.1969V138.234H85.7789V139.172H90.0769V140.908H85.8209V144.632H86.7169C89.2229 144.632 90.4969 144.59 92.0369 144.324L91.9249 143.4ZM87.2209 146.816H94.4729V150.05H95.6209V145.878H87.2209V146.816ZM94.4729 137.492V139.34H92.0229V140.278H94.4729V141.958H92.0229V142.882H94.4729V145.206H95.6209V137.492H94.4729ZM101.85 146.284C100.716 146.284 99.8898 145.472 99.8898 144.352C99.8898 143.218 100.716 142.406 101.85 142.406C102.998 142.406 103.824 143.218 103.824 144.352C103.824 145.472 102.998 146.284 101.85 146.284ZM101.85 141.454C100.086 141.454 98.8118 142.658 98.8118 144.352C98.8118 146.06 100.086 147.236 101.85 147.236C103.642 147.236 104.916 146.06 104.916 144.352C104.916 142.658 103.642 141.454 101.85 141.454ZM102.41 137.632H101.262V139.494H98.0978V140.418H105.504V139.494H102.41V137.632ZM109.9 142.644H107.842V137.492H106.694V150.036H107.842V143.61H109.9V142.644ZM119.909 139.984C119.909 141.496 119.909 143.26 119.433 145.668L120.581 145.794C121.057 143.26 121.057 141.538 121.057 139.984V138.738H112.251V139.676H119.909V139.984ZM116.619 147.334V142.84H115.471V147.334H111.061V148.272H122.415V147.334H116.619ZM132.966 144.338C133.036 143.89 133.078 143.428 133.078 142.896C133.078 142.364 133.036 141.902 132.966 141.454H134.674V144.338H132.966ZM130.39 146.214C129.396 146.214 128.752 144.94 128.752 142.896C128.752 140.866 129.396 139.592 130.39 139.592C131.398 139.592 132.028 140.866 132.028 142.896C132.028 144.94 131.398 146.214 130.39 146.214ZM134.674 140.516H132.728C132.294 139.256 131.482 138.528 130.39 138.528C128.766 138.528 127.716 140.208 127.716 142.896C127.716 145.598 128.766 147.278 130.39 147.278C131.482 147.278 132.28 146.55 132.728 145.29H134.674V149.42H135.766V137.758H134.674V140.516ZM137.138 137.478V150.036H138.23V137.478H137.138ZM141.799 141.202C141.799 140.012 142.695 139.2 143.955 139.2C145.201 139.2 146.111 140.012 146.111 141.202C146.111 142.378 145.201 143.204 143.955 143.204C142.695 143.204 141.799 142.378 141.799 141.202ZM147.231 141.202C147.231 139.438 145.845 138.234 143.955 138.234C142.051 138.234 140.679 139.438 140.679 141.202C140.679 142.952 142.051 144.17 143.955 144.17C145.845 144.17 147.231 142.952 147.231 141.202ZM142.023 146.466H149.037V150.036H150.185V145.528H142.023V146.466ZM152.019 140.348V139.396H150.185V137.492H149.037V144.94H150.185V143.022H152.019V142.084H150.185V140.348H152.019ZM158.99 138.556C161.048 138.556 162.224 139.032 162.224 139.872C162.224 140.712 161.048 141.188 158.99 141.188C156.932 141.188 155.756 140.712 155.756 139.872C155.756 139.032 156.932 138.556 158.99 138.556ZM158.99 142.042C161.748 142.042 163.4 141.286 163.4 139.872C163.4 138.458 161.748 137.688 158.99 137.688C156.232 137.688 154.58 138.458 154.58 139.872C154.58 141.286 156.232 142.042 158.99 142.042ZM155.84 147.726H163.218V144.898H154.678V145.766H162.084V146.886H154.72V149.896H163.596V149H155.84V147.726ZM153.306 142.896V143.82H164.674V142.896H153.306ZM176.43 142.84C176.752 141.188 176.752 139.942 176.752 139.116V138.458H170.508V139.396H175.632C175.632 140.194 175.59 141.272 175.296 142.714L176.43 142.84ZM177.62 143.596C176.346 143.778 174.918 143.876 173.546 143.932V141.258H172.412V143.974C171.46 143.988 170.55 144.002 169.752 144.002L169.864 144.94C172.09 144.94 175.1 144.87 177.704 144.436L177.62 143.596ZM172.818 146.074H171.67V149.756H180.014V148.818H172.818V146.074ZM179.608 141.566V137.478H178.46V146.942H179.608V142.518H181.414V141.566H179.608ZM184.591 143.134H189.225V138.64H183.401V139.578H188.063V142.196H183.443V147.012H184.479C186.635 147.012 188.539 146.928 190.807 146.55L190.695 145.612C188.497 145.962 186.649 146.06 184.591 146.06V143.134ZM191.871 137.464V150.05H193.019V137.464H191.871ZM198.702 146.172C197.722 146.172 197.036 145.374 197.036 144.254C197.036 143.162 197.722 142.364 198.702 142.364C199.668 142.364 200.368 143.162 200.368 144.254C200.368 145.374 199.668 146.172 198.702 146.172ZM198.702 141.398C197.148 141.398 196.014 142.574 196.014 144.254C196.014 145.962 197.148 147.124 198.702 147.124C200.256 147.124 201.39 145.962 201.39 144.254C201.39 142.574 200.256 141.398 198.702 141.398ZM199.262 137.842H198.128V139.62H195.58V140.558H201.81V139.62H199.262V137.842ZM205.128 137.464V142.77H203.518V137.758H202.44V149.42H203.518V143.708H205.128V150.022H206.234V137.464H205.128ZM210.95 141.552H217.362V143.862H210.95V141.552ZM214.73 147.488V144.786H218.482V138.374H217.362V140.614H210.95V138.374H209.816V144.786H213.568V147.488H208.472V148.426H219.854V147.488H214.73ZM225.075 138.668H223.969V141.062C223.969 143.218 222.933 145.472 221.211 146.48L221.925 147.348C223.171 146.578 224.081 145.15 224.529 143.484C224.977 145.01 225.817 146.34 227.007 147.068L227.665 146.172C226.013 145.164 225.075 143.036 225.075 141.02V138.668ZM228.379 141.986H226.307V142.938H228.379V149.42H229.457V137.758H228.379V141.986ZM230.927 137.478V150.036H232.019V137.478H230.927ZM238.164 144.52C238.682 144.646 239.284 144.716 239.9 144.716C240.53 144.716 241.132 144.646 241.664 144.52V147.474H238.164V144.52ZM239.9 139.172C241.916 139.172 243.372 140.096 243.372 141.496C243.372 142.896 241.916 143.82 239.9 143.82C237.884 143.82 236.442 142.896 236.442 141.496C236.442 140.096 237.884 139.172 239.9 139.172ZM242.812 147.474V144.072C243.848 143.526 244.464 142.63 244.464 141.496C244.464 139.536 242.574 138.276 239.9 138.276C237.24 138.276 235.336 139.536 235.336 141.496C235.336 142.63 235.966 143.54 237.016 144.086V147.474H234.216V148.426H245.626V147.474H242.812ZM247.375 148.244C247.375 147.899 247.459 147.656 247.627 147.516C247.795 147.376 247.996 147.306 248.229 147.306C248.463 147.306 248.668 147.376 248.845 147.516C249.023 147.656 249.111 147.899 249.111 148.244C249.111 148.58 249.023 148.823 248.845 148.972C248.668 149.121 248.463 149.196 248.229 149.196C247.996 149.196 247.795 149.121 247.627 148.972C247.459 148.823 247.375 148.58 247.375 148.244Z" fill="#8C8C8C"/>
<path d="M70.9761 82.8725C70.9184 82.8788 70.8603 82.8788 70.8027 82.8725C70.7213 82.8502 70.645 82.8119 70.5784 82.7598C70.5117 82.7078 70.4559 82.6431 70.4141 82.5694C70.3724 82.4957 70.3455 82.4145 70.335 82.3304C70.3246 82.2462 70.3307 82.1608 70.3531 82.0791C70.6421 81.0276 70.9953 79.9826 71.3678 78.9634C71.3977 78.8842 71.4429 78.8117 71.5007 78.75C71.5586 78.6883 71.6279 78.6387 71.7049 78.604C71.7818 78.5692 71.8648 78.55 71.9491 78.5475C72.0334 78.545 72.1174 78.5592 72.1963 78.5892C72.2751 78.6193 72.3473 78.6647 72.4087 78.7228C72.4701 78.7809 72.5195 78.8506 72.5541 78.9278C72.5887 79.0051 72.6078 79.0885 72.6103 79.1732C72.6128 79.2578 72.5987 79.3422 72.5687 79.4214C72.1962 80.4019 71.8687 81.4082 71.5926 82.421C71.5514 82.5526 71.4693 82.6674 71.3583 82.7487C71.2474 82.83 71.1134 82.8734 70.9761 82.8725ZM73.243 76.8669C73.1452 76.8673 73.0485 76.8452 72.9605 76.8024C72.8081 76.7262 72.6921 76.5924 72.6379 76.4303C72.5837 76.2682 72.5958 76.0911 72.6715 75.938C73.1467 74.9639 73.6797 74.0028 74.2449 73.0674C74.3343 72.9212 74.4779 72.8165 74.6441 72.7766C74.8103 72.7367 74.9855 72.7647 75.1311 72.8546C75.2767 72.9444 75.3809 73.0886 75.4206 73.2556C75.4604 73.4225 75.4325 73.5985 75.343 73.7448C74.7907 74.6414 74.2834 75.5703 73.821 76.5057C73.7681 76.6142 73.6858 76.7057 73.5836 76.7695C73.4814 76.8334 73.3634 76.8672 73.243 76.8669ZM76.5889 71.3902C76.4522 71.3888 76.3194 71.3437 76.21 71.2612C76.1421 71.2109 76.0846 71.1476 76.0411 71.0749C75.9975 71.0022 75.9686 70.9216 75.9561 70.8378C75.9436 70.7539 75.9476 70.6683 75.9681 70.586C75.9885 70.5037 76.0249 70.4263 76.0751 70.3581C76.7173 69.5002 77.4045 68.6422 78.1302 67.823C78.1828 67.7502 78.25 67.6892 78.3275 67.6441C78.405 67.5989 78.491 67.5705 78.5801 67.5607C78.6691 67.551 78.7592 67.56 78.8446 67.5873C78.9299 67.6146 79.0087 67.6595 79.0757 67.7191C79.1428 67.7788 79.1966 67.8519 79.2339 67.9337C79.2712 68.0156 79.291 68.1043 79.292 68.1943C79.2931 68.2842 79.2754 68.3735 79.2401 68.4562C79.2048 68.5389 79.1527 68.6132 79.0871 68.6745C78.3871 69.4744 77.7256 70.3001 77.1027 71.1322C77.0428 71.2123 76.9653 71.2774 76.8761 71.3221C76.7869 71.3669 76.6886 71.3902 76.5889 71.3902ZM80.8274 66.5651C80.7409 66.5648 80.6554 66.5469 80.5759 66.5125C80.4965 66.4782 80.4248 66.428 80.3651 66.3651C80.2455 66.2443 80.1783 66.0808 80.1783 65.9103C80.1783 65.7399 80.2455 65.5764 80.3651 65.4556C81.1293 64.7073 81.9449 63.9719 82.7797 63.2688C82.8425 63.2059 82.9176 63.1568 83.0002 63.1245C83.0829 63.0922 83.1713 63.0775 83.2598 63.0812C83.3484 63.0849 83.4353 63.107 83.5149 63.1461C83.5946 63.1852 83.6653 63.2404 83.7227 63.3083C83.7801 63.3762 83.8228 63.4553 83.8482 63.5406C83.8737 63.6259 83.8813 63.7156 83.8705 63.804C83.8597 63.8924 83.8309 63.9776 83.7857 64.0542C83.7406 64.1308 83.6801 64.1973 83.6082 64.2493C82.7926 64.9395 82.0027 65.6555 81.2577 66.378C81.1429 66.4926 80.9892 66.5594 80.8274 66.5651ZM85.7274 62.4108C85.6272 62.4101 85.5285 62.3858 85.4393 62.3398C85.3501 62.2939 85.2728 62.2276 85.2137 62.1463C85.1634 62.0782 85.127 62.0007 85.1066 61.9184C85.0862 61.8361 85.0821 61.7506 85.0946 61.6667C85.1072 61.5828 85.136 61.5022 85.1796 61.4296C85.2232 61.3569 85.2806 61.2936 85.3485 61.2432C86.2027 60.5982 87.1017 59.9531 88.0201 59.3854C88.1632 59.2922 88.3373 59.2599 88.5041 59.2955C88.6709 59.3312 88.8167 59.432 88.9096 59.5757C89.0024 59.7194 89.0346 59.8943 88.999 60.0618C88.9635 60.2294 88.8632 60.3759 88.7201 60.4691C87.8274 61.0562 86.9476 61.6625 86.1128 62.2818C86.0016 62.3655 85.8664 62.4108 85.7274 62.4108ZM91.1027 58.8823C90.9625 58.8808 90.8267 58.8334 90.7159 58.7472C90.6051 58.6609 90.5254 58.5406 90.489 58.4047C90.4526 58.2687 90.4616 58.1245 90.5144 57.9941C90.5672 57.8637 90.661 57.7543 90.7816 57.6824C91.6935 57.1535 92.6504 56.6245 93.6265 56.1149C93.7016 56.0758 93.7835 56.0519 93.8678 56.0447C93.952 56.0375 94.0368 56.047 94.1173 56.0728C94.1979 56.0985 94.2726 56.14 94.3371 56.1949C94.4017 56.2497 94.4548 56.3168 94.4935 56.3923C94.5702 56.5438 94.5841 56.7197 94.5324 56.8815C94.4807 57.0434 94.3675 57.1782 94.2173 57.2567C93.254 57.7599 92.2908 58.2759 91.4238 58.7984C91.3259 58.8541 91.2152 58.8831 91.1027 58.8823ZM96.8118 55.9085C96.6649 55.9093 96.5221 55.8594 96.4073 55.7673C96.2925 55.6751 96.2127 55.5461 96.1811 55.402C96.1496 55.2578 96.1682 55.1071 96.2339 54.9751C96.2996 54.843 96.4084 54.7376 96.5421 54.6764C97.499 54.2249 98.4687 53.7862 99.5091 53.3863C99.5878 53.3461 99.674 53.3227 99.7621 53.3175C99.8503 53.3123 99.9385 53.3254 100.021 53.356C100.104 53.3866 100.18 53.4341 100.244 53.4954C100.308 53.5567 100.358 53.6306 100.392 53.7124C100.426 53.7943 100.443 53.8823 100.442 53.971C100.441 54.0596 100.421 54.1471 100.385 54.2279C100.348 54.3087 100.296 54.381 100.23 54.4404C100.164 54.4998 100.087 54.545 100.004 54.5732C99.0082 54.9925 98.0256 55.4311 97.0816 55.8633C96.9966 55.8998 96.9041 55.9153 96.8118 55.9085ZM102.739 53.4056C102.588 53.407 102.441 53.3545 102.324 53.2574C102.207 53.1603 102.129 53.0249 102.102 52.8751C102.075 52.7253 102.101 52.5708 102.177 52.4388C102.253 52.3069 102.372 52.2061 102.515 52.1542C103.51 51.78 104.531 51.4123 105.552 51.064C105.633 51.0328 105.719 51.0182 105.805 51.0212C105.891 51.0241 105.976 51.0445 106.054 51.0811C106.133 51.1177 106.203 51.1698 106.26 51.2342C106.318 51.2986 106.362 51.3741 106.391 51.4561C106.419 51.5381 106.43 51.6249 106.424 51.7114C106.418 51.7979 106.394 51.8823 106.355 51.9595C106.316 52.0367 106.261 52.1051 106.195 52.1608C106.129 52.2164 106.052 52.258 105.97 52.2832C104.961 52.6315 103.947 52.9928 102.971 53.3669C102.896 53.3923 102.818 53.4054 102.739 53.4056ZM108.815 51.322C108.644 51.3468 108.471 51.3027 108.333 51.1992C108.195 51.0958 108.104 50.9416 108.079 50.7705C108.055 50.5994 108.099 50.4255 108.202 50.2869C108.305 50.1484 108.458 50.0567 108.628 50.0319C109.643 49.7158 110.69 49.3868 111.73 49.1223C111.813 49.092 111.902 49.0793 111.99 49.0848C112.078 49.0904 112.164 49.1142 112.243 49.1547C112.321 49.1952 112.391 49.2516 112.447 49.3203C112.503 49.389 112.544 49.4686 112.568 49.554C112.592 49.6394 112.598 49.7289 112.586 49.8168C112.574 49.9047 112.544 49.9892 112.497 50.0649C112.451 50.1406 112.39 50.206 112.318 50.2569C112.246 50.3078 112.164 50.3432 112.077 50.3609C111.043 50.6511 110.016 50.9543 109.007 51.264C108.94 51.2954 108.869 51.315 108.795 51.322H108.815ZM115.012 49.5868C114.865 49.5911 114.721 49.5448 114.605 49.4556C114.488 49.3664 114.405 49.2396 114.37 49.0965C114.329 48.9306 114.355 48.7552 114.443 48.6088C114.531 48.4625 114.673 48.3572 114.838 48.316C115.896 48.0493 116.945 47.7999 117.985 47.5677C118.156 47.53 118.334 47.5619 118.481 47.6563C118.628 47.7506 118.731 47.8998 118.769 48.0708C118.806 48.2419 118.774 48.421 118.681 48.5685C118.587 48.7161 118.438 48.8202 118.268 48.8578C117.24 49.0901 116.202 49.3373 115.153 49.5997L115.012 49.5868ZM121.293 48.1676C121.142 48.1706 120.996 48.1207 120.878 48.0264C120.761 47.9321 120.68 47.7994 120.65 47.6516C120.634 47.5685 120.633 47.483 120.649 47.3998C120.665 47.3166 120.697 47.2374 120.744 47.1667C120.79 47.096 120.85 47.0353 120.92 46.9878C120.99 46.9404 121.069 46.9073 121.151 46.8904C122.23 46.6775 123.29 46.4711 124.362 46.2905C124.447 46.2756 124.533 46.2776 124.617 46.2963C124.7 46.3151 124.779 46.3501 124.849 46.3996C124.919 46.449 124.979 46.5118 125.025 46.5844C125.071 46.657 125.102 46.7379 125.117 46.8226C125.132 46.9073 125.13 46.9941 125.111 47.0781C125.092 47.162 125.057 47.2414 125.008 47.3118C124.959 47.3822 124.897 47.4422 124.824 47.4883C124.752 47.5344 124.671 47.5658 124.587 47.5806C123.56 47.7677 122.506 47.9676 121.434 48.1805C121.386 48.1847 121.339 48.1804 121.293 48.1676ZM127.625 47.0323C127.454 47.0451 127.286 46.9895 127.156 46.8776C127.027 46.7657 126.947 46.6067 126.934 46.4356C126.922 46.2645 126.977 46.0953 127.088 45.9653C127.2 45.8352 127.358 45.755 127.528 45.7421C128.633 45.568 129.699 45.4131 130.739 45.2712C130.91 45.2481 131.082 45.294 131.219 45.3986C131.356 45.5032 131.445 45.6581 131.468 45.8292C131.491 46.0003 131.446 46.1736 131.341 46.3109C131.237 46.4482 131.083 46.5383 130.913 46.5614C129.892 46.6968 128.832 46.8517 127.74 47.0258L127.625 47.0323ZM134.008 46.1614C133.838 46.1708 133.671 46.1119 133.544 45.9976C133.417 45.8833 133.34 45.7229 133.331 45.5518C133.321 45.3807 133.38 45.2129 133.494 45.0853C133.608 44.9577 133.767 44.8807 133.938 44.8713C135.081 44.7358 136.16 44.6262 137.149 44.5294C137.318 44.5132 137.487 44.5653 137.618 44.6741C137.749 44.783 137.832 44.9398 137.849 45.11C137.865 45.2802 137.813 45.4498 137.704 45.5817C137.596 45.7135 137.44 45.7968 137.271 45.8131C136.282 45.9098 135.216 46.0195 134.06 46.1485L134.008 46.1614ZM140.43 45.5551C140.267 45.5555 140.11 45.4937 139.991 45.3824C139.872 45.271 139.799 45.1183 139.788 44.9552C139.777 44.7861 139.833 44.6196 139.944 44.4916C140.054 44.3637 140.211 44.2846 140.379 44.2714C141.83 44.1617 142.948 44.1101 143.628 44.0778C143.799 44.0778 143.962 44.1458 144.082 44.2668C144.203 44.3878 144.271 44.5518 144.271 44.7229C144.271 44.894 144.203 45.0581 144.082 45.1791C143.962 45.3 143.799 45.368 143.628 45.368C142.954 45.368 141.856 45.4519 140.417 45.5551H140.43ZM146.801 44.7423C146.631 44.7645 146.458 44.7179 146.322 44.6126C146.186 44.5074 146.097 44.3521 146.075 44.1811C146.053 44.01 146.099 43.8371 146.204 43.7004C146.309 43.5637 146.464 43.4744 146.634 43.4521C147.668 43.1747 148.695 42.878 149.704 42.5748C149.786 42.544 149.873 42.5305 149.961 42.535C150.049 42.5395 150.134 42.562 150.213 42.601C150.291 42.6401 150.361 42.6949 150.418 42.7621C150.475 42.8293 150.517 42.9075 150.543 42.9918C150.568 43.0761 150.576 43.1647 150.566 43.2522C150.556 43.3398 150.529 43.4243 150.485 43.5007C150.441 43.5771 150.382 43.6436 150.312 43.6963C150.242 43.749 150.161 43.7866 150.076 43.8069C149.055 44.1166 148.015 44.4133 146.968 44.6971C146.914 44.7187 146.858 44.7338 146.801 44.7423ZM152.947 42.878C152.797 42.8749 152.653 42.8192 152.539 42.7206C152.426 42.622 152.351 42.4867 152.326 42.3381C152.302 42.1895 152.33 42.037 152.406 41.907C152.482 41.7771 152.6 41.6779 152.741 41.6266C153.762 41.2782 154.771 40.9105 155.734 40.5429C155.889 40.4955 156.056 40.5088 156.202 40.5801C156.348 40.6514 156.461 40.7753 156.52 40.9272C156.578 41.079 156.577 41.2474 156.517 41.3987C156.457 41.5499 156.343 41.6728 156.196 41.7427C155.214 42.1233 154.186 42.491 153.152 42.8457C153.086 42.8685 153.017 42.8794 152.947 42.878ZM158.932 40.5686C158.784 40.5699 158.639 40.5194 158.524 40.4257C158.408 40.3321 158.328 40.2012 158.298 40.0552C158.268 39.9092 158.289 39.7571 158.358 39.6249C158.426 39.4927 158.539 39.3886 158.675 39.3301C159.671 38.8915 160.64 38.4399 161.546 37.9755C161.621 37.9369 161.704 37.9137 161.788 37.9071C161.872 37.9005 161.957 37.9107 162.038 37.937C162.118 37.9634 162.193 38.0054 162.257 38.0607C162.322 38.116 162.374 38.1835 162.413 38.2593C162.451 38.3351 162.474 38.4178 162.481 38.5026C162.487 38.5874 162.477 38.6726 162.451 38.7535C162.425 38.8344 162.383 38.9092 162.328 38.9739C162.273 39.0385 162.206 39.0916 162.13 39.1301C161.199 39.601 160.204 40.0655 159.189 40.5106C159.109 40.5489 159.021 40.5687 158.932 40.5686ZM164.654 37.6529C164.543 37.6529 164.433 37.6237 164.336 37.5683C164.239 37.5129 164.159 37.4331 164.102 37.3368C164.015 37.1897 163.99 37.0139 164.032 36.8482C164.074 36.6825 164.18 36.5404 164.326 36.4531C165.264 35.8983 166.157 35.3178 166.979 34.7372C167.118 34.653 167.283 34.6248 167.442 34.6583C167.601 34.6918 167.742 34.7845 167.835 34.9177C167.929 35.051 167.969 35.2149 167.947 35.3765C167.925 35.5381 167.843 35.6853 167.717 35.7887C166.87 36.395 165.945 36.9885 164.982 37.5626C164.886 37.6195 164.778 37.6506 164.667 37.6529H164.654ZM169.875 33.9244C169.783 33.9235 169.693 33.9028 169.61 33.8639C169.527 33.825 169.453 33.7686 169.393 33.6986C169.282 33.5694 169.226 33.4011 169.238 33.2305C169.25 33.06 169.329 32.9012 169.458 32.7891C170.244 32.104 170.988 31.3716 171.686 30.5958C171.741 30.5275 171.809 30.4711 171.885 30.43C171.962 30.3889 172.047 30.3639 172.134 30.3567C172.221 30.3494 172.308 30.36 172.391 30.3878C172.473 30.4156 172.55 30.46 172.615 30.5183C172.68 30.5766 172.732 30.6476 172.769 30.727C172.806 30.8063 172.826 30.8924 172.829 30.9799C172.832 31.0674 172.816 31.1546 172.785 31.236C172.753 31.3175 172.704 31.3916 172.643 31.4538C171.91 32.2714 171.127 33.0427 170.299 33.7631C170.182 33.8668 170.031 33.9242 169.875 33.9244ZM174.12 29.1186C174.004 29.1192 173.89 29.0881 173.79 29.0286C173.69 28.9691 173.608 28.8835 173.552 28.7809C173.497 28.6783 173.47 28.5625 173.475 28.4459C173.48 28.3293 173.517 28.2162 173.581 28.1187C174.145 27.2527 174.631 26.3373 175.032 25.3836C175.064 25.3052 175.112 25.2339 175.172 25.1739C175.231 25.1139 175.302 25.0663 175.381 25.034C175.459 25.0016 175.543 24.9851 175.627 24.9853C175.712 24.9855 175.795 25.0025 175.873 25.0353C176.028 25.0998 176.151 25.222 176.217 25.3762C176.283 25.5303 176.286 25.7042 176.227 25.861C175.798 26.8866 175.278 27.8711 174.672 28.8025C174.616 28.8988 174.535 28.9786 174.438 29.034C174.341 29.0894 174.232 29.1186 174.12 29.1186ZM176.56 23.2033H176.438C176.355 23.1871 176.276 23.1545 176.205 23.1074C176.135 23.0603 176.074 22.9996 176.027 22.9288C175.98 22.8581 175.947 22.7786 175.931 22.6951C175.914 22.6115 175.914 22.5256 175.931 22.4421C176.132 21.4289 176.233 20.3982 176.233 19.3651C176.233 19.194 176.301 19.0299 176.421 18.909C176.541 18.788 176.705 18.72 176.875 18.72C177.045 18.72 177.209 18.788 177.329 18.909C177.45 19.0299 177.517 19.194 177.517 19.3651C177.519 20.4828 177.409 21.5979 177.19 22.6937C177.159 22.8382 177.08 22.9677 176.965 23.0604C176.85 23.1532 176.708 23.2036 176.56 23.2033ZM176.56 16.7913C176.408 16.7937 176.26 16.742 176.143 16.6451C176.025 16.5482 175.946 16.4126 175.918 16.2623C175.73 15.2379 175.459 14.2305 175.109 13.2498C175.081 13.1698 175.069 13.0849 175.073 13.0001C175.077 12.9153 175.098 12.8321 175.135 12.7555C175.171 12.6788 175.222 12.6101 175.285 12.5532C175.348 12.4964 175.421 12.4525 175.501 12.4241C175.581 12.3957 175.665 12.3834 175.749 12.3878C175.834 12.3922 175.917 12.4133 175.993 12.4499C176.069 12.4864 176.138 12.5377 176.194 12.6008C176.251 12.6639 176.295 12.7376 176.323 12.8176C176.691 13.8692 176.979 14.9474 177.183 16.043C177.198 16.1264 177.196 16.212 177.178 16.2948C177.16 16.3775 177.126 16.4559 177.078 16.5254C177.029 16.5949 176.968 16.6541 176.897 16.6998C176.826 16.7454 176.746 16.7765 176.663 16.7913H176.56ZM174.448 10.7211C174.33 10.722 174.215 10.6906 174.114 10.6303C174.014 10.57 173.931 10.4832 173.876 10.3792C173.41 9.45226 172.862 8.56926 172.238 7.74088C172.132 7.60658 172.083 7.4353 172.102 7.26473C172.122 7.09415 172.207 6.93826 172.341 6.83133C172.475 6.7244 172.645 6.6752 172.815 6.69456C172.985 6.71392 173.14 6.80024 173.247 6.93454C173.916 7.8297 174.507 8.78153 175.013 9.77932C175.092 9.93074 175.108 10.1075 175.057 10.2708C175.007 10.4341 174.894 10.5706 174.743 10.6502C174.657 10.6943 174.563 10.7185 174.467 10.7211H174.448Z" fill="#A7C1FF"/>
<path d="M101.699 46.2002H72.0552C68.8631 46.2002 66.2754 48.7995 66.2754 52.0059C66.2754 55.2122 68.8631 57.8115 72.0552 57.8115H101.699C104.891 57.8115 107.479 55.2122 107.479 52.0059C107.479 48.7995 104.891 46.2002 101.699 46.2002Z" fill="#E1EBFF"/>
<path d="M110.979 33.2341H79.4726C76.7948 33.2341 74.624 35.4146 74.624 38.1044C74.624 40.7942 76.7948 42.9747 79.4726 42.9747H110.979C113.657 42.9747 115.828 40.7942 115.828 38.1044C115.828 35.4146 113.657 33.2341 110.979 33.2341Z" fill="#E1EBFF"/>
<path d="M170.704 54.5215H139.197C136.519 54.5215 134.349 56.702 134.349 59.3918C134.349 62.0816 136.519 64.2621 139.197 64.2621H170.704C173.382 64.2621 175.552 62.0816 175.552 59.3918C175.552 56.702 173.382 54.5215 170.704 54.5215Z" fill="#E1EBFF"/>
<path d="M152.138 17.7202H102.515C99.326 17.7202 96.7412 20.3166 96.7412 23.5194V64.159C96.7412 67.3618 99.326 69.9582 102.515 69.9582H152.138C155.326 69.9582 157.911 67.3618 157.911 64.159V23.5194C157.911 20.3166 155.326 17.7202 152.138 17.7202Z" fill="white"/>
<path d="M152.138 70.6033H102.515C100.812 70.6033 99.1781 69.9237 97.9737 68.714C96.7694 67.5042 96.0928 65.8634 96.0928 64.1526V23.513C96.0928 21.8021 96.7694 20.1614 97.9737 18.9516C99.1781 17.7419 100.812 17.0623 102.515 17.0623H152.138C153.841 17.0623 155.474 17.7419 156.679 18.9516C157.883 20.1614 158.56 21.8021 158.56 23.513V64.1526C158.56 65.8634 157.883 67.5042 156.679 68.714C155.474 69.9237 153.841 70.6033 152.138 70.6033ZM102.515 18.3524C101.152 18.3524 99.8455 18.8961 98.882 19.8639C97.9185 20.8317 97.3772 22.1443 97.3772 23.513V64.1526C97.3772 65.5213 97.9185 66.8339 98.882 67.8017C99.8455 68.7695 101.152 69.3132 102.515 69.3132H152.138C153.5 69.3132 154.807 68.7695 155.771 67.8017C156.734 66.8339 157.275 65.5213 157.275 64.1526V23.513C157.275 22.1443 156.734 20.8317 155.771 19.8639C154.807 18.8961 153.5 18.3524 152.138 18.3524H102.515Z" fill="#A7C1FF"/>
<path d="M152.664 17.1396H101.937C99.0673 17.1396 96.7412 19.4747 96.7412 22.3551C96.7412 25.2355 99.0673 27.5705 101.937 27.5705H152.664C155.533 27.5705 157.86 25.2355 157.86 22.3551C157.86 19.4747 155.533 17.1396 152.664 17.1396Z" fill="#A7C1FF"/>
<path d="M119.9 12.4691C119.9 11.1474 118.833 10.0759 117.517 10.0759C116.201 10.0759 115.135 11.1474 115.135 12.4691V18.7973C115.135 20.1191 116.201 21.1905 117.517 21.1905C118.833 21.1905 119.9 20.1191 119.9 18.7973V12.4691Z" fill="white"/>
<path d="M117.523 21.8422C116.721 21.8405 115.953 21.5198 115.386 20.9504C114.819 20.381 114.5 19.6092 114.498 18.8039V12.4693C114.479 12.0589 114.544 11.649 114.687 11.2643C114.83 10.8796 115.05 10.5281 115.332 10.231C115.615 9.9339 115.954 9.69743 116.33 9.53587C116.706 9.37431 117.111 9.29102 117.52 9.29102C117.929 9.29102 118.334 9.37431 118.71 9.53587C119.086 9.69743 119.425 9.9339 119.707 10.231C119.99 10.5281 120.209 10.8796 120.353 11.2643C120.496 11.649 120.56 12.0589 120.541 12.4693V18.8039C120.54 19.6081 120.221 20.3789 119.656 20.9481C119.09 21.5174 118.324 21.8388 117.523 21.8422ZM117.523 10.7211C117.062 10.7211 116.619 10.9053 116.292 11.2331C115.966 11.561 115.783 12.0056 115.783 12.4693V18.8039C115.768 19.042 115.803 19.2805 115.883 19.5047C115.964 19.729 116.09 19.9343 116.252 20.108C116.415 20.2817 116.612 20.4201 116.83 20.5148C117.047 20.6094 117.282 20.6582 117.52 20.6582C117.757 20.6582 117.992 20.6094 118.21 20.5148C118.428 20.4201 118.625 20.2817 118.787 20.108C118.95 19.9343 119.076 19.729 119.156 19.5047C119.237 19.2805 119.271 19.042 119.257 18.8039V12.4693C119.257 12.0067 119.075 11.5631 118.75 11.2354C118.425 10.9078 117.984 10.7228 117.523 10.7211Z" fill="#A7C1FF"/>
<path d="M139.556 12.4691C139.556 11.1474 138.489 10.0759 137.174 10.0759C135.858 10.0759 134.791 11.1474 134.791 12.4691V18.7973C134.791 20.1191 135.858 21.1905 137.174 21.1905C138.489 21.1905 139.556 20.1191 139.556 18.7973V12.4691Z" fill="white"/>
<path d="M137.174 21.8421C136.373 21.8404 135.604 21.5197 135.037 20.9503C134.47 20.3809 134.151 19.6091 134.149 18.8038V12.4692C134.149 12.0702 134.228 11.6751 134.38 11.3065C134.532 10.9379 134.754 10.6029 135.035 10.3208C135.316 10.0387 135.65 9.81487 136.017 9.66218C136.384 9.50949 136.777 9.43091 137.174 9.43091C137.571 9.43091 137.965 9.50949 138.332 9.66218C138.699 9.81487 139.032 10.0387 139.313 10.3208C139.594 10.6029 139.817 10.9379 139.969 11.3065C140.121 11.6751 140.199 12.0702 140.199 12.4692V18.8038C140.197 19.6091 139.878 20.3809 139.311 20.9503C138.744 21.5197 137.976 21.8404 137.174 21.8421ZM137.174 10.7211C136.946 10.7211 136.719 10.7663 136.508 10.8541C136.297 10.942 136.105 11.0707 135.944 11.2331C135.782 11.3954 135.654 11.5881 135.566 11.8002C135.479 12.0123 135.434 12.2396 135.434 12.4692V18.8038C135.434 19.2675 135.617 19.7121 135.944 20.0399C136.27 20.3678 136.713 20.552 137.174 20.552C137.636 20.552 138.078 20.3678 138.405 20.0399C138.731 19.7121 138.915 19.2675 138.915 18.8038V12.4692C138.913 12.0061 138.729 11.5624 138.403 11.2349C138.077 10.9075 137.635 10.7228 137.174 10.7211Z" fill="#A7C1FF"/>
<path d="M95.4246 69.913C101.192 69.913 105.867 65.1332 105.867 59.237C105.867 53.3408 101.192 48.561 95.4246 48.561C89.6576 48.561 84.9824 53.3408 84.9824 59.237C84.9824 65.1332 89.6576 69.913 95.4246 69.913Z" fill="#A7C1FF"/>
<path d="M85.7861 63.3591L95.4256 82.9693L105.065 63.3591" fill="#A7C1FF"/>
<path d="M95.4245 63.9461C97.9711 63.9461 100.035 61.8378 100.035 59.2371C100.035 56.6364 97.9711 54.5281 95.4245 54.5281C92.8779 54.5281 90.8135 56.6364 90.8135 59.2371C90.8135 61.8378 92.8779 63.9461 95.4245 63.9461Z" fill="white"/>
<path d="M176.227 49.1352C175.619 49.1364 175.025 48.9567 174.519 48.6186C174.014 48.2806 173.619 47.7995 173.386 47.2362C173.153 46.6729 173.091 46.0527 173.209 45.4541C173.326 44.8556 173.618 44.3056 174.047 43.8737C174.476 43.4418 175.023 43.1475 175.619 43.028C176.214 42.9085 176.832 42.9692 177.393 43.2024C177.955 43.4356 178.434 43.8308 178.772 44.338C179.11 44.8452 179.29 45.4416 179.29 46.0517C179.29 46.8684 178.967 47.6517 178.393 48.2298C177.819 48.8078 177.04 49.1334 176.227 49.1352ZM176.227 44.2649C175.873 44.2636 175.527 44.3678 175.232 44.5644C174.938 44.761 174.708 45.041 174.572 45.3689C174.436 45.6969 174.4 46.058 174.469 46.4064C174.537 46.7549 174.708 47.075 174.958 47.3262C175.208 47.5774 175.526 47.7483 175.873 47.8173C176.22 47.8863 176.58 47.8502 176.906 47.7137C177.233 47.5772 177.512 47.3463 177.707 47.0504C177.903 46.7545 178.007 46.4069 178.005 46.0517C178.005 45.5778 177.818 45.1233 177.484 44.7882C177.151 44.4531 176.698 44.2649 176.227 44.2649Z" fill="#A7C1FF"/>
<path d="M127.419 56.2311C126.648 56.2309 125.88 56.1356 125.133 55.9473L125.441 54.6959C126.406 54.9358 127.407 54.9992 128.395 54.8829L128.549 56.1731C128.174 56.2146 127.796 56.234 127.419 56.2311ZM131.818 55.141L131.221 53.9992C132.104 53.5385 132.894 52.9174 133.552 52.1672L134.515 53.0251C133.754 53.8865 132.845 54.6033 131.831 55.141H131.818ZM122.012 54.5281C121.067 53.8683 120.249 53.0422 119.597 52.0898L120.657 51.3608C121.219 52.1851 121.926 52.8999 122.744 53.4702L122.012 54.5281ZM136.288 50.0836L135.087 49.6256C135.44 48.69 135.621 47.6976 135.62 46.6969H136.904C136.911 47.8534 136.706 49.0013 136.301 50.0836H136.288ZM118.197 48.9483C118.022 48.2107 117.934 47.4551 117.934 46.6969C117.935 46.3024 117.958 45.9083 118.004 45.5165L119.289 45.6777C119.25 46.0161 119.231 46.3564 119.231 46.6969C119.231 47.3489 119.309 47.9986 119.462 48.6322L118.197 48.9483ZM135.568 45.7616C135.461 44.7677 135.169 43.8028 134.708 42.9168L135.851 42.3233C136.379 43.35 136.717 44.4649 136.846 45.6132L135.568 45.7616ZM120.156 42.8394L119.019 42.233C119.562 41.2144 120.282 40.3013 121.145 39.5366L121.992 40.5043C121.254 41.1673 120.641 41.9583 120.181 42.8394H120.156ZM132.884 40.5623C132.144 39.8942 131.289 39.3674 130.36 39.0077L130.823 37.8014C131.894 38.2202 132.882 38.8299 133.738 39.6011L132.884 40.5623ZM124.535 38.9754L124.086 37.7691C125.148 37.3697 126.272 37.1665 127.406 37.1692L127.451 37.8143V38.4594C126.465 38.4568 125.486 38.6316 124.561 38.9754H124.535Z" fill="#D0DDF7"/>
</svg>
