<svg width="221" height="154" viewBox="0 0 221 154" fill="none" xmlns="http://www.w3.org/2000/svg">
<path d="M35.672 119.784C34.28 119.784 33.304 118.28 33.304 115.944C33.304 113.624 34.28 112.12 35.672 112.12C37.048 112.12 38.024 113.624 38.024 115.944C38.024 118.28 37.048 119.784 35.672 119.784ZM35.672 110.936C33.56 110.936 32.056 112.888 32.056 115.944C32.056 119 33.56 120.952 35.672 120.952C37.784 120.952 39.272 119 39.272 115.944C39.272 112.888 37.784 110.936 35.672 110.936ZM45.256 115.56H42.888V109.848H41.576V124.184H42.888V116.664H45.256V115.56ZM55.3348 116.84C53.2228 116.136 51.7348 114.392 51.7348 112.472V111.896H54.9828V110.84H47.1108V111.896H50.3908V112.472C50.3908 114.488 48.9348 116.36 46.7588 117.128L47.4468 118.152C49.1428 117.528 50.4708 116.248 51.0788 114.616C51.7348 116.12 53.0468 117.304 54.6948 117.88L55.3348 116.84ZM48.7428 120.328H57.0308V124.184H58.3428V119.272H48.7428V120.328ZM57.0308 109.832V118.52H58.3428V109.832H57.0308ZM71.6178 117.672C71.6978 117.16 71.7458 116.632 71.7458 116.024C71.7458 115.416 71.6978 114.888 71.6178 114.376H73.5698V117.672H71.6178ZM68.6738 119.816C67.5378 119.816 66.8018 118.36 66.8018 116.024C66.8018 113.704 67.5378 112.248 68.6738 112.248C69.8258 112.248 70.5458 113.704 70.5458 116.024C70.5458 118.36 69.8258 119.816 68.6738 119.816ZM73.5698 113.304H71.3458C70.8498 111.864 69.9218 111.032 68.6738 111.032C66.8178 111.032 65.6178 112.952 65.6178 116.024C65.6178 119.112 66.8178 121.032 68.6738 121.032C69.9218 121.032 70.8338 120.2 71.3458 118.76H73.5698V123.48H74.8178V110.152H73.5698V113.304ZM76.3858 109.832V124.184H77.6338V109.832H76.3858ZM81.7125 114.088C81.7125 112.728 82.7365 111.8 84.1765 111.8C85.6005 111.8 86.6405 112.728 86.6405 114.088C86.6405 115.432 85.6005 116.376 84.1765 116.376C82.7365 116.376 81.7125 115.432 81.7125 114.088ZM87.9205 114.088C87.9205 112.072 86.3365 110.696 84.1765 110.696C82.0005 110.696 80.4325 112.072 80.4325 114.088C80.4325 116.088 82.0005 117.48 84.1765 117.48C86.3365 117.48 87.9205 116.088 87.9205 114.088ZM81.9685 120.104H89.9845V124.184H91.2965V119.032H81.9685V120.104ZM93.3925 113.112V112.024H91.2965V109.848H89.9845V118.36H91.2965V116.168H93.3925V115.096H91.2965V113.112H93.3925ZM96.8953 111.576H95.5833V120.456H96.4953C98.0473 120.456 99.6953 120.376 101.631 120.008L101.503 118.872C99.7913 119.208 98.2713 119.304 96.8953 119.32V111.576ZM105.791 109.832V115.672H103.759V110.152H102.527V123.448H103.759V116.76H105.791V124.168H107.055V109.832H105.791ZM111.822 120.152H120.094V124.2H121.422V119.08H111.822V120.152ZM117.038 115.16C117.134 114.824 117.198 114.472 117.198 114.072C117.198 113.688 117.134 113.336 117.038 113H120.094V115.16H117.038ZM113.502 116.424C112.11 116.424 111.07 115.448 111.07 114.072C111.07 112.728 112.11 111.752 113.502 111.752C114.91 111.752 115.95 112.728 115.95 114.072C115.95 115.448 114.91 116.424 113.502 116.424ZM120.094 109.848V111.944H116.478C115.806 111.128 114.75 110.632 113.502 110.632C111.39 110.632 109.822 112.056 109.822 114.072C109.822 116.104 111.39 117.544 113.502 117.544C114.75 117.544 115.79 117.048 116.462 116.232H120.094V118.296H121.422V109.832L120.094 109.848ZM134.749 109.832V124.216H136.061V109.832H134.749ZM128.493 110.936C126.365 110.936 124.845 112.888 124.845 115.944C124.845 119 126.365 120.952 128.493 120.952C130.621 120.952 132.141 119 132.141 115.944C132.141 112.888 130.621 110.936 128.493 110.936ZM128.493 112.12C129.885 112.12 130.877 113.624 130.877 115.944C130.877 118.28 129.885 119.784 128.493 119.784C127.085 119.784 126.093 118.28 126.093 115.944C126.093 113.624 127.085 112.12 128.493 112.12ZM148.584 122.968H146.056V121.032H148.584V122.968ZM148.584 120.056H146.056V118.248H144.824V123.992H149.8V118.248H148.584V120.056ZM147.112 115.992C145.688 115.992 144.664 115.064 144.664 113.768C144.664 112.472 145.688 111.56 147.112 111.56C148.536 111.56 149.56 112.472 149.56 113.768C149.56 115.064 148.536 115.992 147.112 115.992ZM153.688 114.28V117.432H155.016V109.848H153.688V113.208H150.76C150.488 111.56 149.048 110.472 147.112 110.472C144.968 110.472 143.416 111.8 143.416 113.768C143.416 115.736 144.968 117.08 147.112 117.08C149.08 117.08 150.52 115.96 150.76 114.28H153.688ZM153.864 118.152H152.584V119.368C152.584 120.84 151.688 122.392 149.976 123.128L150.648 124.12C151.896 123.576 152.76 122.584 153.224 121.416C153.656 122.6 154.52 123.576 155.816 124.12L156.472 123.128C154.76 122.456 153.864 120.888 153.864 119.368V118.152ZM161.751 119.784C160.375 119.784 159.414 118.28 159.414 115.944C159.414 113.624 160.375 112.12 161.751 112.12C163.111 112.12 164.071 113.624 164.071 115.944C164.071 118.28 163.111 119.784 161.751 119.784ZM168.423 109.832V115.304H165.303C165.095 112.616 163.687 110.936 161.751 110.936C159.655 110.936 158.167 112.888 158.167 115.944C158.167 119 159.655 120.952 161.751 120.952C163.751 120.952 165.175 119.192 165.303 116.376H168.423V124.216H169.735V109.832H168.423ZM177.125 117.88C177.717 118.024 178.405 118.104 179.109 118.104C179.829 118.104 180.517 118.024 181.125 117.88V121.256H177.125V117.88ZM179.109 111.768C181.413 111.768 183.077 112.824 183.077 114.424C183.077 116.024 181.413 117.08 179.109 117.08C176.805 117.08 175.157 116.024 175.157 114.424C175.157 112.824 176.805 111.768 179.109 111.768ZM182.437 121.256V117.368C183.621 116.744 184.325 115.72 184.325 114.424C184.325 112.184 182.165 110.744 179.109 110.744C176.069 110.744 173.893 112.184 173.893 114.424C173.893 115.72 174.613 116.76 175.813 117.384V121.256H172.613V122.344H185.653V121.256H182.437ZM187.652 122.136C187.652 121.741 187.748 121.464 187.94 121.304C188.132 121.144 188.361 121.064 188.628 121.064C188.895 121.064 189.129 121.144 189.332 121.304C189.535 121.464 189.636 121.741 189.636 122.136C189.636 122.52 189.535 122.797 189.332 122.968C189.129 123.139 188.895 123.224 188.628 123.224C188.361 123.224 188.132 123.139 187.94 122.968C187.748 122.797 187.652 122.52 187.652 122.136Z" fill="black"/>
<path d="M2.366 139.662H5.88V145.92H2.366V139.662ZM1.246 146.844H7V138.738H1.246V146.844ZM12.474 142.49H10.402V137.492H9.254V150.036H10.402V143.456H12.474V142.49ZM19.2909 137.758C16.5749 137.758 14.8809 138.64 14.8809 140.138C14.8809 141.622 16.5749 142.504 19.2909 142.504C22.0069 142.504 23.7009 141.622 23.7009 140.138C23.7009 138.64 22.0069 137.758 19.2909 137.758ZM19.2909 138.668C21.2789 138.668 22.5249 139.214 22.5249 140.138C22.5249 141.062 21.2789 141.608 19.2909 141.608C17.3029 141.608 16.0569 141.062 16.0569 140.138C16.0569 139.214 17.3029 138.668 19.2909 138.668ZM15.0209 145.738V149.868H23.5889V145.738H15.0209ZM22.4689 146.648V148.944H16.1409V146.648H22.4689ZM13.6209 143.582V144.506H24.9749V143.582H13.6209ZM29.3418 146.214C28.3338 146.214 27.7038 144.94 27.7038 142.882C27.7038 140.866 28.3338 139.592 29.3418 139.592C30.3218 139.592 30.9658 140.866 30.9658 142.882C30.9658 144.94 30.3218 146.214 29.3418 146.214ZM33.5838 142.364H32.0018C31.8618 139.998 30.8538 138.528 29.3418 138.528C27.7038 138.528 26.6538 140.208 26.6538 142.882C26.6538 145.598 27.7038 147.278 29.3418 147.278C30.8818 147.278 31.9038 145.766 32.0018 143.302H33.5838V149.42H34.6758V137.758H33.5838V142.364ZM36.0758 137.478V150.036H37.1678V137.478H36.0758ZM53.0814 143.498H45.5914V139.578H52.9554V138.626H44.4574V144.436H53.0814V143.498ZM43.0014 147.39V148.342H54.3974V147.39H43.0014ZM65.9603 141.258H58.5683V137.94H57.4203V142.196H65.9603V141.258ZM58.4843 146.06H57.3363V149.728H66.0303V148.79H58.4843V146.06ZM55.8803 143.876V144.8H67.2623V143.876H55.8803ZM83.232 143.792C81.034 143.372 78.654 141.468 78.654 139.326V138.36H77.45V139.326C77.45 141.468 75.084 143.358 72.886 143.792L73.404 144.744C75.294 144.296 77.254 142.952 78.052 141.118C78.85 142.966 80.81 144.31 82.714 144.744L83.232 143.792ZM72.41 147.404V148.356H83.792V147.404H72.41ZM95.3969 142.84H87.9349V141.314H94.9489V140.418H87.9349V138.99H95.2429V138.066H86.8009V143.764H95.3969V142.84ZM96.6569 145.052H85.2749V145.99H88.2429V150.022H89.3909V145.99H92.5549V150.022H93.7029V145.99H96.6569V145.052ZM100.114 139.634H104.916V138.668H98.9798V146.942H99.9878C102.522 146.942 104.16 146.858 106.092 146.508L105.966 145.542C104.118 145.892 102.536 145.962 100.114 145.962V139.634ZM107.296 137.478V150.064H108.444V137.478H107.296ZM113.259 141.594C113.259 140.152 114.729 139.214 116.731 139.214C118.733 139.214 120.189 140.152 120.189 141.594C120.189 143.036 118.733 143.974 116.731 143.974C114.729 143.974 113.259 143.036 113.259 141.594ZM117.305 147.474V144.856C119.643 144.688 121.281 143.442 121.281 141.594C121.281 139.592 119.377 138.304 116.731 138.304C114.071 138.304 112.153 139.592 112.153 141.594C112.153 143.442 113.805 144.688 116.143 144.856V147.474H111.033V148.426H122.443V147.474H117.305ZM132.718 139.676H125.382V142.364H134.076V141.538H126.516V140.46H133.852V137.842H125.354V138.654H132.718V139.676ZM126.446 147.88H133.894V145.206H125.284V146.032H132.76V147.082H125.312V149.868H134.286V149.042H126.446V147.88ZM123.926 143.316V144.184H135.308V143.316H123.926ZM145.845 144.338C145.915 143.89 145.957 143.428 145.957 142.896C145.957 142.364 145.915 141.902 145.845 141.454H147.553V144.338H145.845ZM143.269 146.214C142.275 146.214 141.631 144.94 141.631 142.896C141.631 140.866 142.275 139.592 143.269 139.592C144.277 139.592 144.907 140.866 144.907 142.896C144.907 144.94 144.277 146.214 143.269 146.214ZM147.553 140.516H145.607C145.173 139.256 144.361 138.528 143.269 138.528C141.645 138.528 140.595 140.208 140.595 142.896C140.595 145.598 141.645 147.278 143.269 147.278C144.361 147.278 145.159 146.55 145.607 145.29H147.553V149.42H148.645V137.758H147.553V140.516ZM150.017 137.478V150.036H151.109V137.478H150.017ZM154.678 141.202C154.678 140.012 155.574 139.2 156.834 139.2C158.08 139.2 158.99 140.012 158.99 141.202C158.99 142.378 158.08 143.204 156.834 143.204C155.574 143.204 154.678 142.378 154.678 141.202ZM160.11 141.202C160.11 139.438 158.724 138.234 156.834 138.234C154.93 138.234 153.558 139.438 153.558 141.202C153.558 142.952 154.93 144.17 156.834 144.17C158.724 144.17 160.11 142.952 160.11 141.202ZM154.902 146.466H161.916V150.036H163.064V145.528H154.902V146.466ZM164.898 140.348V139.396H163.064V137.492H161.916V144.94H163.064V143.022H164.898V142.084H163.064V140.348H164.898ZM169.307 146.172C168.327 146.172 167.641 145.374 167.641 144.254C167.641 143.162 168.327 142.364 169.307 142.364C170.273 142.364 170.973 143.162 170.973 144.254C170.973 145.374 170.273 146.172 169.307 146.172ZM169.307 141.398C167.753 141.398 166.619 142.574 166.619 144.254C166.619 145.962 167.753 147.124 169.307 147.124C170.861 147.124 171.995 145.962 171.995 144.254C171.995 142.574 170.861 141.398 169.307 141.398ZM169.867 137.842H168.733V139.62H166.185V140.558H172.415V139.62H169.867V137.842ZM175.733 137.464V142.77H174.123V137.758H173.045V149.42H174.123V143.708H175.733V150.022H176.839V137.464H175.733ZM181.556 141.552H187.968V143.862H181.556V141.552ZM185.336 147.488V144.786H189.088V138.374H187.968V140.614H181.556V138.374H180.422V144.786H184.174V147.488H179.078V148.426H190.46V147.488H185.336ZM195.681 138.668H194.575V141.062C194.575 143.218 193.539 145.472 191.817 146.48L192.531 147.348C193.777 146.578 194.687 145.15 195.135 143.484C195.583 145.01 196.423 146.34 197.613 147.068L198.271 146.172C196.619 145.164 195.681 143.036 195.681 141.02V138.668ZM198.985 141.986H196.913V142.938H198.985V149.42H200.063V137.758H198.985V141.986ZM201.533 137.478V150.036H202.625V137.478H201.533ZM208.77 144.52C209.288 144.646 209.89 144.716 210.506 144.716C211.136 144.716 211.738 144.646 212.27 144.52V147.474H208.77V144.52ZM210.506 139.172C212.522 139.172 213.978 140.096 213.978 141.496C213.978 142.896 212.522 143.82 210.506 143.82C208.49 143.82 207.048 142.896 207.048 141.496C207.048 140.096 208.49 139.172 210.506 139.172ZM213.418 147.474V144.072C214.454 143.526 215.07 142.63 215.07 141.496C215.07 139.536 213.18 138.276 210.506 138.276C207.846 138.276 205.942 139.536 205.942 141.496C205.942 142.63 206.572 143.54 207.622 144.086V147.474H204.822V148.426H216.232V147.474H213.418ZM217.981 148.244C217.981 147.899 218.065 147.656 218.233 147.516C218.401 147.376 218.601 147.306 218.835 147.306C219.068 147.306 219.273 147.376 219.451 147.516C219.628 147.656 219.717 147.899 219.717 148.244C219.717 148.58 219.628 148.823 219.451 148.972C219.273 149.121 219.068 149.196 218.835 149.196C218.601 149.196 218.401 149.121 218.233 148.972C218.065 148.823 217.981 148.58 217.981 148.244Z" fill="#8C8C8C"/>
<path d="M55.9761 82.8725C55.9184 82.8788 55.8603 82.8788 55.8027 82.8725C55.7213 82.8502 55.645 82.8119 55.5784 82.7598C55.5117 82.7078 55.4559 82.6431 55.4141 82.5694C55.3724 82.4957 55.3455 82.4145 55.335 82.3304C55.3246 82.2462 55.3307 82.1608 55.3531 82.0791C55.6421 81.0276 55.9953 79.9826 56.3678 78.9634C56.3977 78.8842 56.4429 78.8117 56.5007 78.75C56.5586 78.6883 56.6279 78.6387 56.7049 78.604C56.7818 78.5692 56.8648 78.55 56.9491 78.5475C57.0334 78.545 57.1174 78.5592 57.1963 78.5892C57.2751 78.6193 57.3473 78.6647 57.4087 78.7228C57.4701 78.7809 57.5195 78.8506 57.5541 78.9278C57.5887 79.0051 57.6078 79.0885 57.6103 79.1732C57.6128 79.2578 57.5987 79.3422 57.5687 79.4214C57.1962 80.4019 56.8687 81.4082 56.5926 82.421C56.5514 82.5526 56.4693 82.6674 56.3583 82.7487C56.2474 82.83 56.1134 82.8734 55.9761 82.8725ZM58.243 76.8669C58.1452 76.8673 58.0485 76.8452 57.9605 76.8024C57.8081 76.7262 57.6921 76.5924 57.6379 76.4303C57.5837 76.2682 57.5958 76.0911 57.6715 75.938C58.1467 74.9639 58.6797 74.0028 59.2449 73.0674C59.3343 72.9212 59.4779 72.8165 59.6441 72.7766C59.8103 72.7367 59.9855 72.7647 60.1311 72.8546C60.2767 72.9444 60.3809 73.0886 60.4206 73.2556C60.4604 73.4225 60.4325 73.5985 60.343 73.7448C59.7907 74.6414 59.2834 75.5703 58.821 76.5057C58.7681 76.6142 58.6858 76.7057 58.5836 76.7695C58.4814 76.8334 58.3634 76.8672 58.243 76.8669ZM61.5889 71.3902C61.4522 71.3888 61.3194 71.3437 61.21 71.2612C61.1421 71.2109 61.0846 71.1476 61.0411 71.0749C60.9975 71.0022 60.9686 70.9216 60.9561 70.8378C60.9436 70.7539 60.9476 70.6683 60.9681 70.586C60.9885 70.5037 61.0249 70.4263 61.0751 70.3581C61.7173 69.5002 62.4045 68.6422 63.1302 67.823C63.1828 67.7502 63.25 67.6892 63.3275 67.6441C63.405 67.5989 63.491 67.5705 63.5801 67.5607C63.6691 67.551 63.7592 67.56 63.8446 67.5873C63.9299 67.6146 64.0087 67.6595 64.0757 67.7191C64.1428 67.7788 64.1966 67.8519 64.2339 67.9337C64.2712 68.0156 64.291 68.1043 64.292 68.1943C64.2931 68.2842 64.2754 68.3735 64.2401 68.4562C64.2048 68.5389 64.1527 68.6132 64.0871 68.6745C63.3871 69.4744 62.7256 70.3001 62.1027 71.1322C62.0428 71.2123 61.9653 71.2774 61.8761 71.3221C61.7869 71.3669 61.6886 71.3902 61.5889 71.3902ZM65.8274 66.5651C65.7409 66.5648 65.6554 66.5469 65.5759 66.5125C65.4965 66.4782 65.4248 66.428 65.3651 66.3651C65.2455 66.2443 65.1783 66.0808 65.1783 65.9103C65.1783 65.7399 65.2455 65.5764 65.3651 65.4556C66.1293 64.7073 66.9449 63.9719 67.7797 63.2688C67.8425 63.2059 67.9176 63.1568 68.0002 63.1245C68.0829 63.0922 68.1713 63.0775 68.2598 63.0812C68.3484 63.0849 68.4353 63.107 68.5149 63.1461C68.5946 63.1852 68.6653 63.2404 68.7227 63.3083C68.7801 63.3762 68.8228 63.4553 68.8482 63.5406C68.8737 63.6259 68.8813 63.7156 68.8705 63.804C68.8597 63.8924 68.8309 63.9776 68.7857 64.0542C68.7406 64.1308 68.6801 64.1973 68.6082 64.2493C67.7926 64.9395 67.0027 65.6555 66.2577 66.378C66.1429 66.4926 65.9892 66.5594 65.8274 66.5651ZM70.7274 62.4108C70.6272 62.4101 70.5285 62.3858 70.4393 62.3398C70.3501 62.2939 70.2728 62.2276 70.2137 62.1463C70.1634 62.0782 70.127 62.0007 70.1066 61.9184C70.0862 61.8361 70.0821 61.7506 70.0946 61.6667C70.1072 61.5828 70.136 61.5022 70.1796 61.4296C70.2232 61.3569 70.2806 61.2936 70.3485 61.2432C71.2027 60.5982 72.1017 59.9531 73.0201 59.3854C73.1632 59.2922 73.3373 59.2599 73.5041 59.2955C73.6709 59.3312 73.8167 59.432 73.9096 59.5757C74.0024 59.7194 74.0346 59.8943 73.999 60.0618C73.9635 60.2294 73.8632 60.3759 73.7201 60.4691C72.8274 61.0562 71.9476 61.6625 71.1128 62.2818C71.0016 62.3655 70.8664 62.4108 70.7274 62.4108ZM76.1027 58.8823C75.9625 58.8808 75.8267 58.8334 75.7159 58.7472C75.6051 58.6609 75.5254 58.5406 75.489 58.4047C75.4526 58.2687 75.4616 58.1245 75.5144 57.9941C75.5672 57.8637 75.661 57.7543 75.7816 57.6824C76.6935 57.1535 77.6504 56.6245 78.6265 56.1149C78.7016 56.0758 78.7835 56.0519 78.8678 56.0447C78.952 56.0375 79.0368 56.047 79.1173 56.0728C79.1979 56.0985 79.2726 56.14 79.3371 56.1949C79.4017 56.2497 79.4548 56.3168 79.4935 56.3923C79.5702 56.5438 79.5841 56.7197 79.5324 56.8815C79.4807 57.0434 79.3675 57.1782 79.2173 57.2567C78.254 57.7599 77.2908 58.2759 76.4238 58.7984C76.3259 58.8541 76.2152 58.8831 76.1027 58.8823ZM81.8118 55.9085C81.6649 55.9093 81.5221 55.8594 81.4073 55.7673C81.2925 55.6751 81.2127 55.5461 81.1811 55.402C81.1496 55.2578 81.1682 55.1071 81.2339 54.9751C81.2996 54.843 81.4084 54.7376 81.5421 54.6764C82.499 54.2249 83.4687 53.7862 84.5091 53.3863C84.5878 53.3461 84.674 53.3227 84.7621 53.3175C84.8503 53.3123 84.9385 53.3254 85.0214 53.356C85.1043 53.3866 85.18 53.4341 85.2438 53.4954C85.3076 53.5567 85.3581 53.6306 85.3922 53.7124C85.4263 53.7943 85.4432 53.8823 85.4419 53.971C85.4406 54.0596 85.4211 54.1471 85.3847 54.2279C85.3482 54.3087 85.2955 54.381 85.2299 54.4404C85.1644 54.4998 85.0873 54.545 85.0036 54.5732C84.0082 54.9925 83.0256 55.4311 82.0816 55.8633C81.9966 55.8998 81.9041 55.9153 81.8118 55.9085ZM87.7394 53.4056C87.5878 53.407 87.4407 53.3545 87.324 53.2574C87.2073 53.1603 87.1285 53.0249 87.1016 52.8751C87.0747 52.7253 87.1014 52.5708 87.177 52.4388C87.2525 52.3069 87.3721 52.2061 87.5146 52.1542C88.51 51.78 89.5311 51.4123 90.5522 51.064C90.6328 51.0328 90.7187 51.0182 90.805 51.0212C90.8913 51.0241 90.9761 51.0445 91.0543 51.0811C91.1326 51.1177 91.2027 51.1698 91.2605 51.2342C91.3182 51.2986 91.3624 51.3741 91.3905 51.4561C91.4186 51.5381 91.4299 51.6249 91.4238 51.7114C91.4177 51.7979 91.3944 51.8823 91.3551 51.9595C91.3158 52.0367 91.2614 52.1051 91.1952 52.1608C91.1289 52.2164 91.0522 52.258 90.9696 52.2832C89.9614 52.6315 88.9467 52.9928 87.9706 53.3669C87.8961 53.3923 87.818 53.4054 87.7394 53.4056ZM93.8146 51.322C93.6443 51.3468 93.4711 51.3027 93.3332 51.1992C93.1953 51.0958 93.104 50.9416 93.0793 50.7705C93.0546 50.5994 93.0986 50.4255 93.2015 50.2869C93.3045 50.1484 93.458 50.0567 93.6283 50.0319C94.643 49.7158 95.6898 49.3868 96.7302 49.1223C96.8132 49.092 96.9016 49.0793 96.9898 49.0848C97.0779 49.0904 97.164 49.1142 97.2426 49.1547C97.3212 49.1952 97.3907 49.2516 97.4466 49.3203C97.5025 49.389 97.5437 49.4686 97.5676 49.554C97.5916 49.6394 97.5977 49.7289 97.5856 49.8168C97.5736 49.9047 97.5435 49.9892 97.4975 50.0649C97.4514 50.1406 97.3903 50.206 97.318 50.2569C97.2456 50.3078 97.1636 50.3432 97.077 50.3609C96.043 50.6511 95.0155 50.9543 94.0073 51.264C93.9405 51.2954 93.8688 51.315 93.7953 51.322H93.8146ZM100.012 49.5868C99.8651 49.5911 99.7214 49.5448 99.6045 49.4556C99.4877 49.3664 99.4048 49.2396 99.3696 49.0965C99.3289 48.9306 99.3554 48.7552 99.4433 48.6088C99.5312 48.4625 99.6733 48.3572 99.8384 48.316C100.896 48.0493 101.945 47.7999 102.985 47.5677C103.156 47.53 103.334 47.5619 103.481 47.6563C103.628 47.7506 103.731 47.8998 103.769 48.0708C103.806 48.2419 103.774 48.421 103.681 48.5685C103.587 48.7161 103.438 48.8202 103.268 48.8578C102.24 49.0901 101.202 49.3373 100.153 49.5997L100.012 49.5868ZM106.293 48.1676C106.142 48.1706 105.996 48.1207 105.878 48.0264C105.761 47.9321 105.68 47.7994 105.65 47.6516C105.634 47.5685 105.633 47.483 105.649 47.3998C105.665 47.3166 105.697 47.2374 105.744 47.1667C105.79 47.096 105.85 47.0353 105.92 46.9878C105.99 46.9404 106.069 46.9073 106.151 46.8904C107.23 46.6775 108.29 46.4711 109.362 46.2905C109.447 46.2756 109.533 46.2776 109.617 46.2963C109.7 46.3151 109.779 46.3501 109.849 46.3996C109.919 46.449 109.979 46.5118 110.025 46.5844C110.071 46.657 110.102 46.7379 110.117 46.8226C110.132 46.9073 110.13 46.9941 110.111 47.0781C110.092 47.162 110.057 47.2414 110.008 47.3118C109.959 47.3822 109.897 47.4422 109.824 47.4883C109.752 47.5344 109.671 47.5658 109.587 47.5806C108.56 47.7677 107.506 47.9676 106.434 48.1805C106.386 48.1847 106.339 48.1804 106.293 48.1676ZM112.625 47.0323C112.454 47.0451 112.286 46.9895 112.156 46.8776C112.027 46.7657 111.947 46.6067 111.934 46.4356C111.922 46.2645 111.977 46.0953 112.088 45.9653C112.2 45.8352 112.358 45.755 112.528 45.7421C113.633 45.568 114.699 45.4131 115.739 45.2712C115.91 45.2481 116.082 45.294 116.219 45.3986C116.356 45.5032 116.445 45.6581 116.468 45.8292C116.491 46.0003 116.446 46.1736 116.341 46.3109C116.237 46.4482 116.083 46.5383 115.913 46.5614C114.892 46.6968 113.832 46.8517 112.74 47.0258L112.625 47.0323ZM119.008 46.1614C118.838 46.1708 118.671 46.1119 118.544 45.9976C118.417 45.8833 118.34 45.7229 118.331 45.5518C118.321 45.3807 118.38 45.2129 118.494 45.0853C118.608 44.9577 118.767 44.8807 118.938 44.8713C120.081 44.7358 121.16 44.6262 122.149 44.5294C122.318 44.5132 122.487 44.5653 122.618 44.6741C122.749 44.783 122.832 44.9398 122.849 45.11C122.865 45.2802 122.813 45.4498 122.704 45.5817C122.596 45.7135 122.44 45.7968 122.271 45.8131C121.282 45.9098 120.216 46.0195 119.06 46.1485L119.008 46.1614ZM125.43 45.5551C125.267 45.5555 125.11 45.4937 124.991 45.3824C124.872 45.271 124.799 45.1183 124.788 44.9552C124.777 44.7861 124.833 44.6196 124.944 44.4916C125.054 44.3637 125.211 44.2846 125.379 44.2714C126.83 44.1617 127.948 44.1101 128.628 44.0778C128.799 44.0778 128.962 44.1458 129.082 44.2668C129.203 44.3878 129.271 44.5518 129.271 44.7229C129.271 44.894 129.203 45.0581 129.082 45.1791C128.962 45.3 128.799 45.368 128.628 45.368C127.954 45.368 126.856 45.4519 125.417 45.5551H125.43ZM131.801 44.7423C131.631 44.7645 131.458 44.7179 131.322 44.6126C131.186 44.5074 131.097 44.3521 131.075 44.1811C131.053 44.01 131.099 43.8371 131.204 43.7004C131.309 43.5637 131.464 43.4744 131.634 43.4521C132.668 43.1747 133.695 42.878 134.704 42.5748C134.786 42.544 134.873 42.5305 134.961 42.535C135.049 42.5395 135.134 42.562 135.213 42.601C135.291 42.6401 135.361 42.6949 135.418 42.7621C135.475 42.8293 135.517 42.9075 135.543 42.9918C135.568 43.0761 135.576 43.1647 135.566 43.2522C135.556 43.3398 135.529 43.4243 135.485 43.5007C135.441 43.5771 135.382 43.6436 135.312 43.6963C135.242 43.749 135.161 43.7866 135.076 43.8069C134.055 44.1166 133.015 44.4133 131.968 44.6971C131.914 44.7187 131.858 44.7338 131.801 44.7423ZM137.947 42.878C137.797 42.8749 137.653 42.8192 137.539 42.7206C137.426 42.622 137.351 42.4867 137.326 42.3381C137.302 42.1895 137.33 42.037 137.406 41.907C137.482 41.7771 137.6 41.6779 137.741 41.6266C138.762 41.2782 139.771 40.9105 140.734 40.5429C140.889 40.4955 141.056 40.5088 141.202 40.5801C141.348 40.6514 141.461 40.7753 141.52 40.9272C141.578 41.079 141.577 41.2474 141.517 41.3987C141.457 41.5499 141.343 41.6728 141.196 41.7427C140.214 42.1233 139.186 42.491 138.152 42.8457C138.086 42.8685 138.017 42.8794 137.947 42.878ZM143.932 40.5686C143.784 40.5699 143.639 40.5194 143.524 40.4257C143.408 40.3321 143.328 40.2012 143.298 40.0552C143.268 39.9092 143.289 39.7571 143.358 39.6249C143.426 39.4927 143.539 39.3886 143.675 39.3301C144.671 38.8915 145.64 38.4399 146.546 37.9755C146.621 37.9369 146.704 37.9137 146.788 37.9071C146.872 37.9005 146.957 37.9107 147.038 37.937C147.118 37.9634 147.193 38.0054 147.257 38.0607C147.322 38.116 147.374 38.1835 147.413 38.2593C147.451 38.3351 147.474 38.4178 147.481 38.5026C147.487 38.5874 147.477 38.6726 147.451 38.7535C147.425 38.8344 147.383 38.9092 147.328 38.9739C147.273 39.0385 147.206 39.0916 147.13 39.1301C146.199 39.601 145.204 40.0655 144.189 40.5106C144.109 40.5489 144.021 40.5687 143.932 40.5686ZM149.654 37.6529C149.543 37.6529 149.433 37.6237 149.336 37.5683C149.239 37.5129 149.159 37.4331 149.102 37.3368C149.015 37.1897 148.99 37.0139 149.032 36.8482C149.074 36.6825 149.18 36.5404 149.326 36.4531C150.264 35.8983 151.157 35.3178 151.979 34.7372C152.118 34.653 152.283 34.6248 152.442 34.6583C152.601 34.6918 152.742 34.7845 152.835 34.9177C152.929 35.051 152.969 35.2149 152.947 35.3765C152.925 35.5381 152.843 35.6853 152.717 35.7887C151.87 36.395 150.945 36.9885 149.982 37.5626C149.886 37.6195 149.778 37.6506 149.667 37.6529H149.654ZM154.875 33.9244C154.783 33.9235 154.693 33.9028 154.61 33.8639C154.527 33.825 154.453 33.7686 154.393 33.6986C154.282 33.5694 154.226 33.4011 154.238 33.2305C154.25 33.06 154.329 32.9012 154.458 32.7891C155.244 32.104 155.988 31.3716 156.686 30.5958C156.741 30.5275 156.809 30.4711 156.885 30.43C156.962 30.3889 157.047 30.3639 157.134 30.3567C157.221 30.3494 157.308 30.36 157.391 30.3878C157.473 30.4156 157.55 30.46 157.615 30.5183C157.68 30.5766 157.732 30.6476 157.769 30.727C157.806 30.8063 157.826 30.8924 157.829 30.9799C157.832 31.0674 157.816 31.1546 157.785 31.236C157.753 31.3175 157.704 31.3916 157.643 31.4538C156.91 32.2714 156.127 33.0427 155.299 33.7631C155.182 33.8668 155.031 33.9242 154.875 33.9244ZM159.12 29.1186C159.004 29.1192 158.89 29.0881 158.79 29.0286C158.69 28.9691 158.608 28.8835 158.552 28.7809C158.497 28.6783 158.47 28.5625 158.475 28.4459C158.48 28.3293 158.517 28.2162 158.581 28.1187C159.145 27.2527 159.631 26.3373 160.032 25.3836C160.064 25.3052 160.112 25.2339 160.172 25.1739C160.231 25.1139 160.302 25.0663 160.381 25.034C160.459 25.0016 160.543 24.9851 160.627 24.9853C160.712 24.9855 160.795 25.0025 160.873 25.0353C161.028 25.0998 161.151 25.222 161.217 25.3762C161.283 25.5303 161.286 25.7042 161.227 25.861C160.798 26.8866 160.278 27.8711 159.672 28.8025C159.616 28.8988 159.535 28.9786 159.438 29.034C159.341 29.0894 159.232 29.1186 159.12 29.1186ZM161.56 23.2033H161.438C161.355 23.1871 161.276 23.1545 161.205 23.1074C161.135 23.0603 161.074 22.9996 161.027 22.9288C160.98 22.8581 160.947 22.7786 160.931 22.6951C160.914 22.6115 160.914 22.5256 160.931 22.4421C161.132 21.4289 161.233 20.3982 161.233 19.3651C161.233 19.194 161.301 19.0299 161.421 18.909C161.541 18.788 161.705 18.72 161.875 18.72C162.045 18.72 162.209 18.788 162.329 18.909C162.45 19.0299 162.517 19.194 162.517 19.3651C162.519 20.4828 162.409 21.5979 162.19 22.6937C162.159 22.8382 162.08 22.9677 161.965 23.0604C161.85 23.1532 161.708 23.2036 161.56 23.2033ZM161.56 16.7913C161.408 16.7937 161.26 16.742 161.143 16.6451C161.025 16.5482 160.946 16.4126 160.918 16.2623C160.73 15.2379 160.459 14.2305 160.109 13.2498C160.081 13.1698 160.069 13.0849 160.073 13.0001C160.077 12.9153 160.098 12.8321 160.135 12.7555C160.171 12.6788 160.222 12.6101 160.285 12.5532C160.348 12.4964 160.421 12.4525 160.501 12.4241C160.581 12.3957 160.665 12.3834 160.749 12.3878C160.834 12.3922 160.917 12.4133 160.993 12.4499C161.069 12.4864 161.138 12.5377 161.194 12.6008C161.251 12.6639 161.295 12.7376 161.323 12.8176C161.691 13.8692 161.979 14.9474 162.183 16.043C162.198 16.1264 162.196 16.212 162.178 16.2948C162.16 16.3775 162.126 16.4559 162.078 16.5254C162.029 16.5949 161.968 16.6541 161.897 16.6998C161.826 16.7454 161.746 16.7765 161.663 16.7913H161.56ZM159.448 10.7211C159.33 10.722 159.215 10.6906 159.114 10.6303C159.014 10.57 158.931 10.4832 158.876 10.3792C158.41 9.45226 157.862 8.56926 157.238 7.74088C157.132 7.60658 157.083 7.4353 157.102 7.26473C157.122 7.09415 157.207 6.93826 157.341 6.83133C157.475 6.7244 157.645 6.6752 157.815 6.69456C157.985 6.71392 158.14 6.80024 158.247 6.93454C158.916 7.8297 159.507 8.78153 160.013 9.77932C160.092 9.93074 160.108 10.1075 160.057 10.2708C160.007 10.4341 159.894 10.5706 159.743 10.6502C159.657 10.6943 159.563 10.7185 159.467 10.7211H159.448Z" fill="#A7C1FF"/>
<path d="M86.6992 46.2002H57.0552C53.8631 46.2002 51.2754 48.7995 51.2754 52.0059C51.2754 55.2122 53.8631 57.8115 57.0552 57.8115H86.6992C89.8913 57.8115 92.4791 55.2122 92.4791 52.0059C92.4791 48.7995 89.8913 46.2002 86.6992 46.2002Z" fill="#E1EBFF"/>
<path d="M95.9781 33.2341H64.4717C61.7938 33.2341 59.623 35.4146 59.623 38.1044C59.623 40.7942 61.7938 42.9747 64.4717 42.9747H95.9781C98.6559 42.9747 100.827 40.7942 100.827 38.1044C100.827 35.4146 98.6559 33.2341 95.9781 33.2341Z" fill="#E1EBFF"/>
<path d="M155.703 54.5215H124.196C121.518 54.5215 119.348 56.702 119.348 59.3918C119.348 62.0816 121.518 64.2621 124.196 64.2621H155.703C158.381 64.2621 160.551 62.0816 160.551 59.3918C160.551 56.702 158.381 54.5215 155.703 54.5215Z" fill="#E1EBFF"/>
<path d="M137.137 17.7202H87.5136C84.3251 17.7202 81.7402 20.3166 81.7402 23.5194V64.159C81.7402 67.3618 84.3251 69.9582 87.5136 69.9582H137.137C140.325 69.9582 142.91 67.3618 142.91 64.159V23.5194C142.91 20.3166 140.325 17.7202 137.137 17.7202Z" fill="white"/>
<path d="M137.137 70.6033H87.5138C85.8106 70.6033 84.1771 69.9237 82.9728 68.714C81.7684 67.5042 81.0918 65.8634 81.0918 64.1526V23.513C81.0918 21.8021 81.7684 20.1614 82.9728 18.9516C84.1771 17.7419 85.8106 17.0623 87.5138 17.0623H137.137C138.84 17.0623 140.473 17.7419 141.678 18.9516C142.882 20.1614 143.559 21.8021 143.559 23.513V64.1526C143.559 65.8634 142.882 67.5042 141.678 68.714C140.473 69.9237 138.84 70.6033 137.137 70.6033ZM87.5138 18.3524C86.1512 18.3524 84.8445 18.8961 83.881 19.8639C82.9175 20.8317 82.3762 22.1443 82.3762 23.513V64.1526C82.3762 65.5213 82.9175 66.8339 83.881 67.8017C84.8445 68.7695 86.1512 69.3132 87.5138 69.3132H137.137C138.499 69.3132 139.806 68.7695 140.77 67.8017C141.733 66.8339 142.274 65.5213 142.274 64.1526V23.513C142.274 22.1443 141.733 20.8317 140.77 19.8639C139.806 18.8961 138.499 18.3524 137.137 18.3524H87.5138Z" fill="#A7C1FF"/>
<path d="M137.663 17.1396H86.9356C84.0663 17.1396 81.7402 19.4747 81.7402 22.3551C81.7402 25.2355 84.0663 27.5705 86.9356 27.5705H137.663C140.533 27.5705 142.859 25.2355 142.859 22.3551C142.859 19.4747 140.533 17.1396 137.663 17.1396Z" fill="#A7C1FF"/>
<path d="M104.9 12.4691C104.9 11.1474 103.833 10.0759 102.517 10.0759C101.201 10.0759 100.135 11.1474 100.135 12.4691V18.7973C100.135 20.1191 101.201 21.1905 102.517 21.1905C103.833 21.1905 104.9 20.1191 104.9 18.7973V12.4691Z" fill="white"/>
<path d="M102.522 21.8422C101.72 21.8405 100.952 21.5198 100.385 20.9504C99.8183 20.381 99.499 19.6092 99.4974 18.8039V12.4693C99.4785 12.0589 99.5427 11.649 99.686 11.2643C99.8294 10.8796 100.049 10.5281 100.331 10.231C100.614 9.9339 100.953 9.69743 101.329 9.53587C101.705 9.37431 102.11 9.29102 102.519 9.29102C102.928 9.29102 103.333 9.37431 103.709 9.53587C104.085 9.69743 104.424 9.9339 104.706 10.231C104.989 10.5281 105.208 10.8796 105.352 11.2643C105.495 11.649 105.559 12.0589 105.54 12.4693V18.8039C105.539 19.6081 105.22 20.3789 104.655 20.9481C104.089 21.5174 103.323 21.8388 102.522 21.8422ZM102.522 10.7211C102.061 10.7211 101.618 10.9053 101.292 11.2331C100.965 11.561 100.782 12.0056 100.782 12.4693V18.8039C100.767 19.042 100.802 19.2805 100.882 19.5047C100.963 19.729 101.089 19.9343 101.251 20.108C101.414 20.2817 101.611 20.4201 101.829 20.5148C102.047 20.6094 102.281 20.6582 102.519 20.6582C102.756 20.6582 102.991 20.6094 103.209 20.5148C103.427 20.4201 103.624 20.2817 103.786 20.108C103.949 19.9343 104.075 19.729 104.155 19.5047C104.236 19.2805 104.27 19.042 104.256 18.8039V12.4693C104.256 12.0067 104.074 11.5631 103.749 11.2354C103.424 10.9078 102.983 10.7228 102.522 10.7211Z" fill="#A7C1FF"/>
<path d="M124.556 12.4691C124.556 11.1474 123.489 10.0759 122.174 10.0759C120.858 10.0759 119.791 11.1474 119.791 12.4691V18.7973C119.791 20.1191 120.858 21.1905 122.174 21.1905C123.489 21.1905 124.556 20.1191 124.556 18.7973V12.4691Z" fill="white"/>
<path d="M122.173 21.8421C121.372 21.8404 120.603 21.5197 120.036 20.9503C119.469 20.3809 119.15 19.6091 119.148 18.8038V12.4692C119.148 12.0702 119.227 11.6751 119.379 11.3065C119.531 10.9379 119.753 10.6029 120.034 10.3208C120.315 10.0387 120.649 9.81487 121.016 9.66218C121.383 9.50949 121.776 9.43091 122.173 9.43091C122.57 9.43091 122.964 9.50949 123.331 9.66218C123.698 9.81487 124.031 10.0387 124.312 10.3208C124.593 10.6029 124.816 10.9379 124.968 11.3065C125.12 11.6751 125.198 12.0702 125.198 12.4692V18.8038C125.196 19.6091 124.877 20.3809 124.31 20.9503C123.743 21.5197 122.975 21.8404 122.173 21.8421ZM122.173 10.7211C121.945 10.7211 121.718 10.7663 121.507 10.8541C121.296 10.942 121.104 11.0707 120.943 11.2331C120.781 11.3954 120.653 11.5881 120.565 11.8002C120.478 12.0123 120.433 12.2396 120.433 12.4692V18.8038C120.433 19.2675 120.616 19.7121 120.943 20.0399C121.269 20.3678 121.712 20.552 122.173 20.552C122.635 20.552 123.077 20.3678 123.404 20.0399C123.73 19.7121 123.914 19.2675 123.914 18.8038V12.4692C123.912 12.0061 123.728 11.5624 123.402 11.2349C123.076 10.9075 122.634 10.7228 122.173 10.7211Z" fill="#A7C1FF"/>
<path d="M80.4246 69.913C86.1917 69.913 90.8668 65.1332 90.8668 59.237C90.8668 53.3408 86.1917 48.561 80.4246 48.561C74.6576 48.561 69.9824 53.3408 69.9824 59.237C69.9824 65.1332 74.6576 69.913 80.4246 69.913Z" fill="#A7C1FF"/>
<path d="M70.7852 63.3591L80.4246 82.9693L90.0641 63.3591" fill="#A7C1FF"/>
<path d="M80.4255 63.9461C82.9721 63.9461 85.0365 61.8378 85.0365 59.2371C85.0365 56.6364 82.9721 54.5281 80.4255 54.5281C77.8789 54.5281 75.8145 56.6364 75.8145 59.2371C75.8145 61.8378 77.8789 63.9461 80.4255 63.9461Z" fill="white"/>
<path d="M161.227 49.1352C160.619 49.1364 160.025 48.9567 159.519 48.6186C159.014 48.2806 158.619 47.7995 158.386 47.2362C158.153 46.6729 158.091 46.0527 158.209 45.4541C158.326 44.8556 158.618 44.3056 159.047 43.8737C159.476 43.4418 160.023 43.1475 160.619 43.028C161.214 42.9085 161.832 42.9692 162.393 43.2024C162.955 43.4356 163.434 43.8308 163.772 44.338C164.11 44.8452 164.29 45.4416 164.29 46.0517C164.29 46.8684 163.967 47.6517 163.393 48.2298C162.819 48.8078 162.04 49.1334 161.227 49.1352ZM161.227 44.2649C160.873 44.2636 160.527 44.3678 160.232 44.5644C159.938 44.761 159.708 45.041 159.572 45.3689C159.436 45.6969 159.4 46.058 159.469 46.4064C159.537 46.7549 159.708 47.075 159.958 47.3262C160.208 47.5774 160.526 47.7483 160.873 47.8173C161.22 47.8863 161.58 47.8502 161.906 47.7137C162.233 47.5772 162.512 47.3463 162.707 47.0504C162.903 46.7545 163.007 46.4069 163.005 46.0517C163.005 45.5778 162.818 45.1233 162.484 44.7882C162.151 44.4531 161.698 44.2649 161.227 44.2649Z" fill="#A7C1FF"/>
<path d="M112.419 56.2311C111.648 56.2309 110.88 56.1356 110.133 55.9473L110.441 54.6959C111.406 54.9358 112.407 54.9992 113.395 54.8829L113.549 56.1731C113.174 56.2146 112.796 56.234 112.419 56.2311ZM116.818 55.141L116.221 53.9992C117.104 53.5385 117.894 52.9174 118.552 52.1672L119.515 53.0251C118.754 53.8865 117.845 54.6033 116.831 55.141H116.818ZM107.012 54.5281C106.067 53.8683 105.249 53.0422 104.597 52.0898L105.657 51.3608C106.219 52.1851 106.926 52.8999 107.744 53.4702L107.012 54.5281ZM121.288 50.0836L120.087 49.6256C120.44 48.69 120.621 47.6976 120.62 46.6969H121.904C121.911 47.8534 121.706 49.0013 121.301 50.0836H121.288ZM103.197 48.9483C103.022 48.2107 102.934 47.4551 102.934 46.6969C102.935 46.3024 102.958 45.9083 103.004 45.5165L104.289 45.6777C104.25 46.0161 104.231 46.3564 104.231 46.6969C104.231 47.3489 104.309 47.9986 104.462 48.6322L103.197 48.9483ZM120.568 45.7616C120.461 44.7677 120.169 43.8028 119.708 42.9168L120.851 42.3233C121.379 43.35 121.717 44.4649 121.846 45.6132L120.568 45.7616ZM105.156 42.8394L104.019 42.233C104.562 41.2144 105.282 40.3013 106.145 39.5366L106.992 40.5043C106.254 41.1673 105.641 41.9583 105.181 42.8394H105.156ZM117.884 40.5623C117.144 39.8942 116.289 39.3674 115.36 39.0077L115.823 37.8014C116.894 38.2202 117.882 38.8299 118.738 39.6011L117.884 40.5623ZM109.535 38.9754L109.086 37.7691C110.148 37.3697 111.272 37.1665 112.406 37.1692L112.451 37.8143V38.4594C111.465 38.4568 110.486 38.6316 109.561 38.9754H109.535Z" fill="#D0DDF7"/>
</svg>
