<svg fill="none" height="89" viewBox="0 0 140 89" width="140" xmlns="http://www.w3.org/2000/svg"><path d="m14.9761 82.8725c-.0577.0063-.1158.0063-.1734 0-.0814-.0223-.1577-.0606-.2243-.1127-.0667-.052-.1225-.1167-.1643-.1904-.0417-.0737-.0686-.1549-.0791-.239-.0104-.0842-.0043-.1696.0181-.2513.289-1.0515.6422-2.0965 1.0147-3.1157.0299-.0792.0751-.1517.1329-.2134.0579-.0617.1272-.1113.2042-.146.0769-.0348.1599-.054.2442-.0565s.1683.0117.2472.0417c.0788.0301.151.0755.2124.1336s.1108.1278.1454.205c.0346.0773.0537.1607.0562.2454.0025.0846-.0116.169-.0416.2482-.3725.9805-.7 1.9868-.9761 2.9996-.0412.1316-.1233.2464-.2343.3277-.1109.0813-.2449.1247-.3822.1238zm2.2669-6.0056c-.0978.0004-.1945-.0217-.2825-.0645-.1524-.0762-.2684-.21-.3226-.3721s-.0421-.3392.0336-.4923c.4752-.9741 1.0082-1.9352 1.5734-2.8706.0894-.1462.233-.2509.3992-.2908s.3414-.0119.487.078c.1456.0898.2498.234.2895.401.0398.1669.0119.3429-.0776.4892-.5523.8966-1.0596 1.8255-1.522 2.7609-.0529.1085-.1352.2-.2374.2638-.1022.0639-.2202.0977-.3406.0974zm3.3459-5.4767c-.1367-.0014-.2695-.0465-.3789-.129-.0679-.0503-.1254-.1136-.1689-.1863-.0436-.0727-.0725-.1533-.085-.2371-.0125-.0839-.0085-.1695.012-.2518.0204-.0823.0568-.1597.107-.2279.6422-.8579 1.3294-1.7159 2.0551-2.5351.0526-.0728.1198-.1338.1973-.1789.0775-.0452.1635-.0736.2526-.0834.089-.0097.1791-.0007.2645.0266.0853.0273.1641.0722.2311.1318.0671.0597.1209.1328.1582.2146.0373.0819.0571.1706.0581.2606.0011.0899-.0166.1792-.0519.2619s-.0874.157-.153.2183c-.7.7999-1.3615 1.6256-1.9844 2.4577-.0599.0801-.1374.1452-.2266.1899-.0892.0448-.1875.0681-.2872.0681zm4.2385-4.8251c-.0865-.0003-.172-.0182-.2515-.0526-.0794-.0343-.1511-.0845-.2108-.1474-.1196-.1208-.1868-.2843-.1868-.4548 0-.1704.0672-.3339.1868-.4547.7642-.7483 1.5798-1.4837 2.4146-2.1868.0628-.0629.1379-.112.2205-.1443.0827-.0323.1711-.047.2596-.0433.0886.0037.1755.0258.2551.0649.0797.0391.1504.0943.2078.1622s.1001.147.1255.2323c.0255.0853.0331.175.0223.2634s-.0396.1736-.0848.2502c-.0451.0766-.1056.1431-.1775.1951-.8156.6902-1.6055 1.4062-2.3505 2.1287-.1148.1146-.2685.1814-.4303.1871zm4.9-4.1543c-.1002-.0007-.1989-.025-.2881-.071-.0892-.0459-.1665-.1122-.2256-.1935-.0503-.0681-.0867-.1456-.1071-.2279s-.0245-.1678-.012-.2517c.0126-.0839.0414-.1645.085-.2371.0436-.0727.101-.136.1689-.1864.8542-.645 1.7532-1.2901 2.6716-1.8578.1431-.0932.3172-.1255.484-.0899.1668.0357.3126.1365.4055.2802.0928.1437.125.3186.0894.4861-.0355.1676-.1358.3141-.2789.4073-.8927.5871-1.7725 1.1934-2.6073 1.8127-.1112.0837-.2464.129-.3854.129zm5.3753-3.5285c-.1402-.0015-.276-.0489-.3868-.1351-.1108-.0863-.1905-.2066-.2269-.3425-.0364-.136-.0274-.2802.0254-.4106s.1466-.2398.2672-.3117c.9119-.5289 1.8688-1.0579 2.8449-1.5675.0751-.0391.157-.063.2413-.0702.0842-.0072.169.0023.2495.0281.0806.0257.1553.0672.2198.1221.0646.0548.1177.1219.1564.1974.0767.1515.0906.3274.0389.4892-.0517.1619-.1649.2967-.3151.3752-.9633.5032-1.9265 1.0192-2.7935 1.5417-.0979.0557-.2086.0847-.3211.0839zm5.7091-2.9738c-.1469.0008-.2897-.0491-.4045-.1412-.1148-.0922-.1946-.2212-.2262-.3653-.0315-.1442-.0129-.2949.0528-.4269.0657-.1321.1745-.2375.3082-.2987.9569-.4515 1.9266-.8902 2.967-1.2901.0787-.0402.1649-.0636.253-.0688.0882-.0052.1764.0079.2593.0385s.1586.0781.2224.1394.1143.1352.1484.217c.0341.0819.051.1699.0497.2586-.0013.0886-.0208.1761-.0572.2569-.0365.0808-.0892.1531-.1548.2125-.0655.0594-.1426.1046-.2263.1328-.9954.4193-1.978.8579-2.922 1.2901-.085.0365-.1775.052-.2698.0452zm5.9276-2.5029c-.1516.0014-.2987-.0511-.4154-.1482s-.1955-.2325-.2224-.3823-.0002-.3043.0754-.4363c.0755-.1319.1951-.2327.3376-.2846.9954-.3742 2.0165-.7419 3.0376-1.0902.0806-.0312.1665-.0458.2528-.0428.0863.0029.1711.0233.2493.0599.0783.0366.1484.0887.2062.1531.0577.0644.1019.1399.13.2219s.0394.1688.0333.2553-.0294.1709-.0687.2481-.0937.1456-.1599.2013c-.0663.0556-.143.0972-.2256.1224-1.0082.3483-2.0229.7096-2.999 1.0837-.0745.0254-.1526.0385-.2312.0387zm6.0752-2.0836c-.1703.0248-.3435-.0193-.4814-.1228-.1379-.1034-.2292-.2576-.2539-.4287s.0193-.345.1222-.4836c.103-.1385.2565-.2302.4268-.255 1.0147-.3161 2.0615-.6451 3.1019-.9096.083-.0303.1714-.043.2596-.0375.0881.0056.1742.0294.2528.0699s.1481.0969.204.1656.0971.1483.121.2337c.024.0854.0301.1749.018.2628-.012.0879-.0421.1724-.0881.2481-.0461.0757-.1072.1411-.1795.192-.0724.0509-.1544.0863-.241.104-1.034.2902-2.0615.5934-3.0697.9031-.0668.0314-.1385.051-.212.058zm6.1972-1.7352c-.1467.0043-.2904-.042-.4073-.1312-.1168-.0892-.1997-.216-.2349-.3591-.0407-.1659-.0142-.3413.0737-.4877.0879-.1463.23-.2516.3951-.2928 1.0575-.2667 2.1065-.5161 3.1468-.7483.1704-.0377.3486-.0058.4955.0886.147.0943.2506.2435.288.4145.0375.1711.0058.3502-.0882.4977-.0939.1476-.2424.2517-.4127.2893-1.0275.2323-2.0657.4795-3.1147.7419zm6.2808-1.4192c-.1503.003-.2968-.0469-.4142-.1412-.1173-.0943-.198-.227-.228-.3748-.0169-.0831-.0173-.1686-.0013-.2518s.0482-.1624.0947-.2331c.0466-.0707.1065-.1314.1764-.1789.0699-.0474.1484-.0805.2311-.0974 1.0789-.2129 2.1385-.4193 3.211-.5999.0843-.0149.1707-.0129.2543.0058.0836.0188.1626.0538.2327.1033.0701.0494.1298.1122.1757.1848s.0771.1535.0919.2382c.0147.0847.0127.1715-.0059.2555-.0186.0839-.0535.1633-.1027.2337s-.1118.1304-.184.1765c-.0723.0461-.1529.0775-.2372.0923-1.0275.1871-2.0808.387-3.1532.5999-.0475.0042-.0954-.0001-.1413-.0129zm6.3321-1.1353c-.1703.0128-.3387-.0428-.4682-.1547s-.2094-.2709-.2222-.442.0427-.3403.1541-.4703c.1114-.1301.2696-.2103.4399-.2232 1.1046-.1741 2.1707-.329 3.2111-.4709.1703-.0231.3428.0228.4794.1274.1367.1046.2265.2595.2495.4306s-.0227.3444-.1268.4817c-.1042.1373-.2584.2274-.4287.2505-1.0211.1354-2.0808.2903-3.1725.4644zm6.3835-.8709c-.1703.0094-.3374-.0495-.4645-.1638-.127-.1143-.2037-.2747-.213-.4458-.0094-.1711.0492-.3389.1631-.4665.1138-.1276.2734-.2046.4437-.214 1.1432-.1355 2.2221-.2451 3.2111-.3419.1694-.0162.3383.0359.4696.1447.1312.1089.2141.2657.2303.4359.0161.1702-.0357.3398-.1441.4717-.1083.1318-.2644.2151-.4338.2314-.989.0967-2.0551.2064-3.211.3354zm6.422-.6063c-.1628.0004-.3197-.0614-.4389-.1727-.1193-.1114-.1919-.2641-.2033-.4272-.0106-.1691.0454-.3356.1559-.4636.1106-.1279.2668-.207.4349-.2202 1.4514-.1097 2.5688-.1613 3.2495-.1936.1704 0 .3337.068.4541.189.1205.121.1882.285.1882.4561s-.0677.3352-.1882.4562c-.1204.1209-.2837.1889-.4541.1889-.6743 0-1.7724.0839-3.211.1871zm6.3706-.8128c-.1703.0222-.3424-.0244-.4785-.1297-.1361-.1052-.225-.2605-.2472-.4315-.0221-.1711.0243-.344.1291-.4807s.2593-.226.4297-.2483c1.0339-.2774 2.0614-.5741 3.0697-.8773.0822-.0308.1697-.0443.2573-.0398s.1733.027.2519.066c.0786.0391.1485.0939.2052.1611s.0991.1454.1246.2297c.0254.0843.0335.1729.0236.2604-.01.0876-.0377.1721-.0814.2485s-.1025.1429-.1728.1956-.1506.0903-.2359.1106c-1.0211.3097-2.0615.6064-3.1083.8902-.0537.0216-.1097.0367-.167.0452zm6.1459-1.8643c-.1499-.0031-.294-.0588-.4073-.1574s-.1887-.2339-.2131-.3825.0037-.3011.0795-.4311c.0758-.1299.1944-.2291.3354-.2804 1.0211-.3484 2.0294-.7161 2.9927-1.0837.155-.0474.3221-.0341.4681.0372s.259.1952.318.3471c.058.1518.057.3202-.003.4715-.06.1512-.174.2741-.321.344-.9823.3806-2.0099.7483-3.0438 1.103-.0661.0228-.1357.0337-.2055.0323zm5.9853-2.3094c-.148.0013-.293-.0492-.408-.1429-.116-.0936-.196-.2245-.226-.3705s-.009-.2981.06-.4303c.068-.1322.181-.2363.317-.2948.996-.4386 1.965-.8902 2.871-1.3546.075-.0386.158-.0618.242-.0684s.169.0036.25.0299c.08.0264.155.0684.219.1237.065.0553.117.1228.156.1986.038.0758.061.1585.068.2433.006.0848-.004.17-.03.2509s-.068.1557-.123.2204c-.055.0646-.122.1177-.198.1562-.931.4709-1.926.9354-2.941 1.3805-.08.0383-.168.0581-.257.058zm5.722-2.9157c-.111 0-.221-.0292-.318-.0846s-.177-.1352-.234-.2315c-.087-.1471-.112-.3229-.07-.4886s.148-.3078.294-.3951c.938-.5548 1.831-1.1353 2.653-1.7159.139-.0842.304-.1124.463-.0789s.3.1262.393.2594c.094.1333.134.2972.112.4588s-.104.3088-.23.4122c-.847.6063-1.772 1.1998-2.735 1.7739-.096.0569-.204.088-.315.0903zm5.221-3.7285c-.092-.0009-.182-.0216-.265-.0605s-.157-.0953-.217-.1653c-.111-.1292-.167-.2975-.155-.4681.012-.1705.091-.3293.22-.4414.786-.6851 1.53-1.4175 2.228-2.1933.055-.0683.123-.1247.199-.1658.077-.0411.162-.0661.249-.0733.087-.0073.174.0033.257.0311.082.0278.159.0722.224.1305s.117.1293.154.2087c.037.0793.057.1654.06.2529s-.013.1747-.044.2561c-.032.0815-.081.1556-.142.2178-.733.8176-1.516 1.5889-2.344 2.3093-.117.1037-.268.1611-.424.1613zm4.245-4.8058c-.116.0006-.23-.0305-.33-.09s-.182-.1451-.238-.2477c-.055-.1026-.082-.2184-.077-.335s.042-.2297.106-.3272c.564-.866 1.05-1.7814 1.451-2.7351.032-.0784.08-.1497.14-.2097.059-.06.13-.1076.209-.1399.078-.0324.162-.0489.246-.0487.085.0002.168.0172.246.05.155.0645.278.1867.344.3409.066.1541.069.328.01.4848-.429 1.0256-.949 2.0101-1.555 2.9415-.056.0963-.137.1761-.234.2315s-.206.0846-.318.0846zm2.44-5.9153h-.122c-.083-.0162-.162-.0488-.233-.0959-.07-.0471-.131-.1078-.178-.1786-.047-.0707-.08-.1502-.096-.2337-.017-.0836-.017-.1695 0-.253.201-1.0132.302-2.0439.302-3.077 0-.1711.068-.3352.188-.4561.12-.121.284-.189.454-.189s.334.068.454.189c.121.1209.188.285.188.4561.002 1.1177-.108 2.2328-.327 3.3286-.031.1445-.11.274-.225.3667-.115.0928-.257.1432-.405.1429zm0-6.412c-.152.0024-.3-.0493-.417-.1462-.118-.0969-.197-.2325-.225-.3828-.188-1.0244-.459-2.0318-.809-3.0125-.028-.08-.04-.1649-.036-.2497s.025-.168.062-.2446c.036-.0767.087-.1454.15-.2023.063-.0568.136-.1007.216-.1291s.164-.0407.248-.0363c.085.0044.168.0255.244.0621.076.0365.145.0878.201.1509.057.0631.101.1368.129.2168.368 1.0516.656 2.1298.86 3.2254.015.0834.013.169-.005.2518-.018.0827-.052.1611-.1.2306-.049.0695-.11.1287-.181.1744-.071.0456-.151.0767-.234.0915zm-2.112-6.0702c-.118.0009-.233-.0305-.334-.0908-.1-.0603-.183-.1471-.238-.2511-.466-.92694-1.014-1.80994-1.638-2.63832-.106-.1343-.155-.30558-.136-.47615.02-.17058.105-.32647.239-.4334s.304-.15613.474-.13677.325.10568.432.23998c.669.89516 1.26 1.84699 1.766 2.84478.079.15142.095.32818.044.49148-.05.1633-.163.2998-.314.3794-.086.0441-.18.0683-.276.0709z" fill="#a7c1ff"/><path d="m45.6992 46.2002h-29.644c-3.1921 0-5.7798 2.5993-5.7798 5.8057 0 3.2063 2.5877 5.8056 5.7798 5.8056h29.644c3.1921 0 5.7799-2.5993 5.7799-5.8056 0-3.2064-2.5878-5.8057-5.7799-5.8057z" fill="#e1ebff"/><path d="m54.9781 33.2341h-31.5064c-2.6779 0-4.8487 2.1805-4.8487 4.8703s2.1708 4.8703 4.8487 4.8703h31.5064c2.6778 0 4.8486-2.1805 4.8486-4.8703s-2.1708-4.8703-4.8486-4.8703z" fill="#e1ebff"/><path d="m114.703 54.5215h-31.5067c-2.6778 0-4.8486 2.1805-4.8486 4.8703s2.1708 4.8703 4.8486 4.8703h31.5067c2.678 0 4.848-2.1805 4.848-4.8703s-2.17-4.8703-4.848-4.8703z" fill="#e1ebff"/><path d="m96.1366 17.7202h-49.623c-3.1885 0-5.7734 2.5964-5.7734 5.7992v40.6396c0 3.2028 2.5849 5.7992 5.7734 5.7992h49.623c3.1885 0 5.7734-2.5964 5.7734-5.7992v-40.6396c0-3.2028-2.5849-5.7992-5.7734-5.7992z" fill="#fff"/><path d="m96.1367 70.6033h-49.6229c-1.7032 0-3.3367-.6796-4.541-1.8893-1.2044-1.2098-1.881-2.8506-1.881-4.5614v-40.6396c0-1.7109.6766-3.3516 1.881-4.5614 1.2043-1.2097 2.8378-1.8893 4.541-1.8893h49.6229c1.7033 0 3.3367.6796 4.5413 1.8893 1.204 1.2098 1.881 2.8505 1.881 4.5614v40.6396c0 1.7108-.677 3.3516-1.881 4.5614-1.2046 1.2097-2.838 1.8893-4.5413 1.8893zm-49.6229-52.2509c-1.3626 0-2.6693.5437-3.6328 1.5115s-1.5048 2.2804-1.5048 3.6491v40.6396c0 1.3687.5413 2.6813 1.5048 3.6491s2.2702 1.5115 3.6328 1.5115h49.6229c1.3626 0 2.6694-.5437 3.6329-1.5115.9634-.9678 1.5044-2.2804 1.5044-3.6491v-40.6396c0-1.3687-.541-2.6813-1.5044-3.6491-.9635-.9678-2.2703-1.5115-3.6329-1.5115z" fill="#a7c1ff"/><path d="m96.6632 17.1396h-50.7276c-2.8693 0-5.1954 2.3351-5.1954 5.2155s2.3261 5.2154 5.1954 5.2154h50.7276c2.8693 0 5.1958-2.335 5.1958-5.2154s-2.3265-5.2155-5.1958-5.2155z" fill="#a7c1ff"/><path d="m63.8999 12.4691c0-1.3217-1.0667-2.3932-2.3826-2.3932-1.3158 0-2.3825 1.0715-2.3825 2.3932v6.3282c0 1.3218 1.0667 2.3932 2.3825 2.3932 1.3159 0 2.3826-1.0714 2.3826-2.3932z" fill="#fff"/><path d="m61.5221 21.8422c-.8017-.0017-1.5701-.3224-2.1369-.8918-.5669-.5694-.8862-1.3412-.8878-2.1465v-6.3346c-.0189-.4104.0453-.8203.1886-1.205.1434-.3847.363-.7362.6454-1.0333s.6219-.53357.9979-.69513c.3759-.16156.7807-.24485 1.1896-.24485.409 0 .8137.08329 1.1896.24485.376.16156.7155.39803.998.69513.2824.2971.5019.6486.6453 1.0333.1433.3847.2075.7946.1887 1.205v6.3346c-.0017.8042-.3201 1.575-.8856 2.1442-.5655.5693-1.3322.8907-2.1328.8941zm0-11.1211c-.4615 0-.9042.1842-1.2306.512-.3264.3279-.5097.7725-.5097 1.2362v6.3346c-.0145.2381.0198.4766.1005.7008.0808.2243.2065.4296.3692.6033s.3591.3121.577.4068c.218.0946.453.1434.6904.1434.2375 0 .4724-.0488.6904-.1434.2179-.0947.4143-.2331.5771-.4068.1627-.1737.2883-.379.3691-.6033.0807-.2242.115-.4627.1005-.7008v-6.3346c.0001-.4626-.1824-.9062-.5074-1.2339-.325-.3276-.766-.5126-1.2265-.5143z" fill="#a7c1ff"/><path d="m83.5562 12.4691c0-1.3217-1.0668-2.3932-2.3826-2.3932-1.3159 0-2.3826 1.0715-2.3826 2.3932v6.3282c0 1.3218 1.0667 2.3932 2.3826 2.3932 1.3158 0 2.3826-1.0714 2.3826-2.3932z" fill="#fff"/><g fill="#a7c1ff"><path d="m81.1732 21.8421c-.8017-.0017-1.5701-.3224-2.137-.8918-.5668-.5694-.8861-1.3412-.8878-2.1465v-6.3346c0-.399.0783-.7941.2303-1.1627s.3748-.7036.6557-.9857c.2808-.2821.6143-.50593.9813-.65862s.7603-.23127 1.1575-.23127.7906.07858 1.1575.23127c.367.15269.7005.37652.9813.65862.2809.2821.5037.6171.6557.9857s.2303.7637.2303 1.1627v6.3346c-.0017.8053-.3209 1.5771-.8878 2.1465s-1.3353.8901-2.137.8918zm0-11.121c-.2285 0-.4548.0452-.666.133-.2111.0879-.403.2166-.5646.379-.1616.1623-.2898.355-.3773.5671-.0874.2121-.1325.4394-.1325.669v6.3346c0 .4637.1834.9083.5098 1.2361.3264.3279.7691.5121 1.2306.5121.4616 0 .9043-.1842 1.2307-.5121.3263-.3278.5097-.7724.5097-1.2361v-6.3346c-.0017-.4631-.1856-.9068-.5116-1.2343-.326-.3274-.7677-.5121-1.2288-.5138z"/><path d="m39.4246 69.913c5.7671 0 10.4422-4.7798 10.4422-10.676s-4.6751-10.676-10.4422-10.676c-5.767 0-10.4422 4.7798-10.4422 10.676s4.6752 10.676 10.4422 10.676z"/><path d="m29.7852 63.3591 9.6394 19.6102 9.6395-19.6102"/></g><path d="m39.4255 63.9461c2.5466 0 4.611-2.1083 4.611-4.709s-2.0644-4.709-4.611-4.709-4.611 2.1083-4.611 4.709 2.0644 4.709 4.611 4.709z" fill="#fff"/><path d="m120.227 49.1352c-.608.0012-1.202-.1785-1.708-.5166-.505-.338-.9-.8191-1.133-1.3824s-.295-1.1835-.177-1.7821c.117-.5985.409-1.1485.838-1.5804s.976-.7262 1.572-.8457c.595-.1195 1.213-.0588 1.774.1744.562.2332 1.041.6284 1.379 1.1356s.518 1.1036.518 1.7137c0 .8167-.323 1.6-.897 2.1781-.574.578-1.353.9036-2.166.9054zm0-4.8703c-.354-.0013-.7.1029-.995.2995-.294.1966-.524.4766-.66.8045-.136.328-.172.6891-.103 1.0375.068.3485.239.6686.489.9198s.568.4221.915.4911.707.0329 1.033-.1036c.327-.1365.606-.3674.801-.6633.196-.2959.3-.6435.298-.9987 0-.4739-.187-.9284-.521-1.2635-.333-.3351-.786-.5233-1.257-.5233z" fill="#a7c1ff"/><path d="m71.4189 56.2311c-.7708-.0002-1.5386-.0955-2.2862-.2838l.3082-1.2514c.9656.2399 1.9663.3033 2.9542.187l.1541 1.2902c-.3753.0415-.7527.0609-1.1303.058zm4.3991-1.0901-.5973-1.1418c.8832-.4607 1.6736-1.0818 2.3312-1.832l.9633.8579c-.761.8614-1.6703 1.5782-2.6844 2.1159zm-9.8064-.6129c-.9448-.6598-1.7628-1.4859-2.4147-2.4383l1.0596-.729c.5628.8243 1.27 1.5391 2.0872 2.1094zm14.2761-4.4445-1.2009-.458c.3533-.9356.5339-1.928.5331-2.9287h1.2844c.0066 1.1565-.198 2.3044-.6037 3.3867zm-18.0908-1.1353c-.1749-.7376-.2632-1.4932-.2633-2.2514.0009-.3945.0245-.7886.0707-1.1804l1.2844.1612c-.0387.3384-.058.6787-.0578 1.0192.0003.652.0779 1.3017.2311 1.9353zm17.3716-3.1867c-.1075-.9939-.3994-1.9588-.8606-2.8448l1.1431-.5935c.5283 1.0267.8656 2.1416.9954 3.2899zm-15.4129-2.9222-1.1367-.6064c.5433-1.0186 1.2631-1.9317 2.1257-2.6964l.8477.9677c-.7381.663-1.3516 1.454-1.811 2.3351zm12.7285-2.2771c-.7402-.6681-1.5955-1.1949-2.5239-1.5546l.4624-1.2063c1.0717.4188 2.0595 1.0285 2.9156 1.7997zm-8.3487-1.5869-.4495-1.2063c1.0617-.3994 2.1865-.6026 3.3202-.5999l.0449.6451v.6451c-.9862-.0026-1.9649.1722-2.8899.516z" fill="#d0ddf7"/></svg>