<svg width="311" height="42" viewBox="0 0 311 42" fill="none" xmlns="http://www.w3.org/2000/svg">
<path d="M17.708 6.018H14.474V4.492H13.326V6.018H10.078V6.942H17.708V6.018ZM11.968 9.98C11.968 9.098 12.752 8.538 13.9 8.538C15.034 8.538 15.818 9.098 15.818 9.98C15.818 10.848 15.034 11.408 13.9 11.408C12.752 11.408 11.968 10.848 11.968 9.98ZM14.474 12.276C15.958 12.094 16.91 11.226 16.91 9.98C16.91 8.566 15.692 7.656 13.9 7.656C12.108 7.656 10.876 8.566 10.876 9.98C10.876 11.24 11.842 12.108 13.326 12.29V13.634C12.08 13.676 10.876 13.69 9.812 13.69L9.98 14.656C12.29 14.656 15.314 14.614 18.114 14.152L18.03 13.298C16.882 13.452 15.664 13.536 14.474 13.592V12.276ZM18.828 4.492V17.036H19.976V4.492H18.828ZM29.2009 11.898V12.752H31.7489V14.04H32.8969V4.478H31.7489V11.898H29.2009ZM26.6389 5.836C27.8289 5.836 28.6409 6.368 28.6409 7.166C28.6409 7.978 27.8289 8.51 26.6389 8.51C25.4489 8.51 24.6369 7.978 24.6369 7.166C24.6369 6.368 25.4489 5.836 26.6389 5.836ZM26.6389 9.364C28.4729 9.364 29.7329 8.51 29.7329 7.166C29.7329 5.85 28.4729 4.982 26.6389 4.982C24.8049 4.982 23.5449 5.85 23.5449 7.166C23.5449 8.51 24.8049 9.364 26.6389 9.364ZM26.1909 13.592H27.3389V11.114C28.4729 11.044 29.6349 10.918 30.7409 10.75L30.6429 9.924C27.9829 10.26 24.8749 10.288 22.5509 10.288L22.7049 11.24C23.7409 11.24 24.9449 11.226 26.1909 11.17V13.592ZM25.4909 15.818V13.102H24.3429V16.756H33.2189V15.818H25.4909ZM42.6538 9.364C41.0158 9.63 39.6718 9.686 37.2218 9.686V8.244H41.5898V7.362H37.2218V6.018H41.8138V5.108H36.0738V10.596H37.0258C39.6298 10.596 41.0578 10.554 42.7798 10.274L42.6538 9.364ZM38.4258 14.6H45.2438V11.646H37.2638V12.542H44.1098V13.746H37.3058V16.896H45.7058V16H38.4258V14.6ZM45.2438 7.222V4.492H44.0958V11.044H45.2438V8.16H47.1058V7.222H45.2438ZM53.1387 11.436H55.9387V10.512H50.5487V8.944H55.6167V8.034H50.5487V6.536H55.8827V5.612H49.4007V11.436H51.9907V13.522C50.7167 13.564 49.4987 13.564 48.4627 13.564L48.6027 14.516C50.8567 14.516 53.9227 14.502 56.7367 13.97L56.6387 13.116C55.5187 13.298 54.3147 13.396 53.1387 13.466V11.436ZM57.4647 4.464V17.064H58.6127V4.464H57.4647ZM75.1983 4.492H74.0503V13.676H75.1983V4.492ZM72.5663 10.974C70.7183 10.358 69.4163 8.832 69.4163 7.138V6.452H72.2583V5.528H65.3703V6.452H68.2403V7.138C68.2403 8.93 66.9663 10.568 65.0623 11.226L65.6643 12.122C67.1483 11.59 68.3103 10.456 68.8423 9.028C69.4163 10.344 70.5643 11.38 72.0063 11.884L72.5663 10.974ZM68.2683 15.818V12.808H67.1203V16.756H75.5763V15.818H68.2683ZM85.6693 8.832H87.2653V12.43H88.3713V4.478H87.2653V7.894H85.6693V4.73H84.5773V11.982H85.6693V8.832ZM84.0873 5.976H81.4693V4.576H80.3353V5.976H77.7033V6.886H84.0873V5.976ZM79.2573 9.686C79.2573 8.916 79.9153 8.398 80.9093 8.398C81.8893 8.398 82.5613 8.916 82.5613 9.686C82.5613 10.47 81.8893 10.988 80.9093 10.988C79.9153 10.988 79.2573 10.47 79.2573 9.686ZM83.5833 9.686C83.5833 8.398 82.4913 7.544 80.9093 7.544C79.3273 7.544 78.2213 8.398 78.2213 9.686C78.2213 11.002 79.3273 11.842 80.9093 11.842C82.4913 11.842 83.5833 11.002 83.5833 9.686ZM84.2413 16.14C82.3233 16.14 81.1753 15.664 81.1753 14.838C81.1753 13.998 82.3233 13.522 84.2413 13.522C86.1453 13.522 87.2933 13.998 87.2933 14.838C87.2933 15.664 86.1453 16.14 84.2413 16.14ZM84.2413 12.64C81.6233 12.64 80.0413 13.424 80.0413 14.838C80.0413 16.238 81.6233 17.022 84.2413 17.022C86.8593 17.022 88.4413 16.238 88.4413 14.838C88.4413 13.424 86.8593 12.64 84.2413 12.64ZM98.7409 5.57H97.6069V7.824C97.6069 10.204 96.0809 12.612 94.2329 13.494L94.9329 14.432C96.4029 13.676 97.6069 12.108 98.1809 10.218C98.7829 12.01 99.9869 13.494 101.415 14.194L102.101 13.27C100.239 12.43 98.7409 10.12 98.7409 7.824V5.57ZM103.417 4.478V17.064H104.565V4.478H103.417ZM111.547 5.836V6.76H116.265C116.027 9.742 114.347 12.15 110.973 13.76L111.589 14.698C115.761 12.654 117.427 9.462 117.427 5.836H111.547ZM119.961 4.478V17.036H121.109V4.478H119.961ZM124.803 10.05C126.833 9.742 128.681 8.734 129.367 7.278C130.053 8.734 131.901 9.742 133.931 10.05L134.365 9.126C132.139 8.832 130.109 7.586 130.109 6.046V6.018H134.015V5.094H124.719V6.018H128.625V6.046C128.625 7.586 126.595 8.832 124.369 9.126L124.803 10.05ZM126.287 13.214H125.139V16.756H133.777V15.818H126.287V13.214ZM129.927 11.254V9.168H128.779V11.254H123.669V12.192H135.079V11.254H129.927ZM139.404 13.214C138.396 13.214 137.766 11.94 137.766 9.882C137.766 7.866 138.396 6.592 139.404 6.592C140.384 6.592 141.028 7.866 141.028 9.882C141.028 11.94 140.384 13.214 139.404 13.214ZM143.646 9.364H142.064C141.924 6.998 140.916 5.528 139.404 5.528C137.766 5.528 136.716 7.208 136.716 9.882C136.716 12.598 137.766 14.278 139.404 14.278C140.944 14.278 141.966 12.766 142.064 10.302H143.646V16.42H144.738V4.758H143.646V9.364ZM146.138 4.478V17.036H147.23V4.478H146.138ZM157.292 5.57H156.158V7.824C156.158 10.106 154.73 12.514 152.924 13.438L153.61 14.362C155.024 13.606 156.186 12.038 156.732 10.204C157.306 11.926 158.44 13.396 159.77 14.11L160.484 13.2C158.72 12.318 157.292 10.036 157.292 7.824V5.57ZM164.81 9.574H162.738V4.492H161.59V17.036H162.738V10.526H164.81V9.574ZM171.627 16.14C169.653 16.14 168.491 15.65 168.491 14.796C168.491 13.942 169.653 13.452 171.627 13.452C173.587 13.452 174.763 13.942 174.763 14.796C174.763 15.65 173.587 16.14 171.627 16.14ZM171.627 12.556C168.939 12.556 167.329 13.354 167.329 14.796C167.329 16.238 168.939 17.022 171.627 17.022C174.329 17.022 175.925 16.238 175.925 14.796C175.925 13.354 174.329 12.556 171.627 12.556ZM169.891 9.224C170.409 9.308 170.997 9.364 171.627 9.364C172.271 9.364 172.859 9.308 173.377 9.224V10.694H169.891V9.224ZM168.393 7.04C168.393 6.13 169.625 5.598 171.627 5.598C173.629 5.598 174.861 6.13 174.861 7.04C174.861 7.936 173.629 8.482 171.627 8.482C169.625 8.482 168.393 7.936 168.393 7.04ZM174.511 10.694V8.916C175.477 8.524 176.037 7.88 176.037 7.04C176.037 5.57 174.357 4.702 171.627 4.702C168.911 4.702 167.217 5.57 167.217 7.04C167.217 7.894 167.763 8.524 168.757 8.93V10.694H165.943V11.618H177.311V10.694H174.511ZM182.518 13.284C181.384 13.284 180.558 12.472 180.558 11.352C180.558 10.218 181.384 9.406 182.518 9.406C183.666 9.406 184.492 10.218 184.492 11.352C184.492 12.472 183.666 13.284 182.518 13.284ZM182.518 8.454C180.754 8.454 179.48 9.658 179.48 11.352C179.48 13.06 180.754 14.236 182.518 14.236C184.31 14.236 185.584 13.06 185.584 11.352C185.584 9.658 184.31 8.454 182.518 8.454ZM183.078 4.632H181.93V6.494H178.766V7.418H186.172V6.494H183.078V4.632ZM190.568 9.644H188.51V4.492H187.362V17.036H188.51V10.61H190.568V9.644ZM200.899 11.842H202.061V4.478H200.899V5.976H198.421V6.914H200.899V8.454H198.421V9.392H200.899V11.842ZM199.009 10.47C197.203 9.77 195.971 8.048 195.971 6.228V4.926H194.837V6.228C194.837 8.216 193.633 9.938 191.729 10.666L192.359 11.59C193.801 10.988 194.893 9.84 195.425 8.356C195.971 9.728 197.021 10.82 198.365 11.366L199.009 10.47ZM200.703 12.29H199.569V12.864C199.569 13.844 198.981 15.118 197.791 15.874C196.615 15.188 196.041 13.984 196.041 12.864V12.29H194.935V12.864C194.935 14.082 193.997 15.44 192.401 16.028L192.975 16.882C194.151 16.42 195.019 15.552 195.467 14.544C195.845 15.594 196.601 16.518 197.805 16.994C198.981 16.49 199.737 15.524 200.129 14.502C200.549 15.566 201.431 16.42 202.649 16.882L203.223 16.028C201.613 15.482 200.703 14.166 200.703 12.864V12.29ZM210.25 7.964V8.888H213.778V13.648H214.94V4.492H213.778V7.964H210.25ZM211.762 10.456C210.096 10.778 208.654 10.862 206.456 10.862V6.452H211.062V5.514H205.308V11.8H206.26C208.612 11.8 210.096 11.716 211.888 11.394L211.762 10.456ZM208.038 15.902V12.976H206.89V16.84H215.262V15.902H208.038ZM224.455 13.186C223.237 13.186 222.383 11.87 222.383 9.826C222.383 7.796 223.237 6.48 224.455 6.48C225.659 6.48 226.513 7.796 226.513 9.826C226.513 11.87 225.659 13.186 224.455 13.186ZM224.455 5.444C222.607 5.444 221.291 7.152 221.291 9.826C221.291 12.5 222.607 14.208 224.455 14.208C226.303 14.208 227.605 12.5 227.605 9.826C227.605 7.152 226.303 5.444 224.455 5.444ZM232.841 9.49H230.769V4.492H229.621V17.036H230.769V10.456H232.841V9.49ZM243.116 4.478V17.064H244.264V4.478H243.116ZM237.642 5.444C235.78 5.444 234.45 7.152 234.45 9.826C234.45 12.5 235.78 14.208 237.642 14.208C239.504 14.208 240.834 12.5 240.834 9.826C240.834 7.152 239.504 5.444 237.642 5.444ZM237.642 6.48C238.86 6.48 239.728 7.796 239.728 9.826C239.728 11.87 238.86 13.186 237.642 13.186C236.41 13.186 235.542 11.87 235.542 9.826C235.542 7.796 236.41 6.48 237.642 6.48ZM248.813 6.634H253.615V5.668H247.679V13.942H248.687C251.221 13.942 252.859 13.858 254.791 13.508L254.665 12.542C252.817 12.892 251.235 12.962 248.813 12.962V6.634ZM255.995 4.478V17.064H257.143V4.478H255.995ZM268.538 6.676H261.202V9.364H269.896V8.538H262.336V7.46H269.672V4.842H261.174V5.654H268.538V6.676ZM262.266 14.88H269.714V12.206H261.104V13.032H268.58V14.082H261.132V16.868H270.106V16.042H262.266V14.88ZM259.746 10.316V11.184H271.128V10.316H259.746ZM11.422 27.634H16.112V26.682H10.274V34.928H11.268C13.634 34.928 15.286 34.844 17.204 34.48L17.078 33.528C15.258 33.85 13.648 33.948 11.422 33.948V27.634ZM21.474 30.434H19.402V25.478H18.254V38.064H19.402V31.386H21.474V30.434ZM27.0729 26.57H25.9389V28.824C25.9389 31.204 24.4129 33.612 22.5649 34.494L23.2649 35.432C24.7349 34.676 25.9389 33.108 26.5129 31.218C27.1149 33.01 28.3189 34.494 29.7469 35.194L30.4329 34.27C28.5709 33.43 27.0729 31.12 27.0729 28.824V26.57ZM31.7489 25.478V38.064H32.8969V25.478H31.7489ZM43.3505 26.57H42.2165V28.824C42.2165 31.106 40.7885 33.514 38.9825 34.438L39.6685 35.362C41.0825 34.606 42.2445 33.038 42.7905 31.204C43.3645 32.926 44.4985 34.396 45.8285 35.11L46.5425 34.2C44.7785 33.318 43.3505 31.036 43.3505 28.824V26.57ZM50.8685 30.574H48.7965V25.492H47.6485V38.036H48.7965V31.526H50.8685V30.574ZM57.6854 37.14C55.7114 37.14 54.5494 36.65 54.5494 35.796C54.5494 34.942 55.7114 34.452 57.6854 34.452C59.6454 34.452 60.8214 34.942 60.8214 35.796C60.8214 36.65 59.6454 37.14 57.6854 37.14ZM57.6854 33.556C54.9974 33.556 53.3874 34.354 53.3874 35.796C53.3874 37.238 54.9974 38.022 57.6854 38.022C60.3874 38.022 61.9834 37.238 61.9834 35.796C61.9834 34.354 60.3874 33.556 57.6854 33.556ZM55.9494 30.224C56.4674 30.308 57.0554 30.364 57.6854 30.364C58.3294 30.364 58.9174 30.308 59.4354 30.224V31.694H55.9494V30.224ZM54.4514 28.04C54.4514 27.13 55.6834 26.598 57.6854 26.598C59.6874 26.598 60.9194 27.13 60.9194 28.04C60.9194 28.936 59.6874 29.482 57.6854 29.482C55.6834 29.482 54.4514 28.936 54.4514 28.04ZM60.5694 31.694V29.916C61.5354 29.524 62.0954 28.88 62.0954 28.04C62.0954 26.57 60.4154 25.702 57.6854 25.702C54.9694 25.702 53.2754 26.57 53.2754 28.04C53.2754 28.894 53.8214 29.524 54.8154 29.93V31.694H52.0014V32.618H63.3694V31.694H60.5694ZM68.5763 34.284C67.4423 34.284 66.6163 33.472 66.6163 32.352C66.6163 31.218 67.4423 30.406 68.5763 30.406C69.7243 30.406 70.5503 31.218 70.5503 32.352C70.5503 33.472 69.7243 34.284 68.5763 34.284ZM68.5763 29.454C66.8123 29.454 65.5383 30.658 65.5383 32.352C65.5383 34.06 66.8123 35.236 68.5763 35.236C70.3683 35.236 71.6423 34.06 71.6423 32.352C71.6423 30.658 70.3683 29.454 68.5763 29.454ZM69.1363 25.632H67.9883V27.494H64.8243V28.418H72.2303V27.494H69.1363V25.632ZM76.6263 30.644H74.5683V25.492H73.4203V38.036H74.5683V31.61H76.6263V30.644ZM88.0633 25.492H86.9153V31.988H88.0633V25.492ZM85.3753 30.728C83.5133 30.112 82.1973 28.544 82.1973 26.808V25.856H81.0493V26.808C81.0493 28.628 79.7473 30.308 77.8573 30.966L78.4453 31.862C79.9293 31.33 81.0913 30.182 81.6373 28.74C82.2113 30.07 83.3593 31.12 84.8013 31.624L85.3753 30.728ZM81.1053 36.986V35.642H88.0773V32.618H79.9433V33.528H86.9433V34.774H79.9713V37.896H88.4973V36.986H81.1053ZM105.097 30.266C102.815 29.93 100.575 28.376 100.575 26.626V25.926H99.3709V26.626C99.3709 28.418 97.1589 29.93 94.8769 30.266L95.3389 31.19C97.2989 30.854 99.1889 29.776 99.9729 28.25C100.785 29.762 102.675 30.854 104.621 31.19L105.097 30.266ZM105.643 32.548H94.3029V33.5H99.3709V38.05H100.519V33.5H105.657L105.643 32.548ZM115.523 36.972H113.311V35.278H115.523V36.972ZM115.523 34.424H113.311V32.842H112.233V37.868H116.587V32.842H115.523V34.424ZM114.235 30.868C112.989 30.868 112.093 30.056 112.093 28.922C112.093 27.788 112.989 26.99 114.235 26.99C115.481 26.99 116.377 27.788 116.377 28.922C116.377 30.056 115.481 30.868 114.235 30.868ZM119.989 29.37V32.128H121.151V25.492H119.989V28.432H117.427C117.189 26.99 115.929 26.038 114.235 26.038C112.359 26.038 111.001 27.2 111.001 28.922C111.001 30.644 112.359 31.82 114.235 31.82C115.957 31.82 117.217 30.84 117.427 29.37H119.989ZM120.143 32.758H119.023V33.822C119.023 35.11 118.239 36.468 116.741 37.112L117.329 37.98C118.421 37.504 119.177 36.636 119.583 35.614C119.961 36.65 120.717 37.504 121.851 37.98L122.425 37.112C120.927 36.524 120.143 35.152 120.143 33.822V32.758ZM134.393 29.398C132.167 29.118 129.955 27.732 129.955 26.178V25.618H128.779V26.178C128.779 27.774 126.581 29.118 124.327 29.398L124.747 30.322C126.707 30.014 128.583 29.034 129.367 27.634C130.165 29.034 132.027 30.014 133.973 30.322L134.393 29.398ZM132.419 36.944H126.245V35.348H132.419V36.944ZM132.419 34.466H126.245V32.996H125.111V37.868H133.553V32.996H132.419V34.466ZM123.669 31.204V32.128H135.037V31.204H123.669ZM138.494 26.696H137.346V34.788H138.382C140.384 34.788 142.358 34.648 144.542 34.2L144.416 33.22C142.33 33.64 140.384 33.808 138.494 33.808V26.696ZM145.704 25.478V38.022H146.852V25.478H145.704ZM151.121 27.634H155.811V26.682H149.973V34.928H150.967C153.333 34.928 154.985 34.844 156.903 34.48L156.777 33.528C154.957 33.85 153.347 33.948 151.121 33.948V27.634ZM161.173 30.434H159.101V25.478H157.953V38.064H159.101V31.386H161.173V30.434ZM162.586 36.244C162.586 35.8987 162.67 35.656 162.838 35.516C163.006 35.376 163.207 35.306 163.44 35.306C163.673 35.306 163.879 35.376 164.056 35.516C164.233 35.656 164.322 35.8987 164.322 36.244C164.322 36.58 164.233 36.8227 164.056 36.972C163.879 37.1213 163.673 37.196 163.44 37.196C163.207 37.196 163.006 37.1213 162.838 36.972C162.67 36.8227 162.586 36.58 162.586 36.244Z" fill="#595959"/>
<path d="M3.58887 11.2881H0.25293V10.2559H3.58887V11.2881Z" fill="#595959"/>
</svg>
