<svg width="154" height="17" viewBox="0 0 154 17" fill="none" xmlns="http://www.w3.org/2000/svg">
<path d="M5.816 10.656H1.72V6.88H5.816V10.656ZM5.816 5.84H1.72V2.048H0.424V11.728H7.096V2.048H5.816V5.84ZM13.256 6.48H10.888V0.848H9.576V15.168H10.888V7.584H13.256V6.48ZM22.8228 8.32H19.2548V3.328H22.8228V8.32ZM17.9427 8.32H15.7508V9.392H26.3268V8.32H24.1348V3.328H26.3588V2.272H15.7188V3.328H17.9427V8.32ZM14.5668 12.256V13.344H27.5748V12.256H14.5668ZM37.5415 5.024H33.9735V2.288H37.5415V5.024ZM32.6615 5.024H30.5335V6.032H40.9655V5.024H38.8535V2.288H41.0135V1.28H30.4855V2.288H32.6615V5.024ZM32.1655 12.688H40.5975V9.536H30.8375V10.512H39.3015V11.744H30.8855V15.024H41.0295V14.032H32.1655V12.688ZM29.2695 7.232V8.272H42.2615V7.232H29.2695ZM45.7483 7.44H49.8283V2.4H44.4363V3.472H48.5483V6.368H44.4843V11.744H45.4283C47.2043 11.744 48.8203 11.68 50.8043 11.344L50.7083 10.256C48.8843 10.576 47.3802 10.64 45.7483 10.656V7.44ZM54.9323 0.832V6.496H52.9003V1.152H51.6683V14.448H52.9003V7.568H54.9323V15.168H56.1963V0.832H54.9323ZM60.819 2.432H59.507V11.744H60.627C62.899 11.744 64.915 11.6 67.187 11.168L67.011 10.048C64.899 10.48 62.947 10.624 60.819 10.64V2.432ZM69.235 0.832V5.568H64.835V6.656H69.235V15.216H70.547V0.832H69.235ZM83.4898 3.344H75.1058V6.416H85.0418V5.472H76.4018V4.24H84.7858V1.248H75.0738V2.176H83.4898V3.344ZM76.3218 12.72H84.8338V9.664H74.9938V10.608H83.5378V11.808H75.0258V14.992H85.2818V14.048H76.3218V12.72ZM73.4418 7.504V8.496H86.4498V7.504H73.4418ZM100.493 6.416C98.6208 6.72 97.0848 6.784 94.2848 6.784V5.136H99.2768V4.128H94.2848V2.592H99.5328V1.552H92.9728V7.824H94.0608C97.0368 7.824 98.6688 7.776 100.637 7.456L100.493 6.416ZM95.6608 12.4H103.453V9.024H94.3328V10.048H102.157V11.424H94.3808V15.024H103.981V14H95.6608V12.4ZM103.453 3.968V0.848H102.141V8.336H103.453V5.04H105.581V3.968H103.453ZM112.476 8.784H115.676V7.728H109.516V5.936H115.308V4.896H109.516V3.184H115.612V2.128H108.204V8.784H111.164V11.168C109.708 11.216 108.316 11.216 107.132 11.216L107.292 12.304C109.868 12.304 113.372 12.288 116.588 11.68L116.476 10.704C115.196 10.912 113.82 11.024 112.476 11.104V8.784ZM117.42 0.815999V15.216H118.732V0.815999H117.42ZM125.962 10.896C124.666 10.896 123.722 9.968 123.722 8.688C123.722 7.392 124.666 6.464 125.962 6.464C127.274 6.464 128.218 7.392 128.218 8.688C128.218 9.968 127.274 10.896 125.962 10.896ZM125.962 5.376C123.946 5.376 122.49 6.752 122.49 8.688C122.49 10.64 123.946 11.984 125.962 11.984C128.01 11.984 129.466 10.64 129.466 8.688C129.466 6.752 128.01 5.376 125.962 5.376ZM126.602 1.008H125.29V3.136H121.674V4.192H130.138V3.136H126.602V1.008ZM135.162 6.736H132.81V0.848H131.498V15.184H132.81V7.84H135.162V6.736ZM142.393 7.744H138.425V3.136H142.393V7.744ZM146.969 4.432V6.432H143.673V4.432H146.969ZM143.673 7.504H146.969V11.312H148.297V0.848H146.969V3.36H143.673V2.096H137.129V8.784H143.673V7.504ZM140.377 13.792V10.384H139.065V14.864H148.633V13.792H140.377ZM153.304 12.144L153.416 12.32C153.266 12.8853 153.064 13.504 152.808 14.176C152.552 14.8587 152.296 15.488 152.04 16.064H151C151.149 15.456 151.298 14.7893 151.448 14.064C151.608 13.3387 151.725 12.6987 151.8 12.144H153.304Z" fill="black"/>
</svg>
