<svg width="311" height="42" viewBox="0 0 311 42" fill="none" xmlns="http://www.w3.org/2000/svg">
<path d="M17.708 6.018H14.474V4.492H13.326V6.018H10.078V6.942H17.708V6.018ZM11.968 9.98C11.968 9.098 12.752 8.538 13.9 8.538C15.034 8.538 15.818 9.098 15.818 9.98C15.818 10.848 15.034 11.408 13.9 11.408C12.752 11.408 11.968 10.848 11.968 9.98ZM14.474 12.276C15.958 12.094 16.91 11.226 16.91 9.98C16.91 8.566 15.692 7.656 13.9 7.656C12.108 7.656 10.876 8.566 10.876 9.98C10.876 11.24 11.842 12.108 13.326 12.29V13.634C12.08 13.676 10.876 13.69 9.812 13.69L9.98 14.656C12.29 14.656 15.314 14.614 18.114 14.152L18.03 13.298C16.882 13.452 15.664 13.536 14.474 13.592V12.276ZM18.828 4.492V17.036H19.976V4.492H18.828ZM29.2009 11.898V12.752H31.7489V14.04H32.8969V4.478H31.7489V11.898H29.2009ZM26.6389 5.836C27.8289 5.836 28.6409 6.368 28.6409 7.166C28.6409 7.978 27.8289 8.51 26.6389 8.51C25.4489 8.51 24.6369 7.978 24.6369 7.166C24.6369 6.368 25.4489 5.836 26.6389 5.836ZM26.6389 9.364C28.4729 9.364 29.7329 8.51 29.7329 7.166C29.7329 5.85 28.4729 4.982 26.6389 4.982C24.8049 4.982 23.5449 5.85 23.5449 7.166C23.5449 8.51 24.8049 9.364 26.6389 9.364ZM26.1909 13.592H27.3389V11.114C28.4729 11.044 29.6349 10.918 30.7409 10.75L30.6429 9.924C27.9829 10.26 24.8749 10.288 22.5509 10.288L22.7049 11.24C23.7409 11.24 24.9449 11.226 26.1909 11.17V13.592ZM25.4909 15.818V13.102H24.3429V16.756H33.2189V15.818H25.4909ZM42.2058 7.74V8.678H44.6838V11.968H45.8458V4.492H44.6838V7.74H42.2058ZM42.9058 10.596C41.0858 9.952 39.8538 8.37 39.8538 6.76V6.326H42.6118V5.402H35.9058V6.326H38.7058V6.76C38.7058 8.566 37.4178 10.26 35.5418 10.946L36.1438 11.856C37.6138 11.296 38.7758 10.12 39.3078 8.664C39.8538 9.952 40.9318 10.988 42.3318 11.492L42.9058 10.596ZM41.7018 16.14C39.8118 16.14 38.6638 15.608 38.6638 14.698C38.6638 13.788 39.8118 13.242 41.7018 13.242C43.5918 13.242 44.7398 13.788 44.7398 14.698C44.7398 15.608 43.5918 16.14 41.7018 16.14ZM41.7018 12.36C39.1258 12.36 37.5158 13.214 37.5158 14.698C37.5158 16.182 39.1258 17.036 41.7018 17.036C44.2778 17.036 45.8738 16.182 45.8738 14.698C45.8738 13.214 44.2778 12.36 41.7018 12.36ZM50.8567 8.552H57.2687V10.862H50.8567V8.552ZM54.6367 14.488V11.786H58.3887V5.374H57.2687V7.614H50.8567V5.374H49.7227V11.786H53.4747V14.488H48.3787V15.426H59.7607V14.488H54.6367ZM75.1843 4.478H74.0363V11.688H75.1843V4.478ZM70.2983 9.504H66.6723V6.2H70.2983V9.504ZM71.4183 5.29H65.5523V10.428H71.4183V5.29ZM75.4783 13.424V12.542H71.7963V11.324H70.6343V12.542H66.9523V13.424H70.6203C70.6063 14.67 68.6043 15.86 66.4623 16.112L66.8403 16.994C68.7303 16.728 70.4663 15.888 71.2223 14.698C71.9643 15.86 73.6443 16.728 75.5343 16.994L75.9263 16.112C73.7703 15.846 71.8103 14.628 71.7963 13.424H75.4783ZM81.886 6.102V7.04H85.652C85.484 9.644 84.294 11.912 81.41 13.522L82.082 14.348C85.652 12.332 86.786 9.336 86.786 6.102H81.886ZM90.958 4.478V9.532H89.25V4.814H88.172V16.406H89.25V10.47H90.958V17.036H92.064V4.478H90.958ZM104.593 4.492H103.445V13.662H104.593V4.492ZM95.7029 8.44C95.7029 7.222 96.6269 6.354 97.8449 6.354C99.0909 6.354 100.015 7.222 100.015 8.44C100.015 9.686 99.0909 10.554 97.8449 10.554C96.6269 10.554 95.7029 9.686 95.7029 8.44ZM101.135 8.44C101.135 6.634 99.7209 5.36 97.8449 5.36C95.9829 5.36 94.5829 6.634 94.5829 8.44C94.5829 10.26 95.9829 11.548 97.8449 11.548C99.7209 11.548 101.135 10.26 101.135 8.44ZM97.6629 15.818V12.724H96.5149V16.756H104.971V15.818H97.6629ZM116.352 9.938H114.224V10.876H116.352V12.584H117.514V4.478H116.352V7.502H114.238V8.426H116.352V9.938ZM114.224 5.864H111.34V4.366H110.192V5.864H107.196V6.788H114.224V5.864ZM108.988 9.756C108.988 8.888 109.702 8.314 110.752 8.314C111.802 8.314 112.516 8.888 112.516 9.756C112.516 10.638 111.802 11.212 110.752 11.212C109.702 11.212 108.988 10.638 108.988 9.756ZM113.594 9.756C113.594 8.356 112.418 7.432 110.752 7.432C109.072 7.432 107.91 8.356 107.91 9.756C107.91 11.17 109.072 12.094 110.752 12.094C112.418 12.094 113.594 11.17 113.594 9.756ZM113.398 16.14C111.55 16.14 110.402 15.678 110.402 14.88C110.402 14.068 111.55 13.62 113.398 13.62C115.246 13.62 116.38 14.068 116.38 14.88C116.38 15.678 115.246 16.14 113.398 16.14ZM113.398 12.738C110.794 12.738 109.212 13.508 109.212 14.88C109.212 16.238 110.794 17.022 113.398 17.022C115.988 17.022 117.57 16.238 117.57 14.88C117.57 13.508 115.988 12.738 113.398 12.738ZM128.079 5.556H126.931V7.81C126.931 10.134 125.503 12.556 123.683 13.466L124.383 14.376C125.797 13.62 126.959 12.038 127.505 10.176C128.079 11.94 129.227 13.438 130.655 14.152L131.327 13.242C129.507 12.374 128.079 10.092 128.079 7.81V5.556ZM132.881 4.478V8.734H129.969V9.672H132.881V17.05H134.029V4.478H132.881ZM145.69 4.478V17.05H146.838V4.478H145.69ZM137.276 5.542V14.012H143.184V5.542H142.05V8.86H138.41V5.542H137.276ZM138.41 9.77H142.05V13.074H138.41V9.77ZM160.263 10.792C158.065 10.372 155.685 8.468 155.685 6.326V5.36H154.481V6.326C154.481 8.468 152.115 10.358 149.917 10.792L150.435 11.744C152.325 11.296 154.285 9.952 155.083 8.118C155.881 9.966 157.841 11.31 159.745 11.744L160.263 10.792ZM149.441 14.404V15.356H160.823V14.404H149.441ZM166.394 5.402C164.448 5.402 163.034 6.592 163.034 8.356C163.034 10.106 164.448 11.31 166.394 11.31C168.354 11.31 169.754 10.106 169.754 8.356C169.754 6.592 168.354 5.402 166.394 5.402ZM166.394 6.382C167.696 6.382 168.634 7.18 168.634 8.356C168.634 9.518 167.696 10.33 166.394 10.33C165.092 10.33 164.154 9.518 164.154 8.356C164.154 7.18 165.092 6.382 166.394 6.382ZM171.406 4.478V17.064H172.554V4.478H171.406ZM162.544 14.306C164.812 14.306 167.85 14.292 170.678 13.76L170.58 12.906C167.836 13.326 164.686 13.34 162.404 13.34L162.544 14.306ZM180.432 6.942H184.016V6.018H179.298V14.012H180.11C182.112 14.012 183.33 13.956 184.758 13.648L184.646 12.71C183.33 12.99 182.21 13.046 180.432 13.06V6.942ZM185.878 9.266H183.176V10.218H185.878V16.406H186.956V4.786H185.878V9.266ZM188.398 4.478V17.036H189.49V4.478H188.398ZM200.843 4.478V17.064H201.991V4.478H200.843ZM195.369 5.444C193.507 5.444 192.177 7.152 192.177 9.826C192.177 12.5 193.507 14.208 195.369 14.208C197.231 14.208 198.561 12.5 198.561 9.826C198.561 7.152 197.231 5.444 195.369 5.444ZM195.369 6.48C196.587 6.48 197.455 7.796 197.455 9.826C197.455 11.87 196.587 13.186 195.369 13.186C194.137 13.186 193.269 11.87 193.269 9.826C193.269 7.796 194.137 6.48 195.369 6.48ZM206.316 10.078H210.432V9.154H206.316V6.564H210.978V5.612H205.168V14.026H206.134C208.528 14.026 210.054 13.956 211.874 13.634L211.748 12.696C210.04 13.004 208.584 13.088 206.316 13.088V10.078ZM213.792 4.464V9.21H211.202V10.162H213.792V17.05H214.94V4.464H213.792ZM227.538 8.258H220.146V4.94H218.998V9.196H227.538V8.258ZM220.062 13.06H218.914V16.728H227.608V15.79H220.062V13.06ZM217.458 10.876V11.8H228.84V10.876H217.458ZM238.468 6.718H241.422V5.766H234.408V6.718H237.32V8.314C237.32 10.484 235.794 12.85 233.988 13.704L234.66 14.628C236.088 13.9 237.32 12.318 237.894 10.484C238.496 12.206 239.728 13.648 241.184 14.32L241.828 13.396C239.98 12.612 238.468 10.442 238.468 8.314V6.718ZM243.116 4.492V17.036H244.264V4.492H243.116ZM250.521 7.74H252.845V6.788H250.535V4.926H249.429V6.788H247.105V7.74H249.429V8.342C249.429 10.4 248.463 12.598 246.769 13.606L247.441 14.46C248.673 13.718 249.555 12.318 249.989 10.722C250.451 12.234 251.347 13.508 252.565 14.194L253.223 13.326C251.529 12.416 250.521 10.344 250.521 8.342V7.74ZM253.909 9.434H251.991V10.386H253.909V16.378H255.001V4.772H253.909V9.434ZM256.429 4.478V17.022H257.535V4.478H256.429ZM264.464 15.972H262.252V14.278H264.464V15.972ZM264.464 13.424H262.252V11.842H261.174V16.868H265.528V11.842H264.464V13.424ZM263.176 9.868C261.93 9.868 261.034 9.056 261.034 7.922C261.034 6.788 261.93 5.99 263.176 5.99C264.422 5.99 265.318 6.788 265.318 7.922C265.318 9.056 264.422 9.868 263.176 9.868ZM268.93 8.37V11.128H270.092V4.492H268.93V7.432H266.368C266.13 5.99 264.87 5.038 263.176 5.038C261.3 5.038 259.942 6.2 259.942 7.922C259.942 9.644 261.3 10.82 263.176 10.82C264.898 10.82 266.158 9.84 266.368 8.37H268.93ZM269.084 11.758H267.964V12.822C267.964 14.11 267.18 15.468 265.682 16.112L266.27 16.98C267.362 16.504 268.118 15.636 268.524 14.614C268.902 15.65 269.658 16.504 270.792 16.98L271.366 16.112C269.868 15.524 269.084 14.152 269.084 12.822V11.758ZM281.753 4.478V17.064H282.901V4.478H281.753ZM276.279 5.444C274.417 5.444 273.087 7.152 273.087 9.826C273.087 12.5 274.417 14.208 276.279 14.208C278.141 14.208 279.471 12.5 279.471 9.826C279.471 7.152 278.141 5.444 276.279 5.444ZM276.279 6.48C277.497 6.48 278.365 7.796 278.365 9.826C278.365 11.87 277.497 13.186 276.279 13.186C275.047 13.186 274.179 11.87 274.179 9.826C274.179 7.796 275.047 6.48 276.279 6.48ZM12.374 27.76H14.432V33.864C13.746 33.892 13.046 33.92 12.374 33.934V27.76ZM15.552 27.76H16.896V26.836H9.91V27.76H11.254V33.948C10.666 33.962 10.106 33.962 9.588 33.962L9.728 34.928C11.94 34.928 14.922 34.886 17.554 34.466L17.47 33.612C16.854 33.696 16.21 33.752 15.552 33.794V27.76ZM21.474 30.504H19.402V25.492H18.254V38.036H19.402V31.456H21.474V30.504ZM23.3629 26.836V27.76H28.0809C27.8429 30.742 26.1629 33.15 22.7889 34.76L23.4049 35.698C27.5769 33.654 29.2429 30.462 29.2429 26.836H23.3629ZM31.7769 25.478V38.036H32.9249V25.478H31.7769ZM45.8425 28.292V29.216H48.3205V31.974H49.4685V25.492H48.3205V28.292H45.8425ZM46.5005 30.924C44.7085 30.35 43.4765 28.908 43.4765 27.396V27.06H46.2485V26.136H39.5285V27.06H42.3145V27.396C42.3145 29.02 41.0125 30.588 39.1785 31.218L39.7525 32.114C41.2225 31.61 42.3705 30.504 42.9025 29.16C43.4485 30.392 44.5405 31.372 45.9545 31.82L46.5005 30.924ZM42.5385 36.986V35.614H49.4685V32.604H41.3765V33.5H48.3345V34.746H41.4045V37.896H49.9445V36.986H42.5385ZM56.2154 28.572H59.0014V27.648H56.2154V25.702H55.0674V27.648H52.2394V28.572H55.0814V29.552C55.0814 31.722 53.7374 33.85 51.9034 34.746L52.5474 35.614C53.9754 34.914 55.1234 33.458 55.6554 31.736C56.1874 33.346 57.2514 34.718 58.6234 35.39L59.2674 34.494C57.4614 33.626 56.2154 31.568 56.2154 29.552V28.572ZM63.7474 30.644H61.6754V25.478H60.5274V38.036H61.6754V31.596H63.7474V30.644ZM65.5663 26.822V27.774H70.1723C69.9063 30.742 68.1843 33.15 64.9783 34.76L65.6083 35.656C69.6683 33.626 71.3063 30.392 71.3063 26.822H65.5663ZM76.5703 30.574H74.5543V25.478H73.4063V38.036H74.5543V31.526H76.5703V30.574ZM91.714 25.492H90.566V34.676H91.714V25.492ZM89.082 31.974C87.234 31.358 85.932 29.832 85.932 28.138V27.452H88.774V26.528H81.886V27.452H84.756V28.138C84.756 29.93 83.482 31.568 81.578 32.226L82.18 33.122C83.664 32.59 84.826 31.456 85.358 30.028C85.932 31.344 87.08 32.38 88.522 32.884L89.082 31.974ZM84.784 36.818V33.808H83.636V37.756H92.092V36.818H84.784ZM102.185 29.832H103.781V33.43H104.887V25.478H103.781V28.894H102.185V25.73H101.093V32.982H102.185V29.832ZM100.603 26.976H97.9849V25.576H96.8509V26.976H94.2189V27.886H100.603V26.976ZM95.7729 30.686C95.7729 29.916 96.4309 29.398 97.4249 29.398C98.4049 29.398 99.0769 29.916 99.0769 30.686C99.0769 31.47 98.4049 31.988 97.4249 31.988C96.4309 31.988 95.7729 31.47 95.7729 30.686ZM100.099 30.686C100.099 29.398 99.0069 28.544 97.4249 28.544C95.8429 28.544 94.7369 29.398 94.7369 30.686C94.7369 32.002 95.8429 32.842 97.4249 32.842C99.0069 32.842 100.099 32.002 100.099 30.686ZM100.757 37.14C98.8389 37.14 97.6909 36.664 97.6909 35.838C97.6909 34.998 98.8389 34.522 100.757 34.522C102.661 34.522 103.809 34.998 103.809 35.838C103.809 36.664 102.661 37.14 100.757 37.14ZM100.757 33.64C98.1389 33.64 96.5569 34.424 96.5569 35.838C96.5569 37.238 98.1389 38.022 100.757 38.022C103.375 38.022 104.957 37.238 104.957 35.838C104.957 34.424 103.375 33.64 100.757 33.64ZM111.886 31.834H114.588V30.896H109.31V27.606H114.532V26.654H108.176V31.834H110.738V34.326C109.52 34.368 108.33 34.368 107.252 34.368L107.392 35.334C109.772 35.334 112.782 35.278 115.526 34.858L115.428 34.018C114.308 34.158 113.09 34.228 111.886 34.284V31.834ZM116.254 25.464V38.064H117.402V25.464H116.254ZM123.407 34.186C122.203 34.186 121.363 32.87 121.363 30.826C121.363 28.796 122.203 27.48 123.407 27.48C124.597 27.48 125.437 28.796 125.437 30.826C125.437 32.87 124.597 34.186 123.407 34.186ZM129.245 25.478V30.266H126.515C126.333 27.914 125.101 26.444 123.407 26.444C121.573 26.444 120.271 28.152 120.271 30.826C120.271 33.5 121.573 35.208 123.407 35.208C125.157 35.208 126.403 33.668 126.515 31.204H129.245V38.064H130.393V25.478H129.245ZM137.822 35.04H145.368V38.036H146.516V34.116H137.822V35.04ZM139.194 28.096H145.298V29.552H139.194V28.096ZM142.82 31.96V30.462H146.432V25.772H145.298V27.2H139.194V25.772H138.06V30.462H141.672V31.96H136.548V32.898H147.916V31.96H142.82ZM160.809 31.694H158.947C159.297 29.888 159.297 28.558 159.297 27.382V26.29H150.869V27.214H158.177V27.382C158.177 28.558 158.177 29.888 157.785 31.694H149.455V32.632H154.523V38.05H155.685V32.632H160.809V31.694ZM169.768 26.626H166.632V25.352H165.484V26.626H162.362V27.508H169.768V26.626ZM164.154 30.126C164.154 29.37 164.896 28.922 166.058 28.922C167.22 28.922 167.976 29.37 167.976 30.126C167.976 30.882 167.22 31.33 166.058 31.33C164.896 31.33 164.154 30.882 164.154 30.126ZM169.068 30.126C169.068 28.852 167.878 28.068 166.058 28.068C164.252 28.068 163.062 28.852 163.062 30.126C163.062 31.4 164.252 32.184 166.058 32.184C167.878 32.184 169.068 31.4 169.068 30.126ZM165.246 35.81H172.064V33.024H164.084V33.878H170.93V34.97H164.126V37.896H172.526V37.014H165.246V35.81ZM172.064 28.46V25.436H170.916V32.38H172.064V29.412H173.926V28.46H172.064ZM189.644 30.266C187.362 29.93 185.122 28.376 185.122 26.626V25.926H183.918V26.626C183.918 28.418 181.706 29.93 179.424 30.266L179.886 31.19C181.846 30.854 183.736 29.776 184.52 28.25C185.332 29.762 187.222 30.854 189.168 31.19L189.644 30.266ZM190.19 32.548H178.85V33.5H183.918V38.05H185.066V33.5H190.204L190.19 32.548ZM200.069 36.972H197.857V35.278H200.069V36.972ZM200.069 34.424H197.857V32.842H196.779V37.868H201.133V32.842H200.069V34.424ZM198.781 30.868C197.535 30.868 196.639 30.056 196.639 28.922C196.639 27.788 197.535 26.99 198.781 26.99C200.027 26.99 200.923 27.788 200.923 28.922C200.923 30.056 200.027 30.868 198.781 30.868ZM204.535 29.37V32.128H205.697V25.492H204.535V28.432H201.973C201.735 26.99 200.475 26.038 198.781 26.038C196.905 26.038 195.547 27.2 195.547 28.922C195.547 30.644 196.905 31.82 198.781 31.82C200.503 31.82 201.763 30.84 201.973 29.37H204.535ZM204.689 32.758H203.569V33.822C203.569 35.11 202.785 36.468 201.287 37.112L201.875 37.98C202.967 37.504 203.723 36.636 204.129 35.614C204.507 36.65 205.263 37.504 206.397 37.98L206.971 37.112C205.473 36.524 204.689 35.152 204.689 33.822V32.758ZM218.94 29.398C216.714 29.118 214.502 27.732 214.502 26.178V25.618H213.326V26.178C213.326 27.774 211.128 29.118 208.874 29.398L209.294 30.322C211.254 30.014 213.13 29.034 213.914 27.634C214.712 29.034 216.574 30.014 218.52 30.322L218.94 29.398ZM216.966 36.944H210.792V35.348H216.966V36.944ZM216.966 34.466H210.792V32.996H209.658V37.868H218.1V32.996H216.966V34.466ZM208.216 31.204V32.128H219.584V31.204H208.216ZM223.041 26.696H221.893V34.788H222.929C224.931 34.788 226.905 34.648 229.089 34.2L228.963 33.22C226.877 33.64 224.931 33.808 223.041 33.808V26.696ZM230.251 25.478V38.022H231.399V25.478H230.251ZM235.668 27.634H240.358V26.682H234.52V34.928H235.514C237.88 34.928 239.532 34.844 241.45 34.48L241.324 33.528C239.504 33.85 237.894 33.948 235.668 33.948V27.634ZM245.72 30.434H243.648V25.478H242.5V38.064H243.648V31.386H245.72V30.434ZM247.133 36.244C247.133 35.8987 247.217 35.656 247.385 35.516C247.553 35.376 247.754 35.306 247.987 35.306C248.22 35.306 248.426 35.376 248.603 35.516C248.78 35.656 248.869 35.8987 248.869 36.244C248.869 36.58 248.78 36.8227 248.603 36.972C248.426 37.1213 248.22 37.196 247.987 37.196C247.754 37.196 247.553 37.1213 247.385 36.972C247.217 36.8227 247.133 36.58 247.133 36.244Z" fill="#595959"/>
<path d="M3.58887 11.2881H0.25293V10.2559H3.58887V11.2881Z" fill="#595959"/>
</svg>
