<svg width="40" height="40" viewBox="0 0 40 40" fill="none" xmlns="http://www.w3.org/2000/svg">
<path d="M28.9308 9.11H17.3008V19.51H28.9308V9.11Z" fill="#A7C1FF"/>
<path d="M17.1807 10.87V10.18C17.1807 9.34 17.7607 8.66 18.4807 8.66H27.6307C28.3507 8.66 28.9307 9.34 28.9307 10.18V20.42" stroke="#3B75FF" stroke-width="1.5" stroke-miterlimit="10" stroke-linecap="round" stroke-linejoin="round"/>
<path d="M21.8403 26.53H11.2703C10.2003 26.53 9.32031 25.66 9.32031 24.58V12.93C9.32031 11.86 10.1903 10.98 11.2703 10.98H21.8403C22.9103 10.98 23.7903 11.85 23.7903 12.93V24.59C23.7903 25.66 22.9103 26.53 21.8403 26.53Z" fill="white"/>
<path d="M21.5802 12.56H9.9502V23.93H21.5802V12.56Z" fill="#A7C1FF"/>
<path d="M16.5508 23.75H10.9708C10.3208 23.75 9.80078 23.23 9.80078 22.58V13.91C9.80078 13.26 10.3208 12.74 10.9708 12.74H20.5808C21.2308 12.74 21.7508 13.26 21.7508 13.91V17.63" stroke="#3B75FF" stroke-width="1.5" stroke-miterlimit="10" stroke-linecap="round" stroke-linejoin="round"/>
<path d="M23.5604 19.09C26.3904 19.09 28.6804 21.39 28.6804 24.21C28.6804 27.03 26.3804 29.33 23.5604 29.33C20.7404 29.33 18.4404 27.03 18.4404 24.21C18.4404 21.39 20.7304 19.09 23.5604 19.09ZM23.5604 17.09C19.6304 17.09 16.4404 20.28 16.4404 24.21C16.4404 28.14 19.6304 31.33 23.5604 31.33C27.4904 31.33 30.6804 28.14 30.6804 24.21C30.6804 20.28 27.4904 17.09 23.5604 17.09Z" fill="white"/>
<path d="M23.5508 28.93C26.1521 28.93 28.2608 26.8213 28.2608 24.22C28.2608 21.6187 26.1521 19.51 23.5508 19.51C20.9496 19.51 18.8408 21.6187 18.8408 24.22C18.8408 26.8213 20.9496 28.93 23.5508 28.93Z" fill="white"/>
<path d="M23.5606 20.26C25.7406 20.26 27.5206 22.04 27.5206 24.22C27.5206 26.4 25.7406 28.18 23.5606 28.18C21.3806 28.18 19.6006 26.4 19.6006 24.22C19.6006 22.04 21.3706 20.26 23.5606 20.26ZM23.5606 18.76C20.5506 18.76 18.1006 21.2 18.1006 24.22C18.1006 27.24 20.5406 29.68 23.5606 29.68C26.5806 29.68 29.0206 27.24 29.0206 24.22C29.0206 21.2 26.5706 18.76 23.5606 18.76Z" fill="#3B75FF"/>
<path d="M30.1202 31.13L26.9102 27.93" stroke="#3B75FF" stroke-width="1.5" stroke-miterlimit="10" stroke-linecap="round"/>
</svg>
