<svg width="40" height="40" viewBox="0 0 40 40" fill="none" xmlns="http://www.w3.org/2000/svg">
<path d="M23.5996 29.03C26.2009 29.03 28.3096 26.9213 28.3096 24.32C28.3096 21.7187 26.2009 19.61 23.5996 19.61C20.9984 19.61 18.8896 21.7187 18.8896 24.32C18.8896 26.9213 20.9984 29.03 23.5996 29.03Z" fill="white"/>
<path d="M23.5996 20.36C25.7796 20.36 27.5596 22.14 27.5596 24.32C27.5596 26.5 25.7796 28.28 23.5996 28.28C21.4196 28.28 19.6396 26.5 19.6396 24.32C19.6396 22.14 21.4096 20.36 23.5996 20.36ZM23.5996 18.86C20.5796 18.86 18.1396 21.3 18.1396 24.32C18.1396 27.34 20.5796 29.78 23.5996 29.78C26.6196 29.78 29.0596 27.34 29.0596 24.32C29.0596 21.3 26.6096 18.86 23.5996 18.86Z" fill="black"/>
<path d="M30.16 31.24L26.96 28.03" stroke="black" stroke-width="1.5" stroke-miterlimit="10" stroke-linecap="round"/>
<path d="M17.2197 10.65V10.06C17.2197 9.33999 17.7997 8.75999 18.5197 8.75999H27.6697C28.3897 8.75999 28.9697 9.33999 28.9697 10.06V18.86" stroke="black" stroke-width="1.5" stroke-miterlimit="10" stroke-linecap="round"/>
<path d="M15.8098 23.86H11.0098C10.3598 23.86 9.83984 23.34 9.83984 22.69V14.02C9.83984 13.37 10.3598 12.85 11.0098 12.85H20.6198C21.2698 12.85 21.7898 13.37 21.7898 14.02V16.85" fill="white"/>
<path d="M15.8098 23.86H11.0098C10.3598 23.86 9.83984 23.34 9.83984 22.69V14.02C9.83984 13.37 10.3598 12.85 11.0098 12.85H20.6198C21.2698 12.85 21.7898 13.37 21.7898 14.02V16.85" stroke="black" stroke-width="1.5" stroke-miterlimit="10" stroke-linecap="round" stroke-linejoin="round"/>
</svg>
