<svg width="40" height="40" viewBox="0 0 40 40" fill="none" xmlns="http://www.w3.org/2000/svg">
<path d="M14.3496 21.9666L23.0496 12.1866C23.1509 12.0769 23.2906 12.0104 23.4396 12.0011C23.5886 11.9918 23.7355 12.0403 23.8496 12.1366L25.7896 13.8666C25.8947 13.9732 25.9536 14.1169 25.9536 14.2666C25.9536 14.4162 25.8947 14.5599 25.7896 14.6666L17.0896 24.4366" fill="white"/>
<path d="M14.3496 21.9666L23.0496 12.1866C23.1509 12.0769 23.2906 12.0104 23.4396 12.0011C23.5886 11.9918 23.7355 12.0403 23.8496 12.1366L25.7896 13.8666C25.8947 13.9732 25.9536 14.1169 25.9536 14.2666C25.9536 14.4162 25.8947 14.5599 25.7896 14.6666L17.0896 24.4366" stroke="#BFBFBF" stroke-width="1.5" stroke-linecap="round" stroke-linejoin="round"/>
<path d="M14.3294 22.0464L13.8594 25.2464L17.0894 24.4664" fill="white"/>
<path d="M14.3294 22.0464L13.8594 25.2464L17.0894 24.4664" stroke="#BFBFBF" stroke-width="1.5" stroke-linecap="round" stroke-linejoin="round"/>
<path d="M21.0195 14.8667L23.4495 16.9567" stroke="#BFBFBF" stroke-width="1.5" stroke-linecap="round" stroke-linejoin="round"/>
<path d="M12 27.6064H28" stroke="#BFBFBF" stroke-width="1.5" stroke-linecap="round" stroke-linejoin="round"/>
</svg>
