<svg width="40" height="40" viewBox="0 0 40 40" fill="none" xmlns="http://www.w3.org/2000/svg">
<path d="M8 11H32" stroke="#6291FF" stroke-width="1.5" stroke-linecap="round" stroke-linejoin="round"/>
<path d="M8 28H32" stroke="#6291FF" stroke-width="1.5" stroke-linecap="round" stroke-linejoin="round"/>
<path d="M8 19H32" stroke="#6291FF" stroke-width="1.5" stroke-linecap="round" stroke-linejoin="round"/>
<path d="M15 14C16.6569 14 18 12.6569 18 11C18 9.34315 16.6569 8 15 8C13.3431 8 12 9.34315 12 11C12 12.6569 13.3431 14 15 14Z" fill="white" stroke="#6291FF" stroke-width="1.5" stroke-linecap="round" stroke-linejoin="round"/>
<path d="M15 31C16.6569 31 18 29.6569 18 28C18 26.3431 16.6569 25 15 25C13.3431 25 12 26.3431 12 28C12 29.6569 13.3431 31 15 31Z" fill="white" stroke="#6291FF" stroke-width="1.5" stroke-linecap="round" stroke-linejoin="round"/>
<path d="M25 22C26.6569 22 28 20.6569 28 19C28 17.3431 26.6569 16 25 16C23.3431 16 22 17.3431 22 19C22 20.6569 23.3431 22 25 22Z" fill="white" stroke="#6291FF" stroke-width="1.5" stroke-linecap="round" stroke-linejoin="round"/>
</svg>
