<svg width="36" height="35" viewBox="0 0 36 35" fill="none" xmlns="http://www.w3.org/2000/svg">
<g clip-path="url(#clip0_4:3276)">
<path d="M18 0C8.06 0 0 6.27 0 14C0 18.64 2.91999 22.75 7.39999 25.29L5.28 33.58C5.25778 33.683 5.26866 33.7903 5.31107 33.8867C5.35347 33.9832 5.42526 34.0638 5.51617 34.117C5.60709 34.1702 5.71248 34.1933 5.81732 34.1831C5.92217 34.1729 6.0211 34.1298 6.10001 34.06L14.8 27.77C15.8603 27.9184 16.9294 27.9952 18 28C27.94 28 36 21.73 36 14C36 6.27 27.94 0 18 0Z" fill="#171701"/>
</g>
<defs>
<clipPath id="clip0_4:3276">
<rect width="36" height="34.18" fill="white"/>
</clipPath>
</defs>
</svg>
