<svg width="47" height="59" viewBox="0 0 47 59" fill="none" xmlns="http://www.w3.org/2000/svg">
<path d="M33.1878 50.0772C25.5715 50.0772 19.375 43.8733 19.375 36.2479C19.375 28.6224 25.5715 22.4185 33.1878 22.4185C40.8042 22.4185 47.0007 28.6224 47.0007 36.2479C47.0007 42.0561 43.3361 47.2824 37.884 49.256C36.3768 49.8012 34.7961 50.0772 33.1878 50.0772ZM33.6037 31.8796C31.1959 31.8796 29.2384 33.8394 29.2384 36.2502C29.2384 38.6609 31.1959 40.6207 33.6037 40.6207C34.1161 40.6207 34.6146 40.5333 35.0879 40.3631C36.8111 39.7397 37.969 38.0858 37.969 36.2502C37.969 33.8394 36.0092 31.8796 33.6037 31.8796Z" fill="#FFC142"/>
<path d="M19.4023 38.0327L19.508 58.9999C19.508 58.9999 23.2967 53.7829 28.3559 47.526" fill="#FFC142"/>
<path d="M14.1302 38.6309C10.5943 38.6309 7.05603 37.2829 4.36331 34.587C-1.02214 29.1928 -1.02214 20.4217 4.36331 15.0298C6.97332 12.419 10.4403 10.979 14.1302 10.979C17.82 10.979 21.287 12.4167 23.8971 15.0298C25.0366 16.1685 25.958 17.4819 26.6357 18.9334C29.0987 24.1896 27.9982 30.4786 23.8971 34.587C21.2043 37.2829 17.6684 38.6309 14.1302 38.6309ZM14.1302 20.4378C12.963 20.4378 11.8671 20.8933 11.0423 21.7191C9.33979 23.4236 9.33979 26.1955 11.0423 27.9C12.7448 29.6045 15.5156 29.6045 17.2158 27.9C18.5139 26.6003 18.8631 24.6129 18.0843 22.9521C17.8706 22.4989 17.5788 22.0825 17.2158 21.7191C16.3933 20.8933 15.295 20.4378 14.1302 20.4378Z" fill="#3B75FF"/>
<path d="M12.0203 14.6575C7.81807 10.2409 0.00181535 0 0.00181535 0C0.00181535 0 -0.00737484 7.52427 0.0156006 12.8978C0.033981 17.2131 0.121288 22.1151 0.208595 23.4354L0.245355 24.321C0.259141 24.6776 0.284414 25.0341 0.318877 25.3884L0.413076 26.3522" fill="#3B75FF"/>
</svg>
