<svg width="40" height="40" viewBox="0 0 40 40" fill="none" xmlns="http://www.w3.org/2000/svg">
<path d="M29.8998 14.8399C29.6999 13.8187 29.197 12.8814 28.4568 12.1501C27.7166 11.4188 26.7733 10.9274 25.7498 10.7399C24.4685 10.5187 23.1514 10.8054 22.078 11.5391C21.0045 12.2728 20.2591 13.3958 19.9998 14.6699C19.7405 13.3958 18.9951 12.2728 17.9216 11.5391C16.8481 10.8054 15.5311 10.5187 14.2498 10.7399C13.2263 10.9274 12.283 11.4188 11.5428 12.1501C10.8025 12.8814 10.2997 13.8187 10.0998 14.8399C9.86825 16.2824 10.081 17.7611 10.7098 19.0799C12.4398 22.6799 19.9998 28.3199 19.9998 28.3199C19.9998 28.3199 27.5598 22.6799 29.2898 19.0799C29.9186 17.7611 30.1314 16.2824 29.8998 14.8399Z" fill="#A7C1FF" stroke="#3B75FF" stroke-width="1.5" stroke-linecap="round" stroke-linejoin="round"/>
</svg>
