<svg width="40" height="40" viewBox="0 0 40 40" fill="none" xmlns="http://www.w3.org/2000/svg">
<path d="M19.9399 19.31C22.8725 19.31 25.2499 16.9326 25.2499 14C25.2499 11.0674 22.8725 8.69 19.9399 8.69C17.0073 8.69 14.6299 11.0674 14.6299 14C14.6299 16.9326 17.0073 19.31 19.9399 19.31Z" stroke="black" stroke-width="1.5" stroke-miterlimit="10"/>
<path d="M8.79004 30.56C9.26004 25.84 14.11 22.12 20 22.12C25.89 22.12 30.74 25.84 31.21 30.56H8.79004Z" fill="white"/>
<path d="M20 22.88C25.15 22.88 29.45 25.88 30.33 29.82H9.67C10.55 25.87 14.85 22.88 20 22.88ZM20 21.38C13.37 21.38 8 25.83 8 31.32H32C32 25.83 26.63 21.38 20 21.38Z" fill="black"/>
</svg>
