<svg width="40" height="40" viewBox="0 0 40 40" fill="none" xmlns="http://www.w3.org/2000/svg">
<path d="M19.9399 18.56C22.4583 18.56 24.4999 16.5184 24.4999 14C24.4999 11.4816 22.4583 9.44 19.9399 9.44C17.4215 9.44 15.3799 11.4816 15.3799 14C15.3799 16.5184 17.4215 18.56 19.9399 18.56Z" fill="#A7C1FF"/>
<path d="M19.9399 10.19C22.0399 10.19 23.7499 11.9 23.7499 14C23.7499 16.1 22.0399 17.81 19.9399 17.81C17.8399 17.81 16.1299 16.1 16.1299 14C16.1299 11.9 17.8399 10.19 19.9399 10.19ZM19.9399 8.69C17.0099 8.69 14.6299 11.07 14.6299 14C14.6299 16.93 17.0099 19.31 19.9399 19.31C22.8699 19.31 25.2499 16.93 25.2499 14C25.2499 11.07 22.8699 8.69 19.9399 8.69Z" fill="#3B75FF"/>
<path d="M8.79004 30.56C9.26004 25.84 14.11 22.12 20 22.12C25.89 22.12 30.74 25.84 31.21 30.56H8.79004Z" fill="#A7C1FF"/>
<path d="M20 22.88C25.15 22.88 29.45 25.88 30.33 29.82H9.67C10.55 25.87 14.85 22.88 20 22.88ZM20 21.38C13.37 21.38 8 25.83 8 31.32H32C32 25.83 26.63 21.38 20 21.38Z" fill="#3B75FF"/>
</svg>
