<svg width="40" height="40" viewBox="0 0 40 40" fill="none" xmlns="http://www.w3.org/2000/svg">
<path d="M12 15.56H28" stroke="#595959" stroke-width="1.5" stroke-linecap="round" stroke-linejoin="round"/>
<path d="M20.1396 20V24.44" stroke="#595959" stroke-width="1.5" stroke-linecap="round" stroke-linejoin="round"/>
<path d="M17.3701 20V24.44" stroke="#595959" stroke-width="1.5" stroke-linecap="round" stroke-linejoin="round"/>
<path d="M22.9199 20V24.44" stroke="#595959" stroke-width="1.5" stroke-linecap="round" stroke-linejoin="round"/>
<path d="M13.9199 15.56L14.8099 26.22C14.8099 26.6921 14.9975 27.1448 15.3313 27.4786C15.6651 27.8125 16.1179 28 16.59 28H23.7C24.172 28 24.6248 27.8125 24.9586 27.4786C25.2924 27.1448 25.4799 26.6921 25.4799 26.22L26.3699 15.56" stroke="#595959" stroke-width="1.5" stroke-linecap="round" stroke-linejoin="round"/>
<path d="M17.4805 15.56V12.89C17.4805 12.654 17.5742 12.4276 17.7411 12.2607C17.9081 12.0938 18.1344 12 18.3705 12H21.9205C22.1565 12 22.3829 12.0938 22.5498 12.2607C22.7167 12.4276 22.8105 12.654 22.8105 12.89V15.56" stroke="#595959" stroke-width="1.5" stroke-linecap="round" stroke-linejoin="round"/>
</svg>
