<svg width="40" height="40" viewBox="0 0 40 40" fill="none" xmlns="http://www.w3.org/2000/svg">
<path d="M19.9995 22.48C21.3692 22.48 22.4795 21.3697 22.4795 20C22.4795 18.6303 21.3692 17.52 19.9995 17.52C18.6299 17.52 17.5195 18.6303 17.5195 20C17.5195 21.3697 18.6299 22.48 19.9995 22.48Z" stroke="black" stroke-width="1.5" stroke-miterlimit="10"/>
<path d="M20.7496 9.6C21.1396 9.6 21.4896 9.83 21.6496 10.18L22.2096 11.46C22.8496 12.9 24.2696 13.83 25.8496 13.83C25.9896 13.83 26.1396 13.82 26.2796 13.81L27.6696 13.66C27.7096 13.66 27.7396 13.65 27.7796 13.65C28.1296 13.65 28.4496 13.84 28.6296 14.14L29.3796 15.44C29.5696 15.78 29.5496 16.19 29.3196 16.51L28.4896 17.64C27.4596 19.05 27.4596 20.93 28.4896 22.34L29.3196 23.47C29.5496 23.78 29.5696 24.2 29.3796 24.54L28.6296 25.84C28.4596 26.14 28.1296 26.33 27.7796 26.33C27.7396 26.33 27.7096 26.33 27.6696 26.32L26.2796 26.17C26.1396 26.15 25.9896 26.15 25.8496 26.15C24.2696 26.15 22.8496 27.08 22.2096 28.52L21.6496 29.8C21.4896 30.15 21.1396 30.38 20.7496 30.38H19.2396C18.8496 30.38 18.4996 30.15 18.3396 29.8L17.7796 28.52C17.1396 27.08 15.7196 26.15 14.1396 26.15C13.9996 26.15 13.8496 26.16 13.7096 26.17L12.3196 26.32C12.2796 26.32 12.2496 26.33 12.2096 26.33C11.8596 26.33 11.5396 26.14 11.3596 25.84L10.6096 24.54C10.4196 24.2 10.4396 23.79 10.6696 23.47L11.4996 22.34C12.5296 20.93 12.5296 19.05 11.4996 17.64L10.6696 16.51C10.4396 16.2 10.4196 15.78 10.6096 15.44L11.3596 14.14C11.5296 13.84 11.8596 13.65 12.2096 13.65C12.2496 13.65 12.2796 13.65 12.3196 13.66L13.7096 13.81C13.8496 13.83 13.9996 13.83 14.1396 13.83C15.7196 13.83 17.1396 12.9 17.7796 11.46L18.3396 10.18C18.4996 9.83 18.8496 9.6 19.2396 9.6H20.7496ZM20.7496 8.1H19.2396C18.2596 8.1 17.3696 8.68 16.9696 9.58L16.4096 10.86C16.0096 11.77 15.1196 12.34 14.1396 12.34C14.0496 12.34 13.9596 12.34 13.8696 12.33L12.4796 12.18C12.3896 12.17 12.2996 12.17 12.2096 12.17C11.3296 12.17 10.5096 12.64 10.0596 13.41L9.3096 14.71C8.8196 15.56 8.8796 16.62 9.4596 17.41L10.2896 18.54C10.9296 19.41 10.9296 20.6 10.2896 21.47L9.4596 22.6C8.8796 23.39 8.8196 24.45 9.3096 25.3L10.0596 26.6C10.5096 27.37 11.3296 27.84 12.2096 27.84C12.2996 27.84 12.3896 27.84 12.4796 27.83L13.8696 27.68C13.9596 27.67 14.0496 27.67 14.1396 27.67C15.1096 27.67 16.0096 28.24 16.4096 29.15L16.9696 30.43C17.3696 31.33 18.2596 31.91 19.2396 31.91H20.7496C21.7296 31.91 22.6196 31.33 23.0196 30.43L23.5796 29.15C23.9796 28.24 24.8696 27.67 25.8496 27.67C25.9396 27.67 26.0296 27.67 26.1196 27.68L27.5096 27.83C27.5996 27.84 27.6896 27.84 27.7796 27.84C28.6596 27.84 29.4796 27.37 29.9296 26.6L30.6796 25.3C31.1696 24.45 31.1096 23.39 30.5296 22.6L29.6996 21.47C29.0596 20.6 29.0596 19.41 29.6996 18.54L30.5296 17.41C31.1096 16.62 31.1696 15.56 30.6796 14.71L29.9296 13.41C29.4796 12.64 28.6596 12.17 27.7796 12.17C27.6896 12.17 27.5996 12.17 27.5096 12.18L26.1196 12.33C26.0296 12.34 25.9396 12.34 25.8496 12.34C24.8796 12.34 23.9796 11.77 23.5796 10.86L23.0196 9.58C22.6296 8.68 21.7396 8.1 20.7496 8.1Z" fill="black"/>
</svg>
